G04 #@! TF.FileFunction,Legend,Top*
%FSLAX46Y46*%
G04 Gerber Fmt 4.6, Leading zero omitted, Abs format (unit mm)*
G04 Created by KiCad (PCBNEW 4.0.5+dfsg1-4) date Sat Sep 16 12:05:32 2017*
%MOMM*%
%LPD*%
G01*
G04 APERTURE LIST*
%ADD10C,0.100000*%
%ADD11C,0.200000*%
%ADD12C,0.150000*%
G04 APERTURE END LIST*
D10*
D11*
X159979571Y-120608667D02*
X160455762Y-120608667D01*
X159884333Y-120894381D02*
X160217666Y-119894381D01*
X160551000Y-120894381D01*
X160884333Y-120894381D02*
X160884333Y-119894381D01*
X161455762Y-120894381D01*
X161455762Y-119894381D01*
X161789095Y-119894381D02*
X162360524Y-119894381D01*
X162074809Y-120894381D02*
X162074809Y-119894381D01*
X162693857Y-120370571D02*
X163027191Y-120370571D01*
X163170048Y-120894381D02*
X162693857Y-120894381D01*
X162693857Y-119894381D01*
X163170048Y-119894381D01*
X163598619Y-120894381D02*
X163598619Y-119894381D01*
X164170048Y-120894381D01*
X164170048Y-119894381D01*
X164646238Y-120894381D02*
X164646238Y-119894381D01*
X165217667Y-120894381D01*
X165217667Y-119894381D01*
X165646238Y-120608667D02*
X166122429Y-120608667D01*
X165551000Y-120894381D02*
X165884333Y-119894381D01*
X166217667Y-120894381D01*
X130928000Y-96899285D02*
X130880381Y-96994523D01*
X130880381Y-97137380D01*
X130928000Y-97280238D01*
X131023238Y-97375476D01*
X131118476Y-97423095D01*
X131308952Y-97470714D01*
X131451810Y-97470714D01*
X131642286Y-97423095D01*
X131737524Y-97375476D01*
X131832762Y-97280238D01*
X131880381Y-97137380D01*
X131880381Y-97042142D01*
X131832762Y-96899285D01*
X131785143Y-96851666D01*
X131451810Y-96851666D01*
X131451810Y-97042142D01*
X131880381Y-96423095D02*
X130880381Y-96423095D01*
X130880381Y-96042142D01*
X130928000Y-95946904D01*
X130975619Y-95899285D01*
X131070857Y-95851666D01*
X131213714Y-95851666D01*
X131308952Y-95899285D01*
X131356571Y-95946904D01*
X131404190Y-96042142D01*
X131404190Y-96423095D01*
X131832762Y-95470714D02*
X131880381Y-95327857D01*
X131880381Y-95089761D01*
X131832762Y-94994523D01*
X131785143Y-94946904D01*
X131689905Y-94899285D01*
X131594667Y-94899285D01*
X131499429Y-94946904D01*
X131451810Y-94994523D01*
X131404190Y-95089761D01*
X131356571Y-95280238D01*
X131308952Y-95375476D01*
X131261333Y-95423095D01*
X131166095Y-95470714D01*
X131070857Y-95470714D01*
X130975619Y-95423095D01*
X130928000Y-95375476D01*
X130880381Y-95280238D01*
X130880381Y-95042142D01*
X130928000Y-94899285D01*
X131832762Y-91382286D02*
X131880381Y-91239429D01*
X131880381Y-91001333D01*
X131832762Y-90906095D01*
X131785143Y-90858476D01*
X131689905Y-90810857D01*
X131594667Y-90810857D01*
X131499429Y-90858476D01*
X131451810Y-90906095D01*
X131404190Y-91001333D01*
X131356571Y-91191810D01*
X131308952Y-91287048D01*
X131261333Y-91334667D01*
X131166095Y-91382286D01*
X131070857Y-91382286D01*
X130975619Y-91334667D01*
X130928000Y-91287048D01*
X130880381Y-91191810D01*
X130880381Y-90953714D01*
X130928000Y-90810857D01*
X130880381Y-90525143D02*
X130880381Y-89953714D01*
X131880381Y-90239429D02*
X130880381Y-90239429D01*
X131594667Y-89668000D02*
X131594667Y-89191809D01*
X131880381Y-89763238D02*
X130880381Y-89429905D01*
X131880381Y-89096571D01*
X130880381Y-88906095D02*
X130880381Y-88334666D01*
X131880381Y-88620381D02*
X130880381Y-88620381D01*
X130880381Y-88001333D02*
X131689905Y-88001333D01*
X131785143Y-87953714D01*
X131832762Y-87906095D01*
X131880381Y-87810857D01*
X131880381Y-87620380D01*
X131832762Y-87525142D01*
X131785143Y-87477523D01*
X131689905Y-87429904D01*
X130880381Y-87429904D01*
X131832762Y-87001333D02*
X131880381Y-86858476D01*
X131880381Y-86620380D01*
X131832762Y-86525142D01*
X131785143Y-86477523D01*
X131689905Y-86429904D01*
X131594667Y-86429904D01*
X131499429Y-86477523D01*
X131451810Y-86525142D01*
X131404190Y-86620380D01*
X131356571Y-86810857D01*
X131308952Y-86906095D01*
X131261333Y-86953714D01*
X131166095Y-87001333D01*
X131070857Y-87001333D01*
X130975619Y-86953714D01*
X130928000Y-86906095D01*
X130880381Y-86810857D01*
X130880381Y-86572761D01*
X130928000Y-86429904D01*
X131880381Y-84763237D02*
X131880381Y-85239428D01*
X130880381Y-85239428D01*
X131356571Y-84429904D02*
X131356571Y-84096570D01*
X131880381Y-83953713D02*
X131880381Y-84429904D01*
X130880381Y-84429904D01*
X130880381Y-83953713D01*
X131880381Y-83525142D02*
X130880381Y-83525142D01*
X130880381Y-83287047D01*
X130928000Y-83144189D01*
X131023238Y-83048951D01*
X131118476Y-83001332D01*
X131308952Y-82953713D01*
X131451810Y-82953713D01*
X131642286Y-83001332D01*
X131737524Y-83048951D01*
X131832762Y-83144189D01*
X131880381Y-83287047D01*
X131880381Y-83525142D01*
D12*
X151367000Y-141016000D02*
X151367000Y-130856000D01*
X151367000Y-130856000D02*
X131047000Y-130856000D01*
X131047000Y-130856000D02*
X131047000Y-141016000D01*
X131047000Y-141016000D02*
X151367000Y-141016000D01*
X144255000Y-80310000D02*
X144255000Y-72690000D01*
X146795000Y-80310000D02*
X146795000Y-72690000D01*
X151875000Y-80310000D02*
X151875000Y-72690000D01*
X149335000Y-72690000D02*
X149335000Y-80310000D01*
X151875000Y-129840000D02*
X151875000Y-124760000D01*
X151875000Y-124760000D02*
X144255000Y-124760000D01*
X144255000Y-124760000D02*
X144255000Y-129840000D01*
X159495000Y-76500000D02*
X136635000Y-76500000D01*
X136635000Y-76500000D02*
X136635000Y-129840000D01*
X136635000Y-129840000D02*
X159495000Y-129840000D01*
X159495000Y-129840000D02*
X159495000Y-76500000D01*
X174949000Y-98875000D02*
X178449000Y-98875000D01*
X174949000Y-101875000D02*
X174949000Y-98875000D01*
X178449000Y-101875000D02*
X174949000Y-101875000D01*
X178449000Y-98875000D02*
X178449000Y-101875000D01*
X177949000Y-106375000D02*
X177949000Y-102375000D01*
X176449000Y-106375000D02*
X177949000Y-106375000D01*
X176449000Y-102375000D02*
X176449000Y-106375000D01*
X177949000Y-102375000D02*
X176449000Y-102375000D01*
X176449000Y-94375000D02*
X177949000Y-94375000D01*
X177949000Y-98375000D02*
X177949000Y-94375000D01*
X176449000Y-98375000D02*
X177949000Y-98375000D01*
X176449000Y-94375000D02*
X176449000Y-98375000D01*
X163249000Y-89875000D02*
X179649000Y-89875000D01*
X179649000Y-111875000D02*
X163249000Y-111875000D01*
X179649000Y-89875000D02*
X179649000Y-111875000D01*
X163249000Y-111875000D02*
X163249000Y-89875000D01*
X135685000Y-85030000D02*
X132185000Y-85030000D01*
X132185000Y-85030000D02*
X132185000Y-89580000D01*
X132185000Y-89580000D02*
X135685000Y-89580000D01*
X135685000Y-89580000D02*
X135685000Y-85030000D01*
X132735000Y-87305000D02*
X132735000Y-85580000D01*
X132735000Y-85580000D02*
X133460000Y-85580000D01*
X133460000Y-85580000D02*
X133460000Y-85380000D01*
X133460000Y-85380000D02*
X134260000Y-85380000D01*
X134260000Y-85380000D02*
X134260000Y-85580000D01*
X134260000Y-85580000D02*
X135135000Y-85580000D01*
X135135000Y-85580000D02*
X135135000Y-87305000D01*
X132735000Y-87305000D02*
X132735000Y-89030000D01*
X132735000Y-89030000D02*
X133460000Y-89030000D01*
X133460000Y-89030000D02*
X133460000Y-89230000D01*
X133460000Y-89230000D02*
X134260000Y-89230000D01*
X134260000Y-89230000D02*
X134260000Y-89030000D01*
X134260000Y-89030000D02*
X135135000Y-89030000D01*
X135135000Y-89030000D02*
X135135000Y-87305000D01*
X131935000Y-84780000D02*
X132935000Y-84780000D01*
X131935000Y-84780000D02*
X131935000Y-85780000D01*
X135685000Y-91420000D02*
X132185000Y-91420000D01*
X132185000Y-91420000D02*
X132185000Y-100970000D01*
X132185000Y-100970000D02*
X135685000Y-100970000D01*
X135685000Y-100970000D02*
X135685000Y-91420000D01*
X132735000Y-96195000D02*
X132735000Y-91970000D01*
X132735000Y-91970000D02*
X133460000Y-91970000D01*
X133460000Y-91970000D02*
X133460000Y-91770000D01*
X133460000Y-91770000D02*
X134260000Y-91770000D01*
X134260000Y-91770000D02*
X134260000Y-91970000D01*
X134260000Y-91970000D02*
X135135000Y-91970000D01*
X135135000Y-91970000D02*
X135135000Y-96195000D01*
X132735000Y-96195000D02*
X132735000Y-100420000D01*
X132735000Y-100420000D02*
X133460000Y-100420000D01*
X133460000Y-100420000D02*
X133460000Y-100620000D01*
X133460000Y-100620000D02*
X134260000Y-100620000D01*
X134260000Y-100620000D02*
X134260000Y-100420000D01*
X134260000Y-100420000D02*
X135135000Y-100420000D01*
X135135000Y-100420000D02*
X135135000Y-96195000D01*
X131935000Y-91170000D02*
X132935000Y-91170000D01*
X131935000Y-91170000D02*
X131935000Y-92170000D01*
X159184000Y-132445000D02*
X159184000Y-140443000D01*
X159324000Y-132450000D02*
X159324000Y-140438000D01*
X159464000Y-132460000D02*
X159464000Y-140428000D01*
X159604000Y-132475000D02*
X159604000Y-140413000D01*
X159744000Y-132495000D02*
X159744000Y-140393000D01*
X159884000Y-132520000D02*
X159884000Y-140368000D01*
X160024000Y-132550000D02*
X160024000Y-136271000D01*
X160024000Y-136617000D02*
X160024000Y-140338000D01*
X160164000Y-132586000D02*
X160164000Y-135909000D01*
X160164000Y-136979000D02*
X160164000Y-140302000D01*
X160304000Y-132627000D02*
X160304000Y-135735000D01*
X160304000Y-137153000D02*
X160304000Y-140261000D01*
X160444000Y-132673000D02*
X160444000Y-135619000D01*
X160444000Y-137269000D02*
X160444000Y-140215000D01*
X160584000Y-132726000D02*
X160584000Y-135539000D01*
X160584000Y-137349000D02*
X160584000Y-140162000D01*
X160724000Y-132785000D02*
X160724000Y-135485000D01*
X160724000Y-137403000D02*
X160724000Y-140103000D01*
X160864000Y-132850000D02*
X160864000Y-135455000D01*
X160864000Y-137433000D02*
X160864000Y-140038000D01*
X161004000Y-132921000D02*
X161004000Y-135444000D01*
X161004000Y-137444000D02*
X161004000Y-139967000D01*
X161144000Y-133000000D02*
X161144000Y-135453000D01*
X161144000Y-137435000D02*
X161144000Y-139888000D01*
X161284000Y-133087000D02*
X161284000Y-135483000D01*
X161284000Y-137405000D02*
X161284000Y-139801000D01*
X161424000Y-133182000D02*
X161424000Y-135534000D01*
X161424000Y-137354000D02*
X161424000Y-139706000D01*
X161564000Y-133286000D02*
X161564000Y-135612000D01*
X161564000Y-137276000D02*
X161564000Y-139602000D01*
X161704000Y-133400000D02*
X161704000Y-135725000D01*
X161704000Y-137163000D02*
X161704000Y-139488000D01*
X161844000Y-133525000D02*
X161844000Y-135894000D01*
X161844000Y-136994000D02*
X161844000Y-139363000D01*
X161984000Y-133663000D02*
X161984000Y-136222000D01*
X161984000Y-136666000D02*
X161984000Y-139225000D01*
X162124000Y-133815000D02*
X162124000Y-139073000D01*
X162264000Y-133985000D02*
X162264000Y-138903000D01*
X162404000Y-134176000D02*
X162404000Y-138712000D01*
X162544000Y-134394000D02*
X162544000Y-138494000D01*
X162684000Y-134650000D02*
X162684000Y-138238000D01*
X162824000Y-134961000D02*
X162824000Y-137927000D01*
X162964000Y-135377000D02*
X162964000Y-137511000D01*
X163104000Y-136244000D02*
X163104000Y-136644000D01*
X162009000Y-136444000D02*
G75*
G03X162009000Y-136444000I-1000000J0D01*
G01*
X163146500Y-136444000D02*
G75*
G03X163146500Y-136444000I-4037500J0D01*
G01*
X162425000Y-101630000D02*
X162425000Y-99630000D01*
X160375000Y-99630000D02*
X160375000Y-101630000D01*
X167877000Y-84374000D02*
X179307000Y-84374000D01*
X179307000Y-74214000D02*
X167877000Y-74214000D01*
X167877000Y-74214000D02*
X167877000Y-84374000D01*
X179307000Y-84374000D02*
X179307000Y-74214000D01*
X133020000Y-80770000D02*
X133020000Y-78770000D01*
X135170000Y-78770000D02*
X135170000Y-80770000D01*
X162559000Y-76949000D02*
X164559000Y-76949000D01*
X164559000Y-79099000D02*
X162559000Y-79099000D01*
X162559000Y-74409000D02*
X164559000Y-74409000D01*
X164559000Y-76559000D02*
X162559000Y-76559000D01*
X161527000Y-145588000D02*
G75*
G03X161527000Y-145588000I-3810000J0D01*
G01*
X153142460Y-134157480D02*
X153142460Y-132760480D01*
X153142460Y-138602480D02*
X153142460Y-140126480D01*
X152380460Y-138221480D02*
X153904460Y-138221480D01*
X152380460Y-138475480D02*
X153904460Y-138475480D01*
X153142460Y-138729480D02*
X153904460Y-138729480D01*
X153904460Y-138729480D02*
X153904460Y-134157480D01*
X153904460Y-134157480D02*
X152380460Y-134157480D01*
X152380460Y-134157480D02*
X152380460Y-138729480D01*
X152380460Y-138729480D02*
X153142460Y-138729480D01*
X175037000Y-87177000D02*
X177037000Y-87177000D01*
X177037000Y-85127000D02*
X175037000Y-85127000D01*
X179570000Y-120204000D02*
X179570000Y-118204000D01*
X177520000Y-118204000D02*
X177520000Y-120204000D01*
X173417000Y-138975000D02*
X171417000Y-138975000D01*
X171417000Y-141025000D02*
X173417000Y-141025000D01*
X177520000Y-125824000D02*
X177520000Y-127824000D01*
X179570000Y-127824000D02*
X179570000Y-125824000D01*
X166870000Y-134904000D02*
X166870000Y-132904000D01*
X164820000Y-132904000D02*
X164820000Y-134904000D01*
X177520000Y-133380000D02*
X177520000Y-135380000D01*
X179570000Y-135380000D02*
X179570000Y-133380000D01*
X162527000Y-85145000D02*
X164527000Y-85145000D01*
X164527000Y-83095000D02*
X162527000Y-83095000D01*
X162425000Y-94010000D02*
X162425000Y-92010000D01*
X160375000Y-92010000D02*
X160375000Y-94010000D01*
X135120000Y-106615000D02*
X135120000Y-104615000D01*
X133070000Y-104615000D02*
X133070000Y-106615000D01*
X173211000Y-137968000D02*
G75*
G03X171179000Y-137968000I-1016000J0D01*
G01*
X171179000Y-138476000D02*
X171179000Y-137968000D01*
X173211000Y-138476000D02*
X173211000Y-137968000D01*
X175870000Y-138485000D02*
X175870000Y-137215000D01*
X168520000Y-138485000D02*
X168520000Y-137215000D01*
X168520000Y-116115000D02*
X168520000Y-117385000D01*
X175870000Y-116115000D02*
X175870000Y-117385000D01*
X175870000Y-138485000D02*
X168520000Y-138485000D01*
X175870000Y-116115000D02*
X168520000Y-116115000D01*
X175870000Y-137215000D02*
X176805000Y-137215000D01*
X149335000Y-153970000D02*
X149335000Y-141905000D01*
X149335000Y-141905000D02*
X134095000Y-141905000D01*
X134095000Y-141905000D02*
X134095000Y-153970000D01*
X177275000Y-153970000D02*
X177275000Y-141905000D01*
X177275000Y-141905000D02*
X162035000Y-141905000D01*
X162035000Y-141905000D02*
X162035000Y-153970000D01*
D11*
X138151286Y-137610762D02*
X138294143Y-137658381D01*
X138532239Y-137658381D01*
X138627477Y-137610762D01*
X138675096Y-137563143D01*
X138722715Y-137467905D01*
X138722715Y-137372667D01*
X138675096Y-137277429D01*
X138627477Y-137229810D01*
X138532239Y-137182190D01*
X138341762Y-137134571D01*
X138246524Y-137086952D01*
X138198905Y-137039333D01*
X138151286Y-136944095D01*
X138151286Y-136848857D01*
X138198905Y-136753619D01*
X138246524Y-136706000D01*
X138341762Y-136658381D01*
X138579858Y-136658381D01*
X138722715Y-136706000D01*
X139151286Y-136658381D02*
X139151286Y-137467905D01*
X139198905Y-137563143D01*
X139246524Y-137610762D01*
X139341762Y-137658381D01*
X139532239Y-137658381D01*
X139627477Y-137610762D01*
X139675096Y-137563143D01*
X139722715Y-137467905D01*
X139722715Y-136658381D01*
X140198905Y-137658381D02*
X140198905Y-136658381D01*
X140579858Y-136658381D01*
X140675096Y-136706000D01*
X140722715Y-136753619D01*
X140770334Y-136848857D01*
X140770334Y-136991714D01*
X140722715Y-137086952D01*
X140675096Y-137134571D01*
X140579858Y-137182190D01*
X140198905Y-137182190D01*
X141722715Y-137658381D02*
X141151286Y-137658381D01*
X141437000Y-137658381D02*
X141437000Y-136658381D01*
X141341762Y-136801238D01*
X141246524Y-136896476D01*
X141151286Y-136944095D01*
X147303095Y-87382381D02*
X147303095Y-88191905D01*
X147350714Y-88287143D01*
X147398333Y-88334762D01*
X147493571Y-88382381D01*
X147684048Y-88382381D01*
X147779286Y-88334762D01*
X147826905Y-88287143D01*
X147874524Y-88191905D01*
X147874524Y-87382381D01*
X148874524Y-88382381D02*
X148303095Y-88382381D01*
X148588809Y-88382381D02*
X148588809Y-87382381D01*
X148493571Y-87525238D01*
X148398333Y-87620476D01*
X148303095Y-87668095D01*
X170901381Y-101636905D02*
X171710905Y-101636905D01*
X171806143Y-101589286D01*
X171853762Y-101541667D01*
X171901381Y-101446429D01*
X171901381Y-101255952D01*
X171853762Y-101160714D01*
X171806143Y-101113095D01*
X171710905Y-101065476D01*
X170901381Y-101065476D01*
X170996619Y-100636905D02*
X170949000Y-100589286D01*
X170901381Y-100494048D01*
X170901381Y-100255952D01*
X170949000Y-100160714D01*
X170996619Y-100113095D01*
X171091857Y-100065476D01*
X171187095Y-100065476D01*
X171329952Y-100113095D01*
X171901381Y-100684524D01*
X171901381Y-100065476D01*
X133356905Y-84699381D02*
X133356905Y-83699381D01*
X133595000Y-83699381D01*
X133737858Y-83747000D01*
X133833096Y-83842238D01*
X133880715Y-83937476D01*
X133928334Y-84127952D01*
X133928334Y-84270810D01*
X133880715Y-84461286D01*
X133833096Y-84556524D01*
X133737858Y-84651762D01*
X133595000Y-84699381D01*
X133356905Y-84699381D01*
X134880715Y-84699381D02*
X134309286Y-84699381D01*
X134595000Y-84699381D02*
X134595000Y-83699381D01*
X134499762Y-83842238D01*
X134404524Y-83937476D01*
X134309286Y-83985095D01*
X133333095Y-90049381D02*
X133333095Y-90858905D01*
X133380714Y-90954143D01*
X133428333Y-91001762D01*
X133523571Y-91049381D01*
X133714048Y-91049381D01*
X133809286Y-91001762D01*
X133856905Y-90954143D01*
X133904524Y-90858905D01*
X133904524Y-90049381D01*
X134285476Y-90049381D02*
X134904524Y-90049381D01*
X134571190Y-90430333D01*
X134714048Y-90430333D01*
X134809286Y-90477952D01*
X134856905Y-90525571D01*
X134904524Y-90620810D01*
X134904524Y-90858905D01*
X134856905Y-90954143D01*
X134809286Y-91001762D01*
X134714048Y-91049381D01*
X134428333Y-91049381D01*
X134333095Y-91001762D01*
X134285476Y-90954143D01*
X158942334Y-131501143D02*
X158894715Y-131548762D01*
X158751858Y-131596381D01*
X158656620Y-131596381D01*
X158513762Y-131548762D01*
X158418524Y-131453524D01*
X158370905Y-131358286D01*
X158323286Y-131167810D01*
X158323286Y-131024952D01*
X158370905Y-130834476D01*
X158418524Y-130739238D01*
X158513762Y-130644000D01*
X158656620Y-130596381D01*
X158751858Y-130596381D01*
X158894715Y-130644000D01*
X158942334Y-130691619D01*
X159847096Y-130596381D02*
X159370905Y-130596381D01*
X159323286Y-131072571D01*
X159370905Y-131024952D01*
X159466143Y-130977333D01*
X159704239Y-130977333D01*
X159799477Y-131024952D01*
X159847096Y-131072571D01*
X159894715Y-131167810D01*
X159894715Y-131405905D01*
X159847096Y-131501143D01*
X159799477Y-131548762D01*
X159704239Y-131596381D01*
X159466143Y-131596381D01*
X159370905Y-131548762D01*
X159323286Y-131501143D01*
X161233334Y-100987143D02*
X161185715Y-101034762D01*
X161042858Y-101082381D01*
X160947620Y-101082381D01*
X160804762Y-101034762D01*
X160709524Y-100939524D01*
X160661905Y-100844286D01*
X160614286Y-100653810D01*
X160614286Y-100510952D01*
X160661905Y-100320476D01*
X160709524Y-100225238D01*
X160804762Y-100130000D01*
X160947620Y-100082381D01*
X161042858Y-100082381D01*
X161185715Y-100130000D01*
X161233334Y-100177619D01*
X161614286Y-100177619D02*
X161661905Y-100130000D01*
X161757143Y-100082381D01*
X161995239Y-100082381D01*
X162090477Y-100130000D01*
X162138096Y-100177619D01*
X162185715Y-100272857D01*
X162185715Y-100368095D01*
X162138096Y-100510952D01*
X161566667Y-101082381D01*
X162185715Y-101082381D01*
X170345571Y-81151142D02*
X170393190Y-81008285D01*
X170440810Y-80960666D01*
X170536048Y-80913047D01*
X170678905Y-80913047D01*
X170774143Y-80960666D01*
X170821762Y-81008285D01*
X170869381Y-81103523D01*
X170869381Y-81484476D01*
X169869381Y-81484476D01*
X169869381Y-81151142D01*
X169917000Y-81055904D01*
X169964619Y-81008285D01*
X170059857Y-80960666D01*
X170155095Y-80960666D01*
X170250333Y-81008285D01*
X170297952Y-81055904D01*
X170345571Y-81151142D01*
X170345571Y-81484476D01*
X170583667Y-80532095D02*
X170583667Y-80055904D01*
X170869381Y-80627333D02*
X169869381Y-80294000D01*
X170869381Y-79960666D01*
X170869381Y-79055904D02*
X170393190Y-79389238D01*
X170869381Y-79627333D02*
X169869381Y-79627333D01*
X169869381Y-79246380D01*
X169917000Y-79151142D01*
X169964619Y-79103523D01*
X170059857Y-79055904D01*
X170202714Y-79055904D01*
X170297952Y-79103523D01*
X170345571Y-79151142D01*
X170393190Y-79246380D01*
X170393190Y-79627333D01*
X169869381Y-78436857D02*
X169869381Y-78246380D01*
X169917000Y-78151142D01*
X170012238Y-78055904D01*
X170202714Y-78008285D01*
X170536048Y-78008285D01*
X170726524Y-78055904D01*
X170821762Y-78151142D01*
X170869381Y-78246380D01*
X170869381Y-78436857D01*
X170821762Y-78532095D01*
X170726524Y-78627333D01*
X170536048Y-78674952D01*
X170202714Y-78674952D01*
X170012238Y-78627333D01*
X169917000Y-78532095D01*
X169869381Y-78436857D01*
X170869381Y-77055904D02*
X170869381Y-77627333D01*
X170869381Y-77341619D02*
X169869381Y-77341619D01*
X170012238Y-77436857D01*
X170107476Y-77532095D01*
X170155095Y-77627333D01*
X133928334Y-80222381D02*
X133595000Y-79746190D01*
X133356905Y-80222381D02*
X133356905Y-79222381D01*
X133737858Y-79222381D01*
X133833096Y-79270000D01*
X133880715Y-79317619D01*
X133928334Y-79412857D01*
X133928334Y-79555714D01*
X133880715Y-79650952D01*
X133833096Y-79698571D01*
X133737858Y-79746190D01*
X133356905Y-79746190D01*
X134880715Y-80222381D02*
X134309286Y-80222381D01*
X134595000Y-80222381D02*
X134595000Y-79222381D01*
X134499762Y-79365238D01*
X134404524Y-79460476D01*
X134309286Y-79508095D01*
X164011381Y-78190666D02*
X163535190Y-78524000D01*
X164011381Y-78762095D02*
X163011381Y-78762095D01*
X163011381Y-78381142D01*
X163059000Y-78285904D01*
X163106619Y-78238285D01*
X163201857Y-78190666D01*
X163344714Y-78190666D01*
X163439952Y-78238285D01*
X163487571Y-78285904D01*
X163535190Y-78381142D01*
X163535190Y-78762095D01*
X163011381Y-77857333D02*
X163011381Y-77238285D01*
X163392333Y-77571619D01*
X163392333Y-77428761D01*
X163439952Y-77333523D01*
X163487571Y-77285904D01*
X163582810Y-77238285D01*
X163820905Y-77238285D01*
X163916143Y-77285904D01*
X163963762Y-77333523D01*
X164011381Y-77428761D01*
X164011381Y-77714476D01*
X163963762Y-77809714D01*
X163916143Y-77857333D01*
X164011381Y-75650666D02*
X163535190Y-75984000D01*
X164011381Y-76222095D02*
X163011381Y-76222095D01*
X163011381Y-75841142D01*
X163059000Y-75745904D01*
X163106619Y-75698285D01*
X163201857Y-75650666D01*
X163344714Y-75650666D01*
X163439952Y-75698285D01*
X163487571Y-75745904D01*
X163535190Y-75841142D01*
X163535190Y-76222095D01*
X163106619Y-75269714D02*
X163059000Y-75222095D01*
X163011381Y-75126857D01*
X163011381Y-74888761D01*
X163059000Y-74793523D01*
X163106619Y-74745904D01*
X163201857Y-74698285D01*
X163297095Y-74698285D01*
X163439952Y-74745904D01*
X164011381Y-75317333D01*
X164011381Y-74698285D01*
X157550334Y-144041401D02*
X157074143Y-144041401D01*
X157074143Y-143041401D01*
X158407477Y-144041401D02*
X157836048Y-144041401D01*
X158121762Y-144041401D02*
X158121762Y-143041401D01*
X158026524Y-143184258D01*
X157931286Y-143279496D01*
X157836048Y-143327115D01*
X153597381Y-136831575D02*
X152597381Y-136831575D01*
X152597381Y-136593480D01*
X152645000Y-136450622D01*
X152740238Y-136355384D01*
X152835476Y-136307765D01*
X153025952Y-136260146D01*
X153168810Y-136260146D01*
X153359286Y-136307765D01*
X153454524Y-136355384D01*
X153549762Y-136450622D01*
X153597381Y-136593480D01*
X153597381Y-136831575D01*
X152692619Y-135879194D02*
X152645000Y-135831575D01*
X152597381Y-135736337D01*
X152597381Y-135498241D01*
X152645000Y-135403003D01*
X152692619Y-135355384D01*
X152787857Y-135307765D01*
X152883095Y-135307765D01*
X153025952Y-135355384D01*
X153597381Y-135926813D01*
X153597381Y-135307765D01*
X176394143Y-86667857D02*
X176441762Y-86715476D01*
X176489381Y-86858333D01*
X176489381Y-86953571D01*
X176441762Y-87096429D01*
X176346524Y-87191667D01*
X176251286Y-87239286D01*
X176060810Y-87286905D01*
X175917952Y-87286905D01*
X175727476Y-87239286D01*
X175632238Y-87191667D01*
X175537000Y-87096429D01*
X175489381Y-86953571D01*
X175489381Y-86858333D01*
X175537000Y-86715476D01*
X175584619Y-86667857D01*
X176489381Y-85715476D02*
X176489381Y-86286905D01*
X176489381Y-86001191D02*
X175489381Y-86001191D01*
X175632238Y-86096429D01*
X175727476Y-86191667D01*
X175775095Y-86286905D01*
X176489381Y-84763095D02*
X176489381Y-85334524D01*
X176489381Y-85048810D02*
X175489381Y-85048810D01*
X175632238Y-85144048D01*
X175727476Y-85239286D01*
X175775095Y-85334524D01*
X177902143Y-119561143D02*
X177854524Y-119608762D01*
X177711667Y-119656381D01*
X177616429Y-119656381D01*
X177473571Y-119608762D01*
X177378333Y-119513524D01*
X177330714Y-119418286D01*
X177283095Y-119227810D01*
X177283095Y-119084952D01*
X177330714Y-118894476D01*
X177378333Y-118799238D01*
X177473571Y-118704000D01*
X177616429Y-118656381D01*
X177711667Y-118656381D01*
X177854524Y-118704000D01*
X177902143Y-118751619D01*
X178854524Y-119656381D02*
X178283095Y-119656381D01*
X178568809Y-119656381D02*
X178568809Y-118656381D01*
X178473571Y-118799238D01*
X178378333Y-118894476D01*
X178283095Y-118942095D01*
X179473571Y-118656381D02*
X179568810Y-118656381D01*
X179664048Y-118704000D01*
X179711667Y-118751619D01*
X179759286Y-118846857D01*
X179806905Y-119037333D01*
X179806905Y-119275429D01*
X179759286Y-119465905D01*
X179711667Y-119561143D01*
X179664048Y-119608762D01*
X179568810Y-119656381D01*
X179473571Y-119656381D01*
X179378333Y-119608762D01*
X179330714Y-119561143D01*
X179283095Y-119465905D01*
X179235476Y-119275429D01*
X179235476Y-119037333D01*
X179283095Y-118846857D01*
X179330714Y-118751619D01*
X179378333Y-118704000D01*
X179473571Y-118656381D01*
X172774143Y-140166666D02*
X172821762Y-140214285D01*
X172869381Y-140357142D01*
X172869381Y-140452380D01*
X172821762Y-140595238D01*
X172726524Y-140690476D01*
X172631286Y-140738095D01*
X172440810Y-140785714D01*
X172297952Y-140785714D01*
X172107476Y-140738095D01*
X172012238Y-140690476D01*
X171917000Y-140595238D01*
X171869381Y-140452380D01*
X171869381Y-140357142D01*
X171917000Y-140214285D01*
X171964619Y-140166666D01*
X172869381Y-139690476D02*
X172869381Y-139500000D01*
X172821762Y-139404761D01*
X172774143Y-139357142D01*
X172631286Y-139261904D01*
X172440810Y-139214285D01*
X172059857Y-139214285D01*
X171964619Y-139261904D01*
X171917000Y-139309523D01*
X171869381Y-139404761D01*
X171869381Y-139595238D01*
X171917000Y-139690476D01*
X171964619Y-139738095D01*
X172059857Y-139785714D01*
X172297952Y-139785714D01*
X172393190Y-139738095D01*
X172440810Y-139690476D01*
X172488429Y-139595238D01*
X172488429Y-139404761D01*
X172440810Y-139309523D01*
X172393190Y-139261904D01*
X172297952Y-139214285D01*
X178378334Y-127181143D02*
X178330715Y-127228762D01*
X178187858Y-127276381D01*
X178092620Y-127276381D01*
X177949762Y-127228762D01*
X177854524Y-127133524D01*
X177806905Y-127038286D01*
X177759286Y-126847810D01*
X177759286Y-126704952D01*
X177806905Y-126514476D01*
X177854524Y-126419238D01*
X177949762Y-126324000D01*
X178092620Y-126276381D01*
X178187858Y-126276381D01*
X178330715Y-126324000D01*
X178378334Y-126371619D01*
X178949762Y-126704952D02*
X178854524Y-126657333D01*
X178806905Y-126609714D01*
X178759286Y-126514476D01*
X178759286Y-126466857D01*
X178806905Y-126371619D01*
X178854524Y-126324000D01*
X178949762Y-126276381D01*
X179140239Y-126276381D01*
X179235477Y-126324000D01*
X179283096Y-126371619D01*
X179330715Y-126466857D01*
X179330715Y-126514476D01*
X179283096Y-126609714D01*
X179235477Y-126657333D01*
X179140239Y-126704952D01*
X178949762Y-126704952D01*
X178854524Y-126752571D01*
X178806905Y-126800190D01*
X178759286Y-126895429D01*
X178759286Y-127085905D01*
X178806905Y-127181143D01*
X178854524Y-127228762D01*
X178949762Y-127276381D01*
X179140239Y-127276381D01*
X179235477Y-127228762D01*
X179283096Y-127181143D01*
X179330715Y-127085905D01*
X179330715Y-126895429D01*
X179283096Y-126800190D01*
X179235477Y-126752571D01*
X179140239Y-126704952D01*
X165678334Y-134261143D02*
X165630715Y-134308762D01*
X165487858Y-134356381D01*
X165392620Y-134356381D01*
X165249762Y-134308762D01*
X165154524Y-134213524D01*
X165106905Y-134118286D01*
X165059286Y-133927810D01*
X165059286Y-133784952D01*
X165106905Y-133594476D01*
X165154524Y-133499238D01*
X165249762Y-133404000D01*
X165392620Y-133356381D01*
X165487858Y-133356381D01*
X165630715Y-133404000D01*
X165678334Y-133451619D01*
X166011667Y-133356381D02*
X166678334Y-133356381D01*
X166249762Y-134356381D01*
X178378334Y-134737143D02*
X178330715Y-134784762D01*
X178187858Y-134832381D01*
X178092620Y-134832381D01*
X177949762Y-134784762D01*
X177854524Y-134689524D01*
X177806905Y-134594286D01*
X177759286Y-134403810D01*
X177759286Y-134260952D01*
X177806905Y-134070476D01*
X177854524Y-133975238D01*
X177949762Y-133880000D01*
X178092620Y-133832381D01*
X178187858Y-133832381D01*
X178330715Y-133880000D01*
X178378334Y-133927619D01*
X179235477Y-133832381D02*
X179045000Y-133832381D01*
X178949762Y-133880000D01*
X178902143Y-133927619D01*
X178806905Y-134070476D01*
X178759286Y-134260952D01*
X178759286Y-134641905D01*
X178806905Y-134737143D01*
X178854524Y-134784762D01*
X178949762Y-134832381D01*
X179140239Y-134832381D01*
X179235477Y-134784762D01*
X179283096Y-134737143D01*
X179330715Y-134641905D01*
X179330715Y-134403810D01*
X179283096Y-134308571D01*
X179235477Y-134260952D01*
X179140239Y-134213333D01*
X178949762Y-134213333D01*
X178854524Y-134260952D01*
X178806905Y-134308571D01*
X178759286Y-134403810D01*
X163884143Y-84286666D02*
X163931762Y-84334285D01*
X163979381Y-84477142D01*
X163979381Y-84572380D01*
X163931762Y-84715238D01*
X163836524Y-84810476D01*
X163741286Y-84858095D01*
X163550810Y-84905714D01*
X163407952Y-84905714D01*
X163217476Y-84858095D01*
X163122238Y-84810476D01*
X163027000Y-84715238D01*
X162979381Y-84572380D01*
X162979381Y-84477142D01*
X163027000Y-84334285D01*
X163074619Y-84286666D01*
X163312714Y-83429523D02*
X163979381Y-83429523D01*
X162931762Y-83667619D02*
X163646048Y-83905714D01*
X163646048Y-83286666D01*
X161233334Y-93367143D02*
X161185715Y-93414762D01*
X161042858Y-93462381D01*
X160947620Y-93462381D01*
X160804762Y-93414762D01*
X160709524Y-93319524D01*
X160661905Y-93224286D01*
X160614286Y-93033810D01*
X160614286Y-92890952D01*
X160661905Y-92700476D01*
X160709524Y-92605238D01*
X160804762Y-92510000D01*
X160947620Y-92462381D01*
X161042858Y-92462381D01*
X161185715Y-92510000D01*
X161233334Y-92557619D01*
X161566667Y-92462381D02*
X162185715Y-92462381D01*
X161852381Y-92843333D01*
X161995239Y-92843333D01*
X162090477Y-92890952D01*
X162138096Y-92938571D01*
X162185715Y-93033810D01*
X162185715Y-93271905D01*
X162138096Y-93367143D01*
X162090477Y-93414762D01*
X161995239Y-93462381D01*
X161709524Y-93462381D01*
X161614286Y-93414762D01*
X161566667Y-93367143D01*
X134452143Y-105781666D02*
X134499762Y-105829285D01*
X134547381Y-105972142D01*
X134547381Y-106067380D01*
X134499762Y-106210238D01*
X134404524Y-106305476D01*
X134309286Y-106353095D01*
X134118810Y-106400714D01*
X133975952Y-106400714D01*
X133785476Y-106353095D01*
X133690238Y-106305476D01*
X133595000Y-106210238D01*
X133547381Y-106067380D01*
X133547381Y-105972142D01*
X133595000Y-105829285D01*
X133642619Y-105781666D01*
X134547381Y-104829285D02*
X134547381Y-105400714D01*
X134547381Y-105115000D02*
X133547381Y-105115000D01*
X133690238Y-105210238D01*
X133785476Y-105305476D01*
X133833095Y-105400714D01*
X162479381Y-118719333D02*
X163193667Y-118719333D01*
X163336524Y-118766953D01*
X163431762Y-118862191D01*
X163479381Y-119005048D01*
X163479381Y-119100286D01*
X163479381Y-117719333D02*
X163479381Y-118290762D01*
X163479381Y-118005048D02*
X162479381Y-118005048D01*
X162622238Y-118100286D01*
X162717476Y-118195524D01*
X162765095Y-118290762D01*
X171433095Y-129673381D02*
X171433095Y-130482905D01*
X171480714Y-130578143D01*
X171528333Y-130625762D01*
X171623571Y-130673381D01*
X171814048Y-130673381D01*
X171909286Y-130625762D01*
X171956905Y-130578143D01*
X172004524Y-130482905D01*
X172004524Y-129673381D01*
X172909286Y-130006714D02*
X172909286Y-130673381D01*
X172671190Y-129625762D02*
X172433095Y-130340048D01*
X173052143Y-130340048D01*
D10*
X141548334Y-151791190D02*
X141548334Y-152148333D01*
X141524524Y-152219762D01*
X141476905Y-152267381D01*
X141405477Y-152291190D01*
X141357858Y-152291190D01*
X141738810Y-151791190D02*
X142048333Y-151791190D01*
X141881667Y-151981667D01*
X141953095Y-151981667D01*
X142000714Y-152005476D01*
X142024524Y-152029286D01*
X142048333Y-152076905D01*
X142048333Y-152195952D01*
X142024524Y-152243571D01*
X142000714Y-152267381D01*
X141953095Y-152291190D01*
X141810238Y-152291190D01*
X141762619Y-152267381D01*
X141738810Y-152243571D01*
X169488334Y-151791190D02*
X169488334Y-152148333D01*
X169464524Y-152219762D01*
X169416905Y-152267381D01*
X169345477Y-152291190D01*
X169297858Y-152291190D01*
X169702619Y-151838810D02*
X169726429Y-151815000D01*
X169774048Y-151791190D01*
X169893095Y-151791190D01*
X169940714Y-151815000D01*
X169964524Y-151838810D01*
X169988333Y-151886429D01*
X169988333Y-151934048D01*
X169964524Y-152005476D01*
X169678810Y-152291190D01*
X169988333Y-152291190D01*
M02*
