G04 #@! TF.FileFunction,Legend,Bot*
%FSLAX46Y46*%
G04 Gerber Fmt 4.6, Leading zero omitted, Abs format (unit mm)*
G04 Created by KiCad (PCBNEW 4.0.5+dfsg1-4) date Sat Sep 16 12:05:32 2017*
%MOMM*%
%LPD*%
G01*
G04 APERTURE LIST*
%ADD10C,0.100000*%
%ADD11C,0.200000*%
%ADD12C,0.400000*%
%ADD13C,0.300000*%
%ADD14C,0.010000*%
G04 APERTURE END LIST*
D10*
D11*
X150699571Y-78595429D02*
X150747190Y-78738286D01*
X150794810Y-78785905D01*
X150890048Y-78833524D01*
X151032905Y-78833524D01*
X151128143Y-78785905D01*
X151175762Y-78738286D01*
X151223381Y-78643048D01*
X151223381Y-78262095D01*
X150223381Y-78262095D01*
X150223381Y-78595429D01*
X150271000Y-78690667D01*
X150318619Y-78738286D01*
X150413857Y-78785905D01*
X150509095Y-78785905D01*
X150604333Y-78738286D01*
X150651952Y-78690667D01*
X150699571Y-78595429D01*
X150699571Y-78262095D01*
X151223381Y-79690667D02*
X150699571Y-79690667D01*
X150604333Y-79643048D01*
X150556714Y-79547810D01*
X150556714Y-79357333D01*
X150604333Y-79262095D01*
X151175762Y-79690667D02*
X151223381Y-79595429D01*
X151223381Y-79357333D01*
X151175762Y-79262095D01*
X151080524Y-79214476D01*
X150985286Y-79214476D01*
X150890048Y-79262095D01*
X150842429Y-79357333D01*
X150842429Y-79595429D01*
X150794810Y-79690667D01*
X151175762Y-80119238D02*
X151223381Y-80214476D01*
X151223381Y-80404952D01*
X151175762Y-80500191D01*
X151080524Y-80547810D01*
X151032905Y-80547810D01*
X150937667Y-80500191D01*
X150890048Y-80404952D01*
X150890048Y-80262095D01*
X150842429Y-80166857D01*
X150747190Y-80119238D01*
X150699571Y-80119238D01*
X150604333Y-80166857D01*
X150556714Y-80262095D01*
X150556714Y-80404952D01*
X150604333Y-80500191D01*
X151175762Y-81357334D02*
X151223381Y-81262096D01*
X151223381Y-81071619D01*
X151175762Y-80976381D01*
X151080524Y-80928762D01*
X150699571Y-80928762D01*
X150604333Y-80976381D01*
X150556714Y-81071619D01*
X150556714Y-81262096D01*
X150604333Y-81357334D01*
X150699571Y-81404953D01*
X150794810Y-81404953D01*
X150890048Y-80928762D01*
X151223381Y-82262096D02*
X150223381Y-82262096D01*
X151175762Y-82262096D02*
X151223381Y-82166858D01*
X151223381Y-81976381D01*
X151175762Y-81881143D01*
X151128143Y-81833524D01*
X151032905Y-81785905D01*
X150747190Y-81785905D01*
X150651952Y-81833524D01*
X150604333Y-81881143D01*
X150556714Y-81976381D01*
X150556714Y-82166858D01*
X150604333Y-82262096D01*
X151223381Y-83643048D02*
X151175762Y-83547810D01*
X151128143Y-83500191D01*
X151032905Y-83452572D01*
X150747190Y-83452572D01*
X150651952Y-83500191D01*
X150604333Y-83547810D01*
X150556714Y-83643048D01*
X150556714Y-83785906D01*
X150604333Y-83881144D01*
X150651952Y-83928763D01*
X150747190Y-83976382D01*
X151032905Y-83976382D01*
X151128143Y-83928763D01*
X151175762Y-83881144D01*
X151223381Y-83785906D01*
X151223381Y-83643048D01*
X150556714Y-84404953D02*
X151223381Y-84404953D01*
X150651952Y-84404953D02*
X150604333Y-84452572D01*
X150556714Y-84547810D01*
X150556714Y-84690668D01*
X150604333Y-84785906D01*
X150699571Y-84833525D01*
X151223381Y-84833525D01*
X151223381Y-86500192D02*
X150223381Y-86500192D01*
X151175762Y-86500192D02*
X151223381Y-86404954D01*
X151223381Y-86214477D01*
X151175762Y-86119239D01*
X151128143Y-86071620D01*
X151032905Y-86024001D01*
X150747190Y-86024001D01*
X150651952Y-86071620D01*
X150604333Y-86119239D01*
X150556714Y-86214477D01*
X150556714Y-86404954D01*
X150604333Y-86500192D01*
X151175762Y-87357335D02*
X151223381Y-87262097D01*
X151223381Y-87071620D01*
X151175762Y-86976382D01*
X151080524Y-86928763D01*
X150699571Y-86928763D01*
X150604333Y-86976382D01*
X150556714Y-87071620D01*
X150556714Y-87262097D01*
X150604333Y-87357335D01*
X150699571Y-87404954D01*
X150794810Y-87404954D01*
X150890048Y-86928763D01*
X151175762Y-87785906D02*
X151223381Y-87881144D01*
X151223381Y-88071620D01*
X151175762Y-88166859D01*
X151080524Y-88214478D01*
X151032905Y-88214478D01*
X150937667Y-88166859D01*
X150890048Y-88071620D01*
X150890048Y-87928763D01*
X150842429Y-87833525D01*
X150747190Y-87785906D01*
X150699571Y-87785906D01*
X150604333Y-87833525D01*
X150556714Y-87928763D01*
X150556714Y-88071620D01*
X150604333Y-88166859D01*
X151223381Y-88643049D02*
X150556714Y-88643049D01*
X150223381Y-88643049D02*
X150271000Y-88595430D01*
X150318619Y-88643049D01*
X150271000Y-88690668D01*
X150223381Y-88643049D01*
X150318619Y-88643049D01*
X150556714Y-89547811D02*
X151366238Y-89547811D01*
X151461476Y-89500192D01*
X151509095Y-89452573D01*
X151556714Y-89357334D01*
X151556714Y-89214477D01*
X151509095Y-89119239D01*
X151175762Y-89547811D02*
X151223381Y-89452573D01*
X151223381Y-89262096D01*
X151175762Y-89166858D01*
X151128143Y-89119239D01*
X151032905Y-89071620D01*
X150747190Y-89071620D01*
X150651952Y-89119239D01*
X150604333Y-89166858D01*
X150556714Y-89262096D01*
X150556714Y-89452573D01*
X150604333Y-89547811D01*
X150556714Y-90024001D02*
X151223381Y-90024001D01*
X150651952Y-90024001D02*
X150604333Y-90071620D01*
X150556714Y-90166858D01*
X150556714Y-90309716D01*
X150604333Y-90404954D01*
X150699571Y-90452573D01*
X151223381Y-90452573D01*
X151223381Y-91690668D02*
X150223381Y-91690668D01*
X150604333Y-91690668D02*
X150556714Y-91785906D01*
X150556714Y-91976383D01*
X150604333Y-92071621D01*
X150651952Y-92119240D01*
X150747190Y-92166859D01*
X151032905Y-92166859D01*
X151128143Y-92119240D01*
X151175762Y-92071621D01*
X151223381Y-91976383D01*
X151223381Y-91785906D01*
X151175762Y-91690668D01*
X150556714Y-92500192D02*
X151223381Y-92738287D01*
X150556714Y-92976383D02*
X151223381Y-92738287D01*
X151461476Y-92643049D01*
X151509095Y-92595430D01*
X151556714Y-92500192D01*
X151223381Y-94119240D02*
X150223381Y-94119240D01*
X151223381Y-94547812D02*
X150699571Y-94547812D01*
X150604333Y-94500193D01*
X150556714Y-94404955D01*
X150556714Y-94262097D01*
X150604333Y-94166859D01*
X150651952Y-94119240D01*
X150556714Y-94881145D02*
X150556714Y-95262097D01*
X150223381Y-95024002D02*
X151080524Y-95024002D01*
X151175762Y-95071621D01*
X151223381Y-95166859D01*
X151223381Y-95262097D01*
X150556714Y-95452574D02*
X150556714Y-95833526D01*
X150223381Y-95595431D02*
X151080524Y-95595431D01*
X151175762Y-95643050D01*
X151223381Y-95738288D01*
X151223381Y-95833526D01*
X150556714Y-96166860D02*
X151556714Y-96166860D01*
X150604333Y-96166860D02*
X150556714Y-96262098D01*
X150556714Y-96452575D01*
X150604333Y-96547813D01*
X150651952Y-96595432D01*
X150747190Y-96643051D01*
X151032905Y-96643051D01*
X151128143Y-96595432D01*
X151175762Y-96547813D01*
X151223381Y-96452575D01*
X151223381Y-96262098D01*
X151175762Y-96166860D01*
X151128143Y-97071622D02*
X151175762Y-97119241D01*
X151223381Y-97071622D01*
X151175762Y-97024003D01*
X151128143Y-97071622D01*
X151223381Y-97071622D01*
X150604333Y-97071622D02*
X150651952Y-97119241D01*
X150699571Y-97071622D01*
X150651952Y-97024003D01*
X150604333Y-97071622D01*
X150699571Y-97071622D01*
X150175762Y-98262098D02*
X151461476Y-97404955D01*
X150175762Y-99309717D02*
X151461476Y-98452574D01*
X150556714Y-100071622D02*
X151366238Y-100071622D01*
X151461476Y-100024003D01*
X151509095Y-99976384D01*
X151556714Y-99881145D01*
X151556714Y-99738288D01*
X151509095Y-99643050D01*
X151175762Y-100071622D02*
X151223381Y-99976384D01*
X151223381Y-99785907D01*
X151175762Y-99690669D01*
X151128143Y-99643050D01*
X151032905Y-99595431D01*
X150747190Y-99595431D01*
X150651952Y-99643050D01*
X150604333Y-99690669D01*
X150556714Y-99785907D01*
X150556714Y-99976384D01*
X150604333Y-100071622D01*
X151223381Y-100690669D02*
X151175762Y-100595431D01*
X151080524Y-100547812D01*
X150223381Y-100547812D01*
X151223381Y-101071622D02*
X150556714Y-101071622D01*
X150223381Y-101071622D02*
X150271000Y-101024003D01*
X150318619Y-101071622D01*
X150271000Y-101119241D01*
X150223381Y-101071622D01*
X150318619Y-101071622D01*
X151223381Y-101976384D02*
X150223381Y-101976384D01*
X151175762Y-101976384D02*
X151223381Y-101881146D01*
X151223381Y-101690669D01*
X151175762Y-101595431D01*
X151128143Y-101547812D01*
X151032905Y-101500193D01*
X150747190Y-101500193D01*
X150651952Y-101547812D01*
X150604333Y-101595431D01*
X150556714Y-101690669D01*
X150556714Y-101881146D01*
X150604333Y-101976384D01*
X151175762Y-102833527D02*
X151223381Y-102738289D01*
X151223381Y-102547812D01*
X151175762Y-102452574D01*
X151080524Y-102404955D01*
X150699571Y-102404955D01*
X150604333Y-102452574D01*
X150556714Y-102547812D01*
X150556714Y-102738289D01*
X150604333Y-102833527D01*
X150699571Y-102881146D01*
X150794810Y-102881146D01*
X150890048Y-102404955D01*
X151223381Y-103309717D02*
X150556714Y-103309717D01*
X150747190Y-103309717D02*
X150651952Y-103357336D01*
X150604333Y-103404955D01*
X150556714Y-103500193D01*
X150556714Y-103595432D01*
X150556714Y-103928765D02*
X151223381Y-103928765D01*
X150651952Y-103928765D02*
X150604333Y-103976384D01*
X150556714Y-104071622D01*
X150556714Y-104214480D01*
X150604333Y-104309718D01*
X150699571Y-104357337D01*
X151223381Y-104357337D01*
X151175762Y-105214480D02*
X151223381Y-105119242D01*
X151223381Y-104928765D01*
X151175762Y-104833527D01*
X151080524Y-104785908D01*
X150699571Y-104785908D01*
X150604333Y-104833527D01*
X150556714Y-104928765D01*
X150556714Y-105119242D01*
X150604333Y-105214480D01*
X150699571Y-105262099D01*
X150794810Y-105262099D01*
X150890048Y-104785908D01*
X150556714Y-105547813D02*
X150556714Y-105928765D01*
X150223381Y-105690670D02*
X151080524Y-105690670D01*
X151175762Y-105738289D01*
X151223381Y-105833527D01*
X151223381Y-105928765D01*
X151128143Y-106262099D02*
X151175762Y-106309718D01*
X151223381Y-106262099D01*
X151175762Y-106214480D01*
X151128143Y-106262099D01*
X151223381Y-106262099D01*
X151223381Y-106881146D02*
X151175762Y-106785908D01*
X151128143Y-106738289D01*
X151032905Y-106690670D01*
X150747190Y-106690670D01*
X150651952Y-106738289D01*
X150604333Y-106785908D01*
X150556714Y-106881146D01*
X150556714Y-107024004D01*
X150604333Y-107119242D01*
X150651952Y-107166861D01*
X150747190Y-107214480D01*
X151032905Y-107214480D01*
X151128143Y-107166861D01*
X151175762Y-107119242D01*
X151223381Y-107024004D01*
X151223381Y-106881146D01*
X151223381Y-107643051D02*
X150556714Y-107643051D01*
X150747190Y-107643051D02*
X150651952Y-107690670D01*
X150604333Y-107738289D01*
X150556714Y-107833527D01*
X150556714Y-107928766D01*
X150556714Y-108690671D02*
X151366238Y-108690671D01*
X151461476Y-108643052D01*
X151509095Y-108595433D01*
X151556714Y-108500194D01*
X151556714Y-108357337D01*
X151509095Y-108262099D01*
X151175762Y-108690671D02*
X151223381Y-108595433D01*
X151223381Y-108404956D01*
X151175762Y-108309718D01*
X151128143Y-108262099D01*
X151032905Y-108214480D01*
X150747190Y-108214480D01*
X150651952Y-108262099D01*
X150604333Y-108309718D01*
X150556714Y-108404956D01*
X150556714Y-108595433D01*
X150604333Y-108690671D01*
X151128143Y-109166861D02*
X151175762Y-109214480D01*
X151223381Y-109166861D01*
X151175762Y-109119242D01*
X151128143Y-109166861D01*
X151223381Y-109166861D01*
X152875762Y-78214476D02*
X152923381Y-78357333D01*
X152923381Y-78595429D01*
X152875762Y-78690667D01*
X152828143Y-78738286D01*
X152732905Y-78785905D01*
X152637667Y-78785905D01*
X152542429Y-78738286D01*
X152494810Y-78690667D01*
X152447190Y-78595429D01*
X152399571Y-78404952D01*
X152351952Y-78309714D01*
X152304333Y-78262095D01*
X152209095Y-78214476D01*
X152113857Y-78214476D01*
X152018619Y-78262095D01*
X151971000Y-78309714D01*
X151923381Y-78404952D01*
X151923381Y-78643048D01*
X151971000Y-78785905D01*
X152875762Y-79595429D02*
X152923381Y-79500191D01*
X152923381Y-79309714D01*
X152875762Y-79214476D01*
X152780524Y-79166857D01*
X152399571Y-79166857D01*
X152304333Y-79214476D01*
X152256714Y-79309714D01*
X152256714Y-79500191D01*
X152304333Y-79595429D01*
X152399571Y-79643048D01*
X152494810Y-79643048D01*
X152590048Y-79166857D01*
X152875762Y-80452572D02*
X152923381Y-80357334D01*
X152923381Y-80166857D01*
X152875762Y-80071619D01*
X152780524Y-80024000D01*
X152399571Y-80024000D01*
X152304333Y-80071619D01*
X152256714Y-80166857D01*
X152256714Y-80357334D01*
X152304333Y-80452572D01*
X152399571Y-80500191D01*
X152494810Y-80500191D01*
X152590048Y-80024000D01*
X152923381Y-81690667D02*
X151923381Y-81690667D01*
X152923381Y-82119239D02*
X152399571Y-82119239D01*
X152304333Y-82071620D01*
X152256714Y-81976382D01*
X152256714Y-81833524D01*
X152304333Y-81738286D01*
X152351952Y-81690667D01*
X152256714Y-82452572D02*
X152256714Y-82833524D01*
X151923381Y-82595429D02*
X152780524Y-82595429D01*
X152875762Y-82643048D01*
X152923381Y-82738286D01*
X152923381Y-82833524D01*
X152256714Y-83024001D02*
X152256714Y-83404953D01*
X151923381Y-83166858D02*
X152780524Y-83166858D01*
X152875762Y-83214477D01*
X152923381Y-83309715D01*
X152923381Y-83404953D01*
X152256714Y-83738287D02*
X153256714Y-83738287D01*
X152304333Y-83738287D02*
X152256714Y-83833525D01*
X152256714Y-84024002D01*
X152304333Y-84119240D01*
X152351952Y-84166859D01*
X152447190Y-84214478D01*
X152732905Y-84214478D01*
X152828143Y-84166859D01*
X152875762Y-84119240D01*
X152923381Y-84024002D01*
X152923381Y-83833525D01*
X152875762Y-83738287D01*
X152875762Y-84595430D02*
X152923381Y-84690668D01*
X152923381Y-84881144D01*
X152875762Y-84976383D01*
X152780524Y-85024002D01*
X152732905Y-85024002D01*
X152637667Y-84976383D01*
X152590048Y-84881144D01*
X152590048Y-84738287D01*
X152542429Y-84643049D01*
X152447190Y-84595430D01*
X152399571Y-84595430D01*
X152304333Y-84643049D01*
X152256714Y-84738287D01*
X152256714Y-84881144D01*
X152304333Y-84976383D01*
X152828143Y-85452573D02*
X152875762Y-85500192D01*
X152923381Y-85452573D01*
X152875762Y-85404954D01*
X152828143Y-85452573D01*
X152923381Y-85452573D01*
X152304333Y-85452573D02*
X152351952Y-85500192D01*
X152399571Y-85452573D01*
X152351952Y-85404954D01*
X152304333Y-85452573D01*
X152399571Y-85452573D01*
X151875762Y-86643049D02*
X153161476Y-85785906D01*
X151875762Y-87690668D02*
X153161476Y-86833525D01*
X152256714Y-88452573D02*
X153066238Y-88452573D01*
X153161476Y-88404954D01*
X153209095Y-88357335D01*
X153256714Y-88262096D01*
X153256714Y-88119239D01*
X153209095Y-88024001D01*
X152875762Y-88452573D02*
X152923381Y-88357335D01*
X152923381Y-88166858D01*
X152875762Y-88071620D01*
X152828143Y-88024001D01*
X152732905Y-87976382D01*
X152447190Y-87976382D01*
X152351952Y-88024001D01*
X152304333Y-88071620D01*
X152256714Y-88166858D01*
X152256714Y-88357335D01*
X152304333Y-88452573D01*
X152923381Y-88928763D02*
X152256714Y-88928763D01*
X151923381Y-88928763D02*
X151971000Y-88881144D01*
X152018619Y-88928763D01*
X151971000Y-88976382D01*
X151923381Y-88928763D01*
X152018619Y-88928763D01*
X152256714Y-89262096D02*
X152256714Y-89643048D01*
X151923381Y-89404953D02*
X152780524Y-89404953D01*
X152875762Y-89452572D01*
X152923381Y-89547810D01*
X152923381Y-89643048D01*
X152923381Y-89976382D02*
X151923381Y-89976382D01*
X152923381Y-90404954D02*
X152399571Y-90404954D01*
X152304333Y-90357335D01*
X152256714Y-90262097D01*
X152256714Y-90119239D01*
X152304333Y-90024001D01*
X152351952Y-89976382D01*
X152256714Y-91309716D02*
X152923381Y-91309716D01*
X152256714Y-90881144D02*
X152780524Y-90881144D01*
X152875762Y-90928763D01*
X152923381Y-91024001D01*
X152923381Y-91166859D01*
X152875762Y-91262097D01*
X152828143Y-91309716D01*
X152923381Y-91785906D02*
X151923381Y-91785906D01*
X152304333Y-91785906D02*
X152256714Y-91881144D01*
X152256714Y-92071621D01*
X152304333Y-92166859D01*
X152351952Y-92214478D01*
X152447190Y-92262097D01*
X152732905Y-92262097D01*
X152828143Y-92214478D01*
X152875762Y-92166859D01*
X152923381Y-92071621D01*
X152923381Y-91881144D01*
X152875762Y-91785906D01*
X152828143Y-92690668D02*
X152875762Y-92738287D01*
X152923381Y-92690668D01*
X152875762Y-92643049D01*
X152828143Y-92690668D01*
X152923381Y-92690668D01*
X152875762Y-93595430D02*
X152923381Y-93500192D01*
X152923381Y-93309715D01*
X152875762Y-93214477D01*
X152828143Y-93166858D01*
X152732905Y-93119239D01*
X152447190Y-93119239D01*
X152351952Y-93166858D01*
X152304333Y-93214477D01*
X152256714Y-93309715D01*
X152256714Y-93500192D01*
X152304333Y-93595430D01*
X152923381Y-94166858D02*
X152875762Y-94071620D01*
X152828143Y-94024001D01*
X152732905Y-93976382D01*
X152447190Y-93976382D01*
X152351952Y-94024001D01*
X152304333Y-94071620D01*
X152256714Y-94166858D01*
X152256714Y-94309716D01*
X152304333Y-94404954D01*
X152351952Y-94452573D01*
X152447190Y-94500192D01*
X152732905Y-94500192D01*
X152828143Y-94452573D01*
X152875762Y-94404954D01*
X152923381Y-94309716D01*
X152923381Y-94166858D01*
X152923381Y-94928763D02*
X152256714Y-94928763D01*
X152351952Y-94928763D02*
X152304333Y-94976382D01*
X152256714Y-95071620D01*
X152256714Y-95214478D01*
X152304333Y-95309716D01*
X152399571Y-95357335D01*
X152923381Y-95357335D01*
X152399571Y-95357335D02*
X152304333Y-95404954D01*
X152256714Y-95500192D01*
X152256714Y-95643049D01*
X152304333Y-95738287D01*
X152399571Y-95785906D01*
X152923381Y-95785906D01*
X151875762Y-96976382D02*
X153161476Y-96119239D01*
X152923381Y-97309715D02*
X151923381Y-97309715D01*
X152542429Y-97404953D02*
X152923381Y-97690668D01*
X152256714Y-97690668D02*
X152637667Y-97309715D01*
X152875762Y-98500192D02*
X152923381Y-98404954D01*
X152923381Y-98214477D01*
X152875762Y-98119239D01*
X152780524Y-98071620D01*
X152399571Y-98071620D01*
X152304333Y-98119239D01*
X152256714Y-98214477D01*
X152256714Y-98404954D01*
X152304333Y-98500192D01*
X152399571Y-98547811D01*
X152494810Y-98547811D01*
X152590048Y-98071620D01*
X152923381Y-99404954D02*
X151923381Y-99404954D01*
X152875762Y-99404954D02*
X152923381Y-99309716D01*
X152923381Y-99119239D01*
X152875762Y-99024001D01*
X152828143Y-98976382D01*
X152732905Y-98928763D01*
X152447190Y-98928763D01*
X152351952Y-98976382D01*
X152304333Y-99024001D01*
X152256714Y-99119239D01*
X152256714Y-99309716D01*
X152304333Y-99404954D01*
X152923381Y-100309716D02*
X151923381Y-100309716D01*
X152875762Y-100309716D02*
X152923381Y-100214478D01*
X152923381Y-100024001D01*
X152875762Y-99928763D01*
X152828143Y-99881144D01*
X152732905Y-99833525D01*
X152447190Y-99833525D01*
X152351952Y-99881144D01*
X152304333Y-99928763D01*
X152256714Y-100024001D01*
X152256714Y-100214478D01*
X152304333Y-100309716D01*
X152875762Y-101166859D02*
X152923381Y-101071621D01*
X152923381Y-100881144D01*
X152875762Y-100785906D01*
X152780524Y-100738287D01*
X152399571Y-100738287D01*
X152304333Y-100785906D01*
X152256714Y-100881144D01*
X152256714Y-101071621D01*
X152304333Y-101166859D01*
X152399571Y-101214478D01*
X152494810Y-101214478D01*
X152590048Y-100738287D01*
X152923381Y-101643049D02*
X152256714Y-101643049D01*
X152447190Y-101643049D02*
X152351952Y-101690668D01*
X152304333Y-101738287D01*
X152256714Y-101833525D01*
X152256714Y-101928764D01*
X151875762Y-102976383D02*
X153161476Y-102119240D01*
X152923381Y-103309716D02*
X151923381Y-103309716D01*
X152542429Y-103404954D02*
X152923381Y-103690669D01*
X152256714Y-103690669D02*
X152637667Y-103309716D01*
X152875762Y-104500193D02*
X152923381Y-104404955D01*
X152923381Y-104214478D01*
X152875762Y-104119240D01*
X152780524Y-104071621D01*
X152399571Y-104071621D01*
X152304333Y-104119240D01*
X152256714Y-104214478D01*
X152256714Y-104404955D01*
X152304333Y-104500193D01*
X152399571Y-104547812D01*
X152494810Y-104547812D01*
X152590048Y-104071621D01*
X152923381Y-105404955D02*
X151923381Y-105404955D01*
X152875762Y-105404955D02*
X152923381Y-105309717D01*
X152923381Y-105119240D01*
X152875762Y-105024002D01*
X152828143Y-104976383D01*
X152732905Y-104928764D01*
X152447190Y-104928764D01*
X152351952Y-104976383D01*
X152304333Y-105024002D01*
X152256714Y-105119240D01*
X152256714Y-105309717D01*
X152304333Y-105404955D01*
X152256714Y-105738288D02*
X152256714Y-106119240D01*
X151923381Y-105881145D02*
X152780524Y-105881145D01*
X152875762Y-105928764D01*
X152923381Y-106024002D01*
X152923381Y-106119240D01*
X152923381Y-106452574D02*
X152256714Y-106452574D01*
X152447190Y-106452574D02*
X152351952Y-106500193D01*
X152304333Y-106547812D01*
X152256714Y-106643050D01*
X152256714Y-106738289D01*
X152923381Y-107500194D02*
X152399571Y-107500194D01*
X152304333Y-107452575D01*
X152256714Y-107357337D01*
X152256714Y-107166860D01*
X152304333Y-107071622D01*
X152875762Y-107500194D02*
X152923381Y-107404956D01*
X152923381Y-107166860D01*
X152875762Y-107071622D01*
X152780524Y-107024003D01*
X152685286Y-107024003D01*
X152590048Y-107071622D01*
X152542429Y-107166860D01*
X152542429Y-107404956D01*
X152494810Y-107500194D01*
X152875762Y-108404956D02*
X152923381Y-108309718D01*
X152923381Y-108119241D01*
X152875762Y-108024003D01*
X152828143Y-107976384D01*
X152732905Y-107928765D01*
X152447190Y-107928765D01*
X152351952Y-107976384D01*
X152304333Y-108024003D01*
X152256714Y-108119241D01*
X152256714Y-108309718D01*
X152304333Y-108404956D01*
X152923381Y-108833527D02*
X151923381Y-108833527D01*
X152542429Y-108928765D02*
X152923381Y-109214480D01*
X152256714Y-109214480D02*
X152637667Y-108833527D01*
X152875762Y-110024004D02*
X152923381Y-109928766D01*
X152923381Y-109738289D01*
X152875762Y-109643051D01*
X152780524Y-109595432D01*
X152399571Y-109595432D01*
X152304333Y-109643051D01*
X152256714Y-109738289D01*
X152256714Y-109928766D01*
X152304333Y-110024004D01*
X152399571Y-110071623D01*
X152494810Y-110071623D01*
X152590048Y-109595432D01*
X152923381Y-110500194D02*
X152256714Y-110500194D01*
X152447190Y-110500194D02*
X152351952Y-110547813D01*
X152304333Y-110595432D01*
X152256714Y-110690670D01*
X152256714Y-110785909D01*
X152256714Y-111738290D02*
X152256714Y-112119242D01*
X152923381Y-111881147D02*
X152066238Y-111881147D01*
X151971000Y-111928766D01*
X151923381Y-112024004D01*
X151923381Y-112119242D01*
X152923381Y-112595433D02*
X152875762Y-112500195D01*
X152828143Y-112452576D01*
X152732905Y-112404957D01*
X152447190Y-112404957D01*
X152351952Y-112452576D01*
X152304333Y-112500195D01*
X152256714Y-112595433D01*
X152256714Y-112738291D01*
X152304333Y-112833529D01*
X152351952Y-112881148D01*
X152447190Y-112928767D01*
X152732905Y-112928767D01*
X152828143Y-112881148D01*
X152875762Y-112833529D01*
X152923381Y-112738291D01*
X152923381Y-112595433D01*
X152923381Y-113357338D02*
X152256714Y-113357338D01*
X152447190Y-113357338D02*
X152351952Y-113404957D01*
X152304333Y-113452576D01*
X152256714Y-113547814D01*
X152256714Y-113643053D01*
X152923381Y-114738291D02*
X152256714Y-114738291D01*
X152351952Y-114738291D02*
X152304333Y-114785910D01*
X152256714Y-114881148D01*
X152256714Y-115024006D01*
X152304333Y-115119244D01*
X152399571Y-115166863D01*
X152923381Y-115166863D01*
X152399571Y-115166863D02*
X152304333Y-115214482D01*
X152256714Y-115309720D01*
X152256714Y-115452577D01*
X152304333Y-115547815D01*
X152399571Y-115595434D01*
X152923381Y-115595434D01*
X152923381Y-116214481D02*
X152875762Y-116119243D01*
X152828143Y-116071624D01*
X152732905Y-116024005D01*
X152447190Y-116024005D01*
X152351952Y-116071624D01*
X152304333Y-116119243D01*
X152256714Y-116214481D01*
X152256714Y-116357339D01*
X152304333Y-116452577D01*
X152351952Y-116500196D01*
X152447190Y-116547815D01*
X152732905Y-116547815D01*
X152828143Y-116500196D01*
X152875762Y-116452577D01*
X152923381Y-116357339D01*
X152923381Y-116214481D01*
X152923381Y-116976386D02*
X152256714Y-116976386D01*
X152447190Y-116976386D02*
X152351952Y-117024005D01*
X152304333Y-117071624D01*
X152256714Y-117166862D01*
X152256714Y-117262101D01*
X152875762Y-117976387D02*
X152923381Y-117881149D01*
X152923381Y-117690672D01*
X152875762Y-117595434D01*
X152780524Y-117547815D01*
X152399571Y-117547815D01*
X152304333Y-117595434D01*
X152256714Y-117690672D01*
X152256714Y-117881149D01*
X152304333Y-117976387D01*
X152399571Y-118024006D01*
X152494810Y-118024006D01*
X152590048Y-117547815D01*
X152923381Y-119214482D02*
X152256714Y-119214482D01*
X151923381Y-119214482D02*
X151971000Y-119166863D01*
X152018619Y-119214482D01*
X151971000Y-119262101D01*
X151923381Y-119214482D01*
X152018619Y-119214482D01*
X152256714Y-119690672D02*
X152923381Y-119690672D01*
X152351952Y-119690672D02*
X152304333Y-119738291D01*
X152256714Y-119833529D01*
X152256714Y-119976387D01*
X152304333Y-120071625D01*
X152399571Y-120119244D01*
X152923381Y-120119244D01*
X152256714Y-120452577D02*
X152256714Y-120833529D01*
X152923381Y-120595434D02*
X152066238Y-120595434D01*
X151971000Y-120643053D01*
X151923381Y-120738291D01*
X151923381Y-120833529D01*
X152923381Y-121309720D02*
X152875762Y-121214482D01*
X152828143Y-121166863D01*
X152732905Y-121119244D01*
X152447190Y-121119244D01*
X152351952Y-121166863D01*
X152304333Y-121214482D01*
X152256714Y-121309720D01*
X152256714Y-121452578D01*
X152304333Y-121547816D01*
X152351952Y-121595435D01*
X152447190Y-121643054D01*
X152732905Y-121643054D01*
X152828143Y-121595435D01*
X152875762Y-121547816D01*
X152923381Y-121452578D01*
X152923381Y-121309720D01*
X152828143Y-122071625D02*
X152875762Y-122119244D01*
X152923381Y-122071625D01*
X152875762Y-122024006D01*
X152828143Y-122071625D01*
X152923381Y-122071625D01*
D12*
X147191762Y-78500190D02*
X145191762Y-78500190D01*
X147191762Y-79643048D02*
X146048905Y-78785905D01*
X145191762Y-79643048D02*
X146334619Y-78500190D01*
X147096524Y-81262095D02*
X147191762Y-81071619D01*
X147191762Y-80690667D01*
X147096524Y-80500190D01*
X146906048Y-80404952D01*
X146144143Y-80404952D01*
X145953667Y-80500190D01*
X145858429Y-80690667D01*
X145858429Y-81071619D01*
X145953667Y-81262095D01*
X146144143Y-81357333D01*
X146334619Y-81357333D01*
X146525095Y-80404952D01*
X147191762Y-83071619D02*
X145191762Y-83071619D01*
X147096524Y-83071619D02*
X147191762Y-82881143D01*
X147191762Y-82500191D01*
X147096524Y-82309715D01*
X147001286Y-82214476D01*
X146810810Y-82119238D01*
X146239381Y-82119238D01*
X146048905Y-82214476D01*
X145953667Y-82309715D01*
X145858429Y-82500191D01*
X145858429Y-82881143D01*
X145953667Y-83071619D01*
X145191762Y-85262096D02*
X145191762Y-86404953D01*
X147191762Y-85833525D02*
X145191762Y-85833525D01*
X147191762Y-87071620D02*
X145858429Y-87071620D01*
X146239381Y-87071620D02*
X146048905Y-87166859D01*
X145953667Y-87262097D01*
X145858429Y-87452573D01*
X145858429Y-87643049D01*
X147191762Y-89166858D02*
X146144143Y-89166858D01*
X145953667Y-89071620D01*
X145858429Y-88881144D01*
X145858429Y-88500192D01*
X145953667Y-88309715D01*
X147096524Y-89166858D02*
X147191762Y-88976382D01*
X147191762Y-88500192D01*
X147096524Y-88309715D01*
X146906048Y-88214477D01*
X146715571Y-88214477D01*
X146525095Y-88309715D01*
X146429857Y-88500192D01*
X146429857Y-88976382D01*
X146334619Y-89166858D01*
X147096524Y-90976382D02*
X147191762Y-90785906D01*
X147191762Y-90404954D01*
X147096524Y-90214478D01*
X147001286Y-90119239D01*
X146810810Y-90024001D01*
X146239381Y-90024001D01*
X146048905Y-90119239D01*
X145953667Y-90214478D01*
X145858429Y-90404954D01*
X145858429Y-90785906D01*
X145953667Y-90976382D01*
X147191762Y-91833525D02*
X145191762Y-91833525D01*
X146429857Y-92024002D02*
X147191762Y-92595430D01*
X145858429Y-92595430D02*
X146620333Y-91833525D01*
X147096524Y-94214478D02*
X147191762Y-94024002D01*
X147191762Y-93643050D01*
X147096524Y-93452573D01*
X146906048Y-93357335D01*
X146144143Y-93357335D01*
X145953667Y-93452573D01*
X145858429Y-93643050D01*
X145858429Y-94024002D01*
X145953667Y-94214478D01*
X146144143Y-94309716D01*
X146334619Y-94309716D01*
X146525095Y-93357335D01*
X147191762Y-95166859D02*
X145858429Y-95166859D01*
X146239381Y-95166859D02*
X146048905Y-95262098D01*
X145953667Y-95357336D01*
X145858429Y-95547812D01*
X145858429Y-95738288D01*
X145858429Y-97738288D02*
X147191762Y-98214479D01*
X145858429Y-98690669D01*
X145191762Y-99833527D02*
X145191762Y-100024003D01*
X145287000Y-100214479D01*
X145382238Y-100309717D01*
X145572714Y-100404955D01*
X145953667Y-100500194D01*
X146429857Y-100500194D01*
X146810810Y-100404955D01*
X147001286Y-100309717D01*
X147096524Y-100214479D01*
X147191762Y-100024003D01*
X147191762Y-99833527D01*
X147096524Y-99643051D01*
X147001286Y-99547813D01*
X146810810Y-99452574D01*
X146429857Y-99357336D01*
X145953667Y-99357336D01*
X145572714Y-99452574D01*
X145382238Y-99547813D01*
X145287000Y-99643051D01*
X145191762Y-99833527D01*
X147001286Y-101357336D02*
X147096524Y-101452575D01*
X147191762Y-101357336D01*
X147096524Y-101262098D01*
X147001286Y-101357336D01*
X147191762Y-101357336D01*
X145191762Y-102119241D02*
X145191762Y-103357337D01*
X145953667Y-102690670D01*
X145953667Y-102976384D01*
X146048905Y-103166860D01*
X146144143Y-103262098D01*
X146334619Y-103357337D01*
X146810810Y-103357337D01*
X147001286Y-103262098D01*
X147096524Y-103166860D01*
X147191762Y-102976384D01*
X147191762Y-102404956D01*
X147096524Y-102214479D01*
X147001286Y-102119241D01*
D13*
X169794999Y-149903571D02*
X170509285Y-149903571D01*
X170509285Y-148403571D01*
X169437856Y-148403571D02*
X168437856Y-149903571D01*
X168437856Y-148403571D02*
X169437856Y-149903571D01*
X143740000Y-149903571D02*
X143740000Y-148403571D01*
X142240000Y-148475000D02*
X142382857Y-148403571D01*
X142597143Y-148403571D01*
X142811428Y-148475000D01*
X142954286Y-148617857D01*
X143025714Y-148760714D01*
X143097143Y-149046429D01*
X143097143Y-149260714D01*
X143025714Y-149546429D01*
X142954286Y-149689286D01*
X142811428Y-149832143D01*
X142597143Y-149903571D01*
X142454286Y-149903571D01*
X142240000Y-149832143D01*
X142168571Y-149760714D01*
X142168571Y-149260714D01*
X142454286Y-149260714D01*
X140668571Y-149760714D02*
X140740000Y-149832143D01*
X140954286Y-149903571D01*
X141097143Y-149903571D01*
X141311428Y-149832143D01*
X141454286Y-149689286D01*
X141525714Y-149546429D01*
X141597143Y-149260714D01*
X141597143Y-149046429D01*
X141525714Y-148760714D01*
X141454286Y-148617857D01*
X141311428Y-148475000D01*
X141097143Y-148403571D01*
X140954286Y-148403571D01*
X140740000Y-148475000D01*
X140668571Y-148546429D01*
D14*
G36*
X147952918Y-124137744D02*
X147980568Y-124193201D01*
X148031480Y-124242148D01*
X148050338Y-124255629D01*
X148075015Y-124270314D01*
X148101816Y-124279842D01*
X148137587Y-124285293D01*
X148189169Y-124287747D01*
X148257267Y-124288286D01*
X148350588Y-124285852D01*
X148420657Y-124277394D01*
X148472931Y-124261174D01*
X148512869Y-124235454D01*
X148545929Y-124198497D01*
X148547886Y-124195782D01*
X148567908Y-124159360D01*
X148577815Y-124115502D01*
X148580257Y-124059724D01*
X148580257Y-123969048D01*
X148668283Y-123969010D01*
X148717308Y-123968166D01*
X148746065Y-123963024D01*
X148763311Y-123949587D01*
X148777808Y-123923858D01*
X148780769Y-123917679D01*
X148794648Y-123888764D01*
X148803414Y-123866376D01*
X148804171Y-123849729D01*
X148794023Y-123838036D01*
X148770073Y-123830510D01*
X148729426Y-123826366D01*
X148669186Y-123824815D01*
X148586455Y-123825071D01*
X148478339Y-123826349D01*
X148446000Y-123826748D01*
X148334524Y-123828185D01*
X148261603Y-123829472D01*
X148261603Y-123968971D01*
X148323499Y-123969755D01*
X148363997Y-123973240D01*
X148390708Y-123981124D01*
X148411244Y-123995105D01*
X148421260Y-124004597D01*
X148450567Y-124043404D01*
X148452952Y-124077763D01*
X148428750Y-124113216D01*
X148427857Y-124114114D01*
X148409153Y-124128539D01*
X148383732Y-124137313D01*
X148344584Y-124141739D01*
X148284697Y-124143118D01*
X148271430Y-124143143D01*
X148188901Y-124139812D01*
X148131691Y-124128969D01*
X148096766Y-124109340D01*
X148081094Y-124079650D01*
X148079514Y-124062491D01*
X148086926Y-124021766D01*
X148111330Y-123993832D01*
X148155980Y-123977017D01*
X148224130Y-123969650D01*
X148261603Y-123968971D01*
X148261603Y-123829472D01*
X148248245Y-123829708D01*
X148183333Y-123831677D01*
X148135958Y-123834450D01*
X148102290Y-123838388D01*
X148078498Y-123843849D01*
X148060753Y-123851192D01*
X148045224Y-123860777D01*
X148039381Y-123864887D01*
X147984185Y-123919405D01*
X147952890Y-123988336D01*
X147944165Y-124068072D01*
X147952918Y-124137744D01*
X147952918Y-124137744D01*
G37*
X147952918Y-124137744D02*
X147980568Y-124193201D01*
X148031480Y-124242148D01*
X148050338Y-124255629D01*
X148075015Y-124270314D01*
X148101816Y-124279842D01*
X148137587Y-124285293D01*
X148189169Y-124287747D01*
X148257267Y-124288286D01*
X148350588Y-124285852D01*
X148420657Y-124277394D01*
X148472931Y-124261174D01*
X148512869Y-124235454D01*
X148545929Y-124198497D01*
X148547886Y-124195782D01*
X148567908Y-124159360D01*
X148577815Y-124115502D01*
X148580257Y-124059724D01*
X148580257Y-123969048D01*
X148668283Y-123969010D01*
X148717308Y-123968166D01*
X148746065Y-123963024D01*
X148763311Y-123949587D01*
X148777808Y-123923858D01*
X148780769Y-123917679D01*
X148794648Y-123888764D01*
X148803414Y-123866376D01*
X148804171Y-123849729D01*
X148794023Y-123838036D01*
X148770073Y-123830510D01*
X148729426Y-123826366D01*
X148669186Y-123824815D01*
X148586455Y-123825071D01*
X148478339Y-123826349D01*
X148446000Y-123826748D01*
X148334524Y-123828185D01*
X148261603Y-123829472D01*
X148261603Y-123968971D01*
X148323499Y-123969755D01*
X148363997Y-123973240D01*
X148390708Y-123981124D01*
X148411244Y-123995105D01*
X148421260Y-124004597D01*
X148450567Y-124043404D01*
X148452952Y-124077763D01*
X148428750Y-124113216D01*
X148427857Y-124114114D01*
X148409153Y-124128539D01*
X148383732Y-124137313D01*
X148344584Y-124141739D01*
X148284697Y-124143118D01*
X148271430Y-124143143D01*
X148188901Y-124139812D01*
X148131691Y-124128969D01*
X148096766Y-124109340D01*
X148081094Y-124079650D01*
X148079514Y-124062491D01*
X148086926Y-124021766D01*
X148111330Y-123993832D01*
X148155980Y-123977017D01*
X148224130Y-123969650D01*
X148261603Y-123968971D01*
X148261603Y-123829472D01*
X148248245Y-123829708D01*
X148183333Y-123831677D01*
X148135958Y-123834450D01*
X148102290Y-123838388D01*
X148078498Y-123843849D01*
X148060753Y-123851192D01*
X148045224Y-123860777D01*
X148039381Y-123864887D01*
X147984185Y-123919405D01*
X147952890Y-123988336D01*
X147944165Y-124068072D01*
X147952918Y-124137744D01*
G36*
X147960780Y-125254093D02*
X147987723Y-125300672D01*
X148014466Y-125333057D01*
X148042484Y-125356742D01*
X148076748Y-125373059D01*
X148122227Y-125383339D01*
X148183892Y-125388914D01*
X148266711Y-125391116D01*
X148326246Y-125391371D01*
X148545391Y-125391371D01*
X148573044Y-125329686D01*
X148600697Y-125268000D01*
X148360670Y-125260743D01*
X148271028Y-125257744D01*
X148205962Y-125254598D01*
X148161026Y-125250701D01*
X148131770Y-125245447D01*
X148113748Y-125238231D01*
X148102511Y-125228450D01*
X148100079Y-125225312D01*
X148081083Y-125177761D01*
X148088600Y-125129697D01*
X148108543Y-125101086D01*
X148122675Y-125089447D01*
X148141220Y-125081391D01*
X148169334Y-125076271D01*
X148212173Y-125073441D01*
X148274895Y-125072256D01*
X148340261Y-125072057D01*
X148422268Y-125072018D01*
X148480316Y-125070614D01*
X148519465Y-125065914D01*
X148544780Y-125055987D01*
X148561323Y-125038903D01*
X148574156Y-125012732D01*
X148587491Y-124977775D01*
X148602007Y-124939596D01*
X148344389Y-124944141D01*
X148251519Y-124945971D01*
X148182889Y-124948112D01*
X148133711Y-124951181D01*
X148099198Y-124955794D01*
X148074562Y-124962568D01*
X148055016Y-124972119D01*
X148037770Y-124983634D01*
X147982680Y-125039190D01*
X147950822Y-125106980D01*
X147943191Y-125180713D01*
X147960780Y-125254093D01*
X147960780Y-125254093D01*
G37*
X147960780Y-125254093D02*
X147987723Y-125300672D01*
X148014466Y-125333057D01*
X148042484Y-125356742D01*
X148076748Y-125373059D01*
X148122227Y-125383339D01*
X148183892Y-125388914D01*
X148266711Y-125391116D01*
X148326246Y-125391371D01*
X148545391Y-125391371D01*
X148573044Y-125329686D01*
X148600697Y-125268000D01*
X148360670Y-125260743D01*
X148271028Y-125257744D01*
X148205962Y-125254598D01*
X148161026Y-125250701D01*
X148131770Y-125245447D01*
X148113748Y-125238231D01*
X148102511Y-125228450D01*
X148100079Y-125225312D01*
X148081083Y-125177761D01*
X148088600Y-125129697D01*
X148108543Y-125101086D01*
X148122675Y-125089447D01*
X148141220Y-125081391D01*
X148169334Y-125076271D01*
X148212173Y-125073441D01*
X148274895Y-125072256D01*
X148340261Y-125072057D01*
X148422268Y-125072018D01*
X148480316Y-125070614D01*
X148519465Y-125065914D01*
X148544780Y-125055987D01*
X148561323Y-125038903D01*
X148574156Y-125012732D01*
X148587491Y-124977775D01*
X148602007Y-124939596D01*
X148344389Y-124944141D01*
X148251519Y-124945971D01*
X148182889Y-124948112D01*
X148133711Y-124951181D01*
X148099198Y-124955794D01*
X148074562Y-124962568D01*
X148055016Y-124972119D01*
X148037770Y-124983634D01*
X147982680Y-125039190D01*
X147950822Y-125106980D01*
X147943191Y-125180713D01*
X147960780Y-125254093D01*
G36*
X147954962Y-123579115D02*
X147990733Y-123647145D01*
X148048301Y-123697351D01*
X148085312Y-123715185D01*
X148140882Y-123729063D01*
X148211096Y-123736167D01*
X148287727Y-123736840D01*
X148362552Y-123731427D01*
X148427342Y-123720270D01*
X148473873Y-123703714D01*
X148481887Y-123698626D01*
X148541707Y-123638355D01*
X148577535Y-123566769D01*
X148588020Y-123489092D01*
X148571810Y-123410548D01*
X148562092Y-123388689D01*
X148532143Y-123346122D01*
X148492433Y-123308763D01*
X148487397Y-123305232D01*
X148463124Y-123290881D01*
X148437178Y-123281394D01*
X148403022Y-123275790D01*
X148354119Y-123273086D01*
X148283935Y-123272299D01*
X148268200Y-123272286D01*
X148263192Y-123272322D01*
X148263192Y-123417429D01*
X148329430Y-123418273D01*
X148373386Y-123421596D01*
X148401779Y-123428583D01*
X148421325Y-123440416D01*
X148427857Y-123446457D01*
X148452680Y-123481186D01*
X148451548Y-123514903D01*
X148430016Y-123548995D01*
X148407029Y-123569329D01*
X148373478Y-123581371D01*
X148320569Y-123588134D01*
X148314399Y-123588598D01*
X148218513Y-123589752D01*
X148147299Y-123577688D01*
X148101194Y-123552570D01*
X148080635Y-123514560D01*
X148079514Y-123500992D01*
X148085152Y-123465364D01*
X148104686Y-123440994D01*
X148142042Y-123426093D01*
X148201150Y-123418875D01*
X148263192Y-123417429D01*
X148263192Y-123272322D01*
X148193413Y-123272826D01*
X148141159Y-123275096D01*
X148104949Y-123280068D01*
X148078299Y-123288713D01*
X148054722Y-123302005D01*
X148050338Y-123304943D01*
X147991249Y-123354313D01*
X147956947Y-123408109D01*
X147943331Y-123473602D01*
X147942665Y-123495842D01*
X147954962Y-123579115D01*
X147954962Y-123579115D01*
G37*
X147954962Y-123579115D02*
X147990733Y-123647145D01*
X148048301Y-123697351D01*
X148085312Y-123715185D01*
X148140882Y-123729063D01*
X148211096Y-123736167D01*
X148287727Y-123736840D01*
X148362552Y-123731427D01*
X148427342Y-123720270D01*
X148473873Y-123703714D01*
X148481887Y-123698626D01*
X148541707Y-123638355D01*
X148577535Y-123566769D01*
X148588020Y-123489092D01*
X148571810Y-123410548D01*
X148562092Y-123388689D01*
X148532143Y-123346122D01*
X148492433Y-123308763D01*
X148487397Y-123305232D01*
X148463124Y-123290881D01*
X148437178Y-123281394D01*
X148403022Y-123275790D01*
X148354119Y-123273086D01*
X148283935Y-123272299D01*
X148268200Y-123272286D01*
X148263192Y-123272322D01*
X148263192Y-123417429D01*
X148329430Y-123418273D01*
X148373386Y-123421596D01*
X148401779Y-123428583D01*
X148421325Y-123440416D01*
X148427857Y-123446457D01*
X148452680Y-123481186D01*
X148451548Y-123514903D01*
X148430016Y-123548995D01*
X148407029Y-123569329D01*
X148373478Y-123581371D01*
X148320569Y-123588134D01*
X148314399Y-123588598D01*
X148218513Y-123589752D01*
X148147299Y-123577688D01*
X148101194Y-123552570D01*
X148080635Y-123514560D01*
X148079514Y-123500992D01*
X148085152Y-123465364D01*
X148104686Y-123440994D01*
X148142042Y-123426093D01*
X148201150Y-123418875D01*
X148263192Y-123417429D01*
X148263192Y-123272322D01*
X148193413Y-123272826D01*
X148141159Y-123275096D01*
X148104949Y-123280068D01*
X148078299Y-123288713D01*
X148054722Y-123302005D01*
X148050338Y-123304943D01*
X147991249Y-123354313D01*
X147956947Y-123408109D01*
X147943331Y-123473602D01*
X147942665Y-123495842D01*
X147954962Y-123579115D01*
G36*
X147964239Y-124706303D02*
X148002735Y-124763527D01*
X148058335Y-124807749D01*
X148129086Y-124834167D01*
X148181162Y-124839510D01*
X148202893Y-124838903D01*
X148219531Y-124833822D01*
X148234437Y-124819855D01*
X148250973Y-124792589D01*
X148272498Y-124747612D01*
X148302374Y-124680511D01*
X148302524Y-124680171D01*
X148330813Y-124618407D01*
X148355933Y-124567759D01*
X148375179Y-124533404D01*
X148385848Y-124520518D01*
X148385934Y-124520514D01*
X148409166Y-124531872D01*
X148434774Y-124558431D01*
X148453221Y-124588923D01*
X148456886Y-124604370D01*
X148444212Y-124646515D01*
X148412471Y-124682808D01*
X148377572Y-124700517D01*
X148351845Y-124717552D01*
X148322546Y-124750922D01*
X148297235Y-124790149D01*
X148283471Y-124824756D01*
X148282714Y-124831993D01*
X148295160Y-124840139D01*
X148326972Y-124840630D01*
X148369866Y-124834643D01*
X148415558Y-124823357D01*
X148455761Y-124807950D01*
X148457322Y-124807171D01*
X148522062Y-124760804D01*
X148566097Y-124700711D01*
X148587711Y-124632465D01*
X148585185Y-124561638D01*
X148556804Y-124493804D01*
X148554808Y-124490788D01*
X148506448Y-124437427D01*
X148443352Y-124402340D01*
X148360387Y-124382922D01*
X148337078Y-124380316D01*
X148227055Y-124375701D01*
X148175748Y-124381233D01*
X148175748Y-124520514D01*
X148207753Y-124522324D01*
X148217093Y-124532222D01*
X148210105Y-124556898D01*
X148193587Y-124595795D01*
X148172881Y-124639275D01*
X148172333Y-124640356D01*
X148152949Y-124677209D01*
X148140013Y-124692000D01*
X148126451Y-124688353D01*
X148108632Y-124672995D01*
X148082845Y-124633923D01*
X148080950Y-124591846D01*
X148099717Y-124554103D01*
X148135915Y-124528034D01*
X148175748Y-124520514D01*
X148175748Y-124381233D01*
X148139027Y-124385194D01*
X148069212Y-124409550D01*
X148020302Y-124443456D01*
X147970878Y-124504653D01*
X147946359Y-124572063D01*
X147944797Y-124640880D01*
X147964239Y-124706303D01*
X147964239Y-124706303D01*
G37*
X147964239Y-124706303D02*
X148002735Y-124763527D01*
X148058335Y-124807749D01*
X148129086Y-124834167D01*
X148181162Y-124839510D01*
X148202893Y-124838903D01*
X148219531Y-124833822D01*
X148234437Y-124819855D01*
X148250973Y-124792589D01*
X148272498Y-124747612D01*
X148302374Y-124680511D01*
X148302524Y-124680171D01*
X148330813Y-124618407D01*
X148355933Y-124567759D01*
X148375179Y-124533404D01*
X148385848Y-124520518D01*
X148385934Y-124520514D01*
X148409166Y-124531872D01*
X148434774Y-124558431D01*
X148453221Y-124588923D01*
X148456886Y-124604370D01*
X148444212Y-124646515D01*
X148412471Y-124682808D01*
X148377572Y-124700517D01*
X148351845Y-124717552D01*
X148322546Y-124750922D01*
X148297235Y-124790149D01*
X148283471Y-124824756D01*
X148282714Y-124831993D01*
X148295160Y-124840139D01*
X148326972Y-124840630D01*
X148369866Y-124834643D01*
X148415558Y-124823357D01*
X148455761Y-124807950D01*
X148457322Y-124807171D01*
X148522062Y-124760804D01*
X148566097Y-124700711D01*
X148587711Y-124632465D01*
X148585185Y-124561638D01*
X148556804Y-124493804D01*
X148554808Y-124490788D01*
X148506448Y-124437427D01*
X148443352Y-124402340D01*
X148360387Y-124382922D01*
X148337078Y-124380316D01*
X148227055Y-124375701D01*
X148175748Y-124381233D01*
X148175748Y-124520514D01*
X148207753Y-124522324D01*
X148217093Y-124532222D01*
X148210105Y-124556898D01*
X148193587Y-124595795D01*
X148172881Y-124639275D01*
X148172333Y-124640356D01*
X148152949Y-124677209D01*
X148140013Y-124692000D01*
X148126451Y-124688353D01*
X148108632Y-124672995D01*
X148082845Y-124633923D01*
X148080950Y-124591846D01*
X148099717Y-124554103D01*
X148135915Y-124528034D01*
X148175748Y-124520514D01*
X148175748Y-124381233D01*
X148139027Y-124385194D01*
X148069212Y-124409550D01*
X148020302Y-124443456D01*
X147970878Y-124504653D01*
X147946359Y-124572063D01*
X147944797Y-124640880D01*
X147964239Y-124706303D01*
G36*
X147884289Y-125913886D02*
X147943613Y-125918139D01*
X147978572Y-125923025D01*
X147993820Y-125929795D01*
X147994015Y-125939702D01*
X147992195Y-125942914D01*
X147979015Y-125985644D01*
X147979785Y-126041227D01*
X147993333Y-126097737D01*
X148010861Y-126133082D01*
X148038861Y-126169321D01*
X148070549Y-126195813D01*
X148110813Y-126213999D01*
X148164543Y-126225322D01*
X148236626Y-126231222D01*
X148331951Y-126233143D01*
X148350237Y-126233177D01*
X148555646Y-126233200D01*
X148571580Y-126187491D01*
X148582420Y-126155027D01*
X148587468Y-126137215D01*
X148587514Y-126136691D01*
X148573828Y-126134937D01*
X148536076Y-126133444D01*
X148479224Y-126132326D01*
X148408234Y-126131697D01*
X148365073Y-126131600D01*
X148279973Y-126131398D01*
X148218981Y-126130358D01*
X148177177Y-126127831D01*
X148149642Y-126123164D01*
X148131456Y-126115707D01*
X148117698Y-126104811D01*
X148111073Y-126098007D01*
X148084375Y-126051272D01*
X148082375Y-126000272D01*
X148104955Y-125954001D01*
X148113107Y-125945444D01*
X148128436Y-125932893D01*
X148146618Y-125924188D01*
X148172909Y-125918631D01*
X148212562Y-125915526D01*
X148270832Y-125914176D01*
X148351173Y-125913886D01*
X148555646Y-125913886D01*
X148571580Y-125868177D01*
X148582420Y-125835713D01*
X148587468Y-125817901D01*
X148587514Y-125817377D01*
X148573623Y-125816037D01*
X148534439Y-125814828D01*
X148473700Y-125813801D01*
X148395141Y-125813002D01*
X148302498Y-125812481D01*
X148199509Y-125812286D01*
X147802342Y-125812286D01*
X147782444Y-125859457D01*
X147762547Y-125906629D01*
X147884289Y-125913886D01*
X147884289Y-125913886D01*
G37*
X147884289Y-125913886D02*
X147943613Y-125918139D01*
X147978572Y-125923025D01*
X147993820Y-125929795D01*
X147994015Y-125939702D01*
X147992195Y-125942914D01*
X147979015Y-125985644D01*
X147979785Y-126041227D01*
X147993333Y-126097737D01*
X148010861Y-126133082D01*
X148038861Y-126169321D01*
X148070549Y-126195813D01*
X148110813Y-126213999D01*
X148164543Y-126225322D01*
X148236626Y-126231222D01*
X148331951Y-126233143D01*
X148350237Y-126233177D01*
X148555646Y-126233200D01*
X148571580Y-126187491D01*
X148582420Y-126155027D01*
X148587468Y-126137215D01*
X148587514Y-126136691D01*
X148573828Y-126134937D01*
X148536076Y-126133444D01*
X148479224Y-126132326D01*
X148408234Y-126131697D01*
X148365073Y-126131600D01*
X148279973Y-126131398D01*
X148218981Y-126130358D01*
X148177177Y-126127831D01*
X148149642Y-126123164D01*
X148131456Y-126115707D01*
X148117698Y-126104811D01*
X148111073Y-126098007D01*
X148084375Y-126051272D01*
X148082375Y-126000272D01*
X148104955Y-125954001D01*
X148113107Y-125945444D01*
X148128436Y-125932893D01*
X148146618Y-125924188D01*
X148172909Y-125918631D01*
X148212562Y-125915526D01*
X148270832Y-125914176D01*
X148351173Y-125913886D01*
X148555646Y-125913886D01*
X148571580Y-125868177D01*
X148582420Y-125835713D01*
X148587468Y-125817901D01*
X148587514Y-125817377D01*
X148573623Y-125816037D01*
X148534439Y-125814828D01*
X148473700Y-125813801D01*
X148395141Y-125813002D01*
X148302498Y-125812481D01*
X148199509Y-125812286D01*
X147802342Y-125812286D01*
X147782444Y-125859457D01*
X147762547Y-125906629D01*
X147884289Y-125913886D01*
G36*
X147983968Y-126577744D02*
X148005087Y-126634616D01*
X148005493Y-126635267D01*
X148031380Y-126670440D01*
X148061633Y-126696407D01*
X148101058Y-126714670D01*
X148154462Y-126726732D01*
X148226651Y-126734096D01*
X148322432Y-126738264D01*
X148336078Y-126738629D01*
X148541842Y-126743876D01*
X148564678Y-126699716D01*
X148580110Y-126667763D01*
X148587423Y-126648470D01*
X148587514Y-126647578D01*
X148574022Y-126644239D01*
X148537626Y-126641587D01*
X148484452Y-126639956D01*
X148441393Y-126639600D01*
X148371641Y-126639592D01*
X148327837Y-126636403D01*
X148306944Y-126625288D01*
X148305925Y-126601501D01*
X148321741Y-126560296D01*
X148350815Y-126498086D01*
X148374963Y-126452341D01*
X148395913Y-126428813D01*
X148418747Y-126421896D01*
X148419877Y-126421886D01*
X148459212Y-126433299D01*
X148480462Y-126467092D01*
X148483539Y-126518809D01*
X148483006Y-126556061D01*
X148493735Y-126575703D01*
X148519505Y-126587952D01*
X148552337Y-126595002D01*
X148570966Y-126584842D01*
X148573632Y-126581017D01*
X148584340Y-126545001D01*
X148585856Y-126494566D01*
X148578759Y-126442626D01*
X148565788Y-126405822D01*
X148522585Y-126354938D01*
X148462446Y-126326014D01*
X148415462Y-126320286D01*
X148373082Y-126324657D01*
X148338488Y-126340475D01*
X148307763Y-126371797D01*
X148276990Y-126422678D01*
X148242252Y-126497176D01*
X148240288Y-126501714D01*
X148209287Y-126568821D01*
X148183862Y-126610232D01*
X148161014Y-126627981D01*
X148137745Y-126624107D01*
X148111056Y-126600643D01*
X148104914Y-126593627D01*
X148081100Y-126546630D01*
X148082103Y-126497933D01*
X148105451Y-126455522D01*
X148148675Y-126427384D01*
X148157160Y-126424769D01*
X148198308Y-126399308D01*
X148218128Y-126367001D01*
X148237770Y-126320286D01*
X148186950Y-126320286D01*
X148113082Y-126334496D01*
X148045327Y-126376675D01*
X148022661Y-126398624D01*
X147993569Y-126448517D01*
X147980400Y-126511967D01*
X147983968Y-126577744D01*
X147983968Y-126577744D01*
G37*
X147983968Y-126577744D02*
X148005087Y-126634616D01*
X148005493Y-126635267D01*
X148031380Y-126670440D01*
X148061633Y-126696407D01*
X148101058Y-126714670D01*
X148154462Y-126726732D01*
X148226651Y-126734096D01*
X148322432Y-126738264D01*
X148336078Y-126738629D01*
X148541842Y-126743876D01*
X148564678Y-126699716D01*
X148580110Y-126667763D01*
X148587423Y-126648470D01*
X148587514Y-126647578D01*
X148574022Y-126644239D01*
X148537626Y-126641587D01*
X148484452Y-126639956D01*
X148441393Y-126639600D01*
X148371641Y-126639592D01*
X148327837Y-126636403D01*
X148306944Y-126625288D01*
X148305925Y-126601501D01*
X148321741Y-126560296D01*
X148350815Y-126498086D01*
X148374963Y-126452341D01*
X148395913Y-126428813D01*
X148418747Y-126421896D01*
X148419877Y-126421886D01*
X148459212Y-126433299D01*
X148480462Y-126467092D01*
X148483539Y-126518809D01*
X148483006Y-126556061D01*
X148493735Y-126575703D01*
X148519505Y-126587952D01*
X148552337Y-126595002D01*
X148570966Y-126584842D01*
X148573632Y-126581017D01*
X148584340Y-126545001D01*
X148585856Y-126494566D01*
X148578759Y-126442626D01*
X148565788Y-126405822D01*
X148522585Y-126354938D01*
X148462446Y-126326014D01*
X148415462Y-126320286D01*
X148373082Y-126324657D01*
X148338488Y-126340475D01*
X148307763Y-126371797D01*
X148276990Y-126422678D01*
X148242252Y-126497176D01*
X148240288Y-126501714D01*
X148209287Y-126568821D01*
X148183862Y-126610232D01*
X148161014Y-126627981D01*
X148137745Y-126624107D01*
X148111056Y-126600643D01*
X148104914Y-126593627D01*
X148081100Y-126546630D01*
X148082103Y-126497933D01*
X148105451Y-126455522D01*
X148148675Y-126427384D01*
X148157160Y-126424769D01*
X148198308Y-126399308D01*
X148218128Y-126367001D01*
X148237770Y-126320286D01*
X148186950Y-126320286D01*
X148113082Y-126334496D01*
X148045327Y-126376675D01*
X148022661Y-126398624D01*
X147993569Y-126448517D01*
X147980400Y-126511967D01*
X147983968Y-126577744D01*
G36*
X147982755Y-127067926D02*
X148007084Y-127133858D01*
X148050117Y-127187273D01*
X148080409Y-127208164D01*
X148135994Y-127230939D01*
X148176186Y-127230466D01*
X148203217Y-127206562D01*
X148207813Y-127197717D01*
X148222144Y-127159530D01*
X148218472Y-127140028D01*
X148194407Y-127133422D01*
X148181114Y-127133086D01*
X148132210Y-127120992D01*
X148097999Y-127089471D01*
X148081476Y-127045659D01*
X148085634Y-126996695D01*
X148107227Y-126956894D01*
X148119544Y-126943450D01*
X148134487Y-126933921D01*
X148157075Y-126927485D01*
X148192328Y-126923317D01*
X148245266Y-126920597D01*
X148320907Y-126918502D01*
X148344857Y-126917960D01*
X148426790Y-126915981D01*
X148484455Y-126913731D01*
X148522608Y-126910357D01*
X148546004Y-126905006D01*
X148559398Y-126896824D01*
X148567545Y-126884959D01*
X148571144Y-126877362D01*
X148583452Y-126845102D01*
X148587514Y-126826111D01*
X148573948Y-126819836D01*
X148532934Y-126816006D01*
X148463999Y-126814600D01*
X148366669Y-126815598D01*
X148351657Y-126815908D01*
X148262859Y-126818101D01*
X148198019Y-126820693D01*
X148152067Y-126824382D01*
X148119935Y-126829864D01*
X148096553Y-126837835D01*
X148076852Y-126848993D01*
X148068410Y-126854830D01*
X148031057Y-126888296D01*
X148002003Y-126925727D01*
X147999467Y-126930309D01*
X147979443Y-126997426D01*
X147982755Y-127067926D01*
X147982755Y-127067926D01*
G37*
X147982755Y-127067926D02*
X148007084Y-127133858D01*
X148050117Y-127187273D01*
X148080409Y-127208164D01*
X148135994Y-127230939D01*
X148176186Y-127230466D01*
X148203217Y-127206562D01*
X148207813Y-127197717D01*
X148222144Y-127159530D01*
X148218472Y-127140028D01*
X148194407Y-127133422D01*
X148181114Y-127133086D01*
X148132210Y-127120992D01*
X148097999Y-127089471D01*
X148081476Y-127045659D01*
X148085634Y-126996695D01*
X148107227Y-126956894D01*
X148119544Y-126943450D01*
X148134487Y-126933921D01*
X148157075Y-126927485D01*
X148192328Y-126923317D01*
X148245266Y-126920597D01*
X148320907Y-126918502D01*
X148344857Y-126917960D01*
X148426790Y-126915981D01*
X148484455Y-126913731D01*
X148522608Y-126910357D01*
X148546004Y-126905006D01*
X148559398Y-126896824D01*
X148567545Y-126884959D01*
X148571144Y-126877362D01*
X148583452Y-126845102D01*
X148587514Y-126826111D01*
X148573948Y-126819836D01*
X148532934Y-126816006D01*
X148463999Y-126814600D01*
X148366669Y-126815598D01*
X148351657Y-126815908D01*
X148262859Y-126818101D01*
X148198019Y-126820693D01*
X148152067Y-126824382D01*
X148119935Y-126829864D01*
X148096553Y-126837835D01*
X148076852Y-126848993D01*
X148068410Y-126854830D01*
X148031057Y-126888296D01*
X148002003Y-126925727D01*
X147999467Y-126930309D01*
X147979443Y-126997426D01*
X147982755Y-127067926D01*
G36*
X148098358Y-127728117D02*
X148206837Y-127727933D01*
X148290287Y-127727219D01*
X148352704Y-127725675D01*
X148398085Y-127723001D01*
X148430429Y-127718894D01*
X148453733Y-127713055D01*
X148471995Y-127705182D01*
X148482418Y-127699221D01*
X148538945Y-127649855D01*
X148574377Y-127587264D01*
X148587090Y-127518013D01*
X148575463Y-127448668D01*
X148554568Y-127407375D01*
X148518422Y-127364025D01*
X148474276Y-127334481D01*
X148416462Y-127316655D01*
X148339313Y-127308463D01*
X148282714Y-127307302D01*
X148278647Y-127307458D01*
X148278647Y-127408857D01*
X148343550Y-127409476D01*
X148386514Y-127412314D01*
X148414622Y-127418840D01*
X148434953Y-127430523D01*
X148450288Y-127444483D01*
X148479890Y-127491365D01*
X148482419Y-127541701D01*
X148457705Y-127589276D01*
X148454356Y-127592979D01*
X148436935Y-127608783D01*
X148416209Y-127618693D01*
X148385362Y-127624058D01*
X148337577Y-127626228D01*
X148284748Y-127626571D01*
X148218381Y-127625827D01*
X148174106Y-127622748D01*
X148145009Y-127616061D01*
X148124173Y-127604496D01*
X148113107Y-127595013D01*
X148085198Y-127550960D01*
X148081843Y-127500224D01*
X148103159Y-127451796D01*
X148111073Y-127442450D01*
X148128647Y-127426540D01*
X148149587Y-127416610D01*
X148180782Y-127411278D01*
X148229122Y-127409163D01*
X148278647Y-127408857D01*
X148278647Y-127307458D01*
X148191568Y-127310810D01*
X148123086Y-127322726D01*
X148071600Y-127345135D01*
X148031443Y-127380124D01*
X148010861Y-127407375D01*
X147988625Y-127456907D01*
X147978304Y-127514316D01*
X147981067Y-127567682D01*
X147992212Y-127597543D01*
X147995383Y-127609261D01*
X147983557Y-127617037D01*
X147951866Y-127622465D01*
X147903593Y-127626571D01*
X147849829Y-127631067D01*
X147817482Y-127637313D01*
X147798985Y-127648676D01*
X147786770Y-127668528D01*
X147781362Y-127681000D01*
X147761601Y-127728171D01*
X148098358Y-127728117D01*
X148098358Y-127728117D01*
G37*
X148098358Y-127728117D02*
X148206837Y-127727933D01*
X148290287Y-127727219D01*
X148352704Y-127725675D01*
X148398085Y-127723001D01*
X148430429Y-127718894D01*
X148453733Y-127713055D01*
X148471995Y-127705182D01*
X148482418Y-127699221D01*
X148538945Y-127649855D01*
X148574377Y-127587264D01*
X148587090Y-127518013D01*
X148575463Y-127448668D01*
X148554568Y-127407375D01*
X148518422Y-127364025D01*
X148474276Y-127334481D01*
X148416462Y-127316655D01*
X148339313Y-127308463D01*
X148282714Y-127307302D01*
X148278647Y-127307458D01*
X148278647Y-127408857D01*
X148343550Y-127409476D01*
X148386514Y-127412314D01*
X148414622Y-127418840D01*
X148434953Y-127430523D01*
X148450288Y-127444483D01*
X148479890Y-127491365D01*
X148482419Y-127541701D01*
X148457705Y-127589276D01*
X148454356Y-127592979D01*
X148436935Y-127608783D01*
X148416209Y-127618693D01*
X148385362Y-127624058D01*
X148337577Y-127626228D01*
X148284748Y-127626571D01*
X148218381Y-127625827D01*
X148174106Y-127622748D01*
X148145009Y-127616061D01*
X148124173Y-127604496D01*
X148113107Y-127595013D01*
X148085198Y-127550960D01*
X148081843Y-127500224D01*
X148103159Y-127451796D01*
X148111073Y-127442450D01*
X148128647Y-127426540D01*
X148149587Y-127416610D01*
X148180782Y-127411278D01*
X148229122Y-127409163D01*
X148278647Y-127408857D01*
X148278647Y-127307458D01*
X148191568Y-127310810D01*
X148123086Y-127322726D01*
X148071600Y-127345135D01*
X148031443Y-127380124D01*
X148010861Y-127407375D01*
X147988625Y-127456907D01*
X147978304Y-127514316D01*
X147981067Y-127567682D01*
X147992212Y-127597543D01*
X147995383Y-127609261D01*
X147983557Y-127617037D01*
X147951866Y-127622465D01*
X147903593Y-127626571D01*
X147849829Y-127631067D01*
X147817482Y-127637313D01*
X147798985Y-127648676D01*
X147786770Y-127668528D01*
X147781362Y-127681000D01*
X147761601Y-127728171D01*
X148098358Y-127728117D01*
G36*
X147991663Y-128317833D02*
X148029850Y-128320048D01*
X148087886Y-128321784D01*
X148161180Y-128322899D01*
X148238055Y-128323257D01*
X148498196Y-128323257D01*
X148544127Y-128277326D01*
X148572429Y-128245675D01*
X148583893Y-128217890D01*
X148583168Y-128179915D01*
X148581321Y-128164840D01*
X148575948Y-128117726D01*
X148572869Y-128078756D01*
X148572585Y-128069257D01*
X148574445Y-128037233D01*
X148579114Y-127991432D01*
X148581321Y-127973674D01*
X148584735Y-127930057D01*
X148577320Y-127900745D01*
X148554427Y-127871680D01*
X148544127Y-127861188D01*
X148498196Y-127815257D01*
X148011602Y-127815257D01*
X147994758Y-127852226D01*
X147982282Y-127884059D01*
X147977914Y-127902683D01*
X147991718Y-127907458D01*
X148030286Y-127911921D01*
X148089356Y-127915775D01*
X148164663Y-127918722D01*
X148228286Y-127920143D01*
X148478657Y-127924114D01*
X148483556Y-127958759D01*
X148480131Y-127990268D01*
X148469041Y-128005708D01*
X148448308Y-128010023D01*
X148404145Y-128013708D01*
X148342146Y-128016469D01*
X148267909Y-128018012D01*
X148229706Y-128018235D01*
X148009783Y-128018457D01*
X147993849Y-128064166D01*
X147983015Y-128096518D01*
X147977962Y-128114115D01*
X147977914Y-128114623D01*
X147991648Y-128116388D01*
X148029730Y-128118329D01*
X148087482Y-128120282D01*
X148160227Y-128122084D01*
X148228286Y-128123343D01*
X148478657Y-128127314D01*
X148478657Y-128214400D01*
X148250240Y-128218396D01*
X148021822Y-128222392D01*
X147999868Y-128264847D01*
X147984793Y-128296192D01*
X147977951Y-128314744D01*
X147977914Y-128315279D01*
X147991663Y-128317833D01*
X147991663Y-128317833D01*
G37*
X147991663Y-128317833D02*
X148029850Y-128320048D01*
X148087886Y-128321784D01*
X148161180Y-128322899D01*
X148238055Y-128323257D01*
X148498196Y-128323257D01*
X148544127Y-128277326D01*
X148572429Y-128245675D01*
X148583893Y-128217890D01*
X148583168Y-128179915D01*
X148581321Y-128164840D01*
X148575948Y-128117726D01*
X148572869Y-128078756D01*
X148572585Y-128069257D01*
X148574445Y-128037233D01*
X148579114Y-127991432D01*
X148581321Y-127973674D01*
X148584735Y-127930057D01*
X148577320Y-127900745D01*
X148554427Y-127871680D01*
X148544127Y-127861188D01*
X148498196Y-127815257D01*
X148011602Y-127815257D01*
X147994758Y-127852226D01*
X147982282Y-127884059D01*
X147977914Y-127902683D01*
X147991718Y-127907458D01*
X148030286Y-127911921D01*
X148089356Y-127915775D01*
X148164663Y-127918722D01*
X148228286Y-127920143D01*
X148478657Y-127924114D01*
X148483556Y-127958759D01*
X148480131Y-127990268D01*
X148469041Y-128005708D01*
X148448308Y-128010023D01*
X148404145Y-128013708D01*
X148342146Y-128016469D01*
X148267909Y-128018012D01*
X148229706Y-128018235D01*
X148009783Y-128018457D01*
X147993849Y-128064166D01*
X147983015Y-128096518D01*
X147977962Y-128114115D01*
X147977914Y-128114623D01*
X147991648Y-128116388D01*
X148029730Y-128118329D01*
X148087482Y-128120282D01*
X148160227Y-128122084D01*
X148228286Y-128123343D01*
X148478657Y-128127314D01*
X148478657Y-128214400D01*
X148250240Y-128218396D01*
X148021822Y-128222392D01*
X147999868Y-128264847D01*
X147984793Y-128296192D01*
X147977951Y-128314744D01*
X147977914Y-128315279D01*
X147991663Y-128317833D01*
G36*
X147989335Y-128682876D02*
X148008344Y-128724667D01*
X148031378Y-128757469D01*
X148057133Y-128781503D01*
X148090358Y-128798097D01*
X148135800Y-128808577D01*
X148198207Y-128814271D01*
X148282327Y-128816507D01*
X148337721Y-128816743D01*
X148553826Y-128816743D01*
X148570670Y-128779774D01*
X148582981Y-128750656D01*
X148587514Y-128736231D01*
X148574025Y-128733472D01*
X148537653Y-128731282D01*
X148484542Y-128729942D01*
X148442372Y-128729657D01*
X148381447Y-128728434D01*
X148333115Y-128725136D01*
X148303518Y-128720321D01*
X148297229Y-128716496D01*
X148303652Y-128690783D01*
X148320125Y-128650418D01*
X148342458Y-128603679D01*
X148366457Y-128558845D01*
X148387930Y-128524193D01*
X148402685Y-128508002D01*
X148402845Y-128507938D01*
X148430152Y-128509330D01*
X148456219Y-128521818D01*
X148477392Y-128543743D01*
X148484474Y-128575743D01*
X148483649Y-128603092D01*
X148483042Y-128641826D01*
X148492116Y-128662158D01*
X148516092Y-128674369D01*
X148520613Y-128675909D01*
X148554806Y-128681203D01*
X148575568Y-128667047D01*
X148585462Y-128630148D01*
X148587292Y-128590289D01*
X148573727Y-128518562D01*
X148554355Y-128481432D01*
X148508845Y-128435576D01*
X148452983Y-128411256D01*
X148393957Y-128409073D01*
X148338953Y-128429629D01*
X148304486Y-128460549D01*
X148285189Y-128491420D01*
X148260759Y-128539942D01*
X148235985Y-128596485D01*
X148232199Y-128605910D01*
X148204791Y-128668019D01*
X148180634Y-128703822D01*
X148156619Y-128715337D01*
X148129635Y-128704580D01*
X148108543Y-128686114D01*
X148082572Y-128642469D01*
X148080624Y-128594446D01*
X148100637Y-128550406D01*
X148140551Y-128518709D01*
X148150848Y-128514549D01*
X148188724Y-128490327D01*
X148216842Y-128454965D01*
X148239917Y-128410343D01*
X148174485Y-128410343D01*
X148134506Y-128412969D01*
X148102997Y-128424230D01*
X148069378Y-128449199D01*
X148043484Y-128473169D01*
X148006817Y-128510441D01*
X147987121Y-128539401D01*
X147979220Y-128570505D01*
X147977914Y-128605713D01*
X147989335Y-128682876D01*
X147989335Y-128682876D01*
G37*
X147989335Y-128682876D02*
X148008344Y-128724667D01*
X148031378Y-128757469D01*
X148057133Y-128781503D01*
X148090358Y-128798097D01*
X148135800Y-128808577D01*
X148198207Y-128814271D01*
X148282327Y-128816507D01*
X148337721Y-128816743D01*
X148553826Y-128816743D01*
X148570670Y-128779774D01*
X148582981Y-128750656D01*
X148587514Y-128736231D01*
X148574025Y-128733472D01*
X148537653Y-128731282D01*
X148484542Y-128729942D01*
X148442372Y-128729657D01*
X148381447Y-128728434D01*
X148333115Y-128725136D01*
X148303518Y-128720321D01*
X148297229Y-128716496D01*
X148303652Y-128690783D01*
X148320125Y-128650418D01*
X148342458Y-128603679D01*
X148366457Y-128558845D01*
X148387930Y-128524193D01*
X148402685Y-128508002D01*
X148402845Y-128507938D01*
X148430152Y-128509330D01*
X148456219Y-128521818D01*
X148477392Y-128543743D01*
X148484474Y-128575743D01*
X148483649Y-128603092D01*
X148483042Y-128641826D01*
X148492116Y-128662158D01*
X148516092Y-128674369D01*
X148520613Y-128675909D01*
X148554806Y-128681203D01*
X148575568Y-128667047D01*
X148585462Y-128630148D01*
X148587292Y-128590289D01*
X148573727Y-128518562D01*
X148554355Y-128481432D01*
X148508845Y-128435576D01*
X148452983Y-128411256D01*
X148393957Y-128409073D01*
X148338953Y-128429629D01*
X148304486Y-128460549D01*
X148285189Y-128491420D01*
X148260759Y-128539942D01*
X148235985Y-128596485D01*
X148232199Y-128605910D01*
X148204791Y-128668019D01*
X148180634Y-128703822D01*
X148156619Y-128715337D01*
X148129635Y-128704580D01*
X148108543Y-128686114D01*
X148082572Y-128642469D01*
X148080624Y-128594446D01*
X148100637Y-128550406D01*
X148140551Y-128518709D01*
X148150848Y-128514549D01*
X148188724Y-128490327D01*
X148216842Y-128454965D01*
X148239917Y-128410343D01*
X148174485Y-128410343D01*
X148134506Y-128412969D01*
X148102997Y-128424230D01*
X148069378Y-128449199D01*
X148043484Y-128473169D01*
X148006817Y-128510441D01*
X147987121Y-128539401D01*
X147979220Y-128570505D01*
X147977914Y-128605713D01*
X147989335Y-128682876D01*
G36*
X147991752Y-129190600D02*
X147999334Y-129207948D01*
X148032128Y-129249356D01*
X148079547Y-129284765D01*
X148130151Y-129306664D01*
X148155098Y-129310229D01*
X148189927Y-129298279D01*
X148208357Y-129272067D01*
X148219516Y-129243964D01*
X148221572Y-129231095D01*
X148206649Y-129224829D01*
X148174175Y-129212456D01*
X148159502Y-129207028D01*
X148108744Y-129176590D01*
X148083427Y-129132520D01*
X148084206Y-129076010D01*
X148085203Y-129071825D01*
X148099507Y-129041655D01*
X148127393Y-129019476D01*
X148172287Y-129004327D01*
X148237615Y-128995250D01*
X148326804Y-128991286D01*
X148374261Y-128990914D01*
X148449071Y-128990730D01*
X148500069Y-128989522D01*
X148532471Y-128986309D01*
X148551495Y-128980109D01*
X148562356Y-128969940D01*
X148570272Y-128954819D01*
X148570670Y-128953946D01*
X148582981Y-128924828D01*
X148587514Y-128910403D01*
X148573809Y-128908186D01*
X148535925Y-128906289D01*
X148478715Y-128904847D01*
X148407027Y-128903998D01*
X148354565Y-128903829D01*
X148253047Y-128904692D01*
X148176032Y-128908070D01*
X148119023Y-128915142D01*
X148077526Y-128927088D01*
X148047043Y-128945090D01*
X148023080Y-128970327D01*
X148006355Y-128995247D01*
X147984097Y-129055171D01*
X147979076Y-129124911D01*
X147991752Y-129190600D01*
X147991752Y-129190600D01*
G37*
X147991752Y-129190600D02*
X147999334Y-129207948D01*
X148032128Y-129249356D01*
X148079547Y-129284765D01*
X148130151Y-129306664D01*
X148155098Y-129310229D01*
X148189927Y-129298279D01*
X148208357Y-129272067D01*
X148219516Y-129243964D01*
X148221572Y-129231095D01*
X148206649Y-129224829D01*
X148174175Y-129212456D01*
X148159502Y-129207028D01*
X148108744Y-129176590D01*
X148083427Y-129132520D01*
X148084206Y-129076010D01*
X148085203Y-129071825D01*
X148099507Y-129041655D01*
X148127393Y-129019476D01*
X148172287Y-129004327D01*
X148237615Y-128995250D01*
X148326804Y-128991286D01*
X148374261Y-128990914D01*
X148449071Y-128990730D01*
X148500069Y-128989522D01*
X148532471Y-128986309D01*
X148551495Y-128980109D01*
X148562356Y-128969940D01*
X148570272Y-128954819D01*
X148570670Y-128953946D01*
X148582981Y-128924828D01*
X148587514Y-128910403D01*
X148573809Y-128908186D01*
X148535925Y-128906289D01*
X148478715Y-128904847D01*
X148407027Y-128903998D01*
X148354565Y-128903829D01*
X148253047Y-128904692D01*
X148176032Y-128908070D01*
X148119023Y-128915142D01*
X148077526Y-128927088D01*
X148047043Y-128945090D01*
X148023080Y-128970327D01*
X148006355Y-128995247D01*
X147984097Y-129055171D01*
X147979076Y-129124911D01*
X147991752Y-129190600D01*
G36*
X147999966Y-129691595D02*
X148037497Y-129749021D01*
X148071096Y-129776719D01*
X148132064Y-129798662D01*
X148180308Y-129800405D01*
X148244816Y-129796457D01*
X148309934Y-129647686D01*
X148343202Y-129575349D01*
X148369964Y-129528084D01*
X148393144Y-129503507D01*
X148415667Y-129499237D01*
X148440455Y-129512889D01*
X148456886Y-129527943D01*
X148483235Y-129571746D01*
X148485081Y-129619389D01*
X148464546Y-129663145D01*
X148423752Y-129695289D01*
X148409347Y-129701038D01*
X148364356Y-129728576D01*
X148345182Y-129760258D01*
X148328779Y-129803714D01*
X148390966Y-129803714D01*
X148433283Y-129799872D01*
X148468969Y-129784823D01*
X148509943Y-129753280D01*
X148515267Y-129748592D01*
X148551720Y-129713506D01*
X148571283Y-129683347D01*
X148580283Y-129645615D01*
X148583230Y-129614335D01*
X148583965Y-129558385D01*
X148574660Y-129518555D01*
X148560846Y-129493708D01*
X148530467Y-129454656D01*
X148497613Y-129427625D01*
X148456294Y-129410517D01*
X148400521Y-129401238D01*
X148324305Y-129397693D01*
X148285622Y-129397410D01*
X148239247Y-129398372D01*
X148239247Y-129486007D01*
X148264126Y-129487023D01*
X148268200Y-129489556D01*
X148262665Y-129506274D01*
X148248017Y-129542249D01*
X148227190Y-129590331D01*
X148222714Y-129600386D01*
X148191814Y-129661152D01*
X148164657Y-129694632D01*
X148139220Y-129701990D01*
X148113481Y-129684391D01*
X148102109Y-129669856D01*
X148079364Y-129617410D01*
X148083122Y-129568322D01*
X148110884Y-129527227D01*
X148160152Y-129498758D01*
X148199257Y-129489631D01*
X148239247Y-129486007D01*
X148239247Y-129398372D01*
X148195249Y-129399285D01*
X148128384Y-129406196D01*
X148079695Y-129419884D01*
X148043849Y-129442096D01*
X148015513Y-129474574D01*
X148006355Y-129488733D01*
X147982507Y-129553053D01*
X147981006Y-129623473D01*
X147999966Y-129691595D01*
X147999966Y-129691595D01*
G37*
X147999966Y-129691595D02*
X148037497Y-129749021D01*
X148071096Y-129776719D01*
X148132064Y-129798662D01*
X148180308Y-129800405D01*
X148244816Y-129796457D01*
X148309934Y-129647686D01*
X148343202Y-129575349D01*
X148369964Y-129528084D01*
X148393144Y-129503507D01*
X148415667Y-129499237D01*
X148440455Y-129512889D01*
X148456886Y-129527943D01*
X148483235Y-129571746D01*
X148485081Y-129619389D01*
X148464546Y-129663145D01*
X148423752Y-129695289D01*
X148409347Y-129701038D01*
X148364356Y-129728576D01*
X148345182Y-129760258D01*
X148328779Y-129803714D01*
X148390966Y-129803714D01*
X148433283Y-129799872D01*
X148468969Y-129784823D01*
X148509943Y-129753280D01*
X148515267Y-129748592D01*
X148551720Y-129713506D01*
X148571283Y-129683347D01*
X148580283Y-129645615D01*
X148583230Y-129614335D01*
X148583965Y-129558385D01*
X148574660Y-129518555D01*
X148560846Y-129493708D01*
X148530467Y-129454656D01*
X148497613Y-129427625D01*
X148456294Y-129410517D01*
X148400521Y-129401238D01*
X148324305Y-129397693D01*
X148285622Y-129397410D01*
X148239247Y-129398372D01*
X148239247Y-129486007D01*
X148264126Y-129487023D01*
X148268200Y-129489556D01*
X148262665Y-129506274D01*
X148248017Y-129542249D01*
X148227190Y-129590331D01*
X148222714Y-129600386D01*
X148191814Y-129661152D01*
X148164657Y-129694632D01*
X148139220Y-129701990D01*
X148113481Y-129684391D01*
X148102109Y-129669856D01*
X148079364Y-129617410D01*
X148083122Y-129568322D01*
X148110884Y-129527227D01*
X148160152Y-129498758D01*
X148199257Y-129489631D01*
X148239247Y-129486007D01*
X148239247Y-129398372D01*
X148195249Y-129399285D01*
X148128384Y-129406196D01*
X148079695Y-129419884D01*
X148043849Y-129442096D01*
X148015513Y-129474574D01*
X148006355Y-129488733D01*
X147982507Y-129553053D01*
X147981006Y-129623473D01*
X147999966Y-129691595D01*
G36*
X143275348Y-126641910D02*
X143275778Y-126720454D01*
X143276942Y-126777298D01*
X143279207Y-126816105D01*
X143282940Y-126840538D01*
X143288506Y-126854262D01*
X143296273Y-126860940D01*
X143306605Y-126864236D01*
X143307943Y-126864556D01*
X143332079Y-126869562D01*
X143379701Y-126878829D01*
X143445741Y-126891392D01*
X143525128Y-126906287D01*
X143612796Y-126922551D01*
X143615875Y-126923119D01*
X143701789Y-126939410D01*
X143777696Y-126954652D01*
X143839045Y-126967861D01*
X143881282Y-126978054D01*
X143899855Y-126984248D01*
X143900184Y-126984543D01*
X143909253Y-127002788D01*
X143924367Y-127040405D01*
X143942262Y-127089271D01*
X143942358Y-127089543D01*
X143965493Y-127151093D01*
X143994965Y-127223657D01*
X144024597Y-127292057D01*
X144026062Y-127295294D01*
X144076626Y-127406702D01*
X143908160Y-127653399D01*
X143856803Y-127729077D01*
X143810889Y-127797631D01*
X143773030Y-127855088D01*
X143745837Y-127897476D01*
X143731921Y-127920825D01*
X143730889Y-127923042D01*
X143735484Y-127940010D01*
X143757655Y-127971701D01*
X143798447Y-128019352D01*
X143858905Y-128084198D01*
X143923227Y-128150397D01*
X143986612Y-128214214D01*
X144044451Y-128271329D01*
X144093175Y-128318305D01*
X144129210Y-128351703D01*
X144148984Y-128368085D01*
X144150002Y-128368694D01*
X144163572Y-128370505D01*
X144185733Y-128363683D01*
X144219478Y-128346540D01*
X144267800Y-128317393D01*
X144333692Y-128274555D01*
X144418517Y-128217448D01*
X144493177Y-128166766D01*
X144560140Y-128121461D01*
X144615516Y-128084150D01*
X144655420Y-128057452D01*
X144675962Y-128043985D01*
X144677356Y-128043137D01*
X144697038Y-128044781D01*
X144735293Y-128057245D01*
X144784889Y-128078048D01*
X144800728Y-128085462D01*
X144871290Y-128117814D01*
X144951353Y-128152328D01*
X145020629Y-128180365D01*
X145072045Y-128200568D01*
X145111119Y-128216615D01*
X145131541Y-128225888D01*
X145133114Y-128227041D01*
X145135721Y-128244096D01*
X145142863Y-128284298D01*
X145153523Y-128342302D01*
X145166685Y-128412763D01*
X145181333Y-128490335D01*
X145196449Y-128569672D01*
X145211018Y-128645431D01*
X145224022Y-128712264D01*
X145234445Y-128764828D01*
X145241270Y-128797776D01*
X145243199Y-128805857D01*
X145247962Y-128814205D01*
X145258718Y-128820506D01*
X145279098Y-128825045D01*
X145312734Y-128828104D01*
X145363255Y-128829967D01*
X145434292Y-128830918D01*
X145529476Y-128831240D01*
X145568492Y-128831257D01*
X145885799Y-128831257D01*
X145900839Y-128755057D01*
X145908995Y-128712663D01*
X145920899Y-128649400D01*
X145935116Y-128572962D01*
X145950210Y-128491043D01*
X145954355Y-128468400D01*
X145969053Y-128392806D01*
X145983505Y-128326953D01*
X145996375Y-128276366D01*
X146006322Y-128246574D01*
X146009287Y-128241612D01*
X146030283Y-128229426D01*
X146070967Y-128211953D01*
X146123322Y-128192577D01*
X146134600Y-128188734D01*
X146204523Y-128163339D01*
X146283418Y-128131817D01*
X146354266Y-128100969D01*
X146354595Y-128100817D01*
X146465733Y-128049447D01*
X146714253Y-128218399D01*
X146962772Y-128387352D01*
X147180058Y-128170429D01*
X147244726Y-128104819D01*
X147301733Y-128044979D01*
X147348033Y-127994267D01*
X147380584Y-127956046D01*
X147396343Y-127933675D01*
X147397343Y-127930466D01*
X147389469Y-127911626D01*
X147367578Y-127873180D01*
X147334267Y-127819330D01*
X147292131Y-127754276D01*
X147244943Y-127683940D01*
X147196810Y-127612555D01*
X147154928Y-127548908D01*
X147121871Y-127497041D01*
X147100218Y-127460995D01*
X147092543Y-127444867D01*
X147099037Y-127425189D01*
X147116150Y-127387875D01*
X147140326Y-127340621D01*
X147143013Y-127335612D01*
X147174927Y-127271977D01*
X147190579Y-127228341D01*
X147190745Y-127201202D01*
X147176204Y-127187057D01*
X147176000Y-127186975D01*
X147158779Y-127179905D01*
X147117899Y-127163042D01*
X147056525Y-127137695D01*
X146977819Y-127105171D01*
X146884947Y-127066778D01*
X146781072Y-127023822D01*
X146680502Y-126982222D01*
X146569516Y-126936504D01*
X146466703Y-126894526D01*
X146375215Y-126857548D01*
X146298201Y-126826827D01*
X146238815Y-126803622D01*
X146200209Y-126789190D01*
X146185800Y-126784743D01*
X146169272Y-126795896D01*
X146142930Y-126825069D01*
X146113887Y-126863971D01*
X146022039Y-126974757D01*
X145916759Y-127061351D01*
X145800266Y-127122716D01*
X145674776Y-127157815D01*
X145542507Y-127165608D01*
X145481457Y-127159943D01*
X145354795Y-127129078D01*
X145242941Y-127075920D01*
X145147001Y-127003767D01*
X145068076Y-126915917D01*
X145007270Y-126815665D01*
X144965687Y-126706310D01*
X144944428Y-126591147D01*
X144944599Y-126473475D01*
X144967301Y-126356590D01*
X145013638Y-126243789D01*
X145084713Y-126138369D01*
X145124911Y-126094368D01*
X145228129Y-126009979D01*
X145340925Y-125951222D01*
X145460010Y-125917704D01*
X145582095Y-125909035D01*
X145703893Y-125924823D01*
X145822116Y-125964678D01*
X145933475Y-126028207D01*
X146034684Y-126115021D01*
X146113887Y-126212029D01*
X146144162Y-126252437D01*
X146170219Y-126280982D01*
X146185825Y-126291257D01*
X146202843Y-126285877D01*
X146243500Y-126270575D01*
X146304642Y-126246612D01*
X146383119Y-126215244D01*
X146475780Y-126177732D01*
X146579472Y-126135333D01*
X146680526Y-126093663D01*
X146791607Y-126047690D01*
X146894541Y-126005107D01*
X146986165Y-125967221D01*
X147063316Y-125935340D01*
X147122831Y-125910771D01*
X147161544Y-125894820D01*
X147176000Y-125888910D01*
X147190685Y-125874948D01*
X147190642Y-125847940D01*
X147175099Y-125804413D01*
X147143284Y-125740890D01*
X147143013Y-125740388D01*
X147118323Y-125692560D01*
X147100338Y-125653897D01*
X147092614Y-125632095D01*
X147092543Y-125631133D01*
X147100378Y-125614721D01*
X147122165Y-125578487D01*
X147155328Y-125526474D01*
X147197291Y-125462725D01*
X147244943Y-125392060D01*
X147293191Y-125320116D01*
X147335151Y-125255274D01*
X147368227Y-125201735D01*
X147389821Y-125163697D01*
X147397343Y-125145533D01*
X147387457Y-125128808D01*
X147359826Y-125095180D01*
X147317495Y-125048010D01*
X147263505Y-124990658D01*
X147200899Y-124926484D01*
X147179983Y-124905497D01*
X146962623Y-124688499D01*
X146720220Y-124853668D01*
X146645781Y-124903864D01*
X146578972Y-124947919D01*
X146523665Y-124983362D01*
X146483729Y-125007719D01*
X146463036Y-125018522D01*
X146461563Y-125018838D01*
X146442058Y-125013143D01*
X146402822Y-124997826D01*
X146350430Y-124975537D01*
X146315355Y-124959893D01*
X146248201Y-124930641D01*
X146180358Y-124903094D01*
X146123034Y-124881737D01*
X146105572Y-124875935D01*
X146058938Y-124859452D01*
X146022905Y-124843340D01*
X146009287Y-124834490D01*
X146000952Y-124814960D01*
X145989137Y-124772334D01*
X145975181Y-124712145D01*
X145960422Y-124639922D01*
X145954355Y-124607600D01*
X145939273Y-124525522D01*
X145924669Y-124446795D01*
X145911980Y-124379109D01*
X145902642Y-124330160D01*
X145900839Y-124320943D01*
X145885799Y-124244743D01*
X145568492Y-124244743D01*
X145464154Y-124244914D01*
X145385213Y-124245616D01*
X145328038Y-124247134D01*
X145288999Y-124249749D01*
X145264465Y-124253746D01*
X145250805Y-124259409D01*
X145244389Y-124267020D01*
X145243199Y-124270143D01*
X145238980Y-124288978D01*
X145230562Y-124330588D01*
X145218961Y-124389630D01*
X145205195Y-124460757D01*
X145190280Y-124538625D01*
X145175232Y-124617887D01*
X145161069Y-124693198D01*
X145148806Y-124759213D01*
X145139461Y-124810587D01*
X145134050Y-124841975D01*
X145133114Y-124848959D01*
X145120596Y-124855285D01*
X145087246Y-124869290D01*
X145039377Y-124888355D01*
X145020629Y-124895634D01*
X144948195Y-124924996D01*
X144868170Y-124959571D01*
X144800728Y-124990537D01*
X144749159Y-125013323D01*
X144706785Y-125028482D01*
X144680834Y-125033542D01*
X144677356Y-125032736D01*
X144660936Y-125022041D01*
X144624417Y-124997620D01*
X144571687Y-124962095D01*
X144506635Y-124918087D01*
X144433151Y-124868217D01*
X144418645Y-124858356D01*
X144332704Y-124800492D01*
X144267261Y-124757956D01*
X144219304Y-124729054D01*
X144185820Y-124712090D01*
X144163795Y-124705367D01*
X144150217Y-124707190D01*
X144150131Y-124707236D01*
X144132297Y-124721586D01*
X144097817Y-124753323D01*
X144050268Y-124799010D01*
X143993222Y-124855204D01*
X143930255Y-124918468D01*
X143923227Y-124925602D01*
X143846020Y-125005330D01*
X143789330Y-125066857D01*
X143752110Y-125111421D01*
X143733315Y-125140257D01*
X143730889Y-125152958D01*
X143741471Y-125171494D01*
X143765916Y-125209961D01*
X143801612Y-125264386D01*
X143845947Y-125330798D01*
X143896311Y-125405225D01*
X143908160Y-125422601D01*
X144076626Y-125669297D01*
X144026062Y-125780706D01*
X143996595Y-125848457D01*
X143966959Y-125921183D01*
X143943330Y-125983703D01*
X143942358Y-125986457D01*
X143924457Y-126035360D01*
X143909320Y-126073057D01*
X143900210Y-126091425D01*
X143900184Y-126091456D01*
X143883717Y-126097285D01*
X143843219Y-126107192D01*
X143783242Y-126120195D01*
X143708340Y-126135309D01*
X143623064Y-126151552D01*
X143615875Y-126152881D01*
X143528014Y-126169175D01*
X143448260Y-126184133D01*
X143381681Y-126196791D01*
X143333347Y-126206186D01*
X143308325Y-126211354D01*
X143307943Y-126211444D01*
X143297299Y-126214589D01*
X143289262Y-126220704D01*
X143283467Y-126233453D01*
X143279547Y-126256500D01*
X143277135Y-126293509D01*
X143275865Y-126348144D01*
X143275371Y-126424067D01*
X143275286Y-126524944D01*
X143275286Y-126538000D01*
X143275348Y-126641910D01*
X143275348Y-126641910D01*
G37*
X143275348Y-126641910D02*
X143275778Y-126720454D01*
X143276942Y-126777298D01*
X143279207Y-126816105D01*
X143282940Y-126840538D01*
X143288506Y-126854262D01*
X143296273Y-126860940D01*
X143306605Y-126864236D01*
X143307943Y-126864556D01*
X143332079Y-126869562D01*
X143379701Y-126878829D01*
X143445741Y-126891392D01*
X143525128Y-126906287D01*
X143612796Y-126922551D01*
X143615875Y-126923119D01*
X143701789Y-126939410D01*
X143777696Y-126954652D01*
X143839045Y-126967861D01*
X143881282Y-126978054D01*
X143899855Y-126984248D01*
X143900184Y-126984543D01*
X143909253Y-127002788D01*
X143924367Y-127040405D01*
X143942262Y-127089271D01*
X143942358Y-127089543D01*
X143965493Y-127151093D01*
X143994965Y-127223657D01*
X144024597Y-127292057D01*
X144026062Y-127295294D01*
X144076626Y-127406702D01*
X143908160Y-127653399D01*
X143856803Y-127729077D01*
X143810889Y-127797631D01*
X143773030Y-127855088D01*
X143745837Y-127897476D01*
X143731921Y-127920825D01*
X143730889Y-127923042D01*
X143735484Y-127940010D01*
X143757655Y-127971701D01*
X143798447Y-128019352D01*
X143858905Y-128084198D01*
X143923227Y-128150397D01*
X143986612Y-128214214D01*
X144044451Y-128271329D01*
X144093175Y-128318305D01*
X144129210Y-128351703D01*
X144148984Y-128368085D01*
X144150002Y-128368694D01*
X144163572Y-128370505D01*
X144185733Y-128363683D01*
X144219478Y-128346540D01*
X144267800Y-128317393D01*
X144333692Y-128274555D01*
X144418517Y-128217448D01*
X144493177Y-128166766D01*
X144560140Y-128121461D01*
X144615516Y-128084150D01*
X144655420Y-128057452D01*
X144675962Y-128043985D01*
X144677356Y-128043137D01*
X144697038Y-128044781D01*
X144735293Y-128057245D01*
X144784889Y-128078048D01*
X144800728Y-128085462D01*
X144871290Y-128117814D01*
X144951353Y-128152328D01*
X145020629Y-128180365D01*
X145072045Y-128200568D01*
X145111119Y-128216615D01*
X145131541Y-128225888D01*
X145133114Y-128227041D01*
X145135721Y-128244096D01*
X145142863Y-128284298D01*
X145153523Y-128342302D01*
X145166685Y-128412763D01*
X145181333Y-128490335D01*
X145196449Y-128569672D01*
X145211018Y-128645431D01*
X145224022Y-128712264D01*
X145234445Y-128764828D01*
X145241270Y-128797776D01*
X145243199Y-128805857D01*
X145247962Y-128814205D01*
X145258718Y-128820506D01*
X145279098Y-128825045D01*
X145312734Y-128828104D01*
X145363255Y-128829967D01*
X145434292Y-128830918D01*
X145529476Y-128831240D01*
X145568492Y-128831257D01*
X145885799Y-128831257D01*
X145900839Y-128755057D01*
X145908995Y-128712663D01*
X145920899Y-128649400D01*
X145935116Y-128572962D01*
X145950210Y-128491043D01*
X145954355Y-128468400D01*
X145969053Y-128392806D01*
X145983505Y-128326953D01*
X145996375Y-128276366D01*
X146006322Y-128246574D01*
X146009287Y-128241612D01*
X146030283Y-128229426D01*
X146070967Y-128211953D01*
X146123322Y-128192577D01*
X146134600Y-128188734D01*
X146204523Y-128163339D01*
X146283418Y-128131817D01*
X146354266Y-128100969D01*
X146354595Y-128100817D01*
X146465733Y-128049447D01*
X146714253Y-128218399D01*
X146962772Y-128387352D01*
X147180058Y-128170429D01*
X147244726Y-128104819D01*
X147301733Y-128044979D01*
X147348033Y-127994267D01*
X147380584Y-127956046D01*
X147396343Y-127933675D01*
X147397343Y-127930466D01*
X147389469Y-127911626D01*
X147367578Y-127873180D01*
X147334267Y-127819330D01*
X147292131Y-127754276D01*
X147244943Y-127683940D01*
X147196810Y-127612555D01*
X147154928Y-127548908D01*
X147121871Y-127497041D01*
X147100218Y-127460995D01*
X147092543Y-127444867D01*
X147099037Y-127425189D01*
X147116150Y-127387875D01*
X147140326Y-127340621D01*
X147143013Y-127335612D01*
X147174927Y-127271977D01*
X147190579Y-127228341D01*
X147190745Y-127201202D01*
X147176204Y-127187057D01*
X147176000Y-127186975D01*
X147158779Y-127179905D01*
X147117899Y-127163042D01*
X147056525Y-127137695D01*
X146977819Y-127105171D01*
X146884947Y-127066778D01*
X146781072Y-127023822D01*
X146680502Y-126982222D01*
X146569516Y-126936504D01*
X146466703Y-126894526D01*
X146375215Y-126857548D01*
X146298201Y-126826827D01*
X146238815Y-126803622D01*
X146200209Y-126789190D01*
X146185800Y-126784743D01*
X146169272Y-126795896D01*
X146142930Y-126825069D01*
X146113887Y-126863971D01*
X146022039Y-126974757D01*
X145916759Y-127061351D01*
X145800266Y-127122716D01*
X145674776Y-127157815D01*
X145542507Y-127165608D01*
X145481457Y-127159943D01*
X145354795Y-127129078D01*
X145242941Y-127075920D01*
X145147001Y-127003767D01*
X145068076Y-126915917D01*
X145007270Y-126815665D01*
X144965687Y-126706310D01*
X144944428Y-126591147D01*
X144944599Y-126473475D01*
X144967301Y-126356590D01*
X145013638Y-126243789D01*
X145084713Y-126138369D01*
X145124911Y-126094368D01*
X145228129Y-126009979D01*
X145340925Y-125951222D01*
X145460010Y-125917704D01*
X145582095Y-125909035D01*
X145703893Y-125924823D01*
X145822116Y-125964678D01*
X145933475Y-126028207D01*
X146034684Y-126115021D01*
X146113887Y-126212029D01*
X146144162Y-126252437D01*
X146170219Y-126280982D01*
X146185825Y-126291257D01*
X146202843Y-126285877D01*
X146243500Y-126270575D01*
X146304642Y-126246612D01*
X146383119Y-126215244D01*
X146475780Y-126177732D01*
X146579472Y-126135333D01*
X146680526Y-126093663D01*
X146791607Y-126047690D01*
X146894541Y-126005107D01*
X146986165Y-125967221D01*
X147063316Y-125935340D01*
X147122831Y-125910771D01*
X147161544Y-125894820D01*
X147176000Y-125888910D01*
X147190685Y-125874948D01*
X147190642Y-125847940D01*
X147175099Y-125804413D01*
X147143284Y-125740890D01*
X147143013Y-125740388D01*
X147118323Y-125692560D01*
X147100338Y-125653897D01*
X147092614Y-125632095D01*
X147092543Y-125631133D01*
X147100378Y-125614721D01*
X147122165Y-125578487D01*
X147155328Y-125526474D01*
X147197291Y-125462725D01*
X147244943Y-125392060D01*
X147293191Y-125320116D01*
X147335151Y-125255274D01*
X147368227Y-125201735D01*
X147389821Y-125163697D01*
X147397343Y-125145533D01*
X147387457Y-125128808D01*
X147359826Y-125095180D01*
X147317495Y-125048010D01*
X147263505Y-124990658D01*
X147200899Y-124926484D01*
X147179983Y-124905497D01*
X146962623Y-124688499D01*
X146720220Y-124853668D01*
X146645781Y-124903864D01*
X146578972Y-124947919D01*
X146523665Y-124983362D01*
X146483729Y-125007719D01*
X146463036Y-125018522D01*
X146461563Y-125018838D01*
X146442058Y-125013143D01*
X146402822Y-124997826D01*
X146350430Y-124975537D01*
X146315355Y-124959893D01*
X146248201Y-124930641D01*
X146180358Y-124903094D01*
X146123034Y-124881737D01*
X146105572Y-124875935D01*
X146058938Y-124859452D01*
X146022905Y-124843340D01*
X146009287Y-124834490D01*
X146000952Y-124814960D01*
X145989137Y-124772334D01*
X145975181Y-124712145D01*
X145960422Y-124639922D01*
X145954355Y-124607600D01*
X145939273Y-124525522D01*
X145924669Y-124446795D01*
X145911980Y-124379109D01*
X145902642Y-124330160D01*
X145900839Y-124320943D01*
X145885799Y-124244743D01*
X145568492Y-124244743D01*
X145464154Y-124244914D01*
X145385213Y-124245616D01*
X145328038Y-124247134D01*
X145288999Y-124249749D01*
X145264465Y-124253746D01*
X145250805Y-124259409D01*
X145244389Y-124267020D01*
X145243199Y-124270143D01*
X145238980Y-124288978D01*
X145230562Y-124330588D01*
X145218961Y-124389630D01*
X145205195Y-124460757D01*
X145190280Y-124538625D01*
X145175232Y-124617887D01*
X145161069Y-124693198D01*
X145148806Y-124759213D01*
X145139461Y-124810587D01*
X145134050Y-124841975D01*
X145133114Y-124848959D01*
X145120596Y-124855285D01*
X145087246Y-124869290D01*
X145039377Y-124888355D01*
X145020629Y-124895634D01*
X144948195Y-124924996D01*
X144868170Y-124959571D01*
X144800728Y-124990537D01*
X144749159Y-125013323D01*
X144706785Y-125028482D01*
X144680834Y-125033542D01*
X144677356Y-125032736D01*
X144660936Y-125022041D01*
X144624417Y-124997620D01*
X144571687Y-124962095D01*
X144506635Y-124918087D01*
X144433151Y-124868217D01*
X144418645Y-124858356D01*
X144332704Y-124800492D01*
X144267261Y-124757956D01*
X144219304Y-124729054D01*
X144185820Y-124712090D01*
X144163795Y-124705367D01*
X144150217Y-124707190D01*
X144150131Y-124707236D01*
X144132297Y-124721586D01*
X144097817Y-124753323D01*
X144050268Y-124799010D01*
X143993222Y-124855204D01*
X143930255Y-124918468D01*
X143923227Y-124925602D01*
X143846020Y-125005330D01*
X143789330Y-125066857D01*
X143752110Y-125111421D01*
X143733315Y-125140257D01*
X143730889Y-125152958D01*
X143741471Y-125171494D01*
X143765916Y-125209961D01*
X143801612Y-125264386D01*
X143845947Y-125330798D01*
X143896311Y-125405225D01*
X143908160Y-125422601D01*
X144076626Y-125669297D01*
X144026062Y-125780706D01*
X143996595Y-125848457D01*
X143966959Y-125921183D01*
X143943330Y-125983703D01*
X143942358Y-125986457D01*
X143924457Y-126035360D01*
X143909320Y-126073057D01*
X143900210Y-126091425D01*
X143900184Y-126091456D01*
X143883717Y-126097285D01*
X143843219Y-126107192D01*
X143783242Y-126120195D01*
X143708340Y-126135309D01*
X143623064Y-126151552D01*
X143615875Y-126152881D01*
X143528014Y-126169175D01*
X143448260Y-126184133D01*
X143381681Y-126196791D01*
X143333347Y-126206186D01*
X143308325Y-126211354D01*
X143307943Y-126211444D01*
X143297299Y-126214589D01*
X143289262Y-126220704D01*
X143283467Y-126233453D01*
X143279547Y-126256500D01*
X143277135Y-126293509D01*
X143275865Y-126348144D01*
X143275371Y-126424067D01*
X143275286Y-126524944D01*
X143275286Y-126538000D01*
X143275348Y-126641910D01*
G36*
X148048066Y-107716629D02*
X148048467Y-107756111D01*
X148051259Y-107871800D01*
X148059550Y-107968689D01*
X148074232Y-108050081D01*
X148096193Y-108119277D01*
X148126322Y-108179580D01*
X148165510Y-108234292D01*
X148182532Y-108253833D01*
X148222363Y-108286250D01*
X148276413Y-108315480D01*
X148336323Y-108338009D01*
X148393739Y-108350321D01*
X148414956Y-108351600D01*
X148473769Y-108343583D01*
X148538013Y-108322101D01*
X148598821Y-108291001D01*
X148647330Y-108254134D01*
X148653182Y-108248146D01*
X148694321Y-108197421D01*
X148726435Y-108141875D01*
X148750365Y-108078304D01*
X148766953Y-108003506D01*
X148777041Y-107914278D01*
X148781469Y-107807418D01*
X148781845Y-107758472D01*
X148781545Y-107696238D01*
X148780292Y-107652472D01*
X148777554Y-107623069D01*
X148772801Y-107603921D01*
X148765501Y-107590923D01*
X148759267Y-107583955D01*
X148751694Y-107577374D01*
X148741924Y-107572212D01*
X148727340Y-107568297D01*
X148705326Y-107565457D01*
X148673264Y-107563520D01*
X148628536Y-107562316D01*
X148568526Y-107561672D01*
X148490617Y-107561417D01*
X148414956Y-107561378D01*
X148314041Y-107561130D01*
X148233427Y-107561183D01*
X148194822Y-107562143D01*
X148194822Y-107708133D01*
X148635089Y-107708133D01*
X148635004Y-107801266D01*
X148633396Y-107857307D01*
X148629256Y-107916001D01*
X148623464Y-107964972D01*
X148623226Y-107966462D01*
X148604090Y-108045608D01*
X148574287Y-108106998D01*
X148531878Y-108153695D01*
X148485961Y-108183365D01*
X148435026Y-108201647D01*
X148387200Y-108200229D01*
X148335933Y-108179012D01*
X148282899Y-108137511D01*
X148243600Y-108080002D01*
X148217331Y-108005250D01*
X148208035Y-107955292D01*
X148201507Y-107898584D01*
X148196782Y-107838481D01*
X148194817Y-107787361D01*
X148194808Y-107784333D01*
X148194822Y-107708133D01*
X148194822Y-107562143D01*
X148170851Y-107562740D01*
X148124055Y-107567002D01*
X148090778Y-107575170D01*
X148068759Y-107588444D01*
X148055739Y-107608026D01*
X148049457Y-107635117D01*
X148047653Y-107670918D01*
X148048066Y-107716629D01*
X148048066Y-107716629D01*
G37*
X148048066Y-107716629D02*
X148048467Y-107756111D01*
X148051259Y-107871800D01*
X148059550Y-107968689D01*
X148074232Y-108050081D01*
X148096193Y-108119277D01*
X148126322Y-108179580D01*
X148165510Y-108234292D01*
X148182532Y-108253833D01*
X148222363Y-108286250D01*
X148276413Y-108315480D01*
X148336323Y-108338009D01*
X148393739Y-108350321D01*
X148414956Y-108351600D01*
X148473769Y-108343583D01*
X148538013Y-108322101D01*
X148598821Y-108291001D01*
X148647330Y-108254134D01*
X148653182Y-108248146D01*
X148694321Y-108197421D01*
X148726435Y-108141875D01*
X148750365Y-108078304D01*
X148766953Y-108003506D01*
X148777041Y-107914278D01*
X148781469Y-107807418D01*
X148781845Y-107758472D01*
X148781545Y-107696238D01*
X148780292Y-107652472D01*
X148777554Y-107623069D01*
X148772801Y-107603921D01*
X148765501Y-107590923D01*
X148759267Y-107583955D01*
X148751694Y-107577374D01*
X148741924Y-107572212D01*
X148727340Y-107568297D01*
X148705326Y-107565457D01*
X148673264Y-107563520D01*
X148628536Y-107562316D01*
X148568526Y-107561672D01*
X148490617Y-107561417D01*
X148414956Y-107561378D01*
X148314041Y-107561130D01*
X148233427Y-107561183D01*
X148194822Y-107562143D01*
X148194822Y-107708133D01*
X148635089Y-107708133D01*
X148635004Y-107801266D01*
X148633396Y-107857307D01*
X148629256Y-107916001D01*
X148623464Y-107964972D01*
X148623226Y-107966462D01*
X148604090Y-108045608D01*
X148574287Y-108106998D01*
X148531878Y-108153695D01*
X148485961Y-108183365D01*
X148435026Y-108201647D01*
X148387200Y-108200229D01*
X148335933Y-108179012D01*
X148282899Y-108137511D01*
X148243600Y-108080002D01*
X148217331Y-108005250D01*
X148208035Y-107955292D01*
X148201507Y-107898584D01*
X148196782Y-107838481D01*
X148194817Y-107787361D01*
X148194808Y-107784333D01*
X148194822Y-107708133D01*
X148194822Y-107562143D01*
X148170851Y-107562740D01*
X148124055Y-107567002D01*
X148090778Y-107575170D01*
X148068759Y-107588444D01*
X148055739Y-107608026D01*
X148049457Y-107635117D01*
X148047653Y-107670918D01*
X148048066Y-107716629D01*
G36*
X148048146Y-109125206D02*
X148048518Y-109194614D01*
X148049385Y-109247003D01*
X148050946Y-109285153D01*
X148053403Y-109311841D01*
X148056957Y-109329847D01*
X148061810Y-109341951D01*
X148068161Y-109350931D01*
X148071084Y-109354182D01*
X148102142Y-109373957D01*
X148137828Y-109377518D01*
X148169510Y-109364509D01*
X148175913Y-109358494D01*
X148182121Y-109348765D01*
X148186910Y-109333099D01*
X148190514Y-109308592D01*
X148193164Y-109272339D01*
X148195095Y-109221435D01*
X148196539Y-109152974D01*
X148197418Y-109090383D01*
X148200467Y-108842666D01*
X148265378Y-108839281D01*
X148330289Y-108835895D01*
X148330289Y-109004042D01*
X148330919Y-109077041D01*
X148333553Y-109130483D01*
X148339309Y-109167372D01*
X148349304Y-109190712D01*
X148364656Y-109203506D01*
X148386482Y-109208758D01*
X148406738Y-109209555D01*
X148431592Y-109207077D01*
X148449906Y-109197723D01*
X148462637Y-109178617D01*
X148470741Y-109146882D01*
X148475176Y-109099641D01*
X148476899Y-109034017D01*
X148477045Y-108998199D01*
X148477045Y-108837022D01*
X148635089Y-108837022D01*
X148635089Y-109085378D01*
X148635202Y-109166787D01*
X148635712Y-109228658D01*
X148636870Y-109274032D01*
X148638930Y-109305946D01*
X148642146Y-109327441D01*
X148646772Y-109341557D01*
X148653059Y-109351332D01*
X148657667Y-109356311D01*
X148684560Y-109373390D01*
X148708467Y-109378889D01*
X148737667Y-109371037D01*
X148759267Y-109356311D01*
X148766066Y-109348454D01*
X148771346Y-109338312D01*
X148775298Y-109323156D01*
X148778113Y-109300259D01*
X148779982Y-109266891D01*
X148781098Y-109220325D01*
X148781651Y-109157833D01*
X148781833Y-109076686D01*
X148781845Y-109034578D01*
X148781765Y-108944402D01*
X148781398Y-108874076D01*
X148780552Y-108820871D01*
X148779036Y-108782060D01*
X148776659Y-108754913D01*
X148773229Y-108736702D01*
X148768554Y-108724700D01*
X148762444Y-108716178D01*
X148759267Y-108712844D01*
X148751670Y-108706245D01*
X148741870Y-108701073D01*
X148727239Y-108697154D01*
X148705152Y-108694316D01*
X148672982Y-108692385D01*
X148628103Y-108691188D01*
X148567889Y-108690552D01*
X148489713Y-108690303D01*
X148416923Y-108690266D01*
X148323707Y-108690300D01*
X148250431Y-108690535D01*
X148194458Y-108691170D01*
X148153151Y-108692406D01*
X148123872Y-108694444D01*
X148103984Y-108697483D01*
X148090850Y-108701723D01*
X148081832Y-108707365D01*
X148074293Y-108714609D01*
X148072612Y-108716394D01*
X148065172Y-108725055D01*
X148059409Y-108735118D01*
X148055112Y-108749375D01*
X148052064Y-108770617D01*
X148050051Y-108801636D01*
X148048860Y-108845223D01*
X148048275Y-108904169D01*
X148048083Y-108981266D01*
X148048067Y-109035999D01*
X148048146Y-109125206D01*
X148048146Y-109125206D01*
G37*
X148048146Y-109125206D02*
X148048518Y-109194614D01*
X148049385Y-109247003D01*
X148050946Y-109285153D01*
X148053403Y-109311841D01*
X148056957Y-109329847D01*
X148061810Y-109341951D01*
X148068161Y-109350931D01*
X148071084Y-109354182D01*
X148102142Y-109373957D01*
X148137828Y-109377518D01*
X148169510Y-109364509D01*
X148175913Y-109358494D01*
X148182121Y-109348765D01*
X148186910Y-109333099D01*
X148190514Y-109308592D01*
X148193164Y-109272339D01*
X148195095Y-109221435D01*
X148196539Y-109152974D01*
X148197418Y-109090383D01*
X148200467Y-108842666D01*
X148265378Y-108839281D01*
X148330289Y-108835895D01*
X148330289Y-109004042D01*
X148330919Y-109077041D01*
X148333553Y-109130483D01*
X148339309Y-109167372D01*
X148349304Y-109190712D01*
X148364656Y-109203506D01*
X148386482Y-109208758D01*
X148406738Y-109209555D01*
X148431592Y-109207077D01*
X148449906Y-109197723D01*
X148462637Y-109178617D01*
X148470741Y-109146882D01*
X148475176Y-109099641D01*
X148476899Y-109034017D01*
X148477045Y-108998199D01*
X148477045Y-108837022D01*
X148635089Y-108837022D01*
X148635089Y-109085378D01*
X148635202Y-109166787D01*
X148635712Y-109228658D01*
X148636870Y-109274032D01*
X148638930Y-109305946D01*
X148642146Y-109327441D01*
X148646772Y-109341557D01*
X148653059Y-109351332D01*
X148657667Y-109356311D01*
X148684560Y-109373390D01*
X148708467Y-109378889D01*
X148737667Y-109371037D01*
X148759267Y-109356311D01*
X148766066Y-109348454D01*
X148771346Y-109338312D01*
X148775298Y-109323156D01*
X148778113Y-109300259D01*
X148779982Y-109266891D01*
X148781098Y-109220325D01*
X148781651Y-109157833D01*
X148781833Y-109076686D01*
X148781845Y-109034578D01*
X148781765Y-108944402D01*
X148781398Y-108874076D01*
X148780552Y-108820871D01*
X148779036Y-108782060D01*
X148776659Y-108754913D01*
X148773229Y-108736702D01*
X148768554Y-108724700D01*
X148762444Y-108716178D01*
X148759267Y-108712844D01*
X148751670Y-108706245D01*
X148741870Y-108701073D01*
X148727239Y-108697154D01*
X148705152Y-108694316D01*
X148672982Y-108692385D01*
X148628103Y-108691188D01*
X148567889Y-108690552D01*
X148489713Y-108690303D01*
X148416923Y-108690266D01*
X148323707Y-108690300D01*
X148250431Y-108690535D01*
X148194458Y-108691170D01*
X148153151Y-108692406D01*
X148123872Y-108694444D01*
X148103984Y-108697483D01*
X148090850Y-108701723D01*
X148081832Y-108707365D01*
X148074293Y-108714609D01*
X148072612Y-108716394D01*
X148065172Y-108725055D01*
X148059409Y-108735118D01*
X148055112Y-108749375D01*
X148052064Y-108770617D01*
X148050051Y-108801636D01*
X148048860Y-108845223D01*
X148048275Y-108904169D01*
X148048083Y-108981266D01*
X148048067Y-109035999D01*
X148048146Y-109125206D01*
G36*
X148049351Y-110146297D02*
X148054581Y-110221112D01*
X148062750Y-110290694D01*
X148073550Y-110350998D01*
X148086673Y-110397980D01*
X148101813Y-110427594D01*
X148106269Y-110432140D01*
X148140850Y-110447946D01*
X148176351Y-110443153D01*
X148206725Y-110418636D01*
X148207596Y-110417466D01*
X148216954Y-110403046D01*
X148221876Y-110387992D01*
X148222473Y-110366995D01*
X148218861Y-110334743D01*
X148211154Y-110285927D01*
X148210505Y-110282000D01*
X148201569Y-110209261D01*
X148197161Y-110130783D01*
X148197119Y-110052073D01*
X148201279Y-109978639D01*
X148209479Y-109915989D01*
X148221557Y-109869630D01*
X148222771Y-109866584D01*
X148241615Y-109832952D01*
X148260685Y-109821136D01*
X148279439Y-109830386D01*
X148297337Y-109859953D01*
X148313837Y-109909089D01*
X148328396Y-109977043D01*
X148335406Y-110022355D01*
X148348889Y-110116544D01*
X148361214Y-110191456D01*
X148373449Y-110250283D01*
X148386661Y-110296215D01*
X148401917Y-110332445D01*
X148420285Y-110362162D01*
X148442831Y-110388558D01*
X148464971Y-110409770D01*
X148495819Y-110434935D01*
X148522345Y-110447319D01*
X148555026Y-110451192D01*
X148566995Y-110451333D01*
X148606712Y-110448424D01*
X148636259Y-110436798D01*
X148662486Y-110416677D01*
X148702576Y-110375784D01*
X148733149Y-110330183D01*
X148755203Y-110276487D01*
X148769735Y-110211308D01*
X148777741Y-110131256D01*
X148780218Y-110032943D01*
X148780177Y-110016711D01*
X148778818Y-109951151D01*
X148775730Y-109886134D01*
X148771356Y-109828748D01*
X148766140Y-109786078D01*
X148765541Y-109782628D01*
X148755491Y-109740204D01*
X148742796Y-109704220D01*
X148731190Y-109683850D01*
X148700572Y-109664893D01*
X148664918Y-109663573D01*
X148633144Y-109679915D01*
X148629551Y-109683571D01*
X148618876Y-109698685D01*
X148614276Y-109717585D01*
X148615059Y-109746838D01*
X148619127Y-109782349D01*
X148622762Y-109822030D01*
X148625828Y-109877655D01*
X148628053Y-109942594D01*
X148629164Y-110010215D01*
X148629237Y-110028000D01*
X148628964Y-110095872D01*
X148627646Y-110145546D01*
X148624827Y-110181390D01*
X148620050Y-110207776D01*
X148612857Y-110229074D01*
X148606867Y-110241874D01*
X148590233Y-110270000D01*
X148575168Y-110287932D01*
X148570897Y-110290553D01*
X148553263Y-110285024D01*
X148536192Y-110258740D01*
X148520458Y-110213522D01*
X148506838Y-110151192D01*
X148503804Y-110132829D01*
X148488738Y-110036910D01*
X148476146Y-109960359D01*
X148465111Y-109900220D01*
X148454720Y-109853540D01*
X148444056Y-109817363D01*
X148432205Y-109788735D01*
X148418251Y-109764702D01*
X148401281Y-109742308D01*
X148380378Y-109718598D01*
X148373049Y-109710620D01*
X148345699Y-109682647D01*
X148324029Y-109667840D01*
X148299232Y-109662048D01*
X148267983Y-109661111D01*
X148206705Y-109671425D01*
X148154640Y-109702248D01*
X148111958Y-109753405D01*
X148078825Y-109824717D01*
X148063964Y-109875600D01*
X148054366Y-109930900D01*
X148048936Y-109997147D01*
X148047367Y-110070294D01*
X148049351Y-110146297D01*
X148049351Y-110146297D01*
G37*
X148049351Y-110146297D02*
X148054581Y-110221112D01*
X148062750Y-110290694D01*
X148073550Y-110350998D01*
X148086673Y-110397980D01*
X148101813Y-110427594D01*
X148106269Y-110432140D01*
X148140850Y-110447946D01*
X148176351Y-110443153D01*
X148206725Y-110418636D01*
X148207596Y-110417466D01*
X148216954Y-110403046D01*
X148221876Y-110387992D01*
X148222473Y-110366995D01*
X148218861Y-110334743D01*
X148211154Y-110285927D01*
X148210505Y-110282000D01*
X148201569Y-110209261D01*
X148197161Y-110130783D01*
X148197119Y-110052073D01*
X148201279Y-109978639D01*
X148209479Y-109915989D01*
X148221557Y-109869630D01*
X148222771Y-109866584D01*
X148241615Y-109832952D01*
X148260685Y-109821136D01*
X148279439Y-109830386D01*
X148297337Y-109859953D01*
X148313837Y-109909089D01*
X148328396Y-109977043D01*
X148335406Y-110022355D01*
X148348889Y-110116544D01*
X148361214Y-110191456D01*
X148373449Y-110250283D01*
X148386661Y-110296215D01*
X148401917Y-110332445D01*
X148420285Y-110362162D01*
X148442831Y-110388558D01*
X148464971Y-110409770D01*
X148495819Y-110434935D01*
X148522345Y-110447319D01*
X148555026Y-110451192D01*
X148566995Y-110451333D01*
X148606712Y-110448424D01*
X148636259Y-110436798D01*
X148662486Y-110416677D01*
X148702576Y-110375784D01*
X148733149Y-110330183D01*
X148755203Y-110276487D01*
X148769735Y-110211308D01*
X148777741Y-110131256D01*
X148780218Y-110032943D01*
X148780177Y-110016711D01*
X148778818Y-109951151D01*
X148775730Y-109886134D01*
X148771356Y-109828748D01*
X148766140Y-109786078D01*
X148765541Y-109782628D01*
X148755491Y-109740204D01*
X148742796Y-109704220D01*
X148731190Y-109683850D01*
X148700572Y-109664893D01*
X148664918Y-109663573D01*
X148633144Y-109679915D01*
X148629551Y-109683571D01*
X148618876Y-109698685D01*
X148614276Y-109717585D01*
X148615059Y-109746838D01*
X148619127Y-109782349D01*
X148622762Y-109822030D01*
X148625828Y-109877655D01*
X148628053Y-109942594D01*
X148629164Y-110010215D01*
X148629237Y-110028000D01*
X148628964Y-110095872D01*
X148627646Y-110145546D01*
X148624827Y-110181390D01*
X148620050Y-110207776D01*
X148612857Y-110229074D01*
X148606867Y-110241874D01*
X148590233Y-110270000D01*
X148575168Y-110287932D01*
X148570897Y-110290553D01*
X148553263Y-110285024D01*
X148536192Y-110258740D01*
X148520458Y-110213522D01*
X148506838Y-110151192D01*
X148503804Y-110132829D01*
X148488738Y-110036910D01*
X148476146Y-109960359D01*
X148465111Y-109900220D01*
X148454720Y-109853540D01*
X148444056Y-109817363D01*
X148432205Y-109788735D01*
X148418251Y-109764702D01*
X148401281Y-109742308D01*
X148380378Y-109718598D01*
X148373049Y-109710620D01*
X148345699Y-109682647D01*
X148324029Y-109667840D01*
X148299232Y-109662048D01*
X148267983Y-109661111D01*
X148206705Y-109671425D01*
X148154640Y-109702248D01*
X148111958Y-109753405D01*
X148078825Y-109824717D01*
X148063964Y-109875600D01*
X148054366Y-109930900D01*
X148048936Y-109997147D01*
X148047367Y-110070294D01*
X148049351Y-110146297D01*
G36*
X148070645Y-110914178D02*
X148078218Y-110920758D01*
X148087987Y-110925921D01*
X148102571Y-110929836D01*
X148124585Y-110932676D01*
X148156648Y-110934613D01*
X148201375Y-110935817D01*
X148261385Y-110936461D01*
X148339294Y-110936716D01*
X148414956Y-110936755D01*
X148508802Y-110936686D01*
X148582689Y-110936362D01*
X148639232Y-110935614D01*
X148681049Y-110934268D01*
X148710757Y-110932154D01*
X148730973Y-110929100D01*
X148744314Y-110924934D01*
X148753398Y-110919484D01*
X148759267Y-110914178D01*
X148778947Y-110881174D01*
X148777181Y-110846009D01*
X148755717Y-110814545D01*
X148747337Y-110807316D01*
X148737614Y-110801666D01*
X148723861Y-110797401D01*
X148703389Y-110794327D01*
X148673512Y-110792248D01*
X148631541Y-110790970D01*
X148574789Y-110790299D01*
X148500567Y-110790041D01*
X148416537Y-110790000D01*
X148103485Y-110790000D01*
X148075776Y-110817709D01*
X148052463Y-110851863D01*
X148051623Y-110884994D01*
X148070645Y-110914178D01*
X148070645Y-110914178D01*
G37*
X148070645Y-110914178D02*
X148078218Y-110920758D01*
X148087987Y-110925921D01*
X148102571Y-110929836D01*
X148124585Y-110932676D01*
X148156648Y-110934613D01*
X148201375Y-110935817D01*
X148261385Y-110936461D01*
X148339294Y-110936716D01*
X148414956Y-110936755D01*
X148508802Y-110936686D01*
X148582689Y-110936362D01*
X148639232Y-110935614D01*
X148681049Y-110934268D01*
X148710757Y-110932154D01*
X148730973Y-110929100D01*
X148744314Y-110924934D01*
X148753398Y-110919484D01*
X148759267Y-110914178D01*
X148778947Y-110881174D01*
X148777181Y-110846009D01*
X148755717Y-110814545D01*
X148747337Y-110807316D01*
X148737614Y-110801666D01*
X148723861Y-110797401D01*
X148703389Y-110794327D01*
X148673512Y-110792248D01*
X148631541Y-110790970D01*
X148574789Y-110790299D01*
X148500567Y-110790041D01*
X148416537Y-110790000D01*
X148103485Y-110790000D01*
X148075776Y-110817709D01*
X148052463Y-110851863D01*
X148051623Y-110884994D01*
X148070645Y-110914178D01*
G36*
X148053599Y-111887919D02*
X148065095Y-111956435D01*
X148082967Y-112009057D01*
X148106499Y-112043292D01*
X148119924Y-112052621D01*
X148151148Y-112062107D01*
X148179395Y-112055723D01*
X148206182Y-112035570D01*
X148218713Y-112004255D01*
X148217696Y-111958817D01*
X148210906Y-111923674D01*
X148197971Y-111845581D01*
X148196742Y-111765774D01*
X148207241Y-111676445D01*
X148211690Y-111651771D01*
X148235108Y-111568709D01*
X148269945Y-111503727D01*
X148315604Y-111457539D01*
X148371494Y-111430855D01*
X148400388Y-111425337D01*
X148459012Y-111428949D01*
X148510879Y-111452271D01*
X148554978Y-111493176D01*
X148590299Y-111549541D01*
X148615829Y-111619240D01*
X148630559Y-111700148D01*
X148633478Y-111790140D01*
X148623575Y-111887090D01*
X148622641Y-111892564D01*
X148615459Y-111931125D01*
X148608521Y-111952506D01*
X148598227Y-111961773D01*
X148580976Y-111963994D01*
X148571841Y-111964044D01*
X148533489Y-111964044D01*
X148533489Y-111895569D01*
X148529347Y-111835100D01*
X148516147Y-111793835D01*
X148492730Y-111769825D01*
X148457936Y-111761123D01*
X148453394Y-111761017D01*
X148423654Y-111766108D01*
X148402419Y-111783567D01*
X148388366Y-111816061D01*
X148380173Y-111866257D01*
X148377161Y-111914877D01*
X148375433Y-111985544D01*
X148378070Y-112036802D01*
X148387800Y-112071761D01*
X148407353Y-112093530D01*
X148439456Y-112105220D01*
X148486838Y-112109940D01*
X148549071Y-112110800D01*
X148618535Y-112109391D01*
X148665786Y-112105152D01*
X148691012Y-112098064D01*
X148692988Y-112096689D01*
X148724508Y-112057772D01*
X148749470Y-112000714D01*
X148767340Y-111929131D01*
X148777586Y-111846642D01*
X148779673Y-111756861D01*
X148773068Y-111663408D01*
X148764956Y-111608444D01*
X148740554Y-111522234D01*
X148700662Y-111442108D01*
X148648887Y-111375023D01*
X148638539Y-111364827D01*
X148595035Y-111331698D01*
X148541118Y-111301806D01*
X148484592Y-111278643D01*
X148433259Y-111265702D01*
X148413544Y-111264142D01*
X148372419Y-111270782D01*
X148321252Y-111288432D01*
X148267394Y-111313703D01*
X148218195Y-111343211D01*
X148185334Y-111369281D01*
X148136452Y-111430235D01*
X148097545Y-111509031D01*
X148069494Y-111602843D01*
X148053179Y-111708850D01*
X148049192Y-111806000D01*
X148053599Y-111887919D01*
X148053599Y-111887919D01*
G37*
X148053599Y-111887919D02*
X148065095Y-111956435D01*
X148082967Y-112009057D01*
X148106499Y-112043292D01*
X148119924Y-112052621D01*
X148151148Y-112062107D01*
X148179395Y-112055723D01*
X148206182Y-112035570D01*
X148218713Y-112004255D01*
X148217696Y-111958817D01*
X148210906Y-111923674D01*
X148197971Y-111845581D01*
X148196742Y-111765774D01*
X148207241Y-111676445D01*
X148211690Y-111651771D01*
X148235108Y-111568709D01*
X148269945Y-111503727D01*
X148315604Y-111457539D01*
X148371494Y-111430855D01*
X148400388Y-111425337D01*
X148459012Y-111428949D01*
X148510879Y-111452271D01*
X148554978Y-111493176D01*
X148590299Y-111549541D01*
X148615829Y-111619240D01*
X148630559Y-111700148D01*
X148633478Y-111790140D01*
X148623575Y-111887090D01*
X148622641Y-111892564D01*
X148615459Y-111931125D01*
X148608521Y-111952506D01*
X148598227Y-111961773D01*
X148580976Y-111963994D01*
X148571841Y-111964044D01*
X148533489Y-111964044D01*
X148533489Y-111895569D01*
X148529347Y-111835100D01*
X148516147Y-111793835D01*
X148492730Y-111769825D01*
X148457936Y-111761123D01*
X148453394Y-111761017D01*
X148423654Y-111766108D01*
X148402419Y-111783567D01*
X148388366Y-111816061D01*
X148380173Y-111866257D01*
X148377161Y-111914877D01*
X148375433Y-111985544D01*
X148378070Y-112036802D01*
X148387800Y-112071761D01*
X148407353Y-112093530D01*
X148439456Y-112105220D01*
X148486838Y-112109940D01*
X148549071Y-112110800D01*
X148618535Y-112109391D01*
X148665786Y-112105152D01*
X148691012Y-112098064D01*
X148692988Y-112096689D01*
X148724508Y-112057772D01*
X148749470Y-112000714D01*
X148767340Y-111929131D01*
X148777586Y-111846642D01*
X148779673Y-111756861D01*
X148773068Y-111663408D01*
X148764956Y-111608444D01*
X148740554Y-111522234D01*
X148700662Y-111442108D01*
X148648887Y-111375023D01*
X148638539Y-111364827D01*
X148595035Y-111331698D01*
X148541118Y-111301806D01*
X148484592Y-111278643D01*
X148433259Y-111265702D01*
X148413544Y-111264142D01*
X148372419Y-111270782D01*
X148321252Y-111288432D01*
X148267394Y-111313703D01*
X148218195Y-111343211D01*
X148185334Y-111369281D01*
X148136452Y-111430235D01*
X148097545Y-111509031D01*
X148069494Y-111602843D01*
X148053179Y-111708850D01*
X148049192Y-111806000D01*
X148053599Y-111887919D01*
G36*
X148052448Y-112537886D02*
X148066273Y-112561452D01*
X148088881Y-112592265D01*
X148121338Y-112631922D01*
X148164708Y-112682020D01*
X148220058Y-112744157D01*
X148288451Y-112819928D01*
X148367084Y-112906666D01*
X148530878Y-113087289D01*
X148311029Y-113092933D01*
X148235351Y-113094971D01*
X148178994Y-113096937D01*
X148138706Y-113099266D01*
X148111235Y-113102394D01*
X148093329Y-113106755D01*
X148081737Y-113112784D01*
X148073208Y-113120916D01*
X148069623Y-113125228D01*
X148050670Y-113159759D01*
X148053441Y-113192617D01*
X148069633Y-113218682D01*
X148091199Y-113245333D01*
X148406151Y-113248648D01*
X148498779Y-113249565D01*
X148571544Y-113250032D01*
X148627161Y-113249887D01*
X148668342Y-113248968D01*
X148697803Y-113247113D01*
X148718255Y-113244161D01*
X148732413Y-113239950D01*
X148742991Y-113234318D01*
X148751474Y-113228073D01*
X148767207Y-113214561D01*
X148777636Y-113201117D01*
X148781639Y-113185876D01*
X148778094Y-113166974D01*
X148765879Y-113142545D01*
X148743871Y-113110727D01*
X148710949Y-113069652D01*
X148665991Y-113017458D01*
X148607875Y-112952278D01*
X148541099Y-112878444D01*
X148300458Y-112613155D01*
X148519589Y-112607511D01*
X148595128Y-112605469D01*
X148651354Y-112603498D01*
X148691524Y-112601161D01*
X148718896Y-112598019D01*
X148736728Y-112593636D01*
X148748279Y-112587576D01*
X148756807Y-112579400D01*
X148760282Y-112575216D01*
X148779372Y-112538235D01*
X148776493Y-112503292D01*
X148752100Y-112472864D01*
X148742286Y-112465903D01*
X148730826Y-112460477D01*
X148714968Y-112456397D01*
X148691963Y-112453471D01*
X148659062Y-112451508D01*
X148613516Y-112450317D01*
X148552573Y-112449708D01*
X148473486Y-112449489D01*
X148414956Y-112449466D01*
X148323407Y-112449540D01*
X148251687Y-112449887D01*
X148197045Y-112450699D01*
X148156732Y-112452167D01*
X148127998Y-112454481D01*
X148108093Y-112457833D01*
X148094268Y-112462412D01*
X148083772Y-112468411D01*
X148077811Y-112472864D01*
X148063691Y-112484150D01*
X148053029Y-112494699D01*
X148046892Y-112506107D01*
X148046343Y-112519970D01*
X148052448Y-112537886D01*
X148052448Y-112537886D01*
G37*
X148052448Y-112537886D02*
X148066273Y-112561452D01*
X148088881Y-112592265D01*
X148121338Y-112631922D01*
X148164708Y-112682020D01*
X148220058Y-112744157D01*
X148288451Y-112819928D01*
X148367084Y-112906666D01*
X148530878Y-113087289D01*
X148311029Y-113092933D01*
X148235351Y-113094971D01*
X148178994Y-113096937D01*
X148138706Y-113099266D01*
X148111235Y-113102394D01*
X148093329Y-113106755D01*
X148081737Y-113112784D01*
X148073208Y-113120916D01*
X148069623Y-113125228D01*
X148050670Y-113159759D01*
X148053441Y-113192617D01*
X148069633Y-113218682D01*
X148091199Y-113245333D01*
X148406151Y-113248648D01*
X148498779Y-113249565D01*
X148571544Y-113250032D01*
X148627161Y-113249887D01*
X148668342Y-113248968D01*
X148697803Y-113247113D01*
X148718255Y-113244161D01*
X148732413Y-113239950D01*
X148742991Y-113234318D01*
X148751474Y-113228073D01*
X148767207Y-113214561D01*
X148777636Y-113201117D01*
X148781639Y-113185876D01*
X148778094Y-113166974D01*
X148765879Y-113142545D01*
X148743871Y-113110727D01*
X148710949Y-113069652D01*
X148665991Y-113017458D01*
X148607875Y-112952278D01*
X148541099Y-112878444D01*
X148300458Y-112613155D01*
X148519589Y-112607511D01*
X148595128Y-112605469D01*
X148651354Y-112603498D01*
X148691524Y-112601161D01*
X148718896Y-112598019D01*
X148736728Y-112593636D01*
X148748279Y-112587576D01*
X148756807Y-112579400D01*
X148760282Y-112575216D01*
X148779372Y-112538235D01*
X148776493Y-112503292D01*
X148752100Y-112472864D01*
X148742286Y-112465903D01*
X148730826Y-112460477D01*
X148714968Y-112456397D01*
X148691963Y-112453471D01*
X148659062Y-112451508D01*
X148613516Y-112450317D01*
X148552573Y-112449708D01*
X148473486Y-112449489D01*
X148414956Y-112449466D01*
X148323407Y-112449540D01*
X148251687Y-112449887D01*
X148197045Y-112450699D01*
X148156732Y-112452167D01*
X148127998Y-112454481D01*
X148108093Y-112457833D01*
X148094268Y-112462412D01*
X148083772Y-112468411D01*
X148077811Y-112472864D01*
X148063691Y-112484150D01*
X148053029Y-112494699D01*
X148046892Y-112506107D01*
X148046343Y-112519970D01*
X148052448Y-112537886D01*
G36*
X148048260Y-114068343D02*
X148049174Y-114144701D01*
X148051311Y-114203217D01*
X148055175Y-114246255D01*
X148061267Y-114276183D01*
X148070090Y-114295368D01*
X148082146Y-114306176D01*
X148097939Y-114310973D01*
X148117970Y-114312127D01*
X148120335Y-114312133D01*
X148142992Y-114311131D01*
X148160503Y-114306396D01*
X148173574Y-114295333D01*
X148182913Y-114275348D01*
X148189227Y-114243846D01*
X148193222Y-114198232D01*
X148195606Y-114135913D01*
X148197086Y-114054293D01*
X148197414Y-114029277D01*
X148200467Y-113787200D01*
X148265378Y-113783814D01*
X148330289Y-113780429D01*
X148330289Y-113948576D01*
X148330531Y-114014266D01*
X148331556Y-114061172D01*
X148333811Y-114093083D01*
X148337742Y-114113791D01*
X148343798Y-114127084D01*
X148352424Y-114136755D01*
X148352493Y-114136817D01*
X148386112Y-114154356D01*
X148422448Y-114153722D01*
X148453423Y-114135314D01*
X148456607Y-114131671D01*
X148464812Y-114118741D01*
X148470521Y-114101024D01*
X148474162Y-114074570D01*
X148476167Y-114035432D01*
X148476964Y-113979662D01*
X148477045Y-113943994D01*
X148477045Y-113781555D01*
X148635089Y-113781555D01*
X148635089Y-114028161D01*
X148635231Y-114109580D01*
X148635814Y-114171410D01*
X148637068Y-114216637D01*
X148639227Y-114248248D01*
X148642523Y-114269231D01*
X148647189Y-114282573D01*
X148653457Y-114291261D01*
X148655733Y-114293450D01*
X148687280Y-114309614D01*
X148723168Y-114310797D01*
X148754285Y-114297536D01*
X148764271Y-114287043D01*
X148769769Y-114276129D01*
X148774022Y-114259217D01*
X148777180Y-114233633D01*
X148779392Y-114196701D01*
X148780806Y-114145746D01*
X148781572Y-114078094D01*
X148781838Y-113991069D01*
X148781845Y-113971394D01*
X148781787Y-113882911D01*
X148781467Y-113814227D01*
X148780667Y-113762564D01*
X148779167Y-113725145D01*
X148776749Y-113699190D01*
X148773194Y-113681922D01*
X148768282Y-113670562D01*
X148761795Y-113662332D01*
X148757138Y-113657817D01*
X148748889Y-113651021D01*
X148738669Y-113645712D01*
X148723800Y-113641706D01*
X148701602Y-113638821D01*
X148669393Y-113636874D01*
X148624496Y-113635681D01*
X148564228Y-113635061D01*
X148485911Y-113634829D01*
X148419994Y-113634800D01*
X148327628Y-113634871D01*
X148255117Y-113635208D01*
X148199737Y-113635998D01*
X148158765Y-113637426D01*
X148129478Y-113639679D01*
X148109153Y-113642943D01*
X148095066Y-113647404D01*
X148084495Y-113653248D01*
X148077811Y-113658197D01*
X148048067Y-113681594D01*
X148048067Y-113971774D01*
X148048260Y-114068343D01*
X148048260Y-114068343D01*
G37*
X148048260Y-114068343D02*
X148049174Y-114144701D01*
X148051311Y-114203217D01*
X148055175Y-114246255D01*
X148061267Y-114276183D01*
X148070090Y-114295368D01*
X148082146Y-114306176D01*
X148097939Y-114310973D01*
X148117970Y-114312127D01*
X148120335Y-114312133D01*
X148142992Y-114311131D01*
X148160503Y-114306396D01*
X148173574Y-114295333D01*
X148182913Y-114275348D01*
X148189227Y-114243846D01*
X148193222Y-114198232D01*
X148195606Y-114135913D01*
X148197086Y-114054293D01*
X148197414Y-114029277D01*
X148200467Y-113787200D01*
X148265378Y-113783814D01*
X148330289Y-113780429D01*
X148330289Y-113948576D01*
X148330531Y-114014266D01*
X148331556Y-114061172D01*
X148333811Y-114093083D01*
X148337742Y-114113791D01*
X148343798Y-114127084D01*
X148352424Y-114136755D01*
X148352493Y-114136817D01*
X148386112Y-114154356D01*
X148422448Y-114153722D01*
X148453423Y-114135314D01*
X148456607Y-114131671D01*
X148464812Y-114118741D01*
X148470521Y-114101024D01*
X148474162Y-114074570D01*
X148476167Y-114035432D01*
X148476964Y-113979662D01*
X148477045Y-113943994D01*
X148477045Y-113781555D01*
X148635089Y-113781555D01*
X148635089Y-114028161D01*
X148635231Y-114109580D01*
X148635814Y-114171410D01*
X148637068Y-114216637D01*
X148639227Y-114248248D01*
X148642523Y-114269231D01*
X148647189Y-114282573D01*
X148653457Y-114291261D01*
X148655733Y-114293450D01*
X148687280Y-114309614D01*
X148723168Y-114310797D01*
X148754285Y-114297536D01*
X148764271Y-114287043D01*
X148769769Y-114276129D01*
X148774022Y-114259217D01*
X148777180Y-114233633D01*
X148779392Y-114196701D01*
X148780806Y-114145746D01*
X148781572Y-114078094D01*
X148781838Y-113991069D01*
X148781845Y-113971394D01*
X148781787Y-113882911D01*
X148781467Y-113814227D01*
X148780667Y-113762564D01*
X148779167Y-113725145D01*
X148776749Y-113699190D01*
X148773194Y-113681922D01*
X148768282Y-113670562D01*
X148761795Y-113662332D01*
X148757138Y-113657817D01*
X148748889Y-113651021D01*
X148738669Y-113645712D01*
X148723800Y-113641706D01*
X148701602Y-113638821D01*
X148669393Y-113636874D01*
X148624496Y-113635681D01*
X148564228Y-113635061D01*
X148485911Y-113634829D01*
X148419994Y-113634800D01*
X148327628Y-113634871D01*
X148255117Y-113635208D01*
X148199737Y-113635998D01*
X148158765Y-113637426D01*
X148129478Y-113639679D01*
X148109153Y-113642943D01*
X148095066Y-113647404D01*
X148084495Y-113653248D01*
X148077811Y-113658197D01*
X148048067Y-113681594D01*
X148048067Y-113971774D01*
X148048260Y-114068343D01*
G36*
X148048275Y-114856309D02*
X148052636Y-114985288D01*
X148065861Y-115094991D01*
X148088741Y-115187226D01*
X148122070Y-115263802D01*
X148166638Y-115326527D01*
X148223236Y-115377212D01*
X148292658Y-115417663D01*
X148294351Y-115418459D01*
X148356483Y-115442601D01*
X148411509Y-115451203D01*
X148466887Y-115444231D01*
X148530073Y-115421654D01*
X148539689Y-115417372D01*
X148595966Y-115388172D01*
X148639451Y-115355356D01*
X148676417Y-115313002D01*
X148713135Y-115255190D01*
X148715052Y-115251831D01*
X148739227Y-115201504D01*
X148757282Y-115144621D01*
X148769839Y-115077527D01*
X148777522Y-114996565D01*
X148780953Y-114898082D01*
X148781251Y-114863286D01*
X148781845Y-114697594D01*
X148752100Y-114674197D01*
X148742319Y-114667257D01*
X148730897Y-114661842D01*
X148715095Y-114657765D01*
X148692175Y-114654837D01*
X148659396Y-114652867D01*
X148635089Y-114652225D01*
X148635089Y-114808844D01*
X148635089Y-114902726D01*
X148633483Y-114957664D01*
X148629255Y-115014060D01*
X148623292Y-115060345D01*
X148622790Y-115063139D01*
X148600736Y-115145348D01*
X148567600Y-115209114D01*
X148521847Y-115256452D01*
X148461939Y-115289382D01*
X148446061Y-115295108D01*
X148421333Y-115300721D01*
X148396902Y-115298291D01*
X148364400Y-115286467D01*
X148348434Y-115279340D01*
X148306006Y-115256000D01*
X148276240Y-115227880D01*
X148255511Y-115196940D01*
X148228537Y-115134966D01*
X148208998Y-115055651D01*
X148197746Y-114963253D01*
X148195270Y-114896333D01*
X148194822Y-114808844D01*
X148635089Y-114808844D01*
X148635089Y-114652225D01*
X148614021Y-114651668D01*
X148553311Y-114651050D01*
X148474526Y-114650825D01*
X148412920Y-114650800D01*
X148103485Y-114650800D01*
X148075776Y-114678509D01*
X148064544Y-114690806D01*
X148056853Y-114704103D01*
X148052040Y-114722672D01*
X148049446Y-114750786D01*
X148048410Y-114792717D01*
X148048270Y-114852737D01*
X148048275Y-114856309D01*
X148048275Y-114856309D01*
G37*
X148048275Y-114856309D02*
X148052636Y-114985288D01*
X148065861Y-115094991D01*
X148088741Y-115187226D01*
X148122070Y-115263802D01*
X148166638Y-115326527D01*
X148223236Y-115377212D01*
X148292658Y-115417663D01*
X148294351Y-115418459D01*
X148356483Y-115442601D01*
X148411509Y-115451203D01*
X148466887Y-115444231D01*
X148530073Y-115421654D01*
X148539689Y-115417372D01*
X148595966Y-115388172D01*
X148639451Y-115355356D01*
X148676417Y-115313002D01*
X148713135Y-115255190D01*
X148715052Y-115251831D01*
X148739227Y-115201504D01*
X148757282Y-115144621D01*
X148769839Y-115077527D01*
X148777522Y-114996565D01*
X148780953Y-114898082D01*
X148781251Y-114863286D01*
X148781845Y-114697594D01*
X148752100Y-114674197D01*
X148742319Y-114667257D01*
X148730897Y-114661842D01*
X148715095Y-114657765D01*
X148692175Y-114654837D01*
X148659396Y-114652867D01*
X148635089Y-114652225D01*
X148635089Y-114808844D01*
X148635089Y-114902726D01*
X148633483Y-114957664D01*
X148629255Y-115014060D01*
X148623292Y-115060345D01*
X148622790Y-115063139D01*
X148600736Y-115145348D01*
X148567600Y-115209114D01*
X148521847Y-115256452D01*
X148461939Y-115289382D01*
X148446061Y-115295108D01*
X148421333Y-115300721D01*
X148396902Y-115298291D01*
X148364400Y-115286467D01*
X148348434Y-115279340D01*
X148306006Y-115256000D01*
X148276240Y-115227880D01*
X148255511Y-115196940D01*
X148228537Y-115134966D01*
X148208998Y-115055651D01*
X148197746Y-114963253D01*
X148195270Y-114896333D01*
X148194822Y-114808844D01*
X148635089Y-114808844D01*
X148635089Y-114652225D01*
X148614021Y-114651668D01*
X148553311Y-114651050D01*
X148474526Y-114650825D01*
X148412920Y-114650800D01*
X148103485Y-114650800D01*
X148075776Y-114678509D01*
X148064544Y-114690806D01*
X148056853Y-114704103D01*
X148052040Y-114722672D01*
X148049446Y-114750786D01*
X148048410Y-114792717D01*
X148048270Y-114852737D01*
X148048275Y-114856309D01*
G36*
X148050034Y-117582665D02*
X148057035Y-117602255D01*
X148057377Y-117603010D01*
X148077678Y-117629613D01*
X148098561Y-117644270D01*
X148108352Y-117647138D01*
X148121361Y-117646996D01*
X148139895Y-117642961D01*
X148166257Y-117634146D01*
X148202752Y-117619669D01*
X148251687Y-117598645D01*
X148315365Y-117570188D01*
X148396093Y-117533415D01*
X148440216Y-117513175D01*
X148518985Y-117476625D01*
X148591423Y-117442315D01*
X148654880Y-117411552D01*
X148706708Y-117385648D01*
X148744259Y-117365910D01*
X148764884Y-117353650D01*
X148767733Y-117351224D01*
X148780302Y-117320183D01*
X148778619Y-117285121D01*
X148763332Y-117257000D01*
X148762089Y-117255854D01*
X148745154Y-117244668D01*
X148712170Y-117225904D01*
X148667380Y-117201875D01*
X148615032Y-117174897D01*
X148595742Y-117165201D01*
X148449150Y-117092014D01*
X148608393Y-117012240D01*
X148663415Y-116983767D01*
X148711132Y-116957350D01*
X148747893Y-116935148D01*
X148770044Y-116919319D01*
X148774741Y-116913954D01*
X148781102Y-116872257D01*
X148767733Y-116837849D01*
X148753446Y-116827728D01*
X148721692Y-116810214D01*
X148675597Y-116786735D01*
X148618285Y-116758720D01*
X148552880Y-116727599D01*
X148482507Y-116694799D01*
X148410291Y-116661750D01*
X148339355Y-116629881D01*
X148272825Y-116600619D01*
X148213826Y-116575395D01*
X148165481Y-116555636D01*
X148130915Y-116542772D01*
X148113253Y-116538231D01*
X148112613Y-116538277D01*
X148090388Y-116549326D01*
X148067753Y-116571410D01*
X148066768Y-116572710D01*
X148051425Y-116599853D01*
X148051574Y-116624958D01*
X148054466Y-116634368D01*
X148060718Y-116645834D01*
X148073014Y-116658010D01*
X148093908Y-116672357D01*
X148125949Y-116690336D01*
X148171688Y-116713407D01*
X148233677Y-116743030D01*
X148290898Y-116769745D01*
X148357226Y-116800480D01*
X148416874Y-116828021D01*
X148466725Y-116850938D01*
X148503664Y-116867798D01*
X148524573Y-116877173D01*
X148527845Y-116878540D01*
X148522497Y-116884689D01*
X148500109Y-116898822D01*
X148463946Y-116919057D01*
X148417277Y-116943515D01*
X148398022Y-116953248D01*
X148333004Y-116986217D01*
X148285654Y-117011643D01*
X148253219Y-117031612D01*
X148232946Y-117048210D01*
X148222082Y-117063524D01*
X148217875Y-117079640D01*
X148217400Y-117090143D01*
X148219042Y-117108670D01*
X148225831Y-117124904D01*
X148240566Y-117141035D01*
X148266044Y-117159251D01*
X148305061Y-117181739D01*
X148360414Y-117210689D01*
X148391903Y-117226662D01*
X148442087Y-117252570D01*
X148483704Y-117275167D01*
X148513242Y-117292458D01*
X148527189Y-117302450D01*
X148527770Y-117303809D01*
X148516793Y-117310261D01*
X148488290Y-117324708D01*
X148445244Y-117345703D01*
X148390638Y-117371797D01*
X148327454Y-117401546D01*
X148296071Y-117416180D01*
X148215078Y-117454250D01*
X148152756Y-117484905D01*
X148107071Y-117509737D01*
X148075989Y-117530337D01*
X148057478Y-117548298D01*
X148049504Y-117565210D01*
X148050034Y-117582665D01*
X148050034Y-117582665D01*
G37*
X148050034Y-117582665D02*
X148057035Y-117602255D01*
X148057377Y-117603010D01*
X148077678Y-117629613D01*
X148098561Y-117644270D01*
X148108352Y-117647138D01*
X148121361Y-117646996D01*
X148139895Y-117642961D01*
X148166257Y-117634146D01*
X148202752Y-117619669D01*
X148251687Y-117598645D01*
X148315365Y-117570188D01*
X148396093Y-117533415D01*
X148440216Y-117513175D01*
X148518985Y-117476625D01*
X148591423Y-117442315D01*
X148654880Y-117411552D01*
X148706708Y-117385648D01*
X148744259Y-117365910D01*
X148764884Y-117353650D01*
X148767733Y-117351224D01*
X148780302Y-117320183D01*
X148778619Y-117285121D01*
X148763332Y-117257000D01*
X148762089Y-117255854D01*
X148745154Y-117244668D01*
X148712170Y-117225904D01*
X148667380Y-117201875D01*
X148615032Y-117174897D01*
X148595742Y-117165201D01*
X148449150Y-117092014D01*
X148608393Y-117012240D01*
X148663415Y-116983767D01*
X148711132Y-116957350D01*
X148747893Y-116935148D01*
X148770044Y-116919319D01*
X148774741Y-116913954D01*
X148781102Y-116872257D01*
X148767733Y-116837849D01*
X148753446Y-116827728D01*
X148721692Y-116810214D01*
X148675597Y-116786735D01*
X148618285Y-116758720D01*
X148552880Y-116727599D01*
X148482507Y-116694799D01*
X148410291Y-116661750D01*
X148339355Y-116629881D01*
X148272825Y-116600619D01*
X148213826Y-116575395D01*
X148165481Y-116555636D01*
X148130915Y-116542772D01*
X148113253Y-116538231D01*
X148112613Y-116538277D01*
X148090388Y-116549326D01*
X148067753Y-116571410D01*
X148066768Y-116572710D01*
X148051425Y-116599853D01*
X148051574Y-116624958D01*
X148054466Y-116634368D01*
X148060718Y-116645834D01*
X148073014Y-116658010D01*
X148093908Y-116672357D01*
X148125949Y-116690336D01*
X148171688Y-116713407D01*
X148233677Y-116743030D01*
X148290898Y-116769745D01*
X148357226Y-116800480D01*
X148416874Y-116828021D01*
X148466725Y-116850938D01*
X148503664Y-116867798D01*
X148524573Y-116877173D01*
X148527845Y-116878540D01*
X148522497Y-116884689D01*
X148500109Y-116898822D01*
X148463946Y-116919057D01*
X148417277Y-116943515D01*
X148398022Y-116953248D01*
X148333004Y-116986217D01*
X148285654Y-117011643D01*
X148253219Y-117031612D01*
X148232946Y-117048210D01*
X148222082Y-117063524D01*
X148217875Y-117079640D01*
X148217400Y-117090143D01*
X148219042Y-117108670D01*
X148225831Y-117124904D01*
X148240566Y-117141035D01*
X148266044Y-117159251D01*
X148305061Y-117181739D01*
X148360414Y-117210689D01*
X148391903Y-117226662D01*
X148442087Y-117252570D01*
X148483704Y-117275167D01*
X148513242Y-117292458D01*
X148527189Y-117302450D01*
X148527770Y-117303809D01*
X148516793Y-117310261D01*
X148488290Y-117324708D01*
X148445244Y-117345703D01*
X148390638Y-117371797D01*
X148327454Y-117401546D01*
X148296071Y-117416180D01*
X148215078Y-117454250D01*
X148152756Y-117484905D01*
X148107071Y-117509737D01*
X148075989Y-117530337D01*
X148057478Y-117548298D01*
X148049504Y-117565210D01*
X148050034Y-117582665D01*
G36*
X148054877Y-118026614D02*
X148069647Y-118050327D01*
X148091227Y-118076978D01*
X148412773Y-118076978D01*
X148506830Y-118076893D01*
X148580932Y-118076529D01*
X148637704Y-118075724D01*
X148679768Y-118074313D01*
X148709748Y-118072133D01*
X148730267Y-118069021D01*
X148743949Y-118064814D01*
X148753416Y-118059348D01*
X148758082Y-118055472D01*
X148778575Y-118024034D01*
X148777739Y-117988233D01*
X148760264Y-117956873D01*
X148738684Y-117930222D01*
X148091227Y-117930222D01*
X148069647Y-117956873D01*
X148053949Y-117982594D01*
X148048067Y-118003600D01*
X148054877Y-118026614D01*
X148054877Y-118026614D01*
G37*
X148054877Y-118026614D02*
X148069647Y-118050327D01*
X148091227Y-118076978D01*
X148412773Y-118076978D01*
X148506830Y-118076893D01*
X148580932Y-118076529D01*
X148637704Y-118075724D01*
X148679768Y-118074313D01*
X148709748Y-118072133D01*
X148730267Y-118069021D01*
X148743949Y-118064814D01*
X148753416Y-118059348D01*
X148758082Y-118055472D01*
X148778575Y-118024034D01*
X148777739Y-117988233D01*
X148760264Y-117956873D01*
X148738684Y-117930222D01*
X148091227Y-117930222D01*
X148069647Y-117956873D01*
X148053949Y-117982594D01*
X148048067Y-118003600D01*
X148054877Y-118026614D01*
G36*
X148048163Y-118801065D02*
X148048542Y-118879772D01*
X148049333Y-118940863D01*
X148050670Y-118986817D01*
X148052683Y-119020114D01*
X148055506Y-119043236D01*
X148059269Y-119058662D01*
X148064105Y-119068871D01*
X148067822Y-119073813D01*
X148100358Y-119099457D01*
X148134138Y-119102559D01*
X148164826Y-119086711D01*
X148177089Y-119076348D01*
X148185450Y-119065196D01*
X148190657Y-119049035D01*
X148193457Y-119023642D01*
X148194596Y-118984798D01*
X148194821Y-118928280D01*
X148194822Y-118917180D01*
X148194822Y-118771244D01*
X148465756Y-118771244D01*
X148551154Y-118771148D01*
X148616864Y-118770711D01*
X148665774Y-118769712D01*
X148700773Y-118767928D01*
X148724749Y-118765137D01*
X148740593Y-118761117D01*
X148751191Y-118755645D01*
X148759267Y-118748666D01*
X148779112Y-118715734D01*
X148777548Y-118681354D01*
X148754906Y-118650176D01*
X148752100Y-118647886D01*
X148741492Y-118640429D01*
X148729081Y-118634747D01*
X148711850Y-118630601D01*
X148686784Y-118627750D01*
X148650867Y-118625954D01*
X148601083Y-118624972D01*
X148534417Y-118624564D01*
X148458589Y-118624489D01*
X148194822Y-118624489D01*
X148194822Y-118485127D01*
X148194418Y-118425322D01*
X148192840Y-118383918D01*
X148189547Y-118356748D01*
X148183992Y-118339646D01*
X148175631Y-118328443D01*
X148174178Y-118327083D01*
X148140939Y-118310725D01*
X148103362Y-118312172D01*
X148070645Y-118330978D01*
X148064298Y-118338250D01*
X148059266Y-118347627D01*
X148055396Y-118361609D01*
X148052537Y-118382696D01*
X148050535Y-118413389D01*
X148049239Y-118456189D01*
X148048498Y-118513595D01*
X148048158Y-118588110D01*
X148048068Y-118682233D01*
X148048067Y-118702260D01*
X148048163Y-118801065D01*
X148048163Y-118801065D01*
G37*
X148048163Y-118801065D02*
X148048542Y-118879772D01*
X148049333Y-118940863D01*
X148050670Y-118986817D01*
X148052683Y-119020114D01*
X148055506Y-119043236D01*
X148059269Y-119058662D01*
X148064105Y-119068871D01*
X148067822Y-119073813D01*
X148100358Y-119099457D01*
X148134138Y-119102559D01*
X148164826Y-119086711D01*
X148177089Y-119076348D01*
X148185450Y-119065196D01*
X148190657Y-119049035D01*
X148193457Y-119023642D01*
X148194596Y-118984798D01*
X148194821Y-118928280D01*
X148194822Y-118917180D01*
X148194822Y-118771244D01*
X148465756Y-118771244D01*
X148551154Y-118771148D01*
X148616864Y-118770711D01*
X148665774Y-118769712D01*
X148700773Y-118767928D01*
X148724749Y-118765137D01*
X148740593Y-118761117D01*
X148751191Y-118755645D01*
X148759267Y-118748666D01*
X148779112Y-118715734D01*
X148777548Y-118681354D01*
X148754906Y-118650176D01*
X148752100Y-118647886D01*
X148741492Y-118640429D01*
X148729081Y-118634747D01*
X148711850Y-118630601D01*
X148686784Y-118627750D01*
X148650867Y-118625954D01*
X148601083Y-118624972D01*
X148534417Y-118624564D01*
X148458589Y-118624489D01*
X148194822Y-118624489D01*
X148194822Y-118485127D01*
X148194418Y-118425322D01*
X148192840Y-118383918D01*
X148189547Y-118356748D01*
X148183992Y-118339646D01*
X148175631Y-118328443D01*
X148174178Y-118327083D01*
X148140939Y-118310725D01*
X148103362Y-118312172D01*
X148070645Y-118330978D01*
X148064298Y-118338250D01*
X148059266Y-118347627D01*
X148055396Y-118361609D01*
X148052537Y-118382696D01*
X148050535Y-118413389D01*
X148049239Y-118456189D01*
X148048498Y-118513595D01*
X148048158Y-118588110D01*
X148048068Y-118682233D01*
X148048067Y-118702260D01*
X148048163Y-118801065D01*
G36*
X148053533Y-120066823D02*
X148075776Y-120098202D01*
X148103485Y-120125911D01*
X148412920Y-120125911D01*
X148504799Y-120125838D01*
X148576840Y-120125495D01*
X148631780Y-120124692D01*
X148672360Y-120123241D01*
X148701317Y-120120952D01*
X148721391Y-120117636D01*
X148735321Y-120113105D01*
X148745845Y-120107169D01*
X148752100Y-120102514D01*
X148776673Y-120071783D01*
X148779341Y-120036496D01*
X148764271Y-120004245D01*
X148755374Y-119993588D01*
X148743557Y-119986464D01*
X148724526Y-119982167D01*
X148693992Y-119979991D01*
X148647662Y-119979228D01*
X148611871Y-119979155D01*
X148477045Y-119979155D01*
X148477045Y-119482444D01*
X148599700Y-119482444D01*
X148655787Y-119481931D01*
X148694333Y-119479876D01*
X148720361Y-119475508D01*
X148738897Y-119468056D01*
X148752100Y-119459047D01*
X148776604Y-119428144D01*
X148779506Y-119393196D01*
X148762089Y-119359738D01*
X148752959Y-119350604D01*
X148740855Y-119344152D01*
X148722001Y-119339897D01*
X148692620Y-119337352D01*
X148648937Y-119336029D01*
X148587175Y-119335443D01*
X148573000Y-119335375D01*
X148456631Y-119334891D01*
X148360727Y-119334641D01*
X148283177Y-119334723D01*
X148221869Y-119335231D01*
X148174690Y-119336262D01*
X148139530Y-119337913D01*
X148114276Y-119340279D01*
X148096817Y-119343457D01*
X148085041Y-119347544D01*
X148076835Y-119352634D01*
X148070645Y-119358266D01*
X148050844Y-119390128D01*
X148053533Y-119423357D01*
X148075776Y-119454735D01*
X148090126Y-119467433D01*
X148105978Y-119475526D01*
X148128554Y-119480042D01*
X148163078Y-119482006D01*
X148214776Y-119482444D01*
X148330289Y-119482444D01*
X148330289Y-119979155D01*
X148211756Y-119979155D01*
X148157148Y-119979662D01*
X148120275Y-119981698D01*
X148096307Y-119986035D01*
X148080415Y-119993447D01*
X148070645Y-120001733D01*
X148050844Y-120033594D01*
X148053533Y-120066823D01*
X148053533Y-120066823D01*
G37*
X148053533Y-120066823D02*
X148075776Y-120098202D01*
X148103485Y-120125911D01*
X148412920Y-120125911D01*
X148504799Y-120125838D01*
X148576840Y-120125495D01*
X148631780Y-120124692D01*
X148672360Y-120123241D01*
X148701317Y-120120952D01*
X148721391Y-120117636D01*
X148735321Y-120113105D01*
X148745845Y-120107169D01*
X148752100Y-120102514D01*
X148776673Y-120071783D01*
X148779341Y-120036496D01*
X148764271Y-120004245D01*
X148755374Y-119993588D01*
X148743557Y-119986464D01*
X148724526Y-119982167D01*
X148693992Y-119979991D01*
X148647662Y-119979228D01*
X148611871Y-119979155D01*
X148477045Y-119979155D01*
X148477045Y-119482444D01*
X148599700Y-119482444D01*
X148655787Y-119481931D01*
X148694333Y-119479876D01*
X148720361Y-119475508D01*
X148738897Y-119468056D01*
X148752100Y-119459047D01*
X148776604Y-119428144D01*
X148779506Y-119393196D01*
X148762089Y-119359738D01*
X148752959Y-119350604D01*
X148740855Y-119344152D01*
X148722001Y-119339897D01*
X148692620Y-119337352D01*
X148648937Y-119336029D01*
X148587175Y-119335443D01*
X148573000Y-119335375D01*
X148456631Y-119334891D01*
X148360727Y-119334641D01*
X148283177Y-119334723D01*
X148221869Y-119335231D01*
X148174690Y-119336262D01*
X148139530Y-119337913D01*
X148114276Y-119340279D01*
X148096817Y-119343457D01*
X148085041Y-119347544D01*
X148076835Y-119352634D01*
X148070645Y-119358266D01*
X148050844Y-119390128D01*
X148053533Y-119423357D01*
X148075776Y-119454735D01*
X148090126Y-119467433D01*
X148105978Y-119475526D01*
X148128554Y-119480042D01*
X148163078Y-119482006D01*
X148214776Y-119482444D01*
X148330289Y-119482444D01*
X148330289Y-119979155D01*
X148211756Y-119979155D01*
X148157148Y-119979662D01*
X148120275Y-119981698D01*
X148096307Y-119986035D01*
X148080415Y-119993447D01*
X148070645Y-120001733D01*
X148050844Y-120033594D01*
X148053533Y-120066823D01*
G36*
X143268054Y-110891600D02*
X143381993Y-110902465D01*
X143489616Y-110934082D01*
X143588615Y-110984985D01*
X143676684Y-111053707D01*
X143751516Y-111138781D01*
X143809384Y-111235768D01*
X143849005Y-111342036D01*
X143867573Y-111449050D01*
X143866434Y-111554700D01*
X143846930Y-111656875D01*
X143810406Y-111753466D01*
X143758205Y-111842362D01*
X143691673Y-111921454D01*
X143612152Y-111988631D01*
X143520987Y-112041783D01*
X143419523Y-112078801D01*
X143309102Y-112097573D01*
X143259206Y-112099511D01*
X143171267Y-112099511D01*
X143171267Y-112151440D01*
X143174111Y-112187747D01*
X143185911Y-112214645D01*
X143209649Y-112241751D01*
X143248031Y-112280133D01*
X145439602Y-112280133D01*
X145701739Y-112280124D01*
X145942241Y-112280092D01*
X146162048Y-112280028D01*
X146362101Y-112279924D01*
X146543344Y-112279773D01*
X146706716Y-112279566D01*
X146853160Y-112279294D01*
X146983617Y-112278950D01*
X147099029Y-112278526D01*
X147200338Y-112278013D01*
X147288484Y-112277403D01*
X147364410Y-112276688D01*
X147429057Y-112275860D01*
X147483367Y-112274911D01*
X147528280Y-112273833D01*
X147564740Y-112272617D01*
X147593687Y-112271255D01*
X147616063Y-112269739D01*
X147632809Y-112268062D01*
X147644868Y-112266214D01*
X147653180Y-112264187D01*
X147658687Y-112261975D01*
X147660537Y-112260892D01*
X147667549Y-112256729D01*
X147673996Y-112253195D01*
X147679900Y-112249365D01*
X147685286Y-112244318D01*
X147690178Y-112237129D01*
X147694598Y-112226877D01*
X147698572Y-112212636D01*
X147702121Y-112193486D01*
X147705270Y-112168501D01*
X147708042Y-112136760D01*
X147710461Y-112097338D01*
X147712551Y-112049314D01*
X147714335Y-111991763D01*
X147715837Y-111923763D01*
X147717080Y-111844390D01*
X147718089Y-111752721D01*
X147718885Y-111647834D01*
X147719494Y-111528804D01*
X147719939Y-111394710D01*
X147720243Y-111244627D01*
X147720430Y-111077633D01*
X147720524Y-110892804D01*
X147720548Y-110689217D01*
X147720525Y-110465950D01*
X147720480Y-110222078D01*
X147720437Y-109956679D01*
X147720432Y-109918296D01*
X147720389Y-109651318D01*
X147720318Y-109405998D01*
X147720213Y-109181417D01*
X147720066Y-108976655D01*
X147719869Y-108790794D01*
X147719616Y-108622912D01*
X147719300Y-108472092D01*
X147718913Y-108337413D01*
X147718447Y-108217956D01*
X147717897Y-108112801D01*
X147717253Y-108021029D01*
X147716511Y-107941721D01*
X147715661Y-107873957D01*
X147714697Y-107816818D01*
X147713611Y-107769383D01*
X147712397Y-107730734D01*
X147711047Y-107699951D01*
X147709555Y-107676115D01*
X147707911Y-107658306D01*
X147706111Y-107645605D01*
X147704145Y-107637092D01*
X147702477Y-107632734D01*
X147698906Y-107624272D01*
X147696270Y-107616503D01*
X147693634Y-107609398D01*
X147690062Y-107602927D01*
X147684621Y-107597061D01*
X147676375Y-107591771D01*
X147664390Y-107587026D01*
X147647731Y-107582798D01*
X147625463Y-107579057D01*
X147596652Y-107575773D01*
X147560363Y-107572917D01*
X147515661Y-107570460D01*
X147461611Y-107568371D01*
X147397279Y-107566622D01*
X147321730Y-107565183D01*
X147234030Y-107564024D01*
X147133243Y-107563117D01*
X147018434Y-107562431D01*
X146888670Y-107561937D01*
X146743015Y-107561605D01*
X146580535Y-107561407D01*
X146400295Y-107561313D01*
X146201360Y-107561292D01*
X145982796Y-107561315D01*
X145743668Y-107561354D01*
X145483040Y-107561378D01*
X145440889Y-107561378D01*
X145177992Y-107561364D01*
X144936732Y-107561339D01*
X144716165Y-107561329D01*
X144515352Y-107561358D01*
X144333349Y-107561452D01*
X144169216Y-107561638D01*
X144022011Y-107561941D01*
X143890792Y-107562386D01*
X143780867Y-107562966D01*
X143780867Y-107865803D01*
X143838711Y-107905593D01*
X143854479Y-107916764D01*
X143868441Y-107926834D01*
X143881784Y-107935862D01*
X143895693Y-107943903D01*
X143911356Y-107951014D01*
X143929958Y-107957253D01*
X143952686Y-107962675D01*
X143980727Y-107967338D01*
X144015267Y-107971299D01*
X144057492Y-107974615D01*
X144108589Y-107977341D01*
X144169744Y-107979536D01*
X144242144Y-107981255D01*
X144326975Y-107982556D01*
X144425422Y-107983495D01*
X144538674Y-107984130D01*
X144667916Y-107984516D01*
X144814334Y-107984712D01*
X144979116Y-107984773D01*
X145163447Y-107984757D01*
X145368513Y-107984720D01*
X145491133Y-107984711D01*
X145708082Y-107984735D01*
X145903642Y-107984769D01*
X146078999Y-107984757D01*
X146235341Y-107984642D01*
X146373857Y-107984370D01*
X146495734Y-107983882D01*
X146602160Y-107983124D01*
X146694322Y-107982038D01*
X146773409Y-107980569D01*
X146840608Y-107978660D01*
X146897107Y-107976256D01*
X146944093Y-107973299D01*
X146982755Y-107969734D01*
X147014280Y-107965505D01*
X147039855Y-107960554D01*
X147060670Y-107954827D01*
X147077911Y-107948267D01*
X147092765Y-107940817D01*
X147106422Y-107932421D01*
X147120069Y-107923024D01*
X147134893Y-107912568D01*
X147143783Y-107906477D01*
X147201400Y-107867704D01*
X147201400Y-108399268D01*
X147201365Y-108522517D01*
X147201215Y-108625013D01*
X147200878Y-108708580D01*
X147200286Y-108775044D01*
X147199367Y-108826229D01*
X147198051Y-108863959D01*
X147196269Y-108890060D01*
X147193951Y-108906356D01*
X147191026Y-108914672D01*
X147187424Y-108916832D01*
X147183075Y-108914661D01*
X147181645Y-108913465D01*
X147144573Y-108888315D01*
X147091772Y-108862417D01*
X147029770Y-108838808D01*
X147003357Y-108830539D01*
X146985416Y-108825922D01*
X146964355Y-108822021D01*
X146938089Y-108818752D01*
X146904532Y-108816034D01*
X146861599Y-108813785D01*
X146807204Y-108811923D01*
X146739262Y-108810364D01*
X146655688Y-108809028D01*
X146554395Y-108807831D01*
X146433300Y-108806692D01*
X146388600Y-108806315D01*
X146263449Y-108805298D01*
X146159082Y-108804540D01*
X146073707Y-108804097D01*
X146005533Y-108804030D01*
X145952765Y-108804395D01*
X145913614Y-108805252D01*
X145886285Y-108806659D01*
X145868986Y-108808675D01*
X145859926Y-108811357D01*
X145857312Y-108814764D01*
X145859351Y-108818956D01*
X145863667Y-108823429D01*
X145876602Y-108833784D01*
X145905676Y-108855842D01*
X145948759Y-108888043D01*
X146003718Y-108928826D01*
X146068423Y-108976630D01*
X146140742Y-109029895D01*
X146218544Y-109087060D01*
X146299698Y-109146563D01*
X146382072Y-109206845D01*
X146463536Y-109266345D01*
X146541957Y-109323502D01*
X146615204Y-109376755D01*
X146681147Y-109424543D01*
X146737654Y-109465307D01*
X146782593Y-109497484D01*
X146813834Y-109519515D01*
X146820466Y-109524083D01*
X146857369Y-109547004D01*
X146905359Y-109573812D01*
X146954897Y-109599211D01*
X146961577Y-109602432D01*
X147009772Y-109624110D01*
X147047334Y-109636696D01*
X147083160Y-109642426D01*
X147125200Y-109643544D01*
X147201400Y-109642910D01*
X147201400Y-110797349D01*
X147107669Y-110706185D01*
X147057775Y-110659388D01*
X147001295Y-110609101D01*
X146947026Y-110563056D01*
X146921673Y-110542631D01*
X146882128Y-110512193D01*
X146828916Y-110472138D01*
X146763667Y-110423639D01*
X146688011Y-110367865D01*
X146603577Y-110305989D01*
X146511994Y-110239181D01*
X146414892Y-110168613D01*
X146313901Y-110095455D01*
X146210650Y-110020879D01*
X146106768Y-109946056D01*
X146003885Y-109872157D01*
X145903631Y-109800354D01*
X145807636Y-109731816D01*
X145717527Y-109667716D01*
X145634936Y-109609225D01*
X145561492Y-109557514D01*
X145498824Y-109513753D01*
X145448561Y-109479115D01*
X145412334Y-109454770D01*
X145391771Y-109441889D01*
X145387668Y-109440131D01*
X145376342Y-109448090D01*
X145349162Y-109468885D01*
X145307829Y-109501153D01*
X145254044Y-109543530D01*
X145189506Y-109594653D01*
X145115918Y-109653159D01*
X145034978Y-109717686D01*
X144948388Y-109786869D01*
X144857848Y-109859347D01*
X144765060Y-109933754D01*
X144690702Y-109993483D01*
X144690702Y-111004489D01*
X144703659Y-111010398D01*
X144725908Y-111024728D01*
X144727391Y-111025775D01*
X144757544Y-111044562D01*
X144794375Y-111064209D01*
X144802511Y-111068108D01*
X144810940Y-111071644D01*
X144821059Y-111074770D01*
X144834260Y-111077514D01*
X144851938Y-111079908D01*
X144875484Y-111081981D01*
X144906293Y-111083765D01*
X144945757Y-111085288D01*
X144995269Y-111086581D01*
X145056223Y-111087674D01*
X145130011Y-111088597D01*
X145218028Y-111089381D01*
X145321665Y-111090055D01*
X145442316Y-111090650D01*
X145581374Y-111091195D01*
X145740232Y-111091721D01*
X145919089Y-111092255D01*
X146104207Y-111092794D01*
X146268145Y-111093228D01*
X146412303Y-111093491D01*
X146538079Y-111093516D01*
X146646871Y-111093235D01*
X146740077Y-111092581D01*
X146819097Y-111091486D01*
X146885328Y-111089882D01*
X146940170Y-111087703D01*
X146985021Y-111084881D01*
X147021278Y-111081349D01*
X147050341Y-111077039D01*
X147073609Y-111071883D01*
X147092479Y-111065815D01*
X147108351Y-111058767D01*
X147122622Y-111050671D01*
X147136691Y-111041460D01*
X147149158Y-111032960D01*
X147175452Y-111015824D01*
X147193037Y-111005678D01*
X147196257Y-111004489D01*
X147197334Y-111015396D01*
X147198335Y-111046589D01*
X147199235Y-111095777D01*
X147200010Y-111160667D01*
X147200637Y-111238970D01*
X147201091Y-111328393D01*
X147201349Y-111426644D01*
X147201400Y-111495555D01*
X147201180Y-111600548D01*
X147200548Y-111697390D01*
X147199549Y-111783893D01*
X147198227Y-111857868D01*
X147196626Y-111917126D01*
X147194791Y-111959480D01*
X147192765Y-111982740D01*
X147191493Y-111986622D01*
X147176591Y-111978924D01*
X147168560Y-111970926D01*
X147151434Y-111957754D01*
X147121183Y-111940515D01*
X147096622Y-111928593D01*
X147037711Y-111901955D01*
X145860845Y-111898880D01*
X144683978Y-111895805D01*
X144683978Y-111450147D01*
X144684142Y-111352330D01*
X144684611Y-111261936D01*
X144685347Y-111181370D01*
X144686316Y-111113038D01*
X144687480Y-111059344D01*
X144688803Y-111022695D01*
X144690249Y-111005496D01*
X144690702Y-111004489D01*
X144690702Y-109993483D01*
X144671722Y-110008730D01*
X144579537Y-110082910D01*
X144490204Y-110154931D01*
X144405424Y-110223431D01*
X144326898Y-110287045D01*
X144256326Y-110344412D01*
X144195409Y-110394167D01*
X144145847Y-110434948D01*
X144125178Y-110452112D01*
X144024516Y-110538404D01*
X143941259Y-110615003D01*
X143873438Y-110683817D01*
X143819089Y-110746752D01*
X143811722Y-110756133D01*
X143781117Y-110795644D01*
X143780867Y-109663884D01*
X143828844Y-109669173D01*
X143886188Y-109665870D01*
X143954463Y-109644339D01*
X144034212Y-109604365D01*
X144106495Y-109559057D01*
X144129140Y-109542839D01*
X144166696Y-109514786D01*
X144217021Y-109476570D01*
X144277973Y-109429863D01*
X144347411Y-109376339D01*
X144423194Y-109317669D01*
X144503180Y-109255525D01*
X144585228Y-109191579D01*
X144667196Y-109127505D01*
X144746943Y-109064973D01*
X144822327Y-109005657D01*
X144891207Y-108951229D01*
X144951442Y-108903361D01*
X145000889Y-108863725D01*
X145037408Y-108833994D01*
X145058858Y-108815839D01*
X145062156Y-108812780D01*
X145054149Y-108809921D01*
X145023855Y-108807707D01*
X144971556Y-108806143D01*
X144897531Y-108805233D01*
X144802063Y-108804980D01*
X144685434Y-108805387D01*
X144565445Y-108806296D01*
X144433333Y-108807618D01*
X144321594Y-108809143D01*
X144228025Y-108811119D01*
X144150419Y-108813794D01*
X144086574Y-108817418D01*
X144034283Y-108822239D01*
X143991344Y-108828506D01*
X143955551Y-108836468D01*
X143924700Y-108846373D01*
X143896586Y-108858469D01*
X143869005Y-108873007D01*
X143843966Y-108887689D01*
X143780867Y-108925686D01*
X143780867Y-107865803D01*
X143780867Y-107562966D01*
X143774617Y-107562999D01*
X143672544Y-107563805D01*
X143583633Y-107564830D01*
X143506941Y-107566100D01*
X143441527Y-107567640D01*
X143386449Y-107569476D01*
X143340765Y-107571633D01*
X143303534Y-107574137D01*
X143273813Y-107577013D01*
X143250662Y-107580287D01*
X143233139Y-107583985D01*
X143220301Y-107588131D01*
X143211208Y-107592753D01*
X143204918Y-107597874D01*
X143200488Y-107603522D01*
X143196978Y-107609721D01*
X143193445Y-107616496D01*
X143189876Y-107622492D01*
X143187300Y-107627725D01*
X143184972Y-107635901D01*
X143182878Y-107648114D01*
X143181007Y-107665459D01*
X143179347Y-107689031D01*
X143177884Y-107719923D01*
X143176608Y-107759232D01*
X143175504Y-107808050D01*
X143174561Y-107867473D01*
X143173767Y-107938596D01*
X143173109Y-108022512D01*
X143172575Y-108120317D01*
X143172153Y-108233106D01*
X143171829Y-108361971D01*
X143171592Y-108508009D01*
X143171430Y-108672314D01*
X143171330Y-108855980D01*
X143171280Y-109060103D01*
X143171267Y-109271247D01*
X143171267Y-110891600D01*
X143268054Y-110891600D01*
X143268054Y-110891600D01*
G37*
X143268054Y-110891600D02*
X143381993Y-110902465D01*
X143489616Y-110934082D01*
X143588615Y-110984985D01*
X143676684Y-111053707D01*
X143751516Y-111138781D01*
X143809384Y-111235768D01*
X143849005Y-111342036D01*
X143867573Y-111449050D01*
X143866434Y-111554700D01*
X143846930Y-111656875D01*
X143810406Y-111753466D01*
X143758205Y-111842362D01*
X143691673Y-111921454D01*
X143612152Y-111988631D01*
X143520987Y-112041783D01*
X143419523Y-112078801D01*
X143309102Y-112097573D01*
X143259206Y-112099511D01*
X143171267Y-112099511D01*
X143171267Y-112151440D01*
X143174111Y-112187747D01*
X143185911Y-112214645D01*
X143209649Y-112241751D01*
X143248031Y-112280133D01*
X145439602Y-112280133D01*
X145701739Y-112280124D01*
X145942241Y-112280092D01*
X146162048Y-112280028D01*
X146362101Y-112279924D01*
X146543344Y-112279773D01*
X146706716Y-112279566D01*
X146853160Y-112279294D01*
X146983617Y-112278950D01*
X147099029Y-112278526D01*
X147200338Y-112278013D01*
X147288484Y-112277403D01*
X147364410Y-112276688D01*
X147429057Y-112275860D01*
X147483367Y-112274911D01*
X147528280Y-112273833D01*
X147564740Y-112272617D01*
X147593687Y-112271255D01*
X147616063Y-112269739D01*
X147632809Y-112268062D01*
X147644868Y-112266214D01*
X147653180Y-112264187D01*
X147658687Y-112261975D01*
X147660537Y-112260892D01*
X147667549Y-112256729D01*
X147673996Y-112253195D01*
X147679900Y-112249365D01*
X147685286Y-112244318D01*
X147690178Y-112237129D01*
X147694598Y-112226877D01*
X147698572Y-112212636D01*
X147702121Y-112193486D01*
X147705270Y-112168501D01*
X147708042Y-112136760D01*
X147710461Y-112097338D01*
X147712551Y-112049314D01*
X147714335Y-111991763D01*
X147715837Y-111923763D01*
X147717080Y-111844390D01*
X147718089Y-111752721D01*
X147718885Y-111647834D01*
X147719494Y-111528804D01*
X147719939Y-111394710D01*
X147720243Y-111244627D01*
X147720430Y-111077633D01*
X147720524Y-110892804D01*
X147720548Y-110689217D01*
X147720525Y-110465950D01*
X147720480Y-110222078D01*
X147720437Y-109956679D01*
X147720432Y-109918296D01*
X147720389Y-109651318D01*
X147720318Y-109405998D01*
X147720213Y-109181417D01*
X147720066Y-108976655D01*
X147719869Y-108790794D01*
X147719616Y-108622912D01*
X147719300Y-108472092D01*
X147718913Y-108337413D01*
X147718447Y-108217956D01*
X147717897Y-108112801D01*
X147717253Y-108021029D01*
X147716511Y-107941721D01*
X147715661Y-107873957D01*
X147714697Y-107816818D01*
X147713611Y-107769383D01*
X147712397Y-107730734D01*
X147711047Y-107699951D01*
X147709555Y-107676115D01*
X147707911Y-107658306D01*
X147706111Y-107645605D01*
X147704145Y-107637092D01*
X147702477Y-107632734D01*
X147698906Y-107624272D01*
X147696270Y-107616503D01*
X147693634Y-107609398D01*
X147690062Y-107602927D01*
X147684621Y-107597061D01*
X147676375Y-107591771D01*
X147664390Y-107587026D01*
X147647731Y-107582798D01*
X147625463Y-107579057D01*
X147596652Y-107575773D01*
X147560363Y-107572917D01*
X147515661Y-107570460D01*
X147461611Y-107568371D01*
X147397279Y-107566622D01*
X147321730Y-107565183D01*
X147234030Y-107564024D01*
X147133243Y-107563117D01*
X147018434Y-107562431D01*
X146888670Y-107561937D01*
X146743015Y-107561605D01*
X146580535Y-107561407D01*
X146400295Y-107561313D01*
X146201360Y-107561292D01*
X145982796Y-107561315D01*
X145743668Y-107561354D01*
X145483040Y-107561378D01*
X145440889Y-107561378D01*
X145177992Y-107561364D01*
X144936732Y-107561339D01*
X144716165Y-107561329D01*
X144515352Y-107561358D01*
X144333349Y-107561452D01*
X144169216Y-107561638D01*
X144022011Y-107561941D01*
X143890792Y-107562386D01*
X143780867Y-107562966D01*
X143780867Y-107865803D01*
X143838711Y-107905593D01*
X143854479Y-107916764D01*
X143868441Y-107926834D01*
X143881784Y-107935862D01*
X143895693Y-107943903D01*
X143911356Y-107951014D01*
X143929958Y-107957253D01*
X143952686Y-107962675D01*
X143980727Y-107967338D01*
X144015267Y-107971299D01*
X144057492Y-107974615D01*
X144108589Y-107977341D01*
X144169744Y-107979536D01*
X144242144Y-107981255D01*
X144326975Y-107982556D01*
X144425422Y-107983495D01*
X144538674Y-107984130D01*
X144667916Y-107984516D01*
X144814334Y-107984712D01*
X144979116Y-107984773D01*
X145163447Y-107984757D01*
X145368513Y-107984720D01*
X145491133Y-107984711D01*
X145708082Y-107984735D01*
X145903642Y-107984769D01*
X146078999Y-107984757D01*
X146235341Y-107984642D01*
X146373857Y-107984370D01*
X146495734Y-107983882D01*
X146602160Y-107983124D01*
X146694322Y-107982038D01*
X146773409Y-107980569D01*
X146840608Y-107978660D01*
X146897107Y-107976256D01*
X146944093Y-107973299D01*
X146982755Y-107969734D01*
X147014280Y-107965505D01*
X147039855Y-107960554D01*
X147060670Y-107954827D01*
X147077911Y-107948267D01*
X147092765Y-107940817D01*
X147106422Y-107932421D01*
X147120069Y-107923024D01*
X147134893Y-107912568D01*
X147143783Y-107906477D01*
X147201400Y-107867704D01*
X147201400Y-108399268D01*
X147201365Y-108522517D01*
X147201215Y-108625013D01*
X147200878Y-108708580D01*
X147200286Y-108775044D01*
X147199367Y-108826229D01*
X147198051Y-108863959D01*
X147196269Y-108890060D01*
X147193951Y-108906356D01*
X147191026Y-108914672D01*
X147187424Y-108916832D01*
X147183075Y-108914661D01*
X147181645Y-108913465D01*
X147144573Y-108888315D01*
X147091772Y-108862417D01*
X147029770Y-108838808D01*
X147003357Y-108830539D01*
X146985416Y-108825922D01*
X146964355Y-108822021D01*
X146938089Y-108818752D01*
X146904532Y-108816034D01*
X146861599Y-108813785D01*
X146807204Y-108811923D01*
X146739262Y-108810364D01*
X146655688Y-108809028D01*
X146554395Y-108807831D01*
X146433300Y-108806692D01*
X146388600Y-108806315D01*
X146263449Y-108805298D01*
X146159082Y-108804540D01*
X146073707Y-108804097D01*
X146005533Y-108804030D01*
X145952765Y-108804395D01*
X145913614Y-108805252D01*
X145886285Y-108806659D01*
X145868986Y-108808675D01*
X145859926Y-108811357D01*
X145857312Y-108814764D01*
X145859351Y-108818956D01*
X145863667Y-108823429D01*
X145876602Y-108833784D01*
X145905676Y-108855842D01*
X145948759Y-108888043D01*
X146003718Y-108928826D01*
X146068423Y-108976630D01*
X146140742Y-109029895D01*
X146218544Y-109087060D01*
X146299698Y-109146563D01*
X146382072Y-109206845D01*
X146463536Y-109266345D01*
X146541957Y-109323502D01*
X146615204Y-109376755D01*
X146681147Y-109424543D01*
X146737654Y-109465307D01*
X146782593Y-109497484D01*
X146813834Y-109519515D01*
X146820466Y-109524083D01*
X146857369Y-109547004D01*
X146905359Y-109573812D01*
X146954897Y-109599211D01*
X146961577Y-109602432D01*
X147009772Y-109624110D01*
X147047334Y-109636696D01*
X147083160Y-109642426D01*
X147125200Y-109643544D01*
X147201400Y-109642910D01*
X147201400Y-110797349D01*
X147107669Y-110706185D01*
X147057775Y-110659388D01*
X147001295Y-110609101D01*
X146947026Y-110563056D01*
X146921673Y-110542631D01*
X146882128Y-110512193D01*
X146828916Y-110472138D01*
X146763667Y-110423639D01*
X146688011Y-110367865D01*
X146603577Y-110305989D01*
X146511994Y-110239181D01*
X146414892Y-110168613D01*
X146313901Y-110095455D01*
X146210650Y-110020879D01*
X146106768Y-109946056D01*
X146003885Y-109872157D01*
X145903631Y-109800354D01*
X145807636Y-109731816D01*
X145717527Y-109667716D01*
X145634936Y-109609225D01*
X145561492Y-109557514D01*
X145498824Y-109513753D01*
X145448561Y-109479115D01*
X145412334Y-109454770D01*
X145391771Y-109441889D01*
X145387668Y-109440131D01*
X145376342Y-109448090D01*
X145349162Y-109468885D01*
X145307829Y-109501153D01*
X145254044Y-109543530D01*
X145189506Y-109594653D01*
X145115918Y-109653159D01*
X145034978Y-109717686D01*
X144948388Y-109786869D01*
X144857848Y-109859347D01*
X144765060Y-109933754D01*
X144690702Y-109993483D01*
X144690702Y-111004489D01*
X144703659Y-111010398D01*
X144725908Y-111024728D01*
X144727391Y-111025775D01*
X144757544Y-111044562D01*
X144794375Y-111064209D01*
X144802511Y-111068108D01*
X144810940Y-111071644D01*
X144821059Y-111074770D01*
X144834260Y-111077514D01*
X144851938Y-111079908D01*
X144875484Y-111081981D01*
X144906293Y-111083765D01*
X144945757Y-111085288D01*
X144995269Y-111086581D01*
X145056223Y-111087674D01*
X145130011Y-111088597D01*
X145218028Y-111089381D01*
X145321665Y-111090055D01*
X145442316Y-111090650D01*
X145581374Y-111091195D01*
X145740232Y-111091721D01*
X145919089Y-111092255D01*
X146104207Y-111092794D01*
X146268145Y-111093228D01*
X146412303Y-111093491D01*
X146538079Y-111093516D01*
X146646871Y-111093235D01*
X146740077Y-111092581D01*
X146819097Y-111091486D01*
X146885328Y-111089882D01*
X146940170Y-111087703D01*
X146985021Y-111084881D01*
X147021278Y-111081349D01*
X147050341Y-111077039D01*
X147073609Y-111071883D01*
X147092479Y-111065815D01*
X147108351Y-111058767D01*
X147122622Y-111050671D01*
X147136691Y-111041460D01*
X147149158Y-111032960D01*
X147175452Y-111015824D01*
X147193037Y-111005678D01*
X147196257Y-111004489D01*
X147197334Y-111015396D01*
X147198335Y-111046589D01*
X147199235Y-111095777D01*
X147200010Y-111160667D01*
X147200637Y-111238970D01*
X147201091Y-111328393D01*
X147201349Y-111426644D01*
X147201400Y-111495555D01*
X147201180Y-111600548D01*
X147200548Y-111697390D01*
X147199549Y-111783893D01*
X147198227Y-111857868D01*
X147196626Y-111917126D01*
X147194791Y-111959480D01*
X147192765Y-111982740D01*
X147191493Y-111986622D01*
X147176591Y-111978924D01*
X147168560Y-111970926D01*
X147151434Y-111957754D01*
X147121183Y-111940515D01*
X147096622Y-111928593D01*
X147037711Y-111901955D01*
X145860845Y-111898880D01*
X144683978Y-111895805D01*
X144683978Y-111450147D01*
X144684142Y-111352330D01*
X144684611Y-111261936D01*
X144685347Y-111181370D01*
X144686316Y-111113038D01*
X144687480Y-111059344D01*
X144688803Y-111022695D01*
X144690249Y-111005496D01*
X144690702Y-111004489D01*
X144690702Y-109993483D01*
X144671722Y-110008730D01*
X144579537Y-110082910D01*
X144490204Y-110154931D01*
X144405424Y-110223431D01*
X144326898Y-110287045D01*
X144256326Y-110344412D01*
X144195409Y-110394167D01*
X144145847Y-110434948D01*
X144125178Y-110452112D01*
X144024516Y-110538404D01*
X143941259Y-110615003D01*
X143873438Y-110683817D01*
X143819089Y-110746752D01*
X143811722Y-110756133D01*
X143781117Y-110795644D01*
X143780867Y-109663884D01*
X143828844Y-109669173D01*
X143886188Y-109665870D01*
X143954463Y-109644339D01*
X144034212Y-109604365D01*
X144106495Y-109559057D01*
X144129140Y-109542839D01*
X144166696Y-109514786D01*
X144217021Y-109476570D01*
X144277973Y-109429863D01*
X144347411Y-109376339D01*
X144423194Y-109317669D01*
X144503180Y-109255525D01*
X144585228Y-109191579D01*
X144667196Y-109127505D01*
X144746943Y-109064973D01*
X144822327Y-109005657D01*
X144891207Y-108951229D01*
X144951442Y-108903361D01*
X145000889Y-108863725D01*
X145037408Y-108833994D01*
X145058858Y-108815839D01*
X145062156Y-108812780D01*
X145054149Y-108809921D01*
X145023855Y-108807707D01*
X144971556Y-108806143D01*
X144897531Y-108805233D01*
X144802063Y-108804980D01*
X144685434Y-108805387D01*
X144565445Y-108806296D01*
X144433333Y-108807618D01*
X144321594Y-108809143D01*
X144228025Y-108811119D01*
X144150419Y-108813794D01*
X144086574Y-108817418D01*
X144034283Y-108822239D01*
X143991344Y-108828506D01*
X143955551Y-108836468D01*
X143924700Y-108846373D01*
X143896586Y-108858469D01*
X143869005Y-108873007D01*
X143843966Y-108887689D01*
X143780867Y-108925686D01*
X143780867Y-107865803D01*
X143780867Y-107562966D01*
X143774617Y-107562999D01*
X143672544Y-107563805D01*
X143583633Y-107564830D01*
X143506941Y-107566100D01*
X143441527Y-107567640D01*
X143386449Y-107569476D01*
X143340765Y-107571633D01*
X143303534Y-107574137D01*
X143273813Y-107577013D01*
X143250662Y-107580287D01*
X143233139Y-107583985D01*
X143220301Y-107588131D01*
X143211208Y-107592753D01*
X143204918Y-107597874D01*
X143200488Y-107603522D01*
X143196978Y-107609721D01*
X143193445Y-107616496D01*
X143189876Y-107622492D01*
X143187300Y-107627725D01*
X143184972Y-107635901D01*
X143182878Y-107648114D01*
X143181007Y-107665459D01*
X143179347Y-107689031D01*
X143177884Y-107719923D01*
X143176608Y-107759232D01*
X143175504Y-107808050D01*
X143174561Y-107867473D01*
X143173767Y-107938596D01*
X143173109Y-108022512D01*
X143172575Y-108120317D01*
X143172153Y-108233106D01*
X143171829Y-108361971D01*
X143171592Y-108508009D01*
X143171430Y-108672314D01*
X143171330Y-108855980D01*
X143171280Y-109060103D01*
X143171267Y-109271247D01*
X143171267Y-110891600D01*
X143268054Y-110891600D01*
G36*
X143728071Y-114166429D02*
X143749245Y-114326570D01*
X143789385Y-114490510D01*
X143848889Y-114660313D01*
X143928154Y-114838043D01*
X143933699Y-114849310D01*
X143961725Y-114907005D01*
X143985802Y-114958552D01*
X144004249Y-115000191D01*
X144015386Y-115028162D01*
X144017933Y-115037733D01*
X144022941Y-115056950D01*
X144027147Y-115061561D01*
X144037580Y-115056458D01*
X144063868Y-115040418D01*
X144103257Y-115015288D01*
X144152991Y-114982914D01*
X144210315Y-114945143D01*
X144272476Y-114903822D01*
X144336718Y-114860798D01*
X144400285Y-114817917D01*
X144460425Y-114777026D01*
X144514380Y-114739971D01*
X144559397Y-114708600D01*
X144592721Y-114684759D01*
X144611597Y-114670294D01*
X144613787Y-114668309D01*
X144609138Y-114658191D01*
X144591962Y-114635850D01*
X144565440Y-114605280D01*
X144550964Y-114589536D01*
X144475682Y-114493047D01*
X144420241Y-114386336D01*
X144385141Y-114270832D01*
X144370880Y-114147962D01*
X144372051Y-114078561D01*
X144389212Y-113957423D01*
X144425094Y-113848205D01*
X144479959Y-113750582D01*
X144554070Y-113664228D01*
X144647688Y-113588815D01*
X144761076Y-113524018D01*
X144847667Y-113486601D01*
X144983366Y-113442748D01*
X145130850Y-113410428D01*
X145286314Y-113389557D01*
X145445956Y-113380051D01*
X145605973Y-113381827D01*
X145762561Y-113394803D01*
X145911918Y-113418894D01*
X146050240Y-113454018D01*
X146173724Y-113500092D01*
X146207978Y-113516373D01*
X146322064Y-113584620D01*
X146418557Y-113665079D01*
X146496670Y-113756570D01*
X146555617Y-113857911D01*
X146594612Y-113967920D01*
X146612868Y-114085415D01*
X146614211Y-114126883D01*
X146603290Y-114248441D01*
X146570474Y-114368878D01*
X146516439Y-114486666D01*
X146441865Y-114600277D01*
X146363539Y-114691685D01*
X146319008Y-114738215D01*
X146616271Y-114919483D01*
X146690433Y-114964580D01*
X146758646Y-115005819D01*
X146818459Y-115041735D01*
X146867420Y-115070866D01*
X146903079Y-115091750D01*
X146922984Y-115102924D01*
X146926079Y-115104375D01*
X146935718Y-115096146D01*
X146952999Y-115070567D01*
X146976283Y-115030873D01*
X147003934Y-114980297D01*
X147034315Y-114922074D01*
X147065790Y-114859437D01*
X147096722Y-114795621D01*
X147125473Y-114733860D01*
X147150408Y-114677388D01*
X147169889Y-114629438D01*
X147178318Y-114605986D01*
X147216133Y-114472221D01*
X147241136Y-114334327D01*
X147254140Y-114186622D01*
X147256468Y-114059833D01*
X147255373Y-113991878D01*
X147253275Y-113926277D01*
X147250434Y-113868847D01*
X147247106Y-113825403D01*
X147245422Y-113811298D01*
X147216587Y-113672284D01*
X147171468Y-113530757D01*
X147112750Y-113393275D01*
X147043120Y-113266394D01*
X146990441Y-113188889D01*
X146882239Y-113061481D01*
X146755671Y-112943178D01*
X146613866Y-112836172D01*
X146459951Y-112742652D01*
X146297053Y-112664810D01*
X146179756Y-112620956D01*
X145996128Y-112570708D01*
X145801581Y-112537209D01*
X145600325Y-112520449D01*
X145396568Y-112520416D01*
X145194521Y-112537101D01*
X144998392Y-112570493D01*
X144812391Y-112620580D01*
X144800803Y-112624397D01*
X144638750Y-112687281D01*
X144490832Y-112764028D01*
X144352865Y-112857242D01*
X144220661Y-112969527D01*
X144175399Y-113013392D01*
X144051457Y-113149534D01*
X143948915Y-113289491D01*
X143866656Y-113435411D01*
X143803564Y-113589442D01*
X143758523Y-113753732D01*
X143741033Y-113849289D01*
X143725466Y-114008023D01*
X143728071Y-114166429D01*
X143728071Y-114166429D01*
G37*
X143728071Y-114166429D02*
X143749245Y-114326570D01*
X143789385Y-114490510D01*
X143848889Y-114660313D01*
X143928154Y-114838043D01*
X143933699Y-114849310D01*
X143961725Y-114907005D01*
X143985802Y-114958552D01*
X144004249Y-115000191D01*
X144015386Y-115028162D01*
X144017933Y-115037733D01*
X144022941Y-115056950D01*
X144027147Y-115061561D01*
X144037580Y-115056458D01*
X144063868Y-115040418D01*
X144103257Y-115015288D01*
X144152991Y-114982914D01*
X144210315Y-114945143D01*
X144272476Y-114903822D01*
X144336718Y-114860798D01*
X144400285Y-114817917D01*
X144460425Y-114777026D01*
X144514380Y-114739971D01*
X144559397Y-114708600D01*
X144592721Y-114684759D01*
X144611597Y-114670294D01*
X144613787Y-114668309D01*
X144609138Y-114658191D01*
X144591962Y-114635850D01*
X144565440Y-114605280D01*
X144550964Y-114589536D01*
X144475682Y-114493047D01*
X144420241Y-114386336D01*
X144385141Y-114270832D01*
X144370880Y-114147962D01*
X144372051Y-114078561D01*
X144389212Y-113957423D01*
X144425094Y-113848205D01*
X144479959Y-113750582D01*
X144554070Y-113664228D01*
X144647688Y-113588815D01*
X144761076Y-113524018D01*
X144847667Y-113486601D01*
X144983366Y-113442748D01*
X145130850Y-113410428D01*
X145286314Y-113389557D01*
X145445956Y-113380051D01*
X145605973Y-113381827D01*
X145762561Y-113394803D01*
X145911918Y-113418894D01*
X146050240Y-113454018D01*
X146173724Y-113500092D01*
X146207978Y-113516373D01*
X146322064Y-113584620D01*
X146418557Y-113665079D01*
X146496670Y-113756570D01*
X146555617Y-113857911D01*
X146594612Y-113967920D01*
X146612868Y-114085415D01*
X146614211Y-114126883D01*
X146603290Y-114248441D01*
X146570474Y-114368878D01*
X146516439Y-114486666D01*
X146441865Y-114600277D01*
X146363539Y-114691685D01*
X146319008Y-114738215D01*
X146616271Y-114919483D01*
X146690433Y-114964580D01*
X146758646Y-115005819D01*
X146818459Y-115041735D01*
X146867420Y-115070866D01*
X146903079Y-115091750D01*
X146922984Y-115102924D01*
X146926079Y-115104375D01*
X146935718Y-115096146D01*
X146952999Y-115070567D01*
X146976283Y-115030873D01*
X147003934Y-114980297D01*
X147034315Y-114922074D01*
X147065790Y-114859437D01*
X147096722Y-114795621D01*
X147125473Y-114733860D01*
X147150408Y-114677388D01*
X147169889Y-114629438D01*
X147178318Y-114605986D01*
X147216133Y-114472221D01*
X147241136Y-114334327D01*
X147254140Y-114186622D01*
X147256468Y-114059833D01*
X147255373Y-113991878D01*
X147253275Y-113926277D01*
X147250434Y-113868847D01*
X147247106Y-113825403D01*
X147245422Y-113811298D01*
X147216587Y-113672284D01*
X147171468Y-113530757D01*
X147112750Y-113393275D01*
X147043120Y-113266394D01*
X146990441Y-113188889D01*
X146882239Y-113061481D01*
X146755671Y-112943178D01*
X146613866Y-112836172D01*
X146459951Y-112742652D01*
X146297053Y-112664810D01*
X146179756Y-112620956D01*
X145996128Y-112570708D01*
X145801581Y-112537209D01*
X145600325Y-112520449D01*
X145396568Y-112520416D01*
X145194521Y-112537101D01*
X144998392Y-112570493D01*
X144812391Y-112620580D01*
X144800803Y-112624397D01*
X144638750Y-112687281D01*
X144490832Y-112764028D01*
X144352865Y-112857242D01*
X144220661Y-112969527D01*
X144175399Y-113013392D01*
X144051457Y-113149534D01*
X143948915Y-113289491D01*
X143866656Y-113435411D01*
X143803564Y-113589442D01*
X143758523Y-113753732D01*
X143741033Y-113849289D01*
X143725466Y-114008023D01*
X143728071Y-114166429D01*
G36*
X144645552Y-116511574D02*
X144665567Y-116663492D01*
X144699202Y-116798756D01*
X144746725Y-116918239D01*
X144808405Y-117022815D01*
X144871965Y-117100424D01*
X144946099Y-117169265D01*
X145025871Y-117223006D01*
X145118091Y-117265910D01*
X145161161Y-117281384D01*
X145200142Y-117294244D01*
X145236289Y-117305446D01*
X145271434Y-117315120D01*
X145307410Y-117323396D01*
X145346050Y-117330403D01*
X145389185Y-117336272D01*
X145438649Y-117341131D01*
X145496273Y-117345110D01*
X145563891Y-117348340D01*
X145643334Y-117350949D01*
X145736436Y-117353067D01*
X145845027Y-117354824D01*
X145970942Y-117356349D01*
X146116012Y-117357772D01*
X146258778Y-117359025D01*
X146414968Y-117360351D01*
X146550239Y-117361556D01*
X146666246Y-117362766D01*
X146764645Y-117364106D01*
X146847093Y-117365700D01*
X146915246Y-117367675D01*
X146970760Y-117370156D01*
X147015292Y-117373269D01*
X147050498Y-117377138D01*
X147078034Y-117381889D01*
X147099556Y-117387648D01*
X147116722Y-117394539D01*
X147131186Y-117402689D01*
X147144606Y-117412223D01*
X147158638Y-117423266D01*
X147164071Y-117427566D01*
X147186910Y-117443386D01*
X147202463Y-117450422D01*
X147202922Y-117450444D01*
X147205121Y-117439567D01*
X147207147Y-117408582D01*
X147208942Y-117359957D01*
X147210451Y-117296163D01*
X147211616Y-117219669D01*
X147212380Y-117132944D01*
X147212686Y-117038457D01*
X147212689Y-117027550D01*
X147212689Y-116604657D01*
X147116622Y-116601395D01*
X147020556Y-116598133D01*
X147071543Y-116536044D01*
X147139057Y-116438714D01*
X147193749Y-116328813D01*
X147223978Y-116242349D01*
X147238666Y-116173278D01*
X147248659Y-116089925D01*
X147253646Y-116000159D01*
X147253313Y-115911845D01*
X147247351Y-115832851D01*
X147241638Y-115796622D01*
X147203776Y-115656603D01*
X147148932Y-115530178D01*
X147077924Y-115418260D01*
X146991568Y-115321762D01*
X146890679Y-115241600D01*
X146776076Y-115178687D01*
X146649984Y-115134312D01*
X146593401Y-115121978D01*
X146531202Y-115114368D01*
X146456363Y-115110739D01*
X146422467Y-115110245D01*
X146419282Y-115110310D01*
X146419282Y-115870248D01*
X146494333Y-115879541D01*
X146558160Y-115907728D01*
X146613798Y-115956197D01*
X146618211Y-115961254D01*
X146653037Y-116009548D01*
X146675620Y-116061257D01*
X146687540Y-116121989D01*
X146690383Y-116197352D01*
X146689978Y-116215459D01*
X146687325Y-116269278D01*
X146681909Y-116309308D01*
X146671745Y-116344324D01*
X146654850Y-116383103D01*
X146649672Y-116393745D01*
X146613844Y-116454396D01*
X146571212Y-116501215D01*
X146555973Y-116513952D01*
X146499462Y-116558622D01*
X146303586Y-116558622D01*
X146224939Y-116558086D01*
X146166988Y-116556396D01*
X146127875Y-116553428D01*
X146105741Y-116549057D01*
X146099274Y-116544972D01*
X146096111Y-116529047D01*
X146093488Y-116495264D01*
X146091655Y-116448340D01*
X146090857Y-116392993D01*
X146090842Y-116384106D01*
X146096096Y-116263330D01*
X146112263Y-116160660D01*
X146139961Y-116074106D01*
X146179808Y-116001681D01*
X146226758Y-115946751D01*
X146284645Y-115902204D01*
X146347693Y-115877480D01*
X146419282Y-115870248D01*
X146419282Y-115110310D01*
X146328712Y-115112178D01*
X146249812Y-115120522D01*
X146178590Y-115136768D01*
X146107864Y-115162405D01*
X146055493Y-115186401D01*
X145960196Y-115245020D01*
X145872170Y-115323117D01*
X145793017Y-115418315D01*
X145724340Y-115528238D01*
X145667741Y-115650510D01*
X145624821Y-115782755D01*
X145609882Y-115847422D01*
X145587777Y-115983604D01*
X145573194Y-116132049D01*
X145566813Y-116283505D01*
X145568445Y-116410064D01*
X145575224Y-116571950D01*
X145516245Y-116564530D01*
X145417092Y-116545238D01*
X145336372Y-116514104D01*
X145273466Y-116470269D01*
X145227756Y-116412871D01*
X145198622Y-116341048D01*
X145185447Y-116253941D01*
X145187611Y-116150686D01*
X145191612Y-116112711D01*
X145216780Y-115971520D01*
X145257814Y-115834707D01*
X145295815Y-115740178D01*
X145315190Y-115695018D01*
X145330760Y-115656585D01*
X145340405Y-115630234D01*
X145342452Y-115622546D01*
X145333374Y-115612802D01*
X145304405Y-115596083D01*
X145255217Y-115572232D01*
X145185484Y-115541093D01*
X145094879Y-115502507D01*
X145079089Y-115495910D01*
X145006772Y-115465853D01*
X144941425Y-115438874D01*
X144885906Y-115416136D01*
X144843072Y-115398806D01*
X144815781Y-115388048D01*
X144806942Y-115384941D01*
X144802187Y-115394940D01*
X144796910Y-115421217D01*
X144793231Y-115449489D01*
X144788474Y-115479646D01*
X144779028Y-115527433D01*
X144765820Y-115588612D01*
X144749776Y-115658946D01*
X144731820Y-115734194D01*
X144724797Y-115762755D01*
X144699209Y-115867816D01*
X144679147Y-115955480D01*
X144663969Y-116030068D01*
X144653035Y-116095903D01*
X144645704Y-116157307D01*
X144641335Y-116218602D01*
X144639287Y-116284110D01*
X144638889Y-116342128D01*
X144645552Y-116511574D01*
X144645552Y-116511574D01*
G37*
X144645552Y-116511574D02*
X144665567Y-116663492D01*
X144699202Y-116798756D01*
X144746725Y-116918239D01*
X144808405Y-117022815D01*
X144871965Y-117100424D01*
X144946099Y-117169265D01*
X145025871Y-117223006D01*
X145118091Y-117265910D01*
X145161161Y-117281384D01*
X145200142Y-117294244D01*
X145236289Y-117305446D01*
X145271434Y-117315120D01*
X145307410Y-117323396D01*
X145346050Y-117330403D01*
X145389185Y-117336272D01*
X145438649Y-117341131D01*
X145496273Y-117345110D01*
X145563891Y-117348340D01*
X145643334Y-117350949D01*
X145736436Y-117353067D01*
X145845027Y-117354824D01*
X145970942Y-117356349D01*
X146116012Y-117357772D01*
X146258778Y-117359025D01*
X146414968Y-117360351D01*
X146550239Y-117361556D01*
X146666246Y-117362766D01*
X146764645Y-117364106D01*
X146847093Y-117365700D01*
X146915246Y-117367675D01*
X146970760Y-117370156D01*
X147015292Y-117373269D01*
X147050498Y-117377138D01*
X147078034Y-117381889D01*
X147099556Y-117387648D01*
X147116722Y-117394539D01*
X147131186Y-117402689D01*
X147144606Y-117412223D01*
X147158638Y-117423266D01*
X147164071Y-117427566D01*
X147186910Y-117443386D01*
X147202463Y-117450422D01*
X147202922Y-117450444D01*
X147205121Y-117439567D01*
X147207147Y-117408582D01*
X147208942Y-117359957D01*
X147210451Y-117296163D01*
X147211616Y-117219669D01*
X147212380Y-117132944D01*
X147212686Y-117038457D01*
X147212689Y-117027550D01*
X147212689Y-116604657D01*
X147116622Y-116601395D01*
X147020556Y-116598133D01*
X147071543Y-116536044D01*
X147139057Y-116438714D01*
X147193749Y-116328813D01*
X147223978Y-116242349D01*
X147238666Y-116173278D01*
X147248659Y-116089925D01*
X147253646Y-116000159D01*
X147253313Y-115911845D01*
X147247351Y-115832851D01*
X147241638Y-115796622D01*
X147203776Y-115656603D01*
X147148932Y-115530178D01*
X147077924Y-115418260D01*
X146991568Y-115321762D01*
X146890679Y-115241600D01*
X146776076Y-115178687D01*
X146649984Y-115134312D01*
X146593401Y-115121978D01*
X146531202Y-115114368D01*
X146456363Y-115110739D01*
X146422467Y-115110245D01*
X146419282Y-115110310D01*
X146419282Y-115870248D01*
X146494333Y-115879541D01*
X146558160Y-115907728D01*
X146613798Y-115956197D01*
X146618211Y-115961254D01*
X146653037Y-116009548D01*
X146675620Y-116061257D01*
X146687540Y-116121989D01*
X146690383Y-116197352D01*
X146689978Y-116215459D01*
X146687325Y-116269278D01*
X146681909Y-116309308D01*
X146671745Y-116344324D01*
X146654850Y-116383103D01*
X146649672Y-116393745D01*
X146613844Y-116454396D01*
X146571212Y-116501215D01*
X146555973Y-116513952D01*
X146499462Y-116558622D01*
X146303586Y-116558622D01*
X146224939Y-116558086D01*
X146166988Y-116556396D01*
X146127875Y-116553428D01*
X146105741Y-116549057D01*
X146099274Y-116544972D01*
X146096111Y-116529047D01*
X146093488Y-116495264D01*
X146091655Y-116448340D01*
X146090857Y-116392993D01*
X146090842Y-116384106D01*
X146096096Y-116263330D01*
X146112263Y-116160660D01*
X146139961Y-116074106D01*
X146179808Y-116001681D01*
X146226758Y-115946751D01*
X146284645Y-115902204D01*
X146347693Y-115877480D01*
X146419282Y-115870248D01*
X146419282Y-115110310D01*
X146328712Y-115112178D01*
X146249812Y-115120522D01*
X146178590Y-115136768D01*
X146107864Y-115162405D01*
X146055493Y-115186401D01*
X145960196Y-115245020D01*
X145872170Y-115323117D01*
X145793017Y-115418315D01*
X145724340Y-115528238D01*
X145667741Y-115650510D01*
X145624821Y-115782755D01*
X145609882Y-115847422D01*
X145587777Y-115983604D01*
X145573194Y-116132049D01*
X145566813Y-116283505D01*
X145568445Y-116410064D01*
X145575224Y-116571950D01*
X145516245Y-116564530D01*
X145417092Y-116545238D01*
X145336372Y-116514104D01*
X145273466Y-116470269D01*
X145227756Y-116412871D01*
X145198622Y-116341048D01*
X145185447Y-116253941D01*
X145187611Y-116150686D01*
X145191612Y-116112711D01*
X145216780Y-115971520D01*
X145257814Y-115834707D01*
X145295815Y-115740178D01*
X145315190Y-115695018D01*
X145330760Y-115656585D01*
X145340405Y-115630234D01*
X145342452Y-115622546D01*
X145333374Y-115612802D01*
X145304405Y-115596083D01*
X145255217Y-115572232D01*
X145185484Y-115541093D01*
X145094879Y-115502507D01*
X145079089Y-115495910D01*
X145006772Y-115465853D01*
X144941425Y-115438874D01*
X144885906Y-115416136D01*
X144843072Y-115398806D01*
X144815781Y-115388048D01*
X144806942Y-115384941D01*
X144802187Y-115394940D01*
X144796910Y-115421217D01*
X144793231Y-115449489D01*
X144788474Y-115479646D01*
X144779028Y-115527433D01*
X144765820Y-115588612D01*
X144749776Y-115658946D01*
X144731820Y-115734194D01*
X144724797Y-115762755D01*
X144699209Y-115867816D01*
X144679147Y-115955480D01*
X144663969Y-116030068D01*
X144653035Y-116095903D01*
X144645704Y-116157307D01*
X144641335Y-116218602D01*
X144639287Y-116284110D01*
X144638889Y-116342128D01*
X144645552Y-116511574D01*
G36*
X145251245Y-120024507D02*
X145485662Y-120024526D01*
X145698603Y-120024552D01*
X145891168Y-120024625D01*
X146064459Y-120024782D01*
X146219576Y-120025064D01*
X146357620Y-120025509D01*
X146479692Y-120026156D01*
X146586894Y-120027045D01*
X146680326Y-120028213D01*
X146761090Y-120029701D01*
X146830286Y-120031546D01*
X146889015Y-120033789D01*
X146938379Y-120036469D01*
X146979478Y-120039623D01*
X147013413Y-120043292D01*
X147041286Y-120047513D01*
X147064198Y-120052327D01*
X147083249Y-120057773D01*
X147099540Y-120063888D01*
X147114173Y-120070712D01*
X147128249Y-120078285D01*
X147142868Y-120086645D01*
X147151974Y-120091839D01*
X147212689Y-120126104D01*
X147212689Y-119267955D01*
X147116733Y-119267955D01*
X147073370Y-119267224D01*
X147040205Y-119265272D01*
X147022424Y-119262463D01*
X147020778Y-119261221D01*
X147027662Y-119249799D01*
X147045505Y-119227084D01*
X147064879Y-119204385D01*
X147105614Y-119149800D01*
X147146617Y-119080321D01*
X147184123Y-119003270D01*
X147214364Y-118925965D01*
X147224012Y-118895113D01*
X147238578Y-118826616D01*
X147248539Y-118743764D01*
X147253583Y-118654371D01*
X147253396Y-118566248D01*
X147247666Y-118487207D01*
X147241858Y-118449511D01*
X147203797Y-118311414D01*
X147146073Y-118184113D01*
X147069211Y-118068292D01*
X146973739Y-117964637D01*
X146860179Y-117873833D01*
X146749381Y-117807031D01*
X146632625Y-117752164D01*
X146513276Y-117710163D01*
X146387283Y-117680167D01*
X146250594Y-117661311D01*
X146099158Y-117652732D01*
X146021711Y-117652006D01*
X145964934Y-117654100D01*
X145964934Y-118483217D01*
X146058002Y-118483424D01*
X146145692Y-118486337D01*
X146222772Y-118492000D01*
X146284009Y-118500455D01*
X146296350Y-118503038D01*
X146403633Y-118534840D01*
X146490658Y-118576498D01*
X146557642Y-118628363D01*
X146604805Y-118690781D01*
X146632365Y-118764100D01*
X146640541Y-118848669D01*
X146629551Y-118944835D01*
X146613829Y-119008311D01*
X146595639Y-119057454D01*
X146569791Y-119111583D01*
X146546089Y-119152244D01*
X146499721Y-119222800D01*
X145349530Y-119222800D01*
X145305962Y-119155392D01*
X145265040Y-119076867D01*
X145238389Y-118992681D01*
X145226465Y-118907557D01*
X145229722Y-118826216D01*
X145248615Y-118753380D01*
X145264184Y-118721426D01*
X145307181Y-118663501D01*
X145363953Y-118614544D01*
X145436575Y-118573390D01*
X145527121Y-118538874D01*
X145637666Y-118509833D01*
X145643533Y-118508552D01*
X145705788Y-118498381D01*
X145783594Y-118490739D01*
X145871720Y-118485670D01*
X145964934Y-118483217D01*
X145964934Y-117654100D01*
X145808895Y-117659857D01*
X145613059Y-117681802D01*
X145434332Y-117717786D01*
X145272845Y-117767759D01*
X145128726Y-117831668D01*
X145002106Y-117909462D01*
X144893115Y-118001089D01*
X144801883Y-118106497D01*
X144770932Y-118151662D01*
X144714785Y-118252611D01*
X144675174Y-118355901D01*
X144651014Y-118465989D01*
X144641219Y-118587330D01*
X144642265Y-118679836D01*
X144653231Y-118809490D01*
X144675046Y-118922084D01*
X144708714Y-119020875D01*
X144755236Y-119109121D01*
X144789448Y-119157986D01*
X144811362Y-119187353D01*
X144826333Y-119209043D01*
X144830733Y-119217253D01*
X144819904Y-119218868D01*
X144789251Y-119220159D01*
X144741526Y-119221138D01*
X144679479Y-119221817D01*
X144605862Y-119222210D01*
X144523427Y-119222330D01*
X144434925Y-119222188D01*
X144343107Y-119221797D01*
X144250724Y-119221171D01*
X144160528Y-119220320D01*
X144075271Y-119219260D01*
X143997703Y-119218001D01*
X143930576Y-119216556D01*
X143876641Y-119214938D01*
X143838650Y-119213161D01*
X143831667Y-119212669D01*
X143761251Y-119205092D01*
X143706102Y-119193531D01*
X143658981Y-119175792D01*
X143612647Y-119149682D01*
X143603067Y-119143415D01*
X143566378Y-119118983D01*
X143566378Y-120024311D01*
X145251245Y-120024507D01*
X145251245Y-120024507D01*
G37*
X145251245Y-120024507D02*
X145485662Y-120024526D01*
X145698603Y-120024552D01*
X145891168Y-120024625D01*
X146064459Y-120024782D01*
X146219576Y-120025064D01*
X146357620Y-120025509D01*
X146479692Y-120026156D01*
X146586894Y-120027045D01*
X146680326Y-120028213D01*
X146761090Y-120029701D01*
X146830286Y-120031546D01*
X146889015Y-120033789D01*
X146938379Y-120036469D01*
X146979478Y-120039623D01*
X147013413Y-120043292D01*
X147041286Y-120047513D01*
X147064198Y-120052327D01*
X147083249Y-120057773D01*
X147099540Y-120063888D01*
X147114173Y-120070712D01*
X147128249Y-120078285D01*
X147142868Y-120086645D01*
X147151974Y-120091839D01*
X147212689Y-120126104D01*
X147212689Y-119267955D01*
X147116733Y-119267955D01*
X147073370Y-119267224D01*
X147040205Y-119265272D01*
X147022424Y-119262463D01*
X147020778Y-119261221D01*
X147027662Y-119249799D01*
X147045505Y-119227084D01*
X147064879Y-119204385D01*
X147105614Y-119149800D01*
X147146617Y-119080321D01*
X147184123Y-119003270D01*
X147214364Y-118925965D01*
X147224012Y-118895113D01*
X147238578Y-118826616D01*
X147248539Y-118743764D01*
X147253583Y-118654371D01*
X147253396Y-118566248D01*
X147247666Y-118487207D01*
X147241858Y-118449511D01*
X147203797Y-118311414D01*
X147146073Y-118184113D01*
X147069211Y-118068292D01*
X146973739Y-117964637D01*
X146860179Y-117873833D01*
X146749381Y-117807031D01*
X146632625Y-117752164D01*
X146513276Y-117710163D01*
X146387283Y-117680167D01*
X146250594Y-117661311D01*
X146099158Y-117652732D01*
X146021711Y-117652006D01*
X145964934Y-117654100D01*
X145964934Y-118483217D01*
X146058002Y-118483424D01*
X146145692Y-118486337D01*
X146222772Y-118492000D01*
X146284009Y-118500455D01*
X146296350Y-118503038D01*
X146403633Y-118534840D01*
X146490658Y-118576498D01*
X146557642Y-118628363D01*
X146604805Y-118690781D01*
X146632365Y-118764100D01*
X146640541Y-118848669D01*
X146629551Y-118944835D01*
X146613829Y-119008311D01*
X146595639Y-119057454D01*
X146569791Y-119111583D01*
X146546089Y-119152244D01*
X146499721Y-119222800D01*
X145349530Y-119222800D01*
X145305962Y-119155392D01*
X145265040Y-119076867D01*
X145238389Y-118992681D01*
X145226465Y-118907557D01*
X145229722Y-118826216D01*
X145248615Y-118753380D01*
X145264184Y-118721426D01*
X145307181Y-118663501D01*
X145363953Y-118614544D01*
X145436575Y-118573390D01*
X145527121Y-118538874D01*
X145637666Y-118509833D01*
X145643533Y-118508552D01*
X145705788Y-118498381D01*
X145783594Y-118490739D01*
X145871720Y-118485670D01*
X145964934Y-118483217D01*
X145964934Y-117654100D01*
X145808895Y-117659857D01*
X145613059Y-117681802D01*
X145434332Y-117717786D01*
X145272845Y-117767759D01*
X145128726Y-117831668D01*
X145002106Y-117909462D01*
X144893115Y-118001089D01*
X144801883Y-118106497D01*
X144770932Y-118151662D01*
X144714785Y-118252611D01*
X144675174Y-118355901D01*
X144651014Y-118465989D01*
X144641219Y-118587330D01*
X144642265Y-118679836D01*
X144653231Y-118809490D01*
X144675046Y-118922084D01*
X144708714Y-119020875D01*
X144755236Y-119109121D01*
X144789448Y-119157986D01*
X144811362Y-119187353D01*
X144826333Y-119209043D01*
X144830733Y-119217253D01*
X144819904Y-119218868D01*
X144789251Y-119220159D01*
X144741526Y-119221138D01*
X144679479Y-119221817D01*
X144605862Y-119222210D01*
X144523427Y-119222330D01*
X144434925Y-119222188D01*
X144343107Y-119221797D01*
X144250724Y-119221171D01*
X144160528Y-119220320D01*
X144075271Y-119219260D01*
X143997703Y-119218001D01*
X143930576Y-119216556D01*
X143876641Y-119214938D01*
X143838650Y-119213161D01*
X143831667Y-119212669D01*
X143761251Y-119205092D01*
X143706102Y-119193531D01*
X143658981Y-119175792D01*
X143612647Y-119149682D01*
X143603067Y-119143415D01*
X143566378Y-119118983D01*
X143566378Y-120024311D01*
X145251245Y-120024507D01*
G36*
X142805571Y-111564957D02*
X142829809Y-111661232D01*
X142872641Y-111747816D01*
X142932419Y-111822627D01*
X143007494Y-111883582D01*
X143096220Y-111928601D01*
X143192530Y-111954864D01*
X143289795Y-111960714D01*
X143383654Y-111945860D01*
X143471511Y-111912160D01*
X143550770Y-111861472D01*
X143618836Y-111795655D01*
X143673112Y-111716566D01*
X143711002Y-111626066D01*
X143723426Y-111574800D01*
X143730947Y-111530302D01*
X143733919Y-111496001D01*
X143732094Y-111463040D01*
X143725225Y-111422566D01*
X143718250Y-111389469D01*
X143686741Y-111296053D01*
X143635617Y-111212381D01*
X143566429Y-111140335D01*
X143480728Y-111081800D01*
X143453489Y-111067852D01*
X143417122Y-111051414D01*
X143386582Y-111041106D01*
X143354450Y-111035540D01*
X143313307Y-111033331D01*
X143267222Y-111033052D01*
X143182865Y-111037139D01*
X143113586Y-111050554D01*
X143052961Y-111075744D01*
X142994567Y-111115154D01*
X142950302Y-111153702D01*
X142884484Y-111225594D01*
X142839053Y-111300687D01*
X142811850Y-111383438D01*
X142801576Y-111461072D01*
X142805571Y-111564957D01*
X142805571Y-111564957D01*
G37*
X142805571Y-111564957D02*
X142829809Y-111661232D01*
X142872641Y-111747816D01*
X142932419Y-111822627D01*
X143007494Y-111883582D01*
X143096220Y-111928601D01*
X143192530Y-111954864D01*
X143289795Y-111960714D01*
X143383654Y-111945860D01*
X143471511Y-111912160D01*
X143550770Y-111861472D01*
X143618836Y-111795655D01*
X143673112Y-111716566D01*
X143711002Y-111626066D01*
X143723426Y-111574800D01*
X143730947Y-111530302D01*
X143733919Y-111496001D01*
X143732094Y-111463040D01*
X143725225Y-111422566D01*
X143718250Y-111389469D01*
X143686741Y-111296053D01*
X143635617Y-111212381D01*
X143566429Y-111140335D01*
X143480728Y-111081800D01*
X143453489Y-111067852D01*
X143417122Y-111051414D01*
X143386582Y-111041106D01*
X143354450Y-111035540D01*
X143313307Y-111033331D01*
X143267222Y-111033052D01*
X143182865Y-111037139D01*
X143113586Y-111050554D01*
X143052961Y-111075744D01*
X142994567Y-111115154D01*
X142950302Y-111153702D01*
X142884484Y-111225594D01*
X142839053Y-111300687D01*
X142811850Y-111383438D01*
X142801576Y-111461072D01*
X142805571Y-111564957D01*
M02*
