G04 #@! TF.FileFunction,Soldermask,Bot*
%FSLAX46Y46*%
G04 Gerber Fmt 4.6, Leading zero omitted, Abs format (unit mm)*
G04 Created by KiCad (PCBNEW 4.0.5+dfsg1-4) date Sat Sep 16 12:05:32 2017*
%MOMM*%
%LPD*%
G01*
G04 APERTURE LIST*
%ADD10C,0.100000*%
%ADD11O,1.924000X1.924000*%
%ADD12R,1.924000X1.924000*%
%ADD13O,1.924000X3.448000*%
%ADD14R,1.250000X1.250000*%
%ADD15O,1.250000X1.250000*%
%ADD16R,1.700000X1.700000*%
%ADD17C,1.700000*%
%ADD18C,5.400000*%
%ADD19C,1.924000*%
%ADD20R,2.305000X2.305000*%
%ADD21C,2.305000*%
%ADD22C,2.099260*%
%ADD23R,2.099260X2.099260*%
%ADD24C,2.200000*%
G04 APERTURE END LIST*
D10*
D11*
X150097000Y-139746000D03*
X150097000Y-137206000D03*
X150097000Y-134666000D03*
X150097000Y-132126000D03*
D12*
X140445000Y-79040000D03*
D11*
X140445000Y-81580000D03*
X140445000Y-84120000D03*
X140445000Y-86660000D03*
X140445000Y-89200000D03*
X140445000Y-91740000D03*
X140445000Y-94280000D03*
X140445000Y-96820000D03*
X140445000Y-99360000D03*
X140445000Y-101900000D03*
X140445000Y-104440000D03*
X140445000Y-106980000D03*
X140445000Y-109520000D03*
X140445000Y-112060000D03*
X140445000Y-114600000D03*
X140445000Y-117140000D03*
X140445000Y-119680000D03*
X140445000Y-122220000D03*
X140445000Y-124760000D03*
X140445000Y-127300000D03*
D12*
X155685000Y-79040000D03*
D11*
X155685000Y-81580000D03*
X155685000Y-84120000D03*
X155685000Y-86660000D03*
X155685000Y-89200000D03*
X155685000Y-91740000D03*
X155685000Y-94280000D03*
X155685000Y-96820000D03*
X155685000Y-99360000D03*
X155685000Y-101900000D03*
X155685000Y-104440000D03*
X155685000Y-106980000D03*
X155685000Y-109520000D03*
X155685000Y-112060000D03*
X155685000Y-114600000D03*
X155685000Y-117140000D03*
X155685000Y-119680000D03*
X155685000Y-122220000D03*
X155685000Y-124760000D03*
X155685000Y-127300000D03*
D13*
X164449000Y-91875000D03*
X166449000Y-91875000D03*
X168449000Y-91875000D03*
X170449000Y-91875000D03*
X172449000Y-91875000D03*
X174449000Y-91875000D03*
X176449000Y-91875000D03*
X178449000Y-91875000D03*
X164449000Y-109875000D03*
X166449000Y-109875000D03*
X168449000Y-109875000D03*
X170449000Y-109875000D03*
X172449000Y-109875000D03*
X174449000Y-109875000D03*
X176449000Y-109875000D03*
X178449000Y-109875000D03*
D14*
X133460000Y-86680000D03*
D15*
X133460000Y-87930000D03*
D14*
X133460000Y-93070000D03*
D15*
X133460000Y-94320000D03*
X133460000Y-95570000D03*
X133460000Y-96820000D03*
X133460000Y-98070000D03*
X133460000Y-99320000D03*
D16*
X157209000Y-136444000D03*
D17*
X161009000Y-136444000D03*
D18*
X155685000Y-152700000D03*
D19*
X178037000Y-83104000D03*
X178037000Y-80564000D03*
X178037000Y-78024000D03*
X178037000Y-75484000D03*
D20*
X160257000Y-145588000D03*
D21*
X155177000Y-145588000D03*
D22*
X153142460Y-131363480D03*
D23*
X153142460Y-141523480D03*
D19*
X176005000Y-136190000D03*
X176005000Y-133650000D03*
X176005000Y-131110000D03*
X176005000Y-128570000D03*
X176005000Y-126030000D03*
X176005000Y-123490000D03*
X176005000Y-120950000D03*
X176005000Y-118410000D03*
X168385000Y-118410000D03*
X168385000Y-120950000D03*
X168385000Y-123490000D03*
X168385000Y-126030000D03*
X168385000Y-128570000D03*
X168385000Y-131110000D03*
X168385000Y-133650000D03*
X168385000Y-136190000D03*
X147430000Y-152065000D03*
X136000000Y-152065000D03*
D12*
X137270000Y-145715000D03*
D19*
X138540000Y-143175000D03*
X139810000Y-145715000D03*
X141080000Y-143175000D03*
X142350000Y-145715000D03*
X143620000Y-143175000D03*
X144890000Y-145715000D03*
X146160000Y-143175000D03*
D24*
X134095000Y-155113000D03*
X149335000Y-155113000D03*
D19*
X175370000Y-152065000D03*
X163940000Y-152065000D03*
D12*
X165210000Y-145715000D03*
D19*
X166480000Y-143175000D03*
X167750000Y-145715000D03*
X169020000Y-143175000D03*
X170290000Y-145715000D03*
X171560000Y-143175000D03*
X172830000Y-145715000D03*
X174100000Y-143175000D03*
D24*
X162035000Y-155113000D03*
X177275000Y-155113000D03*
M02*
