G04 #@! TF.FileFunction,Copper,L2,Bot,Signal*
%FSLAX46Y46*%
G04 Gerber Fmt 4.6, Leading zero omitted, Abs format (unit mm)*
G04 Created by KiCad (PCBNEW 4.0.5+dfsg1-4) date Sat Sep 16 12:05:32 2017*
%MOMM*%
%LPD*%
G01*
G04 APERTURE LIST*
%ADD10C,0.100000*%
%ADD11O,1.524000X1.524000*%
%ADD12R,1.524000X1.524000*%
%ADD13O,1.524000X3.048000*%
%ADD14R,0.850000X0.850000*%
%ADD15O,0.850000X0.850000*%
%ADD16R,1.300000X1.300000*%
%ADD17C,1.300000*%
%ADD18C,1.524000*%
%ADD19R,1.905000X1.905000*%
%ADD20C,1.905000*%
%ADD21C,1.699260*%
%ADD22R,1.699260X1.699260*%
%ADD23C,1.800000*%
%ADD24C,0.500000*%
%ADD25C,0.500000*%
%ADD26C,1.000000*%
%ADD27C,0.300000*%
G04 APERTURE END LIST*
D10*
D11*
X150097000Y-139746000D03*
X150097000Y-137206000D03*
X150097000Y-134666000D03*
X150097000Y-132126000D03*
D12*
X140445000Y-79040000D03*
D11*
X140445000Y-81580000D03*
X140445000Y-84120000D03*
X140445000Y-86660000D03*
X140445000Y-89200000D03*
X140445000Y-91740000D03*
X140445000Y-94280000D03*
X140445000Y-96820000D03*
X140445000Y-99360000D03*
X140445000Y-101900000D03*
X140445000Y-104440000D03*
X140445000Y-106980000D03*
X140445000Y-109520000D03*
X140445000Y-112060000D03*
X140445000Y-114600000D03*
X140445000Y-117140000D03*
X140445000Y-119680000D03*
X140445000Y-122220000D03*
X140445000Y-124760000D03*
X140445000Y-127300000D03*
D12*
X155685000Y-79040000D03*
D11*
X155685000Y-81580000D03*
X155685000Y-84120000D03*
X155685000Y-86660000D03*
X155685000Y-89200000D03*
X155685000Y-91740000D03*
X155685000Y-94280000D03*
X155685000Y-96820000D03*
X155685000Y-99360000D03*
X155685000Y-101900000D03*
X155685000Y-104440000D03*
X155685000Y-106980000D03*
X155685000Y-109520000D03*
X155685000Y-112060000D03*
X155685000Y-114600000D03*
X155685000Y-117140000D03*
X155685000Y-119680000D03*
X155685000Y-122220000D03*
X155685000Y-124760000D03*
X155685000Y-127300000D03*
D13*
X164449000Y-91875000D03*
X166449000Y-91875000D03*
X168449000Y-91875000D03*
X170449000Y-91875000D03*
X172449000Y-91875000D03*
X174449000Y-91875000D03*
X176449000Y-91875000D03*
X178449000Y-91875000D03*
X164449000Y-109875000D03*
X166449000Y-109875000D03*
X168449000Y-109875000D03*
X170449000Y-109875000D03*
X172449000Y-109875000D03*
X174449000Y-109875000D03*
X176449000Y-109875000D03*
X178449000Y-109875000D03*
D14*
X133460000Y-86680000D03*
D15*
X133460000Y-87930000D03*
D14*
X133460000Y-93070000D03*
D15*
X133460000Y-94320000D03*
X133460000Y-95570000D03*
X133460000Y-96820000D03*
X133460000Y-98070000D03*
X133460000Y-99320000D03*
D16*
X157209000Y-136444000D03*
D17*
X161009000Y-136444000D03*
D18*
X178037000Y-83104000D03*
X178037000Y-80564000D03*
X178037000Y-78024000D03*
X178037000Y-75484000D03*
D19*
X160257000Y-145588000D03*
D20*
X155177000Y-145588000D03*
D21*
X153142460Y-131363480D03*
D22*
X153142460Y-141523480D03*
D18*
X176005000Y-136190000D03*
X176005000Y-133650000D03*
X176005000Y-131110000D03*
X176005000Y-128570000D03*
X176005000Y-126030000D03*
X176005000Y-123490000D03*
X176005000Y-120950000D03*
X176005000Y-118410000D03*
X168385000Y-118410000D03*
X168385000Y-120950000D03*
X168385000Y-123490000D03*
X168385000Y-126030000D03*
X168385000Y-128570000D03*
X168385000Y-131110000D03*
X168385000Y-133650000D03*
X168385000Y-136190000D03*
X147430000Y-152065000D03*
X136000000Y-152065000D03*
D12*
X137270000Y-145715000D03*
D18*
X138540000Y-143175000D03*
X139810000Y-145715000D03*
X141080000Y-143175000D03*
X142350000Y-145715000D03*
X143620000Y-143175000D03*
X144890000Y-145715000D03*
X146160000Y-143175000D03*
D23*
X134095000Y-155113000D03*
X149335000Y-155113000D03*
D18*
X175370000Y-152065000D03*
X163940000Y-152065000D03*
D12*
X165210000Y-145715000D03*
D18*
X166480000Y-143175000D03*
X167750000Y-145715000D03*
X169020000Y-143175000D03*
X170290000Y-145715000D03*
X171560000Y-143175000D03*
X172830000Y-145715000D03*
X174100000Y-143175000D03*
D23*
X162035000Y-155113000D03*
X177275000Y-155113000D03*
D24*
X143493000Y-110536000D03*
X149081000Y-105710000D03*
X167750000Y-139365000D03*
X168385000Y-83485000D03*
D25*
X148122990Y-82792010D02*
X151875000Y-79040000D01*
X151875000Y-79040000D02*
X155685000Y-79040000D01*
X137270000Y-119426000D02*
X137270000Y-85083980D01*
X137270000Y-85083980D02*
X139561970Y-82792010D01*
X139561970Y-82792010D02*
X148122990Y-82792010D01*
X140445000Y-122220000D02*
X140064000Y-122220000D01*
X140064000Y-122220000D02*
X137270000Y-119426000D01*
X140445000Y-122220000D02*
X140826000Y-122220000D01*
X143620000Y-125014000D02*
X143620000Y-142113534D01*
X140826000Y-122220000D02*
X143620000Y-125014000D01*
X143620000Y-142113534D02*
X143620000Y-143175000D01*
X168385000Y-136190000D02*
X166480000Y-138095000D01*
X166480000Y-138095000D02*
X166480000Y-143175000D01*
X165210000Y-145715000D02*
X165210000Y-144445000D01*
X165210000Y-144445000D02*
X166480000Y-143175000D01*
X150097000Y-132126000D02*
X150097000Y-110536000D01*
X150097000Y-110536000D02*
X150097000Y-105456000D01*
X143493000Y-110536000D02*
X150097000Y-110536000D01*
X150097000Y-105456000D02*
X150097000Y-89327000D01*
X150097000Y-89327000D02*
X155304000Y-84120000D01*
X155304000Y-84120000D02*
X155685000Y-84120000D01*
X149081000Y-105710000D02*
X141715000Y-105710000D01*
X141715000Y-105710000D02*
X140445000Y-106980000D01*
X178449000Y-92375000D02*
X178449000Y-89739000D01*
X157590000Y-96820000D02*
X155685000Y-96820000D01*
X158225000Y-96185000D02*
X157590000Y-96820000D01*
X158225000Y-93645000D02*
X158225000Y-96185000D01*
X163940000Y-87930000D02*
X158225000Y-93645000D01*
X176640000Y-87930000D02*
X163940000Y-87930000D01*
X178449000Y-89739000D02*
X176640000Y-87930000D01*
X176449000Y-92375000D02*
X176449000Y-90279000D01*
X157590000Y-99360000D02*
X155685000Y-99360000D01*
X159495000Y-97455000D02*
X157590000Y-99360000D01*
X159495000Y-93645000D02*
X159495000Y-97455000D01*
X163940000Y-89200000D02*
X159495000Y-93645000D01*
X175370000Y-89200000D02*
X163940000Y-89200000D01*
X176449000Y-90279000D02*
X175370000Y-89200000D01*
X168449000Y-92375000D02*
X168449000Y-96756000D01*
X163305000Y-101900000D02*
X155685000Y-101900000D01*
X168449000Y-96756000D02*
X163305000Y-101900000D01*
D26*
X146160000Y-143175000D02*
X146160000Y-144445000D01*
X146160000Y-144445000D02*
X144890000Y-145715000D01*
X153142460Y-141523480D02*
X147811520Y-141523480D01*
X147811520Y-141523480D02*
X146160000Y-143175000D01*
X155177000Y-145588000D02*
X155177000Y-143558020D01*
X155177000Y-143558020D02*
X153142460Y-141523480D01*
D25*
X157590000Y-120950000D02*
X162670000Y-126030000D01*
X162670000Y-126030000D02*
X168385000Y-126030000D01*
X154859960Y-120950000D02*
X157590000Y-120950000D01*
X153145000Y-114219000D02*
X153145000Y-119235040D01*
X153145000Y-119235040D02*
X154859960Y-120950000D01*
X155685000Y-112060000D02*
X155304000Y-112060000D01*
X155304000Y-112060000D02*
X153145000Y-114219000D01*
X155685000Y-112060000D02*
X156066000Y-112060000D01*
X168385000Y-123490000D02*
X172830000Y-127935000D01*
X172830000Y-127935000D02*
X172830000Y-139365000D01*
X170290000Y-141905000D02*
X170290000Y-145715000D01*
X172830000Y-139365000D02*
X170290000Y-141905000D01*
X155685000Y-114600000D02*
X156066000Y-114600000D01*
X156066000Y-114600000D02*
X158540990Y-117074990D01*
X158540990Y-117074990D02*
X158540990Y-120477953D01*
X158540990Y-120477953D02*
X161553037Y-123490000D01*
X161553037Y-123490000D02*
X167253630Y-123490000D01*
X167253630Y-123490000D02*
X168385000Y-123490000D01*
X167750000Y-139365000D02*
X167750000Y-145715000D01*
X139810000Y-145715000D02*
X141385501Y-147290501D01*
X141385501Y-147290501D02*
X166174499Y-147290501D01*
X166174499Y-147290501D02*
X166999431Y-146465569D01*
X166999431Y-146465569D02*
X167750000Y-145715000D01*
X167115000Y-148890000D02*
X169020000Y-146985000D01*
X169020000Y-146985000D02*
X169020000Y-143175000D01*
X141191238Y-148890000D02*
X167115000Y-148890000D01*
X141080000Y-143175000D02*
X140318001Y-143936999D01*
X138482001Y-146180763D02*
X141191238Y-148890000D01*
X140318001Y-143936999D02*
X139794239Y-143936999D01*
X139794239Y-143936999D02*
X138482001Y-145249237D01*
X138482001Y-145249237D02*
X138482001Y-146180763D01*
X170290000Y-138095000D02*
X170290000Y-133015000D01*
X170290000Y-133015000D02*
X168385000Y-131110000D01*
X169020000Y-139365000D02*
X170290000Y-138095000D01*
X169020000Y-143175000D02*
X169020000Y-139365000D01*
X155685000Y-94280000D02*
X162670000Y-87295000D01*
X168385000Y-85390000D02*
X168385000Y-83485000D01*
X167115000Y-86660000D02*
X168385000Y-85390000D01*
X163305000Y-86660000D02*
X167115000Y-86660000D01*
X162670000Y-87295000D02*
X163305000Y-86660000D01*
D27*
G36*
X179960000Y-74000305D02*
X179960000Y-155399695D01*
X179384696Y-155975000D01*
X178402087Y-155975000D01*
X178499761Y-155941038D01*
X178723409Y-155409311D01*
X178726549Y-154832474D01*
X178508703Y-154298344D01*
X178499761Y-154284962D01*
X178257860Y-154200851D01*
X177345711Y-155113000D01*
X177359853Y-155127142D01*
X177289142Y-155197853D01*
X177275000Y-155183711D01*
X177260858Y-155197853D01*
X177190147Y-155127142D01*
X177204289Y-155113000D01*
X176292140Y-154200851D01*
X176050239Y-154284962D01*
X175826591Y-154816689D01*
X175823451Y-155393526D01*
X176041297Y-155927656D01*
X176050239Y-155941038D01*
X176147913Y-155975000D01*
X163162087Y-155975000D01*
X163259761Y-155941038D01*
X163483409Y-155409311D01*
X163486549Y-154832474D01*
X163268703Y-154298344D01*
X163259761Y-154284962D01*
X163017860Y-154200851D01*
X162105711Y-155113000D01*
X162119853Y-155127142D01*
X162049142Y-155197853D01*
X162035000Y-155183711D01*
X162020858Y-155197853D01*
X161950147Y-155127142D01*
X161964289Y-155113000D01*
X161052140Y-154200851D01*
X160810239Y-154284962D01*
X160586591Y-154816689D01*
X160583451Y-155393526D01*
X160801297Y-155927656D01*
X160810239Y-155941038D01*
X160907913Y-155975000D01*
X150462087Y-155975000D01*
X150559761Y-155941038D01*
X150783409Y-155409311D01*
X150786549Y-154832474D01*
X150568703Y-154298344D01*
X150559761Y-154284962D01*
X150317860Y-154200851D01*
X149405711Y-155113000D01*
X149419853Y-155127142D01*
X149349142Y-155197853D01*
X149335000Y-155183711D01*
X149320858Y-155197853D01*
X149250147Y-155127142D01*
X149264289Y-155113000D01*
X148352140Y-154200851D01*
X148110239Y-154284962D01*
X147886591Y-154816689D01*
X147883451Y-155393526D01*
X148101297Y-155927656D01*
X148110239Y-155941038D01*
X148207913Y-155975000D01*
X135222087Y-155975000D01*
X135319761Y-155941038D01*
X135543409Y-155409311D01*
X135546549Y-154832474D01*
X135328703Y-154298344D01*
X135319761Y-154284962D01*
X135077860Y-154200851D01*
X134165711Y-155113000D01*
X134179853Y-155127142D01*
X134109142Y-155197853D01*
X134095000Y-155183711D01*
X134080858Y-155197853D01*
X134010147Y-155127142D01*
X134024289Y-155113000D01*
X133112140Y-154200851D01*
X132870239Y-154284962D01*
X132646591Y-154816689D01*
X132643451Y-155393526D01*
X132861297Y-155927656D01*
X132870239Y-155941038D01*
X132967913Y-155975000D01*
X131985305Y-155975000D01*
X131451000Y-155440696D01*
X131451000Y-154130140D01*
X133182851Y-154130140D01*
X134095000Y-155042289D01*
X135007149Y-154130140D01*
X148422851Y-154130140D01*
X149335000Y-155042289D01*
X150247149Y-154130140D01*
X150163038Y-153888239D01*
X149631311Y-153664591D01*
X149054474Y-153661451D01*
X148520344Y-153879297D01*
X148506962Y-153888239D01*
X148422851Y-154130140D01*
X135007149Y-154130140D01*
X134923038Y-153888239D01*
X134391311Y-153664591D01*
X133814474Y-153661451D01*
X133280344Y-153879297D01*
X133266962Y-153888239D01*
X133182851Y-154130140D01*
X131451000Y-154130140D01*
X131451000Y-152344632D01*
X134587755Y-152344632D01*
X134802266Y-152863789D01*
X135199122Y-153261338D01*
X135717904Y-153476755D01*
X136279632Y-153477245D01*
X136798789Y-153262734D01*
X137196338Y-152865878D01*
X137411755Y-152347096D01*
X137411757Y-152344632D01*
X146017755Y-152344632D01*
X146232266Y-152863789D01*
X146629122Y-153261338D01*
X147147904Y-153476755D01*
X147709632Y-153477245D01*
X148228789Y-153262734D01*
X148626338Y-152865878D01*
X148841755Y-152347096D01*
X148842245Y-151785368D01*
X148627734Y-151266211D01*
X148230878Y-150868662D01*
X147712096Y-150653245D01*
X147150368Y-150652755D01*
X146631211Y-150867266D01*
X146233662Y-151264122D01*
X146018245Y-151782904D01*
X146017755Y-152344632D01*
X137411757Y-152344632D01*
X137412245Y-151785368D01*
X137197734Y-151266211D01*
X136800878Y-150868662D01*
X136282096Y-150653245D01*
X135720368Y-150652755D01*
X135201211Y-150867266D01*
X134803662Y-151264122D01*
X134588245Y-151782904D01*
X134587755Y-152344632D01*
X131451000Y-152344632D01*
X131451000Y-145902500D01*
X135958000Y-145902500D01*
X135958000Y-146586402D01*
X136041732Y-146788550D01*
X136196450Y-146943267D01*
X136398598Y-147027000D01*
X137082500Y-147027000D01*
X137220000Y-146889500D01*
X137220000Y-145765000D01*
X136095500Y-145765000D01*
X135958000Y-145902500D01*
X131451000Y-145902500D01*
X131451000Y-144843598D01*
X135958000Y-144843598D01*
X135958000Y-145527500D01*
X136095500Y-145665000D01*
X137220000Y-145665000D01*
X137220000Y-144540500D01*
X137082500Y-144403000D01*
X136398598Y-144403000D01*
X136196450Y-144486733D01*
X136041732Y-144641450D01*
X135958000Y-144843598D01*
X131451000Y-144843598D01*
X131451000Y-143433501D01*
X137227511Y-143433501D01*
X137426342Y-143916092D01*
X137429142Y-143920282D01*
X137656709Y-143987580D01*
X138469289Y-143175000D01*
X137656709Y-142362420D01*
X137429142Y-142429718D01*
X137228494Y-142911556D01*
X137227511Y-143433501D01*
X131451000Y-143433501D01*
X131451000Y-142291709D01*
X137727420Y-142291709D01*
X138540000Y-143104289D01*
X139352580Y-142291709D01*
X139285282Y-142064142D01*
X138803444Y-141863494D01*
X138281499Y-141862511D01*
X137798908Y-142061342D01*
X137794718Y-142064142D01*
X137727420Y-142291709D01*
X131451000Y-142291709D01*
X131451000Y-127554477D01*
X139157916Y-127554477D01*
X139158501Y-127557441D01*
X139354948Y-128030166D01*
X139717346Y-128391730D01*
X140190522Y-128587088D01*
X140395000Y-128473551D01*
X140395000Y-127350000D01*
X140495000Y-127350000D01*
X140495000Y-128473551D01*
X140699478Y-128587088D01*
X141172654Y-128391730D01*
X141535052Y-128030166D01*
X141731499Y-127557441D01*
X141732084Y-127554477D01*
X141618435Y-127350000D01*
X140495000Y-127350000D01*
X140395000Y-127350000D01*
X139271565Y-127350000D01*
X139157916Y-127554477D01*
X131451000Y-127554477D01*
X131451000Y-125014477D01*
X139157916Y-125014477D01*
X139158501Y-125017441D01*
X139354948Y-125490166D01*
X139717346Y-125851730D01*
X140149133Y-126030000D01*
X139717346Y-126208270D01*
X139354948Y-126569834D01*
X139158501Y-127042559D01*
X139157916Y-127045523D01*
X139271565Y-127250000D01*
X140395000Y-127250000D01*
X140395000Y-126126449D01*
X140221297Y-126030000D01*
X140395000Y-125933551D01*
X140395000Y-124810000D01*
X140495000Y-124810000D01*
X140495000Y-125933551D01*
X140668703Y-126030000D01*
X140495000Y-126126449D01*
X140495000Y-127250000D01*
X141618435Y-127250000D01*
X141732084Y-127045523D01*
X141731499Y-127042559D01*
X141535052Y-126569834D01*
X141172654Y-126208270D01*
X140740867Y-126030000D01*
X141172654Y-125851730D01*
X141535052Y-125490166D01*
X141731499Y-125017441D01*
X141732084Y-125014477D01*
X141618435Y-124810000D01*
X140495000Y-124810000D01*
X140395000Y-124810000D01*
X139271565Y-124810000D01*
X139157916Y-125014477D01*
X131451000Y-125014477D01*
X131451000Y-95548940D01*
X132385000Y-95548940D01*
X132385000Y-95591060D01*
X132466830Y-96002445D01*
X132595491Y-96195000D01*
X132466830Y-96387555D01*
X132385000Y-96798940D01*
X132385000Y-96841060D01*
X132466830Y-97252445D01*
X132595491Y-97445000D01*
X132466830Y-97637555D01*
X132385000Y-98048940D01*
X132385000Y-98091060D01*
X132466830Y-98502445D01*
X132595491Y-98695000D01*
X132466830Y-98887555D01*
X132385000Y-99298940D01*
X132385000Y-99341060D01*
X132466830Y-99752445D01*
X132699860Y-100101200D01*
X133048615Y-100334230D01*
X133460000Y-100416060D01*
X133871385Y-100334230D01*
X134220140Y-100101200D01*
X134453170Y-99752445D01*
X134535000Y-99341060D01*
X134535000Y-99298940D01*
X134453170Y-98887555D01*
X134324509Y-98695000D01*
X134453170Y-98502445D01*
X134535000Y-98091060D01*
X134535000Y-98048940D01*
X134453170Y-97637555D01*
X134324509Y-97445000D01*
X134453170Y-97252445D01*
X134535000Y-96841060D01*
X134535000Y-96798940D01*
X134453170Y-96387555D01*
X134324509Y-96195000D01*
X134453170Y-96002445D01*
X134535000Y-95591060D01*
X134535000Y-95548940D01*
X134453170Y-95137555D01*
X134268494Y-94861167D01*
X134413913Y-94521708D01*
X134296223Y-94370000D01*
X133510000Y-94370000D01*
X133510000Y-94390000D01*
X133410000Y-94390000D01*
X133410000Y-94370000D01*
X132623777Y-94370000D01*
X132506087Y-94521708D01*
X132651506Y-94861167D01*
X132466830Y-95137555D01*
X132385000Y-95548940D01*
X131451000Y-95548940D01*
X131451000Y-92645000D01*
X132372266Y-92645000D01*
X132372266Y-93495000D01*
X132417590Y-93735876D01*
X132559947Y-93957105D01*
X132571698Y-93965134D01*
X132506087Y-94118292D01*
X132623777Y-94270000D01*
X133410000Y-94270000D01*
X133410000Y-94250000D01*
X133510000Y-94250000D01*
X133510000Y-94270000D01*
X134296223Y-94270000D01*
X134413913Y-94118292D01*
X134349136Y-93967080D01*
X134495520Y-93752841D01*
X134547734Y-93495000D01*
X134547734Y-92645000D01*
X134502410Y-92404124D01*
X134360053Y-92182895D01*
X134142841Y-92034480D01*
X133885000Y-91982266D01*
X133035000Y-91982266D01*
X132794124Y-92027590D01*
X132572895Y-92169947D01*
X132424480Y-92387159D01*
X132372266Y-92645000D01*
X131451000Y-92645000D01*
X131451000Y-86255000D01*
X132372266Y-86255000D01*
X132372266Y-87105000D01*
X132417590Y-87345876D01*
X132491467Y-87460684D01*
X132466830Y-87497555D01*
X132385000Y-87908940D01*
X132385000Y-87951060D01*
X132466830Y-88362445D01*
X132699860Y-88711200D01*
X133048615Y-88944230D01*
X133460000Y-89026060D01*
X133871385Y-88944230D01*
X134220140Y-88711200D01*
X134453170Y-88362445D01*
X134535000Y-87951060D01*
X134535000Y-87908940D01*
X134453170Y-87497555D01*
X134428599Y-87460782D01*
X134495520Y-87362841D01*
X134547734Y-87105000D01*
X134547734Y-86255000D01*
X134502410Y-86014124D01*
X134360053Y-85792895D01*
X134142841Y-85644480D01*
X133885000Y-85592266D01*
X133035000Y-85592266D01*
X132794124Y-85637590D01*
X132572895Y-85779947D01*
X132424480Y-85997159D01*
X132372266Y-86255000D01*
X131451000Y-86255000D01*
X131451000Y-85083980D01*
X136370000Y-85083980D01*
X136370000Y-119426000D01*
X136438508Y-119770415D01*
X136633604Y-120062396D01*
X139058506Y-122487298D01*
X139112819Y-122760349D01*
X139418902Y-123218435D01*
X139876988Y-123524518D01*
X140004226Y-123549827D01*
X139717346Y-123668270D01*
X139354948Y-124029834D01*
X139158501Y-124502559D01*
X139157916Y-124505523D01*
X139271565Y-124710000D01*
X140395000Y-124710000D01*
X140395000Y-124690000D01*
X140495000Y-124690000D01*
X140495000Y-124710000D01*
X141618435Y-124710000D01*
X141732084Y-124505523D01*
X141731499Y-124502559D01*
X141657359Y-124324151D01*
X142720000Y-125386792D01*
X142720000Y-142078301D01*
X142423662Y-142374122D01*
X142350085Y-142551315D01*
X142277734Y-142376211D01*
X141880878Y-141978662D01*
X141362096Y-141763245D01*
X140800368Y-141762755D01*
X140281211Y-141977266D01*
X139883662Y-142374122D01*
X139755847Y-142681935D01*
X139653658Y-142433908D01*
X139650858Y-142429718D01*
X139423291Y-142362420D01*
X138610711Y-143175000D01*
X138624853Y-143189142D01*
X138554142Y-143259853D01*
X138540000Y-143245711D01*
X137727420Y-144058291D01*
X137794718Y-144285858D01*
X138061496Y-144396950D01*
X138055446Y-144403000D01*
X137457500Y-144403000D01*
X137320000Y-144540500D01*
X137320000Y-145665000D01*
X137340000Y-145665000D01*
X137340000Y-145765000D01*
X137320000Y-145765000D01*
X137320000Y-146889500D01*
X137457500Y-147027000D01*
X138055446Y-147027000D01*
X140554842Y-149526396D01*
X140846823Y-149721492D01*
X141191238Y-149790000D01*
X154479011Y-149790000D01*
X153902999Y-150028003D01*
X153016117Y-150913339D01*
X152535548Y-152070677D01*
X152534455Y-153323825D01*
X153013003Y-154482001D01*
X153898339Y-155368883D01*
X155055677Y-155849452D01*
X156308825Y-155850545D01*
X157467001Y-155371997D01*
X158353883Y-154486661D01*
X158501923Y-154130140D01*
X161122851Y-154130140D01*
X162035000Y-155042289D01*
X162947149Y-154130140D01*
X176362851Y-154130140D01*
X177275000Y-155042289D01*
X178187149Y-154130140D01*
X178103038Y-153888239D01*
X177571311Y-153664591D01*
X176994474Y-153661451D01*
X176460344Y-153879297D01*
X176446962Y-153888239D01*
X176362851Y-154130140D01*
X162947149Y-154130140D01*
X162863038Y-153888239D01*
X162331311Y-153664591D01*
X161754474Y-153661451D01*
X161220344Y-153879297D01*
X161206962Y-153888239D01*
X161122851Y-154130140D01*
X158501923Y-154130140D01*
X158834452Y-153329323D01*
X158835310Y-152344632D01*
X162527755Y-152344632D01*
X162742266Y-152863789D01*
X163139122Y-153261338D01*
X163657904Y-153476755D01*
X164219632Y-153477245D01*
X164738789Y-153262734D01*
X165136338Y-152865878D01*
X165351755Y-152347096D01*
X165351757Y-152344632D01*
X173957755Y-152344632D01*
X174172266Y-152863789D01*
X174569122Y-153261338D01*
X175087904Y-153476755D01*
X175649632Y-153477245D01*
X176168789Y-153262734D01*
X176566338Y-152865878D01*
X176781755Y-152347096D01*
X176782245Y-151785368D01*
X176567734Y-151266211D01*
X176170878Y-150868662D01*
X175652096Y-150653245D01*
X175090368Y-150652755D01*
X174571211Y-150867266D01*
X174173662Y-151264122D01*
X173958245Y-151782904D01*
X173957755Y-152344632D01*
X165351757Y-152344632D01*
X165352245Y-151785368D01*
X165137734Y-151266211D01*
X164740878Y-150868662D01*
X164222096Y-150653245D01*
X163660368Y-150652755D01*
X163141211Y-150867266D01*
X162743662Y-151264122D01*
X162528245Y-151782904D01*
X162527755Y-152344632D01*
X158835310Y-152344632D01*
X158835545Y-152076175D01*
X158356997Y-150917999D01*
X157471661Y-150031117D01*
X156890987Y-149790000D01*
X167115000Y-149790000D01*
X167459415Y-149721492D01*
X167751396Y-149526396D01*
X169656396Y-147621396D01*
X169851492Y-147329415D01*
X169900661Y-147082224D01*
X170007904Y-147126755D01*
X170569632Y-147127245D01*
X171088789Y-146912734D01*
X171403781Y-146598291D01*
X172017420Y-146598291D01*
X172084718Y-146825858D01*
X172566556Y-147026506D01*
X173088501Y-147027489D01*
X173571092Y-146828658D01*
X173575282Y-146825858D01*
X173642580Y-146598291D01*
X172830000Y-145785711D01*
X172017420Y-146598291D01*
X171403781Y-146598291D01*
X171486338Y-146515878D01*
X171614153Y-146208065D01*
X171716342Y-146456092D01*
X171719142Y-146460282D01*
X171946709Y-146527580D01*
X172759289Y-145715000D01*
X172900711Y-145715000D01*
X173713291Y-146527580D01*
X173940858Y-146460282D01*
X174141506Y-145978444D01*
X174142489Y-145456499D01*
X173943658Y-144973908D01*
X173940858Y-144969718D01*
X173713291Y-144902420D01*
X172900711Y-145715000D01*
X172759289Y-145715000D01*
X171946709Y-144902420D01*
X171719142Y-144969718D01*
X171614085Y-145222004D01*
X171487734Y-144916211D01*
X171403380Y-144831709D01*
X172017420Y-144831709D01*
X172830000Y-145644289D01*
X173642580Y-144831709D01*
X173575282Y-144604142D01*
X173093444Y-144403494D01*
X172571499Y-144402511D01*
X172088908Y-144601342D01*
X172084718Y-144604142D01*
X172017420Y-144831709D01*
X171403380Y-144831709D01*
X171190000Y-144617957D01*
X171190000Y-144550254D01*
X171277904Y-144586755D01*
X171839632Y-144587245D01*
X172358789Y-144372734D01*
X172673781Y-144058291D01*
X173287420Y-144058291D01*
X173354718Y-144285858D01*
X173836556Y-144486506D01*
X174358501Y-144487489D01*
X174841092Y-144288658D01*
X174845282Y-144285858D01*
X174912580Y-144058291D01*
X174100000Y-143245711D01*
X173287420Y-144058291D01*
X172673781Y-144058291D01*
X172756338Y-143975878D01*
X172884153Y-143668065D01*
X172986342Y-143916092D01*
X172989142Y-143920282D01*
X173216709Y-143987580D01*
X174029289Y-143175000D01*
X174170711Y-143175000D01*
X174983291Y-143987580D01*
X175210858Y-143920282D01*
X175411506Y-143438444D01*
X175412489Y-142916499D01*
X175213658Y-142433908D01*
X175210858Y-142429718D01*
X174983291Y-142362420D01*
X174170711Y-143175000D01*
X174029289Y-143175000D01*
X173216709Y-142362420D01*
X172989142Y-142429718D01*
X172884085Y-142682004D01*
X172757734Y-142376211D01*
X172673380Y-142291709D01*
X173287420Y-142291709D01*
X174100000Y-143104289D01*
X174912580Y-142291709D01*
X174845282Y-142064142D01*
X174363444Y-141863494D01*
X173841499Y-141862511D01*
X173358908Y-142061342D01*
X173354718Y-142064142D01*
X173287420Y-142291709D01*
X172673380Y-142291709D01*
X172360878Y-141978662D01*
X171842096Y-141763245D01*
X171704667Y-141763125D01*
X173466396Y-140001396D01*
X173551424Y-139874143D01*
X173661492Y-139709415D01*
X173730000Y-139365000D01*
X173730000Y-127935000D01*
X173661492Y-127590585D01*
X173661492Y-127590584D01*
X173466396Y-127298604D01*
X169796880Y-123629088D01*
X169797245Y-123210368D01*
X169582734Y-122691211D01*
X169185878Y-122293662D01*
X169008685Y-122220085D01*
X169183789Y-122147734D01*
X169581338Y-121750878D01*
X169796755Y-121232096D01*
X169797245Y-120670368D01*
X169582734Y-120151211D01*
X169185878Y-119753662D01*
X169008685Y-119680085D01*
X169183789Y-119607734D01*
X169581338Y-119210878D01*
X169796755Y-118692096D01*
X169796757Y-118689632D01*
X174592755Y-118689632D01*
X174807266Y-119208789D01*
X175204122Y-119606338D01*
X175381315Y-119679915D01*
X175206211Y-119752266D01*
X174808662Y-120149122D01*
X174593245Y-120667904D01*
X174592755Y-121229632D01*
X174807266Y-121748789D01*
X175204122Y-122146338D01*
X175381315Y-122219915D01*
X175206211Y-122292266D01*
X174808662Y-122689122D01*
X174593245Y-123207904D01*
X174592755Y-123769632D01*
X174807266Y-124288789D01*
X175204122Y-124686338D01*
X175381315Y-124759915D01*
X175206211Y-124832266D01*
X174808662Y-125229122D01*
X174593245Y-125747904D01*
X174592755Y-126309632D01*
X174807266Y-126828789D01*
X175204122Y-127226338D01*
X175381315Y-127299915D01*
X175206211Y-127372266D01*
X174808662Y-127769122D01*
X174593245Y-128287904D01*
X174592755Y-128849632D01*
X174807266Y-129368789D01*
X175204122Y-129766338D01*
X175381315Y-129839915D01*
X175206211Y-129912266D01*
X174808662Y-130309122D01*
X174593245Y-130827904D01*
X174592755Y-131389632D01*
X174807266Y-131908789D01*
X175204122Y-132306338D01*
X175381315Y-132379915D01*
X175206211Y-132452266D01*
X174808662Y-132849122D01*
X174593245Y-133367904D01*
X174592755Y-133929632D01*
X174807266Y-134448789D01*
X175204122Y-134846338D01*
X175381315Y-134919915D01*
X175206211Y-134992266D01*
X174808662Y-135389122D01*
X174593245Y-135907904D01*
X174592755Y-136469632D01*
X174807266Y-136988789D01*
X175204122Y-137386338D01*
X175722904Y-137601755D01*
X176284632Y-137602245D01*
X176803789Y-137387734D01*
X177201338Y-136990878D01*
X177416755Y-136472096D01*
X177417245Y-135910368D01*
X177202734Y-135391211D01*
X176805878Y-134993662D01*
X176628685Y-134920085D01*
X176803789Y-134847734D01*
X177201338Y-134450878D01*
X177416755Y-133932096D01*
X177417245Y-133370368D01*
X177202734Y-132851211D01*
X176805878Y-132453662D01*
X176628685Y-132380085D01*
X176803789Y-132307734D01*
X177201338Y-131910878D01*
X177416755Y-131392096D01*
X177417245Y-130830368D01*
X177202734Y-130311211D01*
X176805878Y-129913662D01*
X176628685Y-129840085D01*
X176803789Y-129767734D01*
X177201338Y-129370878D01*
X177416755Y-128852096D01*
X177417245Y-128290368D01*
X177202734Y-127771211D01*
X176805878Y-127373662D01*
X176628685Y-127300085D01*
X176803789Y-127227734D01*
X177201338Y-126830878D01*
X177416755Y-126312096D01*
X177417245Y-125750368D01*
X177202734Y-125231211D01*
X176805878Y-124833662D01*
X176628685Y-124760085D01*
X176803789Y-124687734D01*
X177201338Y-124290878D01*
X177416755Y-123772096D01*
X177417245Y-123210368D01*
X177202734Y-122691211D01*
X176805878Y-122293662D01*
X176628685Y-122220085D01*
X176803789Y-122147734D01*
X177201338Y-121750878D01*
X177416755Y-121232096D01*
X177417245Y-120670368D01*
X177202734Y-120151211D01*
X176805878Y-119753662D01*
X176628685Y-119680085D01*
X176803789Y-119607734D01*
X177201338Y-119210878D01*
X177416755Y-118692096D01*
X177417245Y-118130368D01*
X177202734Y-117611211D01*
X176805878Y-117213662D01*
X176287096Y-116998245D01*
X175725368Y-116997755D01*
X175206211Y-117212266D01*
X174808662Y-117609122D01*
X174593245Y-118127904D01*
X174592755Y-118689632D01*
X169796757Y-118689632D01*
X169797245Y-118130368D01*
X169582734Y-117611211D01*
X169185878Y-117213662D01*
X168667096Y-116998245D01*
X168105368Y-116997755D01*
X167586211Y-117212266D01*
X167188662Y-117609122D01*
X166973245Y-118127904D01*
X166972755Y-118689632D01*
X167187266Y-119208789D01*
X167584122Y-119606338D01*
X167761315Y-119679915D01*
X167586211Y-119752266D01*
X167188662Y-120149122D01*
X166973245Y-120667904D01*
X166972755Y-121229632D01*
X167187266Y-121748789D01*
X167584122Y-122146338D01*
X167761315Y-122219915D01*
X167586211Y-122292266D01*
X167287957Y-122590000D01*
X161925829Y-122590000D01*
X159440990Y-120105161D01*
X159440990Y-117074990D01*
X159372482Y-116730575D01*
X159372482Y-116730574D01*
X159177386Y-116438594D01*
X157071494Y-114332702D01*
X157017181Y-114059651D01*
X156711098Y-113601565D01*
X156304672Y-113330000D01*
X156711098Y-113058435D01*
X157017181Y-112600349D01*
X157124663Y-112060000D01*
X157017181Y-111519651D01*
X156711098Y-111061565D01*
X156304672Y-110790000D01*
X156711098Y-110518435D01*
X157017181Y-110060349D01*
X157044103Y-109925000D01*
X163137000Y-109925000D01*
X163137000Y-110687000D01*
X163256004Y-111185275D01*
X163556631Y-111600080D01*
X163993113Y-111868265D01*
X164194523Y-111924084D01*
X164399000Y-111810435D01*
X164399000Y-109925000D01*
X163137000Y-109925000D01*
X157044103Y-109925000D01*
X157124663Y-109520000D01*
X157033761Y-109063000D01*
X163137000Y-109063000D01*
X163137000Y-109825000D01*
X164399000Y-109825000D01*
X164399000Y-107939565D01*
X164499000Y-107939565D01*
X164499000Y-109825000D01*
X164519000Y-109825000D01*
X164519000Y-109925000D01*
X164499000Y-109925000D01*
X164499000Y-111810435D01*
X164703477Y-111924084D01*
X164904887Y-111868265D01*
X165341369Y-111600080D01*
X165371086Y-111559077D01*
X165450565Y-111678026D01*
X165908651Y-111984109D01*
X166449000Y-112091591D01*
X166989349Y-111984109D01*
X167447435Y-111678026D01*
X167526914Y-111559077D01*
X167556631Y-111600080D01*
X167993113Y-111868265D01*
X168194523Y-111924084D01*
X168399000Y-111810435D01*
X168399000Y-109925000D01*
X168379000Y-109925000D01*
X168379000Y-109825000D01*
X168399000Y-109825000D01*
X168399000Y-107939565D01*
X168499000Y-107939565D01*
X168499000Y-109825000D01*
X168519000Y-109825000D01*
X168519000Y-109925000D01*
X168499000Y-109925000D01*
X168499000Y-111810435D01*
X168703477Y-111924084D01*
X168904887Y-111868265D01*
X169341369Y-111600080D01*
X169371086Y-111559077D01*
X169450565Y-111678026D01*
X169908651Y-111984109D01*
X170449000Y-112091591D01*
X170989349Y-111984109D01*
X171447435Y-111678026D01*
X171449000Y-111675684D01*
X171450565Y-111678026D01*
X171908651Y-111984109D01*
X172449000Y-112091591D01*
X172989349Y-111984109D01*
X173447435Y-111678026D01*
X173449000Y-111675684D01*
X173450565Y-111678026D01*
X173908651Y-111984109D01*
X174449000Y-112091591D01*
X174989349Y-111984109D01*
X175447435Y-111678026D01*
X175449000Y-111675684D01*
X175450565Y-111678026D01*
X175908651Y-111984109D01*
X176449000Y-112091591D01*
X176989349Y-111984109D01*
X177447435Y-111678026D01*
X177449000Y-111675684D01*
X177450565Y-111678026D01*
X177908651Y-111984109D01*
X178449000Y-112091591D01*
X178989349Y-111984109D01*
X179447435Y-111678026D01*
X179753518Y-111219940D01*
X179861000Y-110679591D01*
X179861000Y-109070409D01*
X179753518Y-108530060D01*
X179447435Y-108071974D01*
X178989349Y-107765891D01*
X178449000Y-107658409D01*
X177908651Y-107765891D01*
X177450565Y-108071974D01*
X177449000Y-108074316D01*
X177447435Y-108071974D01*
X176989349Y-107765891D01*
X176449000Y-107658409D01*
X175908651Y-107765891D01*
X175450565Y-108071974D01*
X175449000Y-108074316D01*
X175447435Y-108071974D01*
X174989349Y-107765891D01*
X174449000Y-107658409D01*
X173908651Y-107765891D01*
X173450565Y-108071974D01*
X173449000Y-108074316D01*
X173447435Y-108071974D01*
X172989349Y-107765891D01*
X172449000Y-107658409D01*
X171908651Y-107765891D01*
X171450565Y-108071974D01*
X171449000Y-108074316D01*
X171447435Y-108071974D01*
X170989349Y-107765891D01*
X170449000Y-107658409D01*
X169908651Y-107765891D01*
X169450565Y-108071974D01*
X169371086Y-108190923D01*
X169341369Y-108149920D01*
X168904887Y-107881735D01*
X168703477Y-107825916D01*
X168499000Y-107939565D01*
X168399000Y-107939565D01*
X168194523Y-107825916D01*
X167993113Y-107881735D01*
X167556631Y-108149920D01*
X167526914Y-108190923D01*
X167447435Y-108071974D01*
X166989349Y-107765891D01*
X166449000Y-107658409D01*
X165908651Y-107765891D01*
X165450565Y-108071974D01*
X165371086Y-108190923D01*
X165341369Y-108149920D01*
X164904887Y-107881735D01*
X164703477Y-107825916D01*
X164499000Y-107939565D01*
X164399000Y-107939565D01*
X164194523Y-107825916D01*
X163993113Y-107881735D01*
X163556631Y-108149920D01*
X163256004Y-108564725D01*
X163137000Y-109063000D01*
X157033761Y-109063000D01*
X157017181Y-108979651D01*
X156711098Y-108521565D01*
X156304672Y-108250000D01*
X156711098Y-107978435D01*
X157017181Y-107520349D01*
X157124663Y-106980000D01*
X157017181Y-106439651D01*
X156711098Y-105981565D01*
X156304672Y-105710000D01*
X156711098Y-105438435D01*
X157017181Y-104980349D01*
X157124663Y-104440000D01*
X157017181Y-103899651D01*
X156711098Y-103441565D01*
X156304672Y-103170000D01*
X156711098Y-102898435D01*
X156776870Y-102800000D01*
X163305000Y-102800000D01*
X163649415Y-102731492D01*
X163941396Y-102536396D01*
X169085396Y-97392396D01*
X169280492Y-97100415D01*
X169349000Y-96756000D01*
X169349000Y-93743798D01*
X169447435Y-93678026D01*
X169449000Y-93675684D01*
X169450565Y-93678026D01*
X169908651Y-93984109D01*
X170449000Y-94091591D01*
X170989349Y-93984109D01*
X171447435Y-93678026D01*
X171449000Y-93675684D01*
X171450565Y-93678026D01*
X171908651Y-93984109D01*
X172449000Y-94091591D01*
X172989349Y-93984109D01*
X173447435Y-93678026D01*
X173449000Y-93675684D01*
X173450565Y-93678026D01*
X173908651Y-93984109D01*
X174449000Y-94091591D01*
X174989349Y-93984109D01*
X175447435Y-93678026D01*
X175449000Y-93675684D01*
X175450565Y-93678026D01*
X175908651Y-93984109D01*
X176449000Y-94091591D01*
X176989349Y-93984109D01*
X177447435Y-93678026D01*
X177449000Y-93675684D01*
X177450565Y-93678026D01*
X177908651Y-93984109D01*
X178449000Y-94091591D01*
X178989349Y-93984109D01*
X179447435Y-93678026D01*
X179753518Y-93219940D01*
X179861000Y-92679591D01*
X179861000Y-91070409D01*
X179753518Y-90530060D01*
X179447435Y-90071974D01*
X179349000Y-90006202D01*
X179349000Y-89739000D01*
X179280492Y-89394585D01*
X179280492Y-89394584D01*
X179085396Y-89102604D01*
X177276396Y-87293604D01*
X176984415Y-87098508D01*
X176640000Y-87030000D01*
X168017792Y-87030000D01*
X169021396Y-86026396D01*
X169216492Y-85734416D01*
X169285000Y-85390000D01*
X169285000Y-83485000D01*
X169285088Y-83383632D01*
X176624755Y-83383632D01*
X176839266Y-83902789D01*
X177236122Y-84300338D01*
X177754904Y-84515755D01*
X178316632Y-84516245D01*
X178835789Y-84301734D01*
X179233338Y-83904878D01*
X179448755Y-83386096D01*
X179449245Y-82824368D01*
X179234734Y-82305211D01*
X178837878Y-81907662D01*
X178530065Y-81779847D01*
X178778092Y-81677658D01*
X178782282Y-81674858D01*
X178849580Y-81447291D01*
X178037000Y-80634711D01*
X177224420Y-81447291D01*
X177291718Y-81674858D01*
X177544004Y-81779915D01*
X177238211Y-81906266D01*
X176840662Y-82303122D01*
X176625245Y-82821904D01*
X176624755Y-83383632D01*
X169285088Y-83383632D01*
X169285156Y-83306764D01*
X169148428Y-82975857D01*
X168895475Y-82722462D01*
X168729416Y-82653509D01*
X168729415Y-82653508D01*
X168729414Y-82653508D01*
X168564806Y-82585157D01*
X168206764Y-82584844D01*
X167875857Y-82721572D01*
X167622462Y-82974525D01*
X167485157Y-83305194D01*
X167484844Y-83663236D01*
X167485000Y-83663614D01*
X167485000Y-85017208D01*
X166742208Y-85760000D01*
X163305000Y-85760000D01*
X162960585Y-85828508D01*
X162668604Y-86023604D01*
X157096051Y-91596157D01*
X157017181Y-91199651D01*
X156711098Y-90741565D01*
X156304672Y-90470000D01*
X156711098Y-90198435D01*
X157017181Y-89740349D01*
X157124663Y-89200000D01*
X157017181Y-88659651D01*
X156711098Y-88201565D01*
X156304672Y-87930000D01*
X156711098Y-87658435D01*
X157017181Y-87200349D01*
X157124663Y-86660000D01*
X157017181Y-86119651D01*
X156711098Y-85661565D01*
X156304672Y-85390000D01*
X156711098Y-85118435D01*
X157017181Y-84660349D01*
X157124663Y-84120000D01*
X157017181Y-83579651D01*
X156711098Y-83121565D01*
X156253012Y-82815482D01*
X156125774Y-82790173D01*
X156412654Y-82671730D01*
X156775052Y-82310166D01*
X156971499Y-81837441D01*
X156972084Y-81834477D01*
X156858435Y-81630000D01*
X155735000Y-81630000D01*
X155735000Y-81650000D01*
X155635000Y-81650000D01*
X155635000Y-81630000D01*
X154511565Y-81630000D01*
X154397916Y-81834477D01*
X154398501Y-81837441D01*
X154594948Y-82310166D01*
X154957346Y-82671730D01*
X155244226Y-82790173D01*
X155116988Y-82815482D01*
X154658902Y-83121565D01*
X154352819Y-83579651D01*
X154298506Y-83852702D01*
X149460604Y-88690604D01*
X149265508Y-88982585D01*
X149197000Y-89327000D01*
X149197000Y-104810101D01*
X148902764Y-104809844D01*
X148902386Y-104810000D01*
X141811065Y-104810000D01*
X141884663Y-104440000D01*
X141777181Y-103899651D01*
X141471098Y-103441565D01*
X141064672Y-103170000D01*
X141471098Y-102898435D01*
X141777181Y-102440349D01*
X141884663Y-101900000D01*
X141777181Y-101359651D01*
X141471098Y-100901565D01*
X141064672Y-100630000D01*
X141471098Y-100358435D01*
X141777181Y-99900349D01*
X141884663Y-99360000D01*
X141777181Y-98819651D01*
X141471098Y-98361565D01*
X141064672Y-98090000D01*
X141471098Y-97818435D01*
X141777181Y-97360349D01*
X141884663Y-96820000D01*
X141777181Y-96279651D01*
X141471098Y-95821565D01*
X141064672Y-95550000D01*
X141471098Y-95278435D01*
X141777181Y-94820349D01*
X141884663Y-94280000D01*
X141777181Y-93739651D01*
X141471098Y-93281565D01*
X141064672Y-93010000D01*
X141471098Y-92738435D01*
X141777181Y-92280349D01*
X141884663Y-91740000D01*
X141777181Y-91199651D01*
X141471098Y-90741565D01*
X141064672Y-90470000D01*
X141471098Y-90198435D01*
X141777181Y-89740349D01*
X141884663Y-89200000D01*
X141777181Y-88659651D01*
X141471098Y-88201565D01*
X141064672Y-87930000D01*
X141471098Y-87658435D01*
X141777181Y-87200349D01*
X141884663Y-86660000D01*
X141777181Y-86119651D01*
X141471098Y-85661565D01*
X141064672Y-85390000D01*
X141471098Y-85118435D01*
X141777181Y-84660349D01*
X141884663Y-84120000D01*
X141799531Y-83692010D01*
X148122990Y-83692010D01*
X148467405Y-83623502D01*
X148759386Y-83428406D01*
X152247792Y-79940000D01*
X154286233Y-79940000D01*
X154305590Y-80042876D01*
X154447947Y-80264105D01*
X154665159Y-80412520D01*
X154923000Y-80464734D01*
X155014352Y-80464734D01*
X154957346Y-80488270D01*
X154594948Y-80849834D01*
X154398501Y-81322559D01*
X154397916Y-81325523D01*
X154511565Y-81530000D01*
X155635000Y-81530000D01*
X155635000Y-81510000D01*
X155735000Y-81510000D01*
X155735000Y-81530000D01*
X156858435Y-81530000D01*
X156972084Y-81325523D01*
X156971499Y-81322559D01*
X156775052Y-80849834D01*
X156747656Y-80822501D01*
X176724511Y-80822501D01*
X176923342Y-81305092D01*
X176926142Y-81309282D01*
X177153709Y-81376580D01*
X177966289Y-80564000D01*
X178107711Y-80564000D01*
X178920291Y-81376580D01*
X179147858Y-81309282D01*
X179348506Y-80827444D01*
X179349489Y-80305499D01*
X179150658Y-79822908D01*
X179147858Y-79818718D01*
X178920291Y-79751420D01*
X178107711Y-80564000D01*
X177966289Y-80564000D01*
X177153709Y-79751420D01*
X176926142Y-79818718D01*
X176725494Y-80300556D01*
X176724511Y-80822501D01*
X156747656Y-80822501D01*
X156412654Y-80488270D01*
X156355648Y-80464734D01*
X156447000Y-80464734D01*
X156687876Y-80419410D01*
X156909105Y-80277053D01*
X157057520Y-80059841D01*
X157109734Y-79802000D01*
X157109734Y-78278000D01*
X157064410Y-78037124D01*
X156922053Y-77815895D01*
X156704841Y-77667480D01*
X156447000Y-77615266D01*
X154923000Y-77615266D01*
X154682124Y-77660590D01*
X154460895Y-77802947D01*
X154312480Y-78020159D01*
X154288212Y-78140000D01*
X151875000Y-78140000D01*
X151530584Y-78208508D01*
X151238604Y-78403604D01*
X147750198Y-81892010D01*
X141822600Y-81892010D01*
X141884663Y-81580000D01*
X141777181Y-81039651D01*
X141471098Y-80581565D01*
X141276638Y-80451631D01*
X141447876Y-80419410D01*
X141669105Y-80277053D01*
X141817520Y-80059841D01*
X141869734Y-79802000D01*
X141869734Y-78278000D01*
X141824410Y-78037124D01*
X141682053Y-77815895D01*
X141464841Y-77667480D01*
X141207000Y-77615266D01*
X139683000Y-77615266D01*
X139442124Y-77660590D01*
X139220895Y-77802947D01*
X139072480Y-78020159D01*
X139020266Y-78278000D01*
X139020266Y-79802000D01*
X139065590Y-80042876D01*
X139207947Y-80264105D01*
X139425159Y-80412520D01*
X139614510Y-80450864D01*
X139418902Y-80581565D01*
X139112819Y-81039651D01*
X139005337Y-81580000D01*
X139097044Y-82041041D01*
X138925574Y-82155614D01*
X136633604Y-84447584D01*
X136438508Y-84739565D01*
X136370000Y-85083980D01*
X131451000Y-85083980D01*
X131451000Y-75763632D01*
X176624755Y-75763632D01*
X176839266Y-76282789D01*
X177236122Y-76680338D01*
X177413315Y-76753915D01*
X177238211Y-76826266D01*
X176840662Y-77223122D01*
X176625245Y-77741904D01*
X176624755Y-78303632D01*
X176839266Y-78822789D01*
X177236122Y-79220338D01*
X177543935Y-79348153D01*
X177295908Y-79450342D01*
X177291718Y-79453142D01*
X177224420Y-79680709D01*
X178037000Y-80493289D01*
X178849580Y-79680709D01*
X178782282Y-79453142D01*
X178529996Y-79348085D01*
X178835789Y-79221734D01*
X179233338Y-78824878D01*
X179448755Y-78306096D01*
X179449245Y-77744368D01*
X179234734Y-77225211D01*
X178837878Y-76827662D01*
X178660685Y-76754085D01*
X178835789Y-76681734D01*
X179233338Y-76284878D01*
X179448755Y-75766096D01*
X179449245Y-75204368D01*
X179234734Y-74685211D01*
X178837878Y-74287662D01*
X178319096Y-74072245D01*
X177757368Y-74071755D01*
X177238211Y-74286266D01*
X176840662Y-74683122D01*
X176625245Y-75201904D01*
X176624755Y-75763632D01*
X131451000Y-75763632D01*
X131451000Y-74022132D01*
X132048132Y-73425000D01*
X179384696Y-73425000D01*
X179960000Y-74000305D01*
X179960000Y-74000305D01*
G37*
X179960000Y-74000305D02*
X179960000Y-155399695D01*
X179384696Y-155975000D01*
X178402087Y-155975000D01*
X178499761Y-155941038D01*
X178723409Y-155409311D01*
X178726549Y-154832474D01*
X178508703Y-154298344D01*
X178499761Y-154284962D01*
X178257860Y-154200851D01*
X177345711Y-155113000D01*
X177359853Y-155127142D01*
X177289142Y-155197853D01*
X177275000Y-155183711D01*
X177260858Y-155197853D01*
X177190147Y-155127142D01*
X177204289Y-155113000D01*
X176292140Y-154200851D01*
X176050239Y-154284962D01*
X175826591Y-154816689D01*
X175823451Y-155393526D01*
X176041297Y-155927656D01*
X176050239Y-155941038D01*
X176147913Y-155975000D01*
X163162087Y-155975000D01*
X163259761Y-155941038D01*
X163483409Y-155409311D01*
X163486549Y-154832474D01*
X163268703Y-154298344D01*
X163259761Y-154284962D01*
X163017860Y-154200851D01*
X162105711Y-155113000D01*
X162119853Y-155127142D01*
X162049142Y-155197853D01*
X162035000Y-155183711D01*
X162020858Y-155197853D01*
X161950147Y-155127142D01*
X161964289Y-155113000D01*
X161052140Y-154200851D01*
X160810239Y-154284962D01*
X160586591Y-154816689D01*
X160583451Y-155393526D01*
X160801297Y-155927656D01*
X160810239Y-155941038D01*
X160907913Y-155975000D01*
X150462087Y-155975000D01*
X150559761Y-155941038D01*
X150783409Y-155409311D01*
X150786549Y-154832474D01*
X150568703Y-154298344D01*
X150559761Y-154284962D01*
X150317860Y-154200851D01*
X149405711Y-155113000D01*
X149419853Y-155127142D01*
X149349142Y-155197853D01*
X149335000Y-155183711D01*
X149320858Y-155197853D01*
X149250147Y-155127142D01*
X149264289Y-155113000D01*
X148352140Y-154200851D01*
X148110239Y-154284962D01*
X147886591Y-154816689D01*
X147883451Y-155393526D01*
X148101297Y-155927656D01*
X148110239Y-155941038D01*
X148207913Y-155975000D01*
X135222087Y-155975000D01*
X135319761Y-155941038D01*
X135543409Y-155409311D01*
X135546549Y-154832474D01*
X135328703Y-154298344D01*
X135319761Y-154284962D01*
X135077860Y-154200851D01*
X134165711Y-155113000D01*
X134179853Y-155127142D01*
X134109142Y-155197853D01*
X134095000Y-155183711D01*
X134080858Y-155197853D01*
X134010147Y-155127142D01*
X134024289Y-155113000D01*
X133112140Y-154200851D01*
X132870239Y-154284962D01*
X132646591Y-154816689D01*
X132643451Y-155393526D01*
X132861297Y-155927656D01*
X132870239Y-155941038D01*
X132967913Y-155975000D01*
X131985305Y-155975000D01*
X131451000Y-155440696D01*
X131451000Y-154130140D01*
X133182851Y-154130140D01*
X134095000Y-155042289D01*
X135007149Y-154130140D01*
X148422851Y-154130140D01*
X149335000Y-155042289D01*
X150247149Y-154130140D01*
X150163038Y-153888239D01*
X149631311Y-153664591D01*
X149054474Y-153661451D01*
X148520344Y-153879297D01*
X148506962Y-153888239D01*
X148422851Y-154130140D01*
X135007149Y-154130140D01*
X134923038Y-153888239D01*
X134391311Y-153664591D01*
X133814474Y-153661451D01*
X133280344Y-153879297D01*
X133266962Y-153888239D01*
X133182851Y-154130140D01*
X131451000Y-154130140D01*
X131451000Y-152344632D01*
X134587755Y-152344632D01*
X134802266Y-152863789D01*
X135199122Y-153261338D01*
X135717904Y-153476755D01*
X136279632Y-153477245D01*
X136798789Y-153262734D01*
X137196338Y-152865878D01*
X137411755Y-152347096D01*
X137411757Y-152344632D01*
X146017755Y-152344632D01*
X146232266Y-152863789D01*
X146629122Y-153261338D01*
X147147904Y-153476755D01*
X147709632Y-153477245D01*
X148228789Y-153262734D01*
X148626338Y-152865878D01*
X148841755Y-152347096D01*
X148842245Y-151785368D01*
X148627734Y-151266211D01*
X148230878Y-150868662D01*
X147712096Y-150653245D01*
X147150368Y-150652755D01*
X146631211Y-150867266D01*
X146233662Y-151264122D01*
X146018245Y-151782904D01*
X146017755Y-152344632D01*
X137411757Y-152344632D01*
X137412245Y-151785368D01*
X137197734Y-151266211D01*
X136800878Y-150868662D01*
X136282096Y-150653245D01*
X135720368Y-150652755D01*
X135201211Y-150867266D01*
X134803662Y-151264122D01*
X134588245Y-151782904D01*
X134587755Y-152344632D01*
X131451000Y-152344632D01*
X131451000Y-145902500D01*
X135958000Y-145902500D01*
X135958000Y-146586402D01*
X136041732Y-146788550D01*
X136196450Y-146943267D01*
X136398598Y-147027000D01*
X137082500Y-147027000D01*
X137220000Y-146889500D01*
X137220000Y-145765000D01*
X136095500Y-145765000D01*
X135958000Y-145902500D01*
X131451000Y-145902500D01*
X131451000Y-144843598D01*
X135958000Y-144843598D01*
X135958000Y-145527500D01*
X136095500Y-145665000D01*
X137220000Y-145665000D01*
X137220000Y-144540500D01*
X137082500Y-144403000D01*
X136398598Y-144403000D01*
X136196450Y-144486733D01*
X136041732Y-144641450D01*
X135958000Y-144843598D01*
X131451000Y-144843598D01*
X131451000Y-143433501D01*
X137227511Y-143433501D01*
X137426342Y-143916092D01*
X137429142Y-143920282D01*
X137656709Y-143987580D01*
X138469289Y-143175000D01*
X137656709Y-142362420D01*
X137429142Y-142429718D01*
X137228494Y-142911556D01*
X137227511Y-143433501D01*
X131451000Y-143433501D01*
X131451000Y-142291709D01*
X137727420Y-142291709D01*
X138540000Y-143104289D01*
X139352580Y-142291709D01*
X139285282Y-142064142D01*
X138803444Y-141863494D01*
X138281499Y-141862511D01*
X137798908Y-142061342D01*
X137794718Y-142064142D01*
X137727420Y-142291709D01*
X131451000Y-142291709D01*
X131451000Y-127554477D01*
X139157916Y-127554477D01*
X139158501Y-127557441D01*
X139354948Y-128030166D01*
X139717346Y-128391730D01*
X140190522Y-128587088D01*
X140395000Y-128473551D01*
X140395000Y-127350000D01*
X140495000Y-127350000D01*
X140495000Y-128473551D01*
X140699478Y-128587088D01*
X141172654Y-128391730D01*
X141535052Y-128030166D01*
X141731499Y-127557441D01*
X141732084Y-127554477D01*
X141618435Y-127350000D01*
X140495000Y-127350000D01*
X140395000Y-127350000D01*
X139271565Y-127350000D01*
X139157916Y-127554477D01*
X131451000Y-127554477D01*
X131451000Y-125014477D01*
X139157916Y-125014477D01*
X139158501Y-125017441D01*
X139354948Y-125490166D01*
X139717346Y-125851730D01*
X140149133Y-126030000D01*
X139717346Y-126208270D01*
X139354948Y-126569834D01*
X139158501Y-127042559D01*
X139157916Y-127045523D01*
X139271565Y-127250000D01*
X140395000Y-127250000D01*
X140395000Y-126126449D01*
X140221297Y-126030000D01*
X140395000Y-125933551D01*
X140395000Y-124810000D01*
X140495000Y-124810000D01*
X140495000Y-125933551D01*
X140668703Y-126030000D01*
X140495000Y-126126449D01*
X140495000Y-127250000D01*
X141618435Y-127250000D01*
X141732084Y-127045523D01*
X141731499Y-127042559D01*
X141535052Y-126569834D01*
X141172654Y-126208270D01*
X140740867Y-126030000D01*
X141172654Y-125851730D01*
X141535052Y-125490166D01*
X141731499Y-125017441D01*
X141732084Y-125014477D01*
X141618435Y-124810000D01*
X140495000Y-124810000D01*
X140395000Y-124810000D01*
X139271565Y-124810000D01*
X139157916Y-125014477D01*
X131451000Y-125014477D01*
X131451000Y-95548940D01*
X132385000Y-95548940D01*
X132385000Y-95591060D01*
X132466830Y-96002445D01*
X132595491Y-96195000D01*
X132466830Y-96387555D01*
X132385000Y-96798940D01*
X132385000Y-96841060D01*
X132466830Y-97252445D01*
X132595491Y-97445000D01*
X132466830Y-97637555D01*
X132385000Y-98048940D01*
X132385000Y-98091060D01*
X132466830Y-98502445D01*
X132595491Y-98695000D01*
X132466830Y-98887555D01*
X132385000Y-99298940D01*
X132385000Y-99341060D01*
X132466830Y-99752445D01*
X132699860Y-100101200D01*
X133048615Y-100334230D01*
X133460000Y-100416060D01*
X133871385Y-100334230D01*
X134220140Y-100101200D01*
X134453170Y-99752445D01*
X134535000Y-99341060D01*
X134535000Y-99298940D01*
X134453170Y-98887555D01*
X134324509Y-98695000D01*
X134453170Y-98502445D01*
X134535000Y-98091060D01*
X134535000Y-98048940D01*
X134453170Y-97637555D01*
X134324509Y-97445000D01*
X134453170Y-97252445D01*
X134535000Y-96841060D01*
X134535000Y-96798940D01*
X134453170Y-96387555D01*
X134324509Y-96195000D01*
X134453170Y-96002445D01*
X134535000Y-95591060D01*
X134535000Y-95548940D01*
X134453170Y-95137555D01*
X134268494Y-94861167D01*
X134413913Y-94521708D01*
X134296223Y-94370000D01*
X133510000Y-94370000D01*
X133510000Y-94390000D01*
X133410000Y-94390000D01*
X133410000Y-94370000D01*
X132623777Y-94370000D01*
X132506087Y-94521708D01*
X132651506Y-94861167D01*
X132466830Y-95137555D01*
X132385000Y-95548940D01*
X131451000Y-95548940D01*
X131451000Y-92645000D01*
X132372266Y-92645000D01*
X132372266Y-93495000D01*
X132417590Y-93735876D01*
X132559947Y-93957105D01*
X132571698Y-93965134D01*
X132506087Y-94118292D01*
X132623777Y-94270000D01*
X133410000Y-94270000D01*
X133410000Y-94250000D01*
X133510000Y-94250000D01*
X133510000Y-94270000D01*
X134296223Y-94270000D01*
X134413913Y-94118292D01*
X134349136Y-93967080D01*
X134495520Y-93752841D01*
X134547734Y-93495000D01*
X134547734Y-92645000D01*
X134502410Y-92404124D01*
X134360053Y-92182895D01*
X134142841Y-92034480D01*
X133885000Y-91982266D01*
X133035000Y-91982266D01*
X132794124Y-92027590D01*
X132572895Y-92169947D01*
X132424480Y-92387159D01*
X132372266Y-92645000D01*
X131451000Y-92645000D01*
X131451000Y-86255000D01*
X132372266Y-86255000D01*
X132372266Y-87105000D01*
X132417590Y-87345876D01*
X132491467Y-87460684D01*
X132466830Y-87497555D01*
X132385000Y-87908940D01*
X132385000Y-87951060D01*
X132466830Y-88362445D01*
X132699860Y-88711200D01*
X133048615Y-88944230D01*
X133460000Y-89026060D01*
X133871385Y-88944230D01*
X134220140Y-88711200D01*
X134453170Y-88362445D01*
X134535000Y-87951060D01*
X134535000Y-87908940D01*
X134453170Y-87497555D01*
X134428599Y-87460782D01*
X134495520Y-87362841D01*
X134547734Y-87105000D01*
X134547734Y-86255000D01*
X134502410Y-86014124D01*
X134360053Y-85792895D01*
X134142841Y-85644480D01*
X133885000Y-85592266D01*
X133035000Y-85592266D01*
X132794124Y-85637590D01*
X132572895Y-85779947D01*
X132424480Y-85997159D01*
X132372266Y-86255000D01*
X131451000Y-86255000D01*
X131451000Y-85083980D01*
X136370000Y-85083980D01*
X136370000Y-119426000D01*
X136438508Y-119770415D01*
X136633604Y-120062396D01*
X139058506Y-122487298D01*
X139112819Y-122760349D01*
X139418902Y-123218435D01*
X139876988Y-123524518D01*
X140004226Y-123549827D01*
X139717346Y-123668270D01*
X139354948Y-124029834D01*
X139158501Y-124502559D01*
X139157916Y-124505523D01*
X139271565Y-124710000D01*
X140395000Y-124710000D01*
X140395000Y-124690000D01*
X140495000Y-124690000D01*
X140495000Y-124710000D01*
X141618435Y-124710000D01*
X141732084Y-124505523D01*
X141731499Y-124502559D01*
X141657359Y-124324151D01*
X142720000Y-125386792D01*
X142720000Y-142078301D01*
X142423662Y-142374122D01*
X142350085Y-142551315D01*
X142277734Y-142376211D01*
X141880878Y-141978662D01*
X141362096Y-141763245D01*
X140800368Y-141762755D01*
X140281211Y-141977266D01*
X139883662Y-142374122D01*
X139755847Y-142681935D01*
X139653658Y-142433908D01*
X139650858Y-142429718D01*
X139423291Y-142362420D01*
X138610711Y-143175000D01*
X138624853Y-143189142D01*
X138554142Y-143259853D01*
X138540000Y-143245711D01*
X137727420Y-144058291D01*
X137794718Y-144285858D01*
X138061496Y-144396950D01*
X138055446Y-144403000D01*
X137457500Y-144403000D01*
X137320000Y-144540500D01*
X137320000Y-145665000D01*
X137340000Y-145665000D01*
X137340000Y-145765000D01*
X137320000Y-145765000D01*
X137320000Y-146889500D01*
X137457500Y-147027000D01*
X138055446Y-147027000D01*
X140554842Y-149526396D01*
X140846823Y-149721492D01*
X141191238Y-149790000D01*
X154479011Y-149790000D01*
X153902999Y-150028003D01*
X153016117Y-150913339D01*
X152535548Y-152070677D01*
X152534455Y-153323825D01*
X153013003Y-154482001D01*
X153898339Y-155368883D01*
X155055677Y-155849452D01*
X156308825Y-155850545D01*
X157467001Y-155371997D01*
X158353883Y-154486661D01*
X158501923Y-154130140D01*
X161122851Y-154130140D01*
X162035000Y-155042289D01*
X162947149Y-154130140D01*
X176362851Y-154130140D01*
X177275000Y-155042289D01*
X178187149Y-154130140D01*
X178103038Y-153888239D01*
X177571311Y-153664591D01*
X176994474Y-153661451D01*
X176460344Y-153879297D01*
X176446962Y-153888239D01*
X176362851Y-154130140D01*
X162947149Y-154130140D01*
X162863038Y-153888239D01*
X162331311Y-153664591D01*
X161754474Y-153661451D01*
X161220344Y-153879297D01*
X161206962Y-153888239D01*
X161122851Y-154130140D01*
X158501923Y-154130140D01*
X158834452Y-153329323D01*
X158835310Y-152344632D01*
X162527755Y-152344632D01*
X162742266Y-152863789D01*
X163139122Y-153261338D01*
X163657904Y-153476755D01*
X164219632Y-153477245D01*
X164738789Y-153262734D01*
X165136338Y-152865878D01*
X165351755Y-152347096D01*
X165351757Y-152344632D01*
X173957755Y-152344632D01*
X174172266Y-152863789D01*
X174569122Y-153261338D01*
X175087904Y-153476755D01*
X175649632Y-153477245D01*
X176168789Y-153262734D01*
X176566338Y-152865878D01*
X176781755Y-152347096D01*
X176782245Y-151785368D01*
X176567734Y-151266211D01*
X176170878Y-150868662D01*
X175652096Y-150653245D01*
X175090368Y-150652755D01*
X174571211Y-150867266D01*
X174173662Y-151264122D01*
X173958245Y-151782904D01*
X173957755Y-152344632D01*
X165351757Y-152344632D01*
X165352245Y-151785368D01*
X165137734Y-151266211D01*
X164740878Y-150868662D01*
X164222096Y-150653245D01*
X163660368Y-150652755D01*
X163141211Y-150867266D01*
X162743662Y-151264122D01*
X162528245Y-151782904D01*
X162527755Y-152344632D01*
X158835310Y-152344632D01*
X158835545Y-152076175D01*
X158356997Y-150917999D01*
X157471661Y-150031117D01*
X156890987Y-149790000D01*
X167115000Y-149790000D01*
X167459415Y-149721492D01*
X167751396Y-149526396D01*
X169656396Y-147621396D01*
X169851492Y-147329415D01*
X169900661Y-147082224D01*
X170007904Y-147126755D01*
X170569632Y-147127245D01*
X171088789Y-146912734D01*
X171403781Y-146598291D01*
X172017420Y-146598291D01*
X172084718Y-146825858D01*
X172566556Y-147026506D01*
X173088501Y-147027489D01*
X173571092Y-146828658D01*
X173575282Y-146825858D01*
X173642580Y-146598291D01*
X172830000Y-145785711D01*
X172017420Y-146598291D01*
X171403781Y-146598291D01*
X171486338Y-146515878D01*
X171614153Y-146208065D01*
X171716342Y-146456092D01*
X171719142Y-146460282D01*
X171946709Y-146527580D01*
X172759289Y-145715000D01*
X172900711Y-145715000D01*
X173713291Y-146527580D01*
X173940858Y-146460282D01*
X174141506Y-145978444D01*
X174142489Y-145456499D01*
X173943658Y-144973908D01*
X173940858Y-144969718D01*
X173713291Y-144902420D01*
X172900711Y-145715000D01*
X172759289Y-145715000D01*
X171946709Y-144902420D01*
X171719142Y-144969718D01*
X171614085Y-145222004D01*
X171487734Y-144916211D01*
X171403380Y-144831709D01*
X172017420Y-144831709D01*
X172830000Y-145644289D01*
X173642580Y-144831709D01*
X173575282Y-144604142D01*
X173093444Y-144403494D01*
X172571499Y-144402511D01*
X172088908Y-144601342D01*
X172084718Y-144604142D01*
X172017420Y-144831709D01*
X171403380Y-144831709D01*
X171190000Y-144617957D01*
X171190000Y-144550254D01*
X171277904Y-144586755D01*
X171839632Y-144587245D01*
X172358789Y-144372734D01*
X172673781Y-144058291D01*
X173287420Y-144058291D01*
X173354718Y-144285858D01*
X173836556Y-144486506D01*
X174358501Y-144487489D01*
X174841092Y-144288658D01*
X174845282Y-144285858D01*
X174912580Y-144058291D01*
X174100000Y-143245711D01*
X173287420Y-144058291D01*
X172673781Y-144058291D01*
X172756338Y-143975878D01*
X172884153Y-143668065D01*
X172986342Y-143916092D01*
X172989142Y-143920282D01*
X173216709Y-143987580D01*
X174029289Y-143175000D01*
X174170711Y-143175000D01*
X174983291Y-143987580D01*
X175210858Y-143920282D01*
X175411506Y-143438444D01*
X175412489Y-142916499D01*
X175213658Y-142433908D01*
X175210858Y-142429718D01*
X174983291Y-142362420D01*
X174170711Y-143175000D01*
X174029289Y-143175000D01*
X173216709Y-142362420D01*
X172989142Y-142429718D01*
X172884085Y-142682004D01*
X172757734Y-142376211D01*
X172673380Y-142291709D01*
X173287420Y-142291709D01*
X174100000Y-143104289D01*
X174912580Y-142291709D01*
X174845282Y-142064142D01*
X174363444Y-141863494D01*
X173841499Y-141862511D01*
X173358908Y-142061342D01*
X173354718Y-142064142D01*
X173287420Y-142291709D01*
X172673380Y-142291709D01*
X172360878Y-141978662D01*
X171842096Y-141763245D01*
X171704667Y-141763125D01*
X173466396Y-140001396D01*
X173551424Y-139874143D01*
X173661492Y-139709415D01*
X173730000Y-139365000D01*
X173730000Y-127935000D01*
X173661492Y-127590585D01*
X173661492Y-127590584D01*
X173466396Y-127298604D01*
X169796880Y-123629088D01*
X169797245Y-123210368D01*
X169582734Y-122691211D01*
X169185878Y-122293662D01*
X169008685Y-122220085D01*
X169183789Y-122147734D01*
X169581338Y-121750878D01*
X169796755Y-121232096D01*
X169797245Y-120670368D01*
X169582734Y-120151211D01*
X169185878Y-119753662D01*
X169008685Y-119680085D01*
X169183789Y-119607734D01*
X169581338Y-119210878D01*
X169796755Y-118692096D01*
X169796757Y-118689632D01*
X174592755Y-118689632D01*
X174807266Y-119208789D01*
X175204122Y-119606338D01*
X175381315Y-119679915D01*
X175206211Y-119752266D01*
X174808662Y-120149122D01*
X174593245Y-120667904D01*
X174592755Y-121229632D01*
X174807266Y-121748789D01*
X175204122Y-122146338D01*
X175381315Y-122219915D01*
X175206211Y-122292266D01*
X174808662Y-122689122D01*
X174593245Y-123207904D01*
X174592755Y-123769632D01*
X174807266Y-124288789D01*
X175204122Y-124686338D01*
X175381315Y-124759915D01*
X175206211Y-124832266D01*
X174808662Y-125229122D01*
X174593245Y-125747904D01*
X174592755Y-126309632D01*
X174807266Y-126828789D01*
X175204122Y-127226338D01*
X175381315Y-127299915D01*
X175206211Y-127372266D01*
X174808662Y-127769122D01*
X174593245Y-128287904D01*
X174592755Y-128849632D01*
X174807266Y-129368789D01*
X175204122Y-129766338D01*
X175381315Y-129839915D01*
X175206211Y-129912266D01*
X174808662Y-130309122D01*
X174593245Y-130827904D01*
X174592755Y-131389632D01*
X174807266Y-131908789D01*
X175204122Y-132306338D01*
X175381315Y-132379915D01*
X175206211Y-132452266D01*
X174808662Y-132849122D01*
X174593245Y-133367904D01*
X174592755Y-133929632D01*
X174807266Y-134448789D01*
X175204122Y-134846338D01*
X175381315Y-134919915D01*
X175206211Y-134992266D01*
X174808662Y-135389122D01*
X174593245Y-135907904D01*
X174592755Y-136469632D01*
X174807266Y-136988789D01*
X175204122Y-137386338D01*
X175722904Y-137601755D01*
X176284632Y-137602245D01*
X176803789Y-137387734D01*
X177201338Y-136990878D01*
X177416755Y-136472096D01*
X177417245Y-135910368D01*
X177202734Y-135391211D01*
X176805878Y-134993662D01*
X176628685Y-134920085D01*
X176803789Y-134847734D01*
X177201338Y-134450878D01*
X177416755Y-133932096D01*
X177417245Y-133370368D01*
X177202734Y-132851211D01*
X176805878Y-132453662D01*
X176628685Y-132380085D01*
X176803789Y-132307734D01*
X177201338Y-131910878D01*
X177416755Y-131392096D01*
X177417245Y-130830368D01*
X177202734Y-130311211D01*
X176805878Y-129913662D01*
X176628685Y-129840085D01*
X176803789Y-129767734D01*
X177201338Y-129370878D01*
X177416755Y-128852096D01*
X177417245Y-128290368D01*
X177202734Y-127771211D01*
X176805878Y-127373662D01*
X176628685Y-127300085D01*
X176803789Y-127227734D01*
X177201338Y-126830878D01*
X177416755Y-126312096D01*
X177417245Y-125750368D01*
X177202734Y-125231211D01*
X176805878Y-124833662D01*
X176628685Y-124760085D01*
X176803789Y-124687734D01*
X177201338Y-124290878D01*
X177416755Y-123772096D01*
X177417245Y-123210368D01*
X177202734Y-122691211D01*
X176805878Y-122293662D01*
X176628685Y-122220085D01*
X176803789Y-122147734D01*
X177201338Y-121750878D01*
X177416755Y-121232096D01*
X177417245Y-120670368D01*
X177202734Y-120151211D01*
X176805878Y-119753662D01*
X176628685Y-119680085D01*
X176803789Y-119607734D01*
X177201338Y-119210878D01*
X177416755Y-118692096D01*
X177417245Y-118130368D01*
X177202734Y-117611211D01*
X176805878Y-117213662D01*
X176287096Y-116998245D01*
X175725368Y-116997755D01*
X175206211Y-117212266D01*
X174808662Y-117609122D01*
X174593245Y-118127904D01*
X174592755Y-118689632D01*
X169796757Y-118689632D01*
X169797245Y-118130368D01*
X169582734Y-117611211D01*
X169185878Y-117213662D01*
X168667096Y-116998245D01*
X168105368Y-116997755D01*
X167586211Y-117212266D01*
X167188662Y-117609122D01*
X166973245Y-118127904D01*
X166972755Y-118689632D01*
X167187266Y-119208789D01*
X167584122Y-119606338D01*
X167761315Y-119679915D01*
X167586211Y-119752266D01*
X167188662Y-120149122D01*
X166973245Y-120667904D01*
X166972755Y-121229632D01*
X167187266Y-121748789D01*
X167584122Y-122146338D01*
X167761315Y-122219915D01*
X167586211Y-122292266D01*
X167287957Y-122590000D01*
X161925829Y-122590000D01*
X159440990Y-120105161D01*
X159440990Y-117074990D01*
X159372482Y-116730575D01*
X159372482Y-116730574D01*
X159177386Y-116438594D01*
X157071494Y-114332702D01*
X157017181Y-114059651D01*
X156711098Y-113601565D01*
X156304672Y-113330000D01*
X156711098Y-113058435D01*
X157017181Y-112600349D01*
X157124663Y-112060000D01*
X157017181Y-111519651D01*
X156711098Y-111061565D01*
X156304672Y-110790000D01*
X156711098Y-110518435D01*
X157017181Y-110060349D01*
X157044103Y-109925000D01*
X163137000Y-109925000D01*
X163137000Y-110687000D01*
X163256004Y-111185275D01*
X163556631Y-111600080D01*
X163993113Y-111868265D01*
X164194523Y-111924084D01*
X164399000Y-111810435D01*
X164399000Y-109925000D01*
X163137000Y-109925000D01*
X157044103Y-109925000D01*
X157124663Y-109520000D01*
X157033761Y-109063000D01*
X163137000Y-109063000D01*
X163137000Y-109825000D01*
X164399000Y-109825000D01*
X164399000Y-107939565D01*
X164499000Y-107939565D01*
X164499000Y-109825000D01*
X164519000Y-109825000D01*
X164519000Y-109925000D01*
X164499000Y-109925000D01*
X164499000Y-111810435D01*
X164703477Y-111924084D01*
X164904887Y-111868265D01*
X165341369Y-111600080D01*
X165371086Y-111559077D01*
X165450565Y-111678026D01*
X165908651Y-111984109D01*
X166449000Y-112091591D01*
X166989349Y-111984109D01*
X167447435Y-111678026D01*
X167526914Y-111559077D01*
X167556631Y-111600080D01*
X167993113Y-111868265D01*
X168194523Y-111924084D01*
X168399000Y-111810435D01*
X168399000Y-109925000D01*
X168379000Y-109925000D01*
X168379000Y-109825000D01*
X168399000Y-109825000D01*
X168399000Y-107939565D01*
X168499000Y-107939565D01*
X168499000Y-109825000D01*
X168519000Y-109825000D01*
X168519000Y-109925000D01*
X168499000Y-109925000D01*
X168499000Y-111810435D01*
X168703477Y-111924084D01*
X168904887Y-111868265D01*
X169341369Y-111600080D01*
X169371086Y-111559077D01*
X169450565Y-111678026D01*
X169908651Y-111984109D01*
X170449000Y-112091591D01*
X170989349Y-111984109D01*
X171447435Y-111678026D01*
X171449000Y-111675684D01*
X171450565Y-111678026D01*
X171908651Y-111984109D01*
X172449000Y-112091591D01*
X172989349Y-111984109D01*
X173447435Y-111678026D01*
X173449000Y-111675684D01*
X173450565Y-111678026D01*
X173908651Y-111984109D01*
X174449000Y-112091591D01*
X174989349Y-111984109D01*
X175447435Y-111678026D01*
X175449000Y-111675684D01*
X175450565Y-111678026D01*
X175908651Y-111984109D01*
X176449000Y-112091591D01*
X176989349Y-111984109D01*
X177447435Y-111678026D01*
X177449000Y-111675684D01*
X177450565Y-111678026D01*
X177908651Y-111984109D01*
X178449000Y-112091591D01*
X178989349Y-111984109D01*
X179447435Y-111678026D01*
X179753518Y-111219940D01*
X179861000Y-110679591D01*
X179861000Y-109070409D01*
X179753518Y-108530060D01*
X179447435Y-108071974D01*
X178989349Y-107765891D01*
X178449000Y-107658409D01*
X177908651Y-107765891D01*
X177450565Y-108071974D01*
X177449000Y-108074316D01*
X177447435Y-108071974D01*
X176989349Y-107765891D01*
X176449000Y-107658409D01*
X175908651Y-107765891D01*
X175450565Y-108071974D01*
X175449000Y-108074316D01*
X175447435Y-108071974D01*
X174989349Y-107765891D01*
X174449000Y-107658409D01*
X173908651Y-107765891D01*
X173450565Y-108071974D01*
X173449000Y-108074316D01*
X173447435Y-108071974D01*
X172989349Y-107765891D01*
X172449000Y-107658409D01*
X171908651Y-107765891D01*
X171450565Y-108071974D01*
X171449000Y-108074316D01*
X171447435Y-108071974D01*
X170989349Y-107765891D01*
X170449000Y-107658409D01*
X169908651Y-107765891D01*
X169450565Y-108071974D01*
X169371086Y-108190923D01*
X169341369Y-108149920D01*
X168904887Y-107881735D01*
X168703477Y-107825916D01*
X168499000Y-107939565D01*
X168399000Y-107939565D01*
X168194523Y-107825916D01*
X167993113Y-107881735D01*
X167556631Y-108149920D01*
X167526914Y-108190923D01*
X167447435Y-108071974D01*
X166989349Y-107765891D01*
X166449000Y-107658409D01*
X165908651Y-107765891D01*
X165450565Y-108071974D01*
X165371086Y-108190923D01*
X165341369Y-108149920D01*
X164904887Y-107881735D01*
X164703477Y-107825916D01*
X164499000Y-107939565D01*
X164399000Y-107939565D01*
X164194523Y-107825916D01*
X163993113Y-107881735D01*
X163556631Y-108149920D01*
X163256004Y-108564725D01*
X163137000Y-109063000D01*
X157033761Y-109063000D01*
X157017181Y-108979651D01*
X156711098Y-108521565D01*
X156304672Y-108250000D01*
X156711098Y-107978435D01*
X157017181Y-107520349D01*
X157124663Y-106980000D01*
X157017181Y-106439651D01*
X156711098Y-105981565D01*
X156304672Y-105710000D01*
X156711098Y-105438435D01*
X157017181Y-104980349D01*
X157124663Y-104440000D01*
X157017181Y-103899651D01*
X156711098Y-103441565D01*
X156304672Y-103170000D01*
X156711098Y-102898435D01*
X156776870Y-102800000D01*
X163305000Y-102800000D01*
X163649415Y-102731492D01*
X163941396Y-102536396D01*
X169085396Y-97392396D01*
X169280492Y-97100415D01*
X169349000Y-96756000D01*
X169349000Y-93743798D01*
X169447435Y-93678026D01*
X169449000Y-93675684D01*
X169450565Y-93678026D01*
X169908651Y-93984109D01*
X170449000Y-94091591D01*
X170989349Y-93984109D01*
X171447435Y-93678026D01*
X171449000Y-93675684D01*
X171450565Y-93678026D01*
X171908651Y-93984109D01*
X172449000Y-94091591D01*
X172989349Y-93984109D01*
X173447435Y-93678026D01*
X173449000Y-93675684D01*
X173450565Y-93678026D01*
X173908651Y-93984109D01*
X174449000Y-94091591D01*
X174989349Y-93984109D01*
X175447435Y-93678026D01*
X175449000Y-93675684D01*
X175450565Y-93678026D01*
X175908651Y-93984109D01*
X176449000Y-94091591D01*
X176989349Y-93984109D01*
X177447435Y-93678026D01*
X177449000Y-93675684D01*
X177450565Y-93678026D01*
X177908651Y-93984109D01*
X178449000Y-94091591D01*
X178989349Y-93984109D01*
X179447435Y-93678026D01*
X179753518Y-93219940D01*
X179861000Y-92679591D01*
X179861000Y-91070409D01*
X179753518Y-90530060D01*
X179447435Y-90071974D01*
X179349000Y-90006202D01*
X179349000Y-89739000D01*
X179280492Y-89394585D01*
X179280492Y-89394584D01*
X179085396Y-89102604D01*
X177276396Y-87293604D01*
X176984415Y-87098508D01*
X176640000Y-87030000D01*
X168017792Y-87030000D01*
X169021396Y-86026396D01*
X169216492Y-85734416D01*
X169285000Y-85390000D01*
X169285000Y-83485000D01*
X169285088Y-83383632D01*
X176624755Y-83383632D01*
X176839266Y-83902789D01*
X177236122Y-84300338D01*
X177754904Y-84515755D01*
X178316632Y-84516245D01*
X178835789Y-84301734D01*
X179233338Y-83904878D01*
X179448755Y-83386096D01*
X179449245Y-82824368D01*
X179234734Y-82305211D01*
X178837878Y-81907662D01*
X178530065Y-81779847D01*
X178778092Y-81677658D01*
X178782282Y-81674858D01*
X178849580Y-81447291D01*
X178037000Y-80634711D01*
X177224420Y-81447291D01*
X177291718Y-81674858D01*
X177544004Y-81779915D01*
X177238211Y-81906266D01*
X176840662Y-82303122D01*
X176625245Y-82821904D01*
X176624755Y-83383632D01*
X169285088Y-83383632D01*
X169285156Y-83306764D01*
X169148428Y-82975857D01*
X168895475Y-82722462D01*
X168729416Y-82653509D01*
X168729415Y-82653508D01*
X168729414Y-82653508D01*
X168564806Y-82585157D01*
X168206764Y-82584844D01*
X167875857Y-82721572D01*
X167622462Y-82974525D01*
X167485157Y-83305194D01*
X167484844Y-83663236D01*
X167485000Y-83663614D01*
X167485000Y-85017208D01*
X166742208Y-85760000D01*
X163305000Y-85760000D01*
X162960585Y-85828508D01*
X162668604Y-86023604D01*
X157096051Y-91596157D01*
X157017181Y-91199651D01*
X156711098Y-90741565D01*
X156304672Y-90470000D01*
X156711098Y-90198435D01*
X157017181Y-89740349D01*
X157124663Y-89200000D01*
X157017181Y-88659651D01*
X156711098Y-88201565D01*
X156304672Y-87930000D01*
X156711098Y-87658435D01*
X157017181Y-87200349D01*
X157124663Y-86660000D01*
X157017181Y-86119651D01*
X156711098Y-85661565D01*
X156304672Y-85390000D01*
X156711098Y-85118435D01*
X157017181Y-84660349D01*
X157124663Y-84120000D01*
X157017181Y-83579651D01*
X156711098Y-83121565D01*
X156253012Y-82815482D01*
X156125774Y-82790173D01*
X156412654Y-82671730D01*
X156775052Y-82310166D01*
X156971499Y-81837441D01*
X156972084Y-81834477D01*
X156858435Y-81630000D01*
X155735000Y-81630000D01*
X155735000Y-81650000D01*
X155635000Y-81650000D01*
X155635000Y-81630000D01*
X154511565Y-81630000D01*
X154397916Y-81834477D01*
X154398501Y-81837441D01*
X154594948Y-82310166D01*
X154957346Y-82671730D01*
X155244226Y-82790173D01*
X155116988Y-82815482D01*
X154658902Y-83121565D01*
X154352819Y-83579651D01*
X154298506Y-83852702D01*
X149460604Y-88690604D01*
X149265508Y-88982585D01*
X149197000Y-89327000D01*
X149197000Y-104810101D01*
X148902764Y-104809844D01*
X148902386Y-104810000D01*
X141811065Y-104810000D01*
X141884663Y-104440000D01*
X141777181Y-103899651D01*
X141471098Y-103441565D01*
X141064672Y-103170000D01*
X141471098Y-102898435D01*
X141777181Y-102440349D01*
X141884663Y-101900000D01*
X141777181Y-101359651D01*
X141471098Y-100901565D01*
X141064672Y-100630000D01*
X141471098Y-100358435D01*
X141777181Y-99900349D01*
X141884663Y-99360000D01*
X141777181Y-98819651D01*
X141471098Y-98361565D01*
X141064672Y-98090000D01*
X141471098Y-97818435D01*
X141777181Y-97360349D01*
X141884663Y-96820000D01*
X141777181Y-96279651D01*
X141471098Y-95821565D01*
X141064672Y-95550000D01*
X141471098Y-95278435D01*
X141777181Y-94820349D01*
X141884663Y-94280000D01*
X141777181Y-93739651D01*
X141471098Y-93281565D01*
X141064672Y-93010000D01*
X141471098Y-92738435D01*
X141777181Y-92280349D01*
X141884663Y-91740000D01*
X141777181Y-91199651D01*
X141471098Y-90741565D01*
X141064672Y-90470000D01*
X141471098Y-90198435D01*
X141777181Y-89740349D01*
X141884663Y-89200000D01*
X141777181Y-88659651D01*
X141471098Y-88201565D01*
X141064672Y-87930000D01*
X141471098Y-87658435D01*
X141777181Y-87200349D01*
X141884663Y-86660000D01*
X141777181Y-86119651D01*
X141471098Y-85661565D01*
X141064672Y-85390000D01*
X141471098Y-85118435D01*
X141777181Y-84660349D01*
X141884663Y-84120000D01*
X141799531Y-83692010D01*
X148122990Y-83692010D01*
X148467405Y-83623502D01*
X148759386Y-83428406D01*
X152247792Y-79940000D01*
X154286233Y-79940000D01*
X154305590Y-80042876D01*
X154447947Y-80264105D01*
X154665159Y-80412520D01*
X154923000Y-80464734D01*
X155014352Y-80464734D01*
X154957346Y-80488270D01*
X154594948Y-80849834D01*
X154398501Y-81322559D01*
X154397916Y-81325523D01*
X154511565Y-81530000D01*
X155635000Y-81530000D01*
X155635000Y-81510000D01*
X155735000Y-81510000D01*
X155735000Y-81530000D01*
X156858435Y-81530000D01*
X156972084Y-81325523D01*
X156971499Y-81322559D01*
X156775052Y-80849834D01*
X156747656Y-80822501D01*
X176724511Y-80822501D01*
X176923342Y-81305092D01*
X176926142Y-81309282D01*
X177153709Y-81376580D01*
X177966289Y-80564000D01*
X178107711Y-80564000D01*
X178920291Y-81376580D01*
X179147858Y-81309282D01*
X179348506Y-80827444D01*
X179349489Y-80305499D01*
X179150658Y-79822908D01*
X179147858Y-79818718D01*
X178920291Y-79751420D01*
X178107711Y-80564000D01*
X177966289Y-80564000D01*
X177153709Y-79751420D01*
X176926142Y-79818718D01*
X176725494Y-80300556D01*
X176724511Y-80822501D01*
X156747656Y-80822501D01*
X156412654Y-80488270D01*
X156355648Y-80464734D01*
X156447000Y-80464734D01*
X156687876Y-80419410D01*
X156909105Y-80277053D01*
X157057520Y-80059841D01*
X157109734Y-79802000D01*
X157109734Y-78278000D01*
X157064410Y-78037124D01*
X156922053Y-77815895D01*
X156704841Y-77667480D01*
X156447000Y-77615266D01*
X154923000Y-77615266D01*
X154682124Y-77660590D01*
X154460895Y-77802947D01*
X154312480Y-78020159D01*
X154288212Y-78140000D01*
X151875000Y-78140000D01*
X151530584Y-78208508D01*
X151238604Y-78403604D01*
X147750198Y-81892010D01*
X141822600Y-81892010D01*
X141884663Y-81580000D01*
X141777181Y-81039651D01*
X141471098Y-80581565D01*
X141276638Y-80451631D01*
X141447876Y-80419410D01*
X141669105Y-80277053D01*
X141817520Y-80059841D01*
X141869734Y-79802000D01*
X141869734Y-78278000D01*
X141824410Y-78037124D01*
X141682053Y-77815895D01*
X141464841Y-77667480D01*
X141207000Y-77615266D01*
X139683000Y-77615266D01*
X139442124Y-77660590D01*
X139220895Y-77802947D01*
X139072480Y-78020159D01*
X139020266Y-78278000D01*
X139020266Y-79802000D01*
X139065590Y-80042876D01*
X139207947Y-80264105D01*
X139425159Y-80412520D01*
X139614510Y-80450864D01*
X139418902Y-80581565D01*
X139112819Y-81039651D01*
X139005337Y-81580000D01*
X139097044Y-82041041D01*
X138925574Y-82155614D01*
X136633604Y-84447584D01*
X136438508Y-84739565D01*
X136370000Y-85083980D01*
X131451000Y-85083980D01*
X131451000Y-75763632D01*
X176624755Y-75763632D01*
X176839266Y-76282789D01*
X177236122Y-76680338D01*
X177413315Y-76753915D01*
X177238211Y-76826266D01*
X176840662Y-77223122D01*
X176625245Y-77741904D01*
X176624755Y-78303632D01*
X176839266Y-78822789D01*
X177236122Y-79220338D01*
X177543935Y-79348153D01*
X177295908Y-79450342D01*
X177291718Y-79453142D01*
X177224420Y-79680709D01*
X178037000Y-80493289D01*
X178849580Y-79680709D01*
X178782282Y-79453142D01*
X178529996Y-79348085D01*
X178835789Y-79221734D01*
X179233338Y-78824878D01*
X179448755Y-78306096D01*
X179449245Y-77744368D01*
X179234734Y-77225211D01*
X178837878Y-76827662D01*
X178660685Y-76754085D01*
X178835789Y-76681734D01*
X179233338Y-76284878D01*
X179448755Y-75766096D01*
X179449245Y-75204368D01*
X179234734Y-74685211D01*
X178837878Y-74287662D01*
X178319096Y-74072245D01*
X177757368Y-74071755D01*
X177238211Y-74286266D01*
X176840662Y-74683122D01*
X176625245Y-75201904D01*
X176624755Y-75763632D01*
X131451000Y-75763632D01*
X131451000Y-74022132D01*
X132048132Y-73425000D01*
X179384696Y-73425000D01*
X179960000Y-74000305D01*
G36*
X154245337Y-86660000D02*
X154352819Y-87200349D01*
X154658902Y-87658435D01*
X155065328Y-87930000D01*
X154658902Y-88201565D01*
X154352819Y-88659651D01*
X154245337Y-89200000D01*
X154352819Y-89740349D01*
X154658902Y-90198435D01*
X155065328Y-90470000D01*
X154658902Y-90741565D01*
X154352819Y-91199651D01*
X154245337Y-91740000D01*
X154352819Y-92280349D01*
X154658902Y-92738435D01*
X155065328Y-93010000D01*
X154658902Y-93281565D01*
X154352819Y-93739651D01*
X154245337Y-94280000D01*
X154352819Y-94820349D01*
X154658902Y-95278435D01*
X155065328Y-95550000D01*
X154658902Y-95821565D01*
X154352819Y-96279651D01*
X154245337Y-96820000D01*
X154352819Y-97360349D01*
X154658902Y-97818435D01*
X155065328Y-98090000D01*
X154658902Y-98361565D01*
X154352819Y-98819651D01*
X154245337Y-99360000D01*
X154352819Y-99900349D01*
X154658902Y-100358435D01*
X155065328Y-100630000D01*
X154658902Y-100901565D01*
X154352819Y-101359651D01*
X154245337Y-101900000D01*
X154352819Y-102440349D01*
X154658902Y-102898435D01*
X155065328Y-103170000D01*
X154658902Y-103441565D01*
X154352819Y-103899651D01*
X154245337Y-104440000D01*
X154352819Y-104980349D01*
X154658902Y-105438435D01*
X155065328Y-105710000D01*
X154658902Y-105981565D01*
X154352819Y-106439651D01*
X154245337Y-106980000D01*
X154352819Y-107520349D01*
X154658902Y-107978435D01*
X155065328Y-108250000D01*
X154658902Y-108521565D01*
X154352819Y-108979651D01*
X154245337Y-109520000D01*
X154352819Y-110060349D01*
X154658902Y-110518435D01*
X155065328Y-110790000D01*
X154658902Y-111061565D01*
X154352819Y-111519651D01*
X154298506Y-111792702D01*
X152508604Y-113582604D01*
X152313508Y-113874585D01*
X152245000Y-114219000D01*
X152245000Y-119235040D01*
X152313508Y-119579455D01*
X152508604Y-119871436D01*
X154223564Y-121586396D01*
X154356001Y-121674888D01*
X154352819Y-121679651D01*
X154245337Y-122220000D01*
X154352819Y-122760349D01*
X154658902Y-123218435D01*
X155065328Y-123490000D01*
X154658902Y-123761565D01*
X154352819Y-124219651D01*
X154245337Y-124760000D01*
X154352819Y-125300349D01*
X154658902Y-125758435D01*
X155065328Y-126030000D01*
X154658902Y-126301565D01*
X154352819Y-126759651D01*
X154245337Y-127300000D01*
X154352819Y-127840349D01*
X154658902Y-128298435D01*
X155116988Y-128604518D01*
X155657337Y-128712000D01*
X155712663Y-128712000D01*
X156253012Y-128604518D01*
X156711098Y-128298435D01*
X157017181Y-127840349D01*
X157124663Y-127300000D01*
X157017181Y-126759651D01*
X156711098Y-126301565D01*
X156304672Y-126030000D01*
X156711098Y-125758435D01*
X157017181Y-125300349D01*
X157124663Y-124760000D01*
X157017181Y-124219651D01*
X156711098Y-123761565D01*
X156304672Y-123490000D01*
X156711098Y-123218435D01*
X157017181Y-122760349D01*
X157124663Y-122220000D01*
X157051065Y-121850000D01*
X157217208Y-121850000D01*
X162033604Y-126666396D01*
X162325585Y-126861492D01*
X162670000Y-126930000D01*
X167288301Y-126930000D01*
X167584122Y-127226338D01*
X167761315Y-127299915D01*
X167586211Y-127372266D01*
X167188662Y-127769122D01*
X166973245Y-128287904D01*
X166972755Y-128849632D01*
X167187266Y-129368789D01*
X167584122Y-129766338D01*
X167761315Y-129839915D01*
X167586211Y-129912266D01*
X167188662Y-130309122D01*
X166973245Y-130827904D01*
X166972755Y-131389632D01*
X167187266Y-131908789D01*
X167584122Y-132306338D01*
X167891935Y-132434153D01*
X167643908Y-132536342D01*
X167639718Y-132539142D01*
X167572420Y-132766709D01*
X168385000Y-133579289D01*
X168399142Y-133565147D01*
X168469853Y-133635858D01*
X168455711Y-133650000D01*
X169268291Y-134462580D01*
X169390000Y-134426587D01*
X169390000Y-135198140D01*
X169185878Y-134993662D01*
X168878065Y-134865847D01*
X169126092Y-134763658D01*
X169130282Y-134760858D01*
X169197580Y-134533291D01*
X168385000Y-133720711D01*
X167572420Y-134533291D01*
X167639718Y-134760858D01*
X167892004Y-134865915D01*
X167586211Y-134992266D01*
X167188662Y-135389122D01*
X166973245Y-135907904D01*
X166972877Y-136329331D01*
X165843604Y-137458604D01*
X165648508Y-137750585D01*
X165580000Y-138095000D01*
X165580000Y-142078301D01*
X165283662Y-142374122D01*
X165068245Y-142892904D01*
X165067877Y-143314331D01*
X164573604Y-143808604D01*
X164378508Y-144100585D01*
X164336609Y-144311226D01*
X164207124Y-144335590D01*
X163985895Y-144477947D01*
X163837480Y-144695159D01*
X163785266Y-144953000D01*
X163785266Y-146390501D01*
X161872234Y-146390501D01*
X161872234Y-144635500D01*
X161826910Y-144394624D01*
X161684553Y-144173395D01*
X161467341Y-144024980D01*
X161209500Y-143972766D01*
X159304500Y-143972766D01*
X159063624Y-144018090D01*
X158842395Y-144160447D01*
X158693980Y-144377659D01*
X158641766Y-144635500D01*
X158641766Y-146390501D01*
X156578934Y-146390501D01*
X156779221Y-145908155D01*
X156779778Y-145270641D01*
X156536326Y-144681442D01*
X156327000Y-144471751D01*
X156327000Y-143558020D01*
X156239461Y-143117934D01*
X155990173Y-142744847D01*
X154654824Y-141409498D01*
X154654824Y-140673850D01*
X154609500Y-140432974D01*
X154467143Y-140211745D01*
X154249931Y-140063330D01*
X153992090Y-140011116D01*
X152292830Y-140011116D01*
X152051954Y-140056440D01*
X151830725Y-140198797D01*
X151711369Y-140373480D01*
X151370962Y-140373480D01*
X151429181Y-140286349D01*
X151536663Y-139746000D01*
X151429181Y-139205651D01*
X151123098Y-138747565D01*
X150716672Y-138476000D01*
X151123098Y-138204435D01*
X151429181Y-137746349D01*
X151536663Y-137206000D01*
X151429181Y-136665651D01*
X151123098Y-136207565D01*
X150665012Y-135901482D01*
X150537774Y-135876173D01*
X150736804Y-135794000D01*
X155896266Y-135794000D01*
X155896266Y-137094000D01*
X155941590Y-137334876D01*
X156083947Y-137556105D01*
X156301159Y-137704520D01*
X156559000Y-137756734D01*
X157859000Y-137756734D01*
X158099876Y-137711410D01*
X158321105Y-137569053D01*
X158469520Y-137351841D01*
X158490859Y-137246465D01*
X160277246Y-137246465D01*
X160330892Y-137462402D01*
X160772235Y-137644382D01*
X161249624Y-137643614D01*
X161687108Y-137462402D01*
X161740754Y-137246465D01*
X161009000Y-136514711D01*
X160277246Y-137246465D01*
X158490859Y-137246465D01*
X158521734Y-137094000D01*
X158521734Y-136207235D01*
X159808618Y-136207235D01*
X159809386Y-136684624D01*
X159990598Y-137122108D01*
X160206535Y-137175754D01*
X160938289Y-136444000D01*
X161079711Y-136444000D01*
X161811465Y-137175754D01*
X162027402Y-137122108D01*
X162209382Y-136680765D01*
X162208614Y-136203376D01*
X162027402Y-135765892D01*
X161811465Y-135712246D01*
X161079711Y-136444000D01*
X160938289Y-136444000D01*
X160206535Y-135712246D01*
X159990598Y-135765892D01*
X159808618Y-136207235D01*
X158521734Y-136207235D01*
X158521734Y-135794000D01*
X158493046Y-135641535D01*
X160277246Y-135641535D01*
X161009000Y-136373289D01*
X161740754Y-135641535D01*
X161687108Y-135425598D01*
X161245765Y-135243618D01*
X160768376Y-135244386D01*
X160330892Y-135425598D01*
X160277246Y-135641535D01*
X158493046Y-135641535D01*
X158476410Y-135553124D01*
X158334053Y-135331895D01*
X158116841Y-135183480D01*
X157859000Y-135131266D01*
X156559000Y-135131266D01*
X156318124Y-135176590D01*
X156096895Y-135318947D01*
X155948480Y-135536159D01*
X155896266Y-135794000D01*
X150736804Y-135794000D01*
X150824654Y-135757730D01*
X151187052Y-135396166D01*
X151383499Y-134923441D01*
X151384084Y-134920477D01*
X151270435Y-134716000D01*
X150147000Y-134716000D01*
X150147000Y-134736000D01*
X150047000Y-134736000D01*
X150047000Y-134716000D01*
X148923565Y-134716000D01*
X148809916Y-134920477D01*
X148810501Y-134923441D01*
X149006948Y-135396166D01*
X149369346Y-135757730D01*
X149656226Y-135876173D01*
X149528988Y-135901482D01*
X149070902Y-136207565D01*
X148764819Y-136665651D01*
X148657337Y-137206000D01*
X148764819Y-137746349D01*
X149070902Y-138204435D01*
X149477328Y-138476000D01*
X149070902Y-138747565D01*
X148764819Y-139205651D01*
X148657337Y-139746000D01*
X148764819Y-140286349D01*
X148823038Y-140373480D01*
X147811520Y-140373480D01*
X147371434Y-140461019D01*
X146998347Y-140710307D01*
X145945842Y-141762812D01*
X145880368Y-141762755D01*
X145361211Y-141977266D01*
X144963662Y-142374122D01*
X144890085Y-142551315D01*
X144817734Y-142376211D01*
X144520000Y-142077957D01*
X144520000Y-125014000D01*
X144451492Y-124669585D01*
X144256396Y-124377604D01*
X141831494Y-121952702D01*
X141777181Y-121679651D01*
X141471098Y-121221565D01*
X141064672Y-120950000D01*
X141471098Y-120678435D01*
X141777181Y-120220349D01*
X141884663Y-119680000D01*
X141777181Y-119139651D01*
X141471098Y-118681565D01*
X141064672Y-118410000D01*
X141471098Y-118138435D01*
X141777181Y-117680349D01*
X141884663Y-117140000D01*
X141777181Y-116599651D01*
X141471098Y-116141565D01*
X141064672Y-115870000D01*
X141471098Y-115598435D01*
X141777181Y-115140349D01*
X141884663Y-114600000D01*
X141777181Y-114059651D01*
X141471098Y-113601565D01*
X141064672Y-113330000D01*
X141471098Y-113058435D01*
X141777181Y-112600349D01*
X141884663Y-112060000D01*
X141777181Y-111519651D01*
X141471098Y-111061565D01*
X141064672Y-110790000D01*
X141471098Y-110518435D01*
X141777181Y-110060349D01*
X141884663Y-109520000D01*
X141777181Y-108979651D01*
X141471098Y-108521565D01*
X141064672Y-108250000D01*
X141471098Y-107978435D01*
X141777181Y-107520349D01*
X141884663Y-106980000D01*
X141856977Y-106840815D01*
X142087792Y-106610000D01*
X149080787Y-106610000D01*
X149197000Y-106610102D01*
X149197000Y-109636000D01*
X143493213Y-109636000D01*
X143314764Y-109635844D01*
X142983857Y-109772572D01*
X142730462Y-110025525D01*
X142593157Y-110356194D01*
X142592844Y-110714236D01*
X142729572Y-111045143D01*
X142982525Y-111298538D01*
X143148584Y-111367491D01*
X143148585Y-111367492D01*
X143148586Y-111367492D01*
X143313194Y-111435843D01*
X143671236Y-111436156D01*
X143671614Y-111436000D01*
X149197000Y-111436000D01*
X149197000Y-131043309D01*
X149070902Y-131127565D01*
X148764819Y-131585651D01*
X148657337Y-132126000D01*
X148764819Y-132666349D01*
X149070902Y-133124435D01*
X149528988Y-133430518D01*
X149656226Y-133455827D01*
X149369346Y-133574270D01*
X149006948Y-133935834D01*
X148810501Y-134408559D01*
X148809916Y-134411523D01*
X148923565Y-134616000D01*
X150047000Y-134616000D01*
X150047000Y-134596000D01*
X150147000Y-134596000D01*
X150147000Y-134616000D01*
X151270435Y-134616000D01*
X151384084Y-134411523D01*
X151383499Y-134408559D01*
X151187052Y-133935834D01*
X151159656Y-133908501D01*
X167072511Y-133908501D01*
X167271342Y-134391092D01*
X167274142Y-134395282D01*
X167501709Y-134462580D01*
X168314289Y-133650000D01*
X167501709Y-132837420D01*
X167274142Y-132904718D01*
X167073494Y-133386556D01*
X167072511Y-133908501D01*
X151159656Y-133908501D01*
X150824654Y-133574270D01*
X150537774Y-133455827D01*
X150665012Y-133430518D01*
X151123098Y-133124435D01*
X151429181Y-132666349D01*
X151500063Y-132309999D01*
X152266652Y-132309999D01*
X152344626Y-132546668D01*
X152858144Y-132761922D01*
X153414947Y-132764275D01*
X153930266Y-132553370D01*
X153940294Y-132546668D01*
X154018268Y-132309999D01*
X153142460Y-131434191D01*
X152266652Y-132309999D01*
X151500063Y-132309999D01*
X151536663Y-132126000D01*
X151439190Y-131635967D01*
X151741665Y-131635967D01*
X151952570Y-132151286D01*
X151959272Y-132161314D01*
X152195941Y-132239288D01*
X153071749Y-131363480D01*
X153213171Y-131363480D01*
X154088979Y-132239288D01*
X154325648Y-132161314D01*
X154540902Y-131647796D01*
X154543255Y-131090993D01*
X154332350Y-130575674D01*
X154325648Y-130565646D01*
X154088979Y-130487672D01*
X153213171Y-131363480D01*
X153071749Y-131363480D01*
X152195941Y-130487672D01*
X151959272Y-130565646D01*
X151744018Y-131079164D01*
X151741665Y-131635967D01*
X151439190Y-131635967D01*
X151429181Y-131585651D01*
X151123098Y-131127565D01*
X150997000Y-131043309D01*
X150997000Y-130416961D01*
X152266652Y-130416961D01*
X153142460Y-131292769D01*
X154018268Y-130416961D01*
X153940294Y-130180292D01*
X153426776Y-129965038D01*
X152869973Y-129962685D01*
X152354654Y-130173590D01*
X152344626Y-130180292D01*
X152266652Y-130416961D01*
X150997000Y-130416961D01*
X150997000Y-89699792D01*
X154297119Y-86399673D01*
X154245337Y-86660000D01*
X154245337Y-86660000D01*
G37*
X154245337Y-86660000D02*
X154352819Y-87200349D01*
X154658902Y-87658435D01*
X155065328Y-87930000D01*
X154658902Y-88201565D01*
X154352819Y-88659651D01*
X154245337Y-89200000D01*
X154352819Y-89740349D01*
X154658902Y-90198435D01*
X155065328Y-90470000D01*
X154658902Y-90741565D01*
X154352819Y-91199651D01*
X154245337Y-91740000D01*
X154352819Y-92280349D01*
X154658902Y-92738435D01*
X155065328Y-93010000D01*
X154658902Y-93281565D01*
X154352819Y-93739651D01*
X154245337Y-94280000D01*
X154352819Y-94820349D01*
X154658902Y-95278435D01*
X155065328Y-95550000D01*
X154658902Y-95821565D01*
X154352819Y-96279651D01*
X154245337Y-96820000D01*
X154352819Y-97360349D01*
X154658902Y-97818435D01*
X155065328Y-98090000D01*
X154658902Y-98361565D01*
X154352819Y-98819651D01*
X154245337Y-99360000D01*
X154352819Y-99900349D01*
X154658902Y-100358435D01*
X155065328Y-100630000D01*
X154658902Y-100901565D01*
X154352819Y-101359651D01*
X154245337Y-101900000D01*
X154352819Y-102440349D01*
X154658902Y-102898435D01*
X155065328Y-103170000D01*
X154658902Y-103441565D01*
X154352819Y-103899651D01*
X154245337Y-104440000D01*
X154352819Y-104980349D01*
X154658902Y-105438435D01*
X155065328Y-105710000D01*
X154658902Y-105981565D01*
X154352819Y-106439651D01*
X154245337Y-106980000D01*
X154352819Y-107520349D01*
X154658902Y-107978435D01*
X155065328Y-108250000D01*
X154658902Y-108521565D01*
X154352819Y-108979651D01*
X154245337Y-109520000D01*
X154352819Y-110060349D01*
X154658902Y-110518435D01*
X155065328Y-110790000D01*
X154658902Y-111061565D01*
X154352819Y-111519651D01*
X154298506Y-111792702D01*
X152508604Y-113582604D01*
X152313508Y-113874585D01*
X152245000Y-114219000D01*
X152245000Y-119235040D01*
X152313508Y-119579455D01*
X152508604Y-119871436D01*
X154223564Y-121586396D01*
X154356001Y-121674888D01*
X154352819Y-121679651D01*
X154245337Y-122220000D01*
X154352819Y-122760349D01*
X154658902Y-123218435D01*
X155065328Y-123490000D01*
X154658902Y-123761565D01*
X154352819Y-124219651D01*
X154245337Y-124760000D01*
X154352819Y-125300349D01*
X154658902Y-125758435D01*
X155065328Y-126030000D01*
X154658902Y-126301565D01*
X154352819Y-126759651D01*
X154245337Y-127300000D01*
X154352819Y-127840349D01*
X154658902Y-128298435D01*
X155116988Y-128604518D01*
X155657337Y-128712000D01*
X155712663Y-128712000D01*
X156253012Y-128604518D01*
X156711098Y-128298435D01*
X157017181Y-127840349D01*
X157124663Y-127300000D01*
X157017181Y-126759651D01*
X156711098Y-126301565D01*
X156304672Y-126030000D01*
X156711098Y-125758435D01*
X157017181Y-125300349D01*
X157124663Y-124760000D01*
X157017181Y-124219651D01*
X156711098Y-123761565D01*
X156304672Y-123490000D01*
X156711098Y-123218435D01*
X157017181Y-122760349D01*
X157124663Y-122220000D01*
X157051065Y-121850000D01*
X157217208Y-121850000D01*
X162033604Y-126666396D01*
X162325585Y-126861492D01*
X162670000Y-126930000D01*
X167288301Y-126930000D01*
X167584122Y-127226338D01*
X167761315Y-127299915D01*
X167586211Y-127372266D01*
X167188662Y-127769122D01*
X166973245Y-128287904D01*
X166972755Y-128849632D01*
X167187266Y-129368789D01*
X167584122Y-129766338D01*
X167761315Y-129839915D01*
X167586211Y-129912266D01*
X167188662Y-130309122D01*
X166973245Y-130827904D01*
X166972755Y-131389632D01*
X167187266Y-131908789D01*
X167584122Y-132306338D01*
X167891935Y-132434153D01*
X167643908Y-132536342D01*
X167639718Y-132539142D01*
X167572420Y-132766709D01*
X168385000Y-133579289D01*
X168399142Y-133565147D01*
X168469853Y-133635858D01*
X168455711Y-133650000D01*
X169268291Y-134462580D01*
X169390000Y-134426587D01*
X169390000Y-135198140D01*
X169185878Y-134993662D01*
X168878065Y-134865847D01*
X169126092Y-134763658D01*
X169130282Y-134760858D01*
X169197580Y-134533291D01*
X168385000Y-133720711D01*
X167572420Y-134533291D01*
X167639718Y-134760858D01*
X167892004Y-134865915D01*
X167586211Y-134992266D01*
X167188662Y-135389122D01*
X166973245Y-135907904D01*
X166972877Y-136329331D01*
X165843604Y-137458604D01*
X165648508Y-137750585D01*
X165580000Y-138095000D01*
X165580000Y-142078301D01*
X165283662Y-142374122D01*
X165068245Y-142892904D01*
X165067877Y-143314331D01*
X164573604Y-143808604D01*
X164378508Y-144100585D01*
X164336609Y-144311226D01*
X164207124Y-144335590D01*
X163985895Y-144477947D01*
X163837480Y-144695159D01*
X163785266Y-144953000D01*
X163785266Y-146390501D01*
X161872234Y-146390501D01*
X161872234Y-144635500D01*
X161826910Y-144394624D01*
X161684553Y-144173395D01*
X161467341Y-144024980D01*
X161209500Y-143972766D01*
X159304500Y-143972766D01*
X159063624Y-144018090D01*
X158842395Y-144160447D01*
X158693980Y-144377659D01*
X158641766Y-144635500D01*
X158641766Y-146390501D01*
X156578934Y-146390501D01*
X156779221Y-145908155D01*
X156779778Y-145270641D01*
X156536326Y-144681442D01*
X156327000Y-144471751D01*
X156327000Y-143558020D01*
X156239461Y-143117934D01*
X155990173Y-142744847D01*
X154654824Y-141409498D01*
X154654824Y-140673850D01*
X154609500Y-140432974D01*
X154467143Y-140211745D01*
X154249931Y-140063330D01*
X153992090Y-140011116D01*
X152292830Y-140011116D01*
X152051954Y-140056440D01*
X151830725Y-140198797D01*
X151711369Y-140373480D01*
X151370962Y-140373480D01*
X151429181Y-140286349D01*
X151536663Y-139746000D01*
X151429181Y-139205651D01*
X151123098Y-138747565D01*
X150716672Y-138476000D01*
X151123098Y-138204435D01*
X151429181Y-137746349D01*
X151536663Y-137206000D01*
X151429181Y-136665651D01*
X151123098Y-136207565D01*
X150665012Y-135901482D01*
X150537774Y-135876173D01*
X150736804Y-135794000D01*
X155896266Y-135794000D01*
X155896266Y-137094000D01*
X155941590Y-137334876D01*
X156083947Y-137556105D01*
X156301159Y-137704520D01*
X156559000Y-137756734D01*
X157859000Y-137756734D01*
X158099876Y-137711410D01*
X158321105Y-137569053D01*
X158469520Y-137351841D01*
X158490859Y-137246465D01*
X160277246Y-137246465D01*
X160330892Y-137462402D01*
X160772235Y-137644382D01*
X161249624Y-137643614D01*
X161687108Y-137462402D01*
X161740754Y-137246465D01*
X161009000Y-136514711D01*
X160277246Y-137246465D01*
X158490859Y-137246465D01*
X158521734Y-137094000D01*
X158521734Y-136207235D01*
X159808618Y-136207235D01*
X159809386Y-136684624D01*
X159990598Y-137122108D01*
X160206535Y-137175754D01*
X160938289Y-136444000D01*
X161079711Y-136444000D01*
X161811465Y-137175754D01*
X162027402Y-137122108D01*
X162209382Y-136680765D01*
X162208614Y-136203376D01*
X162027402Y-135765892D01*
X161811465Y-135712246D01*
X161079711Y-136444000D01*
X160938289Y-136444000D01*
X160206535Y-135712246D01*
X159990598Y-135765892D01*
X159808618Y-136207235D01*
X158521734Y-136207235D01*
X158521734Y-135794000D01*
X158493046Y-135641535D01*
X160277246Y-135641535D01*
X161009000Y-136373289D01*
X161740754Y-135641535D01*
X161687108Y-135425598D01*
X161245765Y-135243618D01*
X160768376Y-135244386D01*
X160330892Y-135425598D01*
X160277246Y-135641535D01*
X158493046Y-135641535D01*
X158476410Y-135553124D01*
X158334053Y-135331895D01*
X158116841Y-135183480D01*
X157859000Y-135131266D01*
X156559000Y-135131266D01*
X156318124Y-135176590D01*
X156096895Y-135318947D01*
X155948480Y-135536159D01*
X155896266Y-135794000D01*
X150736804Y-135794000D01*
X150824654Y-135757730D01*
X151187052Y-135396166D01*
X151383499Y-134923441D01*
X151384084Y-134920477D01*
X151270435Y-134716000D01*
X150147000Y-134716000D01*
X150147000Y-134736000D01*
X150047000Y-134736000D01*
X150047000Y-134716000D01*
X148923565Y-134716000D01*
X148809916Y-134920477D01*
X148810501Y-134923441D01*
X149006948Y-135396166D01*
X149369346Y-135757730D01*
X149656226Y-135876173D01*
X149528988Y-135901482D01*
X149070902Y-136207565D01*
X148764819Y-136665651D01*
X148657337Y-137206000D01*
X148764819Y-137746349D01*
X149070902Y-138204435D01*
X149477328Y-138476000D01*
X149070902Y-138747565D01*
X148764819Y-139205651D01*
X148657337Y-139746000D01*
X148764819Y-140286349D01*
X148823038Y-140373480D01*
X147811520Y-140373480D01*
X147371434Y-140461019D01*
X146998347Y-140710307D01*
X145945842Y-141762812D01*
X145880368Y-141762755D01*
X145361211Y-141977266D01*
X144963662Y-142374122D01*
X144890085Y-142551315D01*
X144817734Y-142376211D01*
X144520000Y-142077957D01*
X144520000Y-125014000D01*
X144451492Y-124669585D01*
X144256396Y-124377604D01*
X141831494Y-121952702D01*
X141777181Y-121679651D01*
X141471098Y-121221565D01*
X141064672Y-120950000D01*
X141471098Y-120678435D01*
X141777181Y-120220349D01*
X141884663Y-119680000D01*
X141777181Y-119139651D01*
X141471098Y-118681565D01*
X141064672Y-118410000D01*
X141471098Y-118138435D01*
X141777181Y-117680349D01*
X141884663Y-117140000D01*
X141777181Y-116599651D01*
X141471098Y-116141565D01*
X141064672Y-115870000D01*
X141471098Y-115598435D01*
X141777181Y-115140349D01*
X141884663Y-114600000D01*
X141777181Y-114059651D01*
X141471098Y-113601565D01*
X141064672Y-113330000D01*
X141471098Y-113058435D01*
X141777181Y-112600349D01*
X141884663Y-112060000D01*
X141777181Y-111519651D01*
X141471098Y-111061565D01*
X141064672Y-110790000D01*
X141471098Y-110518435D01*
X141777181Y-110060349D01*
X141884663Y-109520000D01*
X141777181Y-108979651D01*
X141471098Y-108521565D01*
X141064672Y-108250000D01*
X141471098Y-107978435D01*
X141777181Y-107520349D01*
X141884663Y-106980000D01*
X141856977Y-106840815D01*
X142087792Y-106610000D01*
X149080787Y-106610000D01*
X149197000Y-106610102D01*
X149197000Y-109636000D01*
X143493213Y-109636000D01*
X143314764Y-109635844D01*
X142983857Y-109772572D01*
X142730462Y-110025525D01*
X142593157Y-110356194D01*
X142592844Y-110714236D01*
X142729572Y-111045143D01*
X142982525Y-111298538D01*
X143148584Y-111367491D01*
X143148585Y-111367492D01*
X143148586Y-111367492D01*
X143313194Y-111435843D01*
X143671236Y-111436156D01*
X143671614Y-111436000D01*
X149197000Y-111436000D01*
X149197000Y-131043309D01*
X149070902Y-131127565D01*
X148764819Y-131585651D01*
X148657337Y-132126000D01*
X148764819Y-132666349D01*
X149070902Y-133124435D01*
X149528988Y-133430518D01*
X149656226Y-133455827D01*
X149369346Y-133574270D01*
X149006948Y-133935834D01*
X148810501Y-134408559D01*
X148809916Y-134411523D01*
X148923565Y-134616000D01*
X150047000Y-134616000D01*
X150047000Y-134596000D01*
X150147000Y-134596000D01*
X150147000Y-134616000D01*
X151270435Y-134616000D01*
X151384084Y-134411523D01*
X151383499Y-134408559D01*
X151187052Y-133935834D01*
X151159656Y-133908501D01*
X167072511Y-133908501D01*
X167271342Y-134391092D01*
X167274142Y-134395282D01*
X167501709Y-134462580D01*
X168314289Y-133650000D01*
X167501709Y-132837420D01*
X167274142Y-132904718D01*
X167073494Y-133386556D01*
X167072511Y-133908501D01*
X151159656Y-133908501D01*
X150824654Y-133574270D01*
X150537774Y-133455827D01*
X150665012Y-133430518D01*
X151123098Y-133124435D01*
X151429181Y-132666349D01*
X151500063Y-132309999D01*
X152266652Y-132309999D01*
X152344626Y-132546668D01*
X152858144Y-132761922D01*
X153414947Y-132764275D01*
X153930266Y-132553370D01*
X153940294Y-132546668D01*
X154018268Y-132309999D01*
X153142460Y-131434191D01*
X152266652Y-132309999D01*
X151500063Y-132309999D01*
X151536663Y-132126000D01*
X151439190Y-131635967D01*
X151741665Y-131635967D01*
X151952570Y-132151286D01*
X151959272Y-132161314D01*
X152195941Y-132239288D01*
X153071749Y-131363480D01*
X153213171Y-131363480D01*
X154088979Y-132239288D01*
X154325648Y-132161314D01*
X154540902Y-131647796D01*
X154543255Y-131090993D01*
X154332350Y-130575674D01*
X154325648Y-130565646D01*
X154088979Y-130487672D01*
X153213171Y-131363480D01*
X153071749Y-131363480D01*
X152195941Y-130487672D01*
X151959272Y-130565646D01*
X151744018Y-131079164D01*
X151741665Y-131635967D01*
X151439190Y-131635967D01*
X151429181Y-131585651D01*
X151123098Y-131127565D01*
X150997000Y-131043309D01*
X150997000Y-130416961D01*
X152266652Y-130416961D01*
X153142460Y-131292769D01*
X154018268Y-130416961D01*
X153940294Y-130180292D01*
X153426776Y-129965038D01*
X152869973Y-129962685D01*
X152354654Y-130173590D01*
X152344626Y-130180292D01*
X152266652Y-130416961D01*
X150997000Y-130416961D01*
X150997000Y-89699792D01*
X154297119Y-86399673D01*
X154245337Y-86660000D01*
G36*
X144962266Y-143973789D02*
X144983547Y-143995107D01*
X144675842Y-144302812D01*
X144610368Y-144302755D01*
X144091211Y-144517266D01*
X143693662Y-144914122D01*
X143565847Y-145221935D01*
X143463658Y-144973908D01*
X143460858Y-144969718D01*
X143233291Y-144902420D01*
X142420711Y-145715000D01*
X142434853Y-145729142D01*
X142364142Y-145799853D01*
X142350000Y-145785711D01*
X142335858Y-145799853D01*
X142265147Y-145729142D01*
X142279289Y-145715000D01*
X141466709Y-144902420D01*
X141239142Y-144969718D01*
X141134085Y-145222004D01*
X141007734Y-144916211D01*
X140923380Y-144831709D01*
X141537420Y-144831709D01*
X142350000Y-145644289D01*
X143162580Y-144831709D01*
X143095282Y-144604142D01*
X142613444Y-144403494D01*
X142091499Y-144402511D01*
X141608908Y-144601342D01*
X141604718Y-144604142D01*
X141537420Y-144831709D01*
X140923380Y-144831709D01*
X140781104Y-144689186D01*
X140934224Y-144586874D01*
X141359632Y-144587245D01*
X141878789Y-144372734D01*
X142276338Y-143975878D01*
X142349915Y-143798685D01*
X142422266Y-143973789D01*
X142819122Y-144371338D01*
X143337904Y-144586755D01*
X143899632Y-144587245D01*
X144418789Y-144372734D01*
X144816338Y-143975878D01*
X144889915Y-143798685D01*
X144962266Y-143973789D01*
X144962266Y-143973789D01*
G37*
X144962266Y-143973789D02*
X144983547Y-143995107D01*
X144675842Y-144302812D01*
X144610368Y-144302755D01*
X144091211Y-144517266D01*
X143693662Y-144914122D01*
X143565847Y-145221935D01*
X143463658Y-144973908D01*
X143460858Y-144969718D01*
X143233291Y-144902420D01*
X142420711Y-145715000D01*
X142434853Y-145729142D01*
X142364142Y-145799853D01*
X142350000Y-145785711D01*
X142335858Y-145799853D01*
X142265147Y-145729142D01*
X142279289Y-145715000D01*
X141466709Y-144902420D01*
X141239142Y-144969718D01*
X141134085Y-145222004D01*
X141007734Y-144916211D01*
X140923380Y-144831709D01*
X141537420Y-144831709D01*
X142350000Y-145644289D01*
X143162580Y-144831709D01*
X143095282Y-144604142D01*
X142613444Y-144403494D01*
X142091499Y-144402511D01*
X141608908Y-144601342D01*
X141604718Y-144604142D01*
X141537420Y-144831709D01*
X140923380Y-144831709D01*
X140781104Y-144689186D01*
X140934224Y-144586874D01*
X141359632Y-144587245D01*
X141878789Y-144372734D01*
X142276338Y-143975878D01*
X142349915Y-143798685D01*
X142422266Y-143973789D01*
X142819122Y-144371338D01*
X143337904Y-144586755D01*
X143899632Y-144587245D01*
X144418789Y-144372734D01*
X144816338Y-143975878D01*
X144889915Y-143798685D01*
X144962266Y-143973789D01*
M02*
