M48
INCH,TZ
T1C0.012
T2C0.016
T3C0.030
T4C0.067
T5C0.197
%
G90
G05
T1
X56493Y-43518
X58693Y-41618
X66043Y-54868
X66293Y-32868
T2
X52543Y-34126
X52543Y-34618
X52543Y-36642
X52543Y-37134
X52543Y-37626
X52543Y-38118
X52543Y-38610
X52543Y-39102
T3
X53543Y-59868
X54043Y-57368
X54543Y-56368
X55043Y-57368
X55293Y-31118
X55293Y-32118
X55293Y-33118
X55293Y-34118
X55293Y-35118
X55293Y-36118
X55293Y-37118
X55293Y-38118
X55293Y-39118
X55293Y-40118
X55293Y-41118
X55293Y-42118
X55293Y-43118
X55293Y-44118
X55293Y-45118
X55293Y-46118
X55293Y-47118
X55293Y-48118
X55293Y-49118
X55293Y-50118
X55543Y-56368
X56043Y-57368
X56543Y-56368
X57043Y-57368
X57543Y-56368
X58043Y-59868
X59093Y-52018
X59093Y-53018
X59093Y-54018
X59093Y-55018
X60292Y-51718
X60292Y-55718
X61093Y-57318
X61293Y-31118
X61293Y-32118
X61293Y-33118
X61293Y-34118
X61293Y-35118
X61293Y-36118
X61293Y-37118
X61293Y-38118
X61293Y-39118
X61293Y-40118
X61293Y-41118
X61293Y-42118
X61293Y-43118
X61293Y-44118
X61293Y-45118
X61293Y-46118
X61293Y-47118
X61293Y-48118
X61293Y-49118
X61293Y-50118
X61893Y-53718
X63093Y-57318
X63389Y-53718
X64543Y-59868
X64744Y-36368
X64744Y-43061
X65043Y-57368
X65531Y-36368
X65531Y-43061
X65543Y-56368
X66043Y-57368
X66293Y-46618
X66293Y-47618
X66293Y-48618
X66293Y-49618
X66293Y-50618
X66293Y-51618
X66293Y-52618
X66293Y-53618
X66319Y-36368
X66319Y-43061
X66543Y-56368
X67043Y-57368
X67106Y-36368
X67106Y-43061
X67543Y-56368
X67893Y-36368
X67893Y-43061
X68043Y-57368
X68543Y-56368
X68681Y-36368
X68681Y-43061
X69043Y-59868
X69293Y-46618
X69293Y-47618
X69293Y-48618
X69293Y-49618
X69293Y-50618
X69293Y-51618
X69293Y-52618
X69293Y-53618
X69468Y-36368
X69468Y-43061
X70093Y-29718
X70093Y-30718
X70093Y-31718
X70093Y-32718
X70256Y-36368
X70256Y-43061
T4
X52793Y-61068
X58793Y-61068
X63793Y-61068
X69793Y-61068
T5
X61293Y-60118
T0
M30
