<?xml version="1.0" encoding="UTF-8" standalone="no"?>
<!-- Created with Inkscape (http://www.inkscape.org/) -->

<svg
   xmlns:dc="http://purl.org/dc/elements/1.1/"
   xmlns:cc="http://creativecommons.org/ns#"
   xmlns:rdf="http://www.w3.org/1999/02/22-rdf-syntax-ns#"
   xmlns:svg="http://www.w3.org/2000/svg"
   xmlns="http://www.w3.org/2000/svg"
   xmlns:sodipodi="http://sodipodi.sourceforge.net/DTD/sodipodi-0.dtd"
   xmlns:inkscape="http://www.inkscape.org/namespaces/inkscape"
   width="148mm"
   height="210mm"
   viewBox="0 0 148 210"
   version="1.1"
   id="svg8"
   inkscape:version="0.92.1 r15371"
   sodipodi:docname="labels.svg">
  <defs
     id="defs2" />
  <sodipodi:namedview
     id="base"
     pagecolor="#ffffff"
     bordercolor="#666666"
     borderopacity="1.0"
     inkscape:pageopacity="0.0"
     inkscape:pageshadow="2"
     inkscape:zoom="4.644668"
     inkscape:cx="358.08302"
     inkscape:cy="446.33705"
     inkscape:document-units="mm"
     inkscape:current-layer="layer1"
     showgrid="false"
     inkscape:window-width="1855"
     inkscape:window-height="1056"
     inkscape:window-x="65"
     inkscape:window-y="24"
     inkscape:window-maximized="1"
     showguides="true"
     inkscape:guide-bbox="true"
     inkscape:snap-bbox="true"
     inkscape:bbox-paths="true"
     inkscape:snap-page="true">
    <sodipodi:guide
       position="54.800296,136.37412"
       orientation="1,0"
       id="guide4560"
       inkscape:locked="false" />
    <sodipodi:guide
       position="52.357146,110.89169"
       orientation="1,0"
       id="guide4564"
       inkscape:locked="false" />
    <sodipodi:guide
       position="103.85715,107.93109"
       orientation="1,0"
       id="guide4566"
       inkscape:locked="false" />
    <sodipodi:guide
       position="100.71406,128.17116"
       orientation="1,0"
       id="guide4569"
       inkscape:locked="false" />
  </sodipodi:namedview>
  <metadata
     id="metadata5">
    <rdf:RDF>
      <cc:Work
         rdf:about="">
        <dc:format>image/svg+xml</dc:format>
        <dc:type
           rdf:resource="http://purl.org/dc/dcmitype/StillImage" />
        <dc:title />
      </cc:Work>
    </rdf:RDF>
  </metadata>
  <g
     inkscape:label="Layer 1"
     inkscape:groupmode="layer"
     id="layer1"
     transform="translate(0,-87)">
    <rect
       style="opacity:1;fill:none;fill-opacity:1;stroke:#000000;stroke-width:0.5;stroke-linecap:square;stroke-linejoin:round;stroke-miterlimit:4;stroke-dasharray:none;stroke-dashoffset:0;stroke-opacity:1"
       id="rect4485"
       width="51"
       height="85"
       x="52.607143"
       y="142.85715" />
    <g
       transform="matrix(0.09618859,0,0,-0.09618859,54.734602,226.70337)"
       inkscape:label="ink_ext_XXXXXX"
       id="g4495">
      <g
         transform="scale(0.1)"
         id="g4497">
        <path
           inkscape:connector-curvature="0"
           id="path4499"
           style="fill:#231f20;fill-opacity:1;fill-rule:evenodd;stroke:none"
           d="m 2351.3,1053.49 c 19.13,-3.75 18.97,27.27 0,22.89 -11.88,-2.74 -10.88,-20.75 0,-22.89 z m -31.17,147.59 c -20.68,-17.82 -31.37,-42.44 -38.67,-74.58 -1.23,-5.41 -4.29,-15.07 -3.16,-19.74 0.69,-2.86 5.68,-6.33 8.68,-8.68 3.15,-2.47 7.84,-6.26 11.05,-5.53 3.2,0.74 4.72,5.92 6.32,9.48 4.69,10.5 12.18,21.04 20.12,27.23 10.17,7.92 28.5,14.9 44.58,8.68 14.61,-5.65 27.32,-20.24 33.95,-33.94 1.68,-3.48 3.32,-11.31 7.1,-11.84 3.04,-0.42 8.27,4.08 11.05,6.32 3.08,2.48 8.11,5.78 8.67,9.08 0.7,4.02 -2.16,14.37 -3.54,20.12 -7,29.3 -18.13,55.86 -35.92,71.82 -9.78,8.78 -23.09,15.9 -37.87,15.39 -14.13,-0.49 -23.84,-6.47 -32.36,-13.81 z M 26.25,1467.45 c 0.5234,0 1.0508,0 1.5781,0 4.2227,-6.58 7.0821,-14.15 10.2578,-21.71 6.3282,-15.06 11.8985,-29.44 18.1524,-45.77 2.5156,-6.59 4.9687,-19.16 9.8633,-22.1 3.0976,-1.87 9.4648,-2.47 15.3906,-3.96 86.3208,-21.56 173.9378,-42.61 259.6558,-63.52 10.629,-2.59 21.594,-3.8 32.754,-5.13 135.629,-16.19 271.641,-32.29 407.243,-49.33 23.058,-2.9 46.3,-4.05 69.839,-5.92 186.896,-14.91 375.876,-29.48 563.506,-44.6 93.86,-7.55 190.15,-11.13 286.89,-16.96 95.58,-5.75 191.83,-10.39 289.25,-14.99 82.13,-3.89 168.62,-8.3 252.55,-13.42 12.52,-0.77 25.78,-2.84 36.3,-1.58 7.19,0.85 9.67,8.79 13.02,15 9.79,18.08 22.46,33.98 40.65,42.22 1.3,0.59 2.28,0.45 3.95,2.36 1.16,74.99 3.14,149.18 4.34,224.14 -95.7,1.34 -191.57,2.07 -288.86,3.56 -8.92,0.13 -17.71,-0.77 -22.1,3.55 -6.96,6.86 2.16,13.15 7.5,14.21 10.42,2.07 26.34,0.78 37.88,0.78 86.97,0 180.2,2.45 265.18,3.17 8.55,0 17.1,0 25.65,0 83.21,-0.69 177.75,-3.17 264.39,-3.17 12.56,0 26.17,1.09 37.49,-0.4 4.94,-0.63 13.23,-4.32 10.66,-11.43 -1.84,-4.12 -5.04,-5.51 -9.47,-6.32 -11.15,-2.03 -25.09,-0.78 -37.88,-0.78 -87.42,0 -179.59,-2.84 -265.58,-3.17 1.23,-75.06 3.21,-149.36 4.74,-224.14 19.72,-9.28 33.73,-24.06 44.19,-43.8 3.38,-6.39 5.08,-14.76 12.62,-15.78 5.44,-0.74 11.92,0.48 18.56,0.79 186.45,8.67 373.48,19.99 558.37,29.2 72.53,3.62 144.27,6.15 216.25,11.44 208.88,15.37 423.76,33.07 632.56,49.72 23.41,1.87 46.87,3.16 69.85,5.92 134.87,16.27 270.77,33.29 405.66,49.34 11.36,1.34 22.41,2.19 33.15,4.72 50.27,11.94 102.21,24.58 152.32,37.09 40.77,10.19 81.74,18.98 121.92,29.6 5.39,1.43 7.12,3.1 9.09,7.89 8.21,19.98 15.33,40.72 23.68,60.39 3.34,7.86 6.26,16.25 10.64,22.89 0.53,0 1.06,0 1.58,0 0.93,-0.66 2.3,-0.87 2.77,-1.98 0,-0.66 0,-1.32 0,-1.97 -6.43,-19.24 -14.1,-40.98 -20.91,-60.38 -3.91,-11.13 -6.31,-20.13 -10.66,-29.99 -4.69,-10.63 -14.22,-10.46 -26.44,-13.81 -83.87,-23 -169.61,-46.1 -254.92,-69.46 -21.71,-5.94 -46.48,-7.47 -70.64,-10.65 -119,-15.61 -237.22,-30.97 -358.31,-46.96 -48.3,-6.38 -98.04,-9.8 -147.58,-14.6 -49.5,-4.79 -99.17,-8.71 -148.37,-13.42 -98.64,-9.42 -197.72,-18.28 -297.54,-26.82 -49.46,-4.24 -99.11,-10.65 -149.16,-13.03 -50.8,-2.42 -101.86,-5.58 -153.51,-8.28 -203.96,-10.7 -410.04,-23.62 -613.22,-35.13 6.77,-33.73 4.02,-64.16 -10.66,-85.63 -13.72,-20.05 -33.65,-34.73 -64.71,-37.09 -2.5,0 -5,0 -7.5,0 -31.08,3.68 -51.19,15.43 -64.72,36.7 -6.96,10.94 -11.93,22.8 -13.41,37.49 -1.19,11.74 -0.11,24.73 1.18,35.9 0.4,3.55 1.83,7.78 1.58,11.06 -0.2,2.45 -0.33,1.27 -1.58,1.97 -2.52,1.4 -12.74,0.76 -19.34,1.18 -248.65,15.73 -498.68,27.14 -747.39,42.22 -50.31,3.06 -99.98,8.05 -149.16,12.64 -147.96,13.78 -297.03,27.34 -445.522,40.63 -49.664,4.45 -99.028,7.75 -147.586,14.21 -120.426,16.06 -238.738,30.66 -358.309,46.96 -24.254,3.31 -48.289,5.07 -69.847,11.05 -84.368,23.42 -171.153,46.48 -254.9183,69.06 -11.5079,3.1 -22.0118,3.71 -26.4414,14.2 -11.6485,27.62 -20.0704,61.17 -31.1719,89.98 0,0.65 0,1.31 0,1.97 0.4648,1.11 1.8398,1.32 2.7656,1.98" />
        <g
           transform="scale(10)"
           id="g4501">
          <text
             id="text4505"
             style="font-variant:normal;font-weight:bold;font-size:211.39700317px;font-family:Arial;-inkscape-font-specification:Arial-BoldMT;writing-mode:lr-tb;fill:#231f20;fill-opacity:1;fill-rule:nonzero;stroke:#231f20;stroke-width:5;stroke-linecap:butt;stroke-linejoin:miter;stroke-miterlimit:10;stroke-dasharray:none;stroke-opacity:1"
             transform="matrix(1,0,0,-1,171.556,173.555)">
            <tspan
               id="tspan4503"
               y="0"
               x="0">G</tspan>
          </text>
        </g>
        <g
           transform="scale(10)"
           id="g4507">
          <text
             id="text4511"
             style="font-variant:normal;font-weight:bold;font-size:211.39700317px;font-family:Arial;-inkscape-font-specification:Arial-BoldMT;writing-mode:lr-tb;fill:#231f20;fill-opacity:1;fill-rule:nonzero;stroke:#231f20;stroke-width:5;stroke-linecap:butt;stroke-linejoin:miter;stroke-miterlimit:10;stroke-dasharray:none;stroke-opacity:1"
             transform="matrix(1,0,0,-1,329.646,173.555)">
            <tspan
               id="tspan4509"
               y="0"
               x="0">N</tspan>
          </text>
        </g>
        <g
           transform="scale(10)"
           id="g4513">
          <text
             id="text4517"
             style="font-variant:normal;font-weight:bold;font-size:77.39849854px;font-family:Arial;-inkscape-font-specification:Arial-BoldMT;writing-mode:lr-tb;fill:#231f20;fill-opacity:1;fill-rule:nonzero;stroke:none"
             transform="matrix(1,0,0,-1,0,29.1379)">
            <tspan
               id="tspan4515"
               sodipodi:role="line"
               y="0"
               x="0 47.277805 68.7817 90.285599 137.5634 180.6088 210.72939 258.00772 301.05261">glidernet</tspan>
          </text>
        </g>
        <g
           transform="scale(10)"
           id="g4519">
          <text
             id="text4523"
             style="font-variant:normal;font-weight:bold;font-size:77.39849854px;font-family:Arial;-inkscape-font-specification:Arial-BoldMT;writing-mode:lr-tb;fill:#ee252c;fill-opacity:1;fill-rule:nonzero;stroke:none"
             transform="matrix(1,0,0,-1,326.827,29.1379)">
            <tspan
               id="tspan4521"
               y="0"
               x="0">.</tspan>
          </text>
        </g>
        <g
           transform="scale(10)"
           id="g4525">
          <text
             id="text4529"
             style="font-variant:normal;font-weight:bold;font-size:77.39849854px;font-family:Arial;-inkscape-font-specification:Arial-BoldMT;writing-mode:lr-tb;fill:#231f20;fill-opacity:1;fill-rule:nonzero;stroke:none"
             transform="matrix(1,0,0,-1,348.331,29.1379)">
            <tspan
               id="tspan4527"
               sodipodi:role="line"
               y="0"
               x="0 47.277302 77.398399">org</tspan>
          </text>
        </g>
        <path
           inkscape:connector-curvature="0"
           id="path4531"
           style="fill:#110f10;fill-opacity:1;fill-rule:evenodd;stroke:none"
           d="m 277.266,2623.81 c -33.618,0 -67.239,0 -100.852,0 30.441,0.43 74.742,1.92 100.852,1.66 0.004,0 -0.004,-1.52 0,-1.66" />
        <path
           inkscape:connector-curvature="0"
           id="path4533"
           style="fill:#e09384;fill-opacity:1;fill-rule:evenodd;stroke:none"
           d="m 710.426,2577.52 c 2.781,1.37 11.269,1.37 14.047,0 -4.684,0 -9.368,0 -14.047,0" />
        <path
           inkscape:connector-curvature="0"
           id="path4535"
           style="fill:#ee272c;fill-opacity:1;fill-rule:evenodd;stroke:none"
           d="m 750.098,2577.52 c 16.816,0 33.625,0 50.429,0 0,-0.27 0,-0.54 0,-0.82 -16.191,-0.28 -34,-0.7 -50.429,0.82" />
        <path
           inkscape:connector-curvature="0"
           id="path4537"
           style="fill:#e09384;fill-opacity:1;fill-rule:evenodd;stroke:none"
           d="m 800.527,2576.7 c 0,0.28 0,0.55 0,0.82 8.543,-0.54 19.282,1.1 26.45,-0.82 -8.813,0 -17.629,0 -26.45,0" />
        <path
           inkscape:connector-curvature="0"
           id="path4539"
           style="fill:#e09384;fill-opacity:1;fill-rule:evenodd;stroke:none"
           d="m 827.809,2576.7 c 6.074,1.38 17.898,1.38 23.968,0 -7.988,0 -15.976,0 -23.968,0" />
        <path
           inkscape:connector-curvature="0"
           id="path4541"
           style="fill:#ee272c;fill-opacity:1;fill-rule:evenodd;stroke:none"
           d="m 24.3125,2523.79 c 0,0.28 0,0.56 0,0.83 -1.6641,7.94 4.7852,5.71 12.4023,5.78 41.754,0.44 90.3632,-0.33 127.3052,0 0,-3.3 0,-6.61 0,-9.91 -1.907,-1.96 -0.297,-7.42 -0.832,-10.75 0,-13.51 0,-27 0,-40.51 0.535,-3.59 -1.079,-9.34 0.832,-11.57 10.585,-185.61 81.14,-311.22 173.585,-414.97 3.516,-4.21 7.375,-8.07 11.579,-11.57 4.336,-5.04 9.023,-9.72 14.046,-14.06 3.516,-4.2 7.375,-8.06 11.579,-11.58 43.812,-40.21 92.746,-75.33 148.789,-103.33 -20.473,-42.34 -43.785,-81.84 -65.301,-123.16 -81.692,41.75 -151.91,94.98 -212.442,157.89 -2.414,3.1 -5.167,5.86 -8.265,8.26 -113.856,127.27 -200.3283,281.89 -213.2775,510.04 -0.5312,3.6 1.0781,9.35 -0.8281,11.58 0,15.15 0,30.31 0,45.46 1.9062,2.23 0.2969,7.97 0.8281,11.57" />
        <path
           inkscape:connector-curvature="0"
           id="path4543"
           style="fill:#ee272c;fill-opacity:1;fill-rule:evenodd;stroke:none"
           d="m 260.73,2506.43 c -0.433,8.7 1.465,15.07 0.833,23.97 38.847,0 77.699,0 116.55,0 0,-2.2 0,-4.4 0,-6.61 -1.886,-1.14 -0.304,-5.75 -0.828,-8.26 0,-1.93 0,-3.87 0,-5.79 -1.91,-3.05 -0.281,-9.63 -0.82,-14.05 0,-0.28 0,-0.55 0,-0.83 0.543,-8.27 -1.106,-18.73 0.82,-25.63 6.403,-126.13 54.426,-210.65 116.559,-281.05 8.469,-9.16 17.289,-17.98 26.453,-26.46 30.797,-28.16 65.531,-52.39 104.984,-71.91 -17.769,-34.32 -36.238,-67.92 -54.558,-101.68 -49.633,23.1 -90.914,54.57 -129.785,88.45 -3.235,3.92 -6.817,7.52 -10.743,10.75 -3.925,3.23 -7.515,6.81 -10.746,10.74 -3.515,4.2 -7.375,8.07 -11.574,11.57 -79.168,90.85 -140.055,199.97 -147.145,362.9 0,11.3 0,22.6 0,33.89" />
        <path
           inkscape:connector-curvature="0"
           id="path4545"
           style="fill:#ee272c;fill-opacity:1;fill-rule:evenodd;stroke:none"
           d="m 474.004,2509.74 c 0.129,7.32 0.945,13.93 1.648,20.66 31.145,0 62.278,0 93.414,0 -0.253,-7.73 -2.281,-13.7 -1.648,-22.31 -1.383,-8 -1.383,-21.77 0,-29.77 9.805,-112.53 68.527,-176.15 151.273,-215.75 -14.457,-27.42 -29.628,-54.14 -43.808,-81.83 -36.133,15.12 -65.278,37.22 -92.586,61.17 -4.891,5.57 -10.129,10.81 -15.711,15.7 -49.027,54.86 -86.551,121.21 -92.582,219.06 0,11.02 0,22.05 0,33.07" />
        <path
           inkscape:connector-curvature="0"
           id="path4547"
           style="fill:#e09384;fill-opacity:1;fill-rule:evenodd;stroke:none"
           d="m 23.4844,2523.79 c 0.2773,0 0.5586,0 0.8281,0 -0.5312,-3.6 1.0781,-9.34 -0.8281,-11.57 0,3.86 0,7.71 0,11.57" />
        <path
           inkscape:connector-curvature="0"
           id="path4549"
           style="fill:#e09384;fill-opacity:1;fill-rule:evenodd;stroke:none"
           d="m 378.113,2523.79 c -0.515,-2.51 1.059,-7.12 -0.828,-8.26 0.524,2.51 -1.058,7.12 0.828,8.26" />
        <path
           inkscape:connector-curvature="0"
           id="path4551"
           style="fill:#e09384;fill-opacity:1;fill-rule:evenodd;stroke:none"
           d="m 164.02,2520.49 c -0.536,-3.33 1.074,-8.79 -0.832,-10.75 0.535,3.33 -1.075,8.79 0.832,10.75" />
        <path
           inkscape:connector-curvature="0"
           id="path4553"
           style="fill:#e09384;fill-opacity:1;fill-rule:evenodd;stroke:none"
           d="m 377.285,2509.74 c -0.531,-4.42 1.09,-11.01 -0.82,-14.05 0.539,4.42 -1.09,11 0.82,14.05" />
        <path
           inkscape:connector-curvature="0"
           id="path4555"
           style="fill:#e09384;fill-opacity:1;fill-rule:evenodd;stroke:none"
           d="m 474.004,2509.74 c 0,-11.02 0,-22.05 0,-33.07 -1.375,9.1 -1.375,23.97 0,33.07" />
        <path
           inkscape:connector-curvature="0"
           id="path4557"
           style="fill:#e09384;fill-opacity:1;fill-rule:evenodd;stroke:none"
           d="m 567.418,2508.09 c 0,-9.92 0,-19.84 0,-29.77 -1.383,8 -1.383,21.77 0,29.77" />
        <path
           inkscape:connector-curvature="0"
           id="path4559"
           style="fill:#e09384;fill-opacity:1;fill-rule:evenodd;stroke:none"
           d="m 260.73,2506.43 c 0,-11.29 0,-22.59 0,-33.89 -1.375,9.37 -1.375,24.52 0,33.89" />
        <path
           inkscape:connector-curvature="0"
           id="path4561"
           style="fill:#e09384;fill-opacity:1;fill-rule:evenodd;stroke:none"
           d="m 376.465,2494.86 c 1.918,-6.89 0.277,-17.36 0.82,-25.63 -1.926,6.9 -0.277,17.36 -0.82,25.63" />
        <path
           inkscape:connector-curvature="0"
           id="path4563"
           style="fill:#e09384;fill-opacity:1;fill-rule:evenodd;stroke:none"
           d="m 163.188,2469.23 c 1.906,-2.22 0.292,-7.97 0.832,-11.57 -1.911,2.23 -0.297,7.98 -0.832,11.57" />
        <path
           inkscape:connector-curvature="0"
           id="path4565"
           style="fill:#e09384;fill-opacity:1;fill-rule:evenodd;stroke:none"
           d="m 23.4844,2466.76 c 1.9062,-2.23 0.2969,-7.98 0.8281,-11.58 -0.2695,0 -0.5508,0 -0.8281,0 0,3.86 0,7.72 0,11.58" />
        <path
           inkscape:connector-curvature="0"
           id="path4567"
           style="fill:#110f10;fill-opacity:1;fill-rule:evenodd;stroke:none"
           d="m 813.75,2045.17 c 4.961,0 9.922,0 14.883,0 -3.051,-1.38 -11.82,-1.38 -14.883,0" />
        <path
           inkscape:connector-curvature="0"
           id="path4569"
           style="fill:#110f10;fill-opacity:1;fill-rule:evenodd;stroke:none"
           d="m 812.926,1927.79 c 3.871,1.91 11.289,0.28 16.539,0.82 -3.875,-1.91 -11.289,-0.29 -16.539,-0.82" />
        <path
           inkscape:connector-curvature="0"
           id="path4571"
           style="fill:#110f10;fill-opacity:1;fill-rule:evenodd;stroke:none"
           d="m 800.527,1831.07 c 1.414,1.89 6.313,0.3 9.09,0.83 -1.414,-1.9 -6.312,-0.31 -9.09,-0.83" />
        <path
           inkscape:connector-curvature="0"
           id="path4573"
           style="fill:#110f10;fill-opacity:1;fill-rule:evenodd;stroke:none"
           d="m 832.77,1831.07 c 1.414,1.89 6.308,0.3 9.089,0.83 -1.414,-1.9 -6.308,-0.31 -9.089,-0.83" />
        <path
           inkscape:connector-curvature="0"
           id="path4575"
           style="fill:#110f10;fill-opacity:1;fill-rule:evenodd;stroke:none"
           d="m 1129.53,2809.81 c 4.48,-3.79 8.61,-7.92 12.4,-12.4 -4.48,3.79 -8.61,7.92 -12.4,12.4" />
        <path
           inkscape:connector-curvature="0"
           id="path4577"
           style="fill:#e09384;fill-opacity:1;fill-rule:evenodd;stroke:none"
           d="m 237.59,1945.14 c 3.098,-2.4 5.851,-5.16 8.265,-8.26 -3.105,2.4 -5.855,5.17 -8.265,8.26" />
        <path
           inkscape:connector-curvature="0"
           id="path4579"
           style="fill:#e09384;fill-opacity:1;fill-rule:evenodd;stroke:none"
           d="m 363.23,2017.06 c 4.208,-3.51 8.063,-7.37 11.579,-11.58 -4.204,3.52 -8.063,7.38 -11.579,11.58" />
        <path
           inkscape:connector-curvature="0"
           id="path4581"
           style="fill:#e09384;fill-opacity:1;fill-rule:evenodd;stroke:none"
           d="m 337.605,2042.69 c 4.208,-3.52 8.063,-7.37 11.579,-11.57 -4.204,3.5 -8.063,7.36 -11.579,11.57" />
        <path
           inkscape:connector-curvature="0"
           id="path4583"
           style="fill:#110f10;fill-opacity:1;fill-rule:evenodd;stroke:none"
           d="m 1275.85,2965.21 c 4.2,-3.55 15.21,-14.49 21.48,-21.48 -4.2,3.56 -15.21,14.5 -21.48,21.48" />
        <path
           inkscape:connector-curvature="0"
           id="path4585"
           style="fill:#110f10;fill-opacity:1;fill-rule:evenodd;stroke:none"
           d="m 362.406,2961.09 c -0.593,-1.18 -8.383,-9.16 -12.394,-12.41 0.593,1.19 8.386,9.16 12.394,12.41" />
        <path
           inkscape:connector-curvature="0"
           id="path4587"
           style="fill:#110f10;fill-opacity:1;fill-rule:evenodd;stroke:none"
           d="m 1204.76,2899.09 c -0.74,1.13 5.28,-4.39 6.61,-6.61 0.73,-1.14 -5.29,4.38 -6.61,6.61" />
        <path
           inkscape:connector-curvature="0"
           id="path4589"
           style="fill:#110f10;fill-opacity:1;fill-rule:evenodd;stroke:none"
           d="m 434.324,2895.78 c -3.011,-3.65 -13.394,-14.12 -19.836,-19.84 3.012,3.65 13.395,14.12 19.836,19.84" />
        <path
           inkscape:connector-curvature="0"
           id="path4591"
           style="fill:#110f10;fill-opacity:1;fill-rule:evenodd;stroke:none"
           d="m 1224.59,2879.25 c -0.72,1.14 5.29,-4.39 6.62,-6.61 0.72,-1.14 -5.29,4.38 -6.62,6.61" />
        <path
           inkscape:connector-curvature="0"
           id="path4593"
           style="fill:#eb1e28;fill-opacity:1;fill-rule:evenodd;stroke:none"
           d="m 851.777,2576.7 c 14.375,0 28.848,0 44.645,0 14.418,0 33.086,2.64 36.367,-7.44 3.024,-9.27 -6.344,-20.73 -10.742,-28.11 -26.828,-45.03 -45.879,-84.87 -71.094,-131.44 -3.933,-7.25 -9.598,-15.66 -14.879,-25.62 -4.176,-7.86 -9.254,-21.32 -18.183,-21.49 -9.411,-0.19 -15.711,13.95 -19.844,21.49 -29.879,54.46 -54.871,104.3 -86.797,157.89 -5.367,9 -22.359,32.7 -0.824,35.54 4.679,0 9.363,0 14.047,0 8.547,0 17.09,0 25.625,0 16.429,-1.52 34.238,-1.1 50.429,-0.82 8.821,0 17.637,0 26.45,0 0.281,0 0.55,0 0.832,0 7.992,0 15.98,0 23.968,0" />
        <path
           inkscape:connector-curvature="0"
           id="path4595"
           style="fill:#e09384;fill-opacity:1;fill-rule:evenodd;stroke:none"
           d="m 407.875,2109.64 c 4.199,-3.5 8.059,-7.37 11.574,-11.57 -4.207,3.52 -8.066,7.37 -11.574,11.57" />
        <path
           inkscape:connector-curvature="0"
           id="path4597"
           style="fill:#e09384;fill-opacity:1;fill-rule:evenodd;stroke:none"
           d="m 430.195,2087.33 c 3.926,-3.23 7.508,-6.83 10.743,-10.75 -3.926,3.24 -7.508,6.81 -10.743,10.75" />
        <path
           inkscape:connector-curvature="0"
           id="path4599"
           style="fill:#e09384;fill-opacity:1;fill-rule:evenodd;stroke:none"
           d="m 493.844,2188.18 c 9.164,-8.48 17.976,-17.3 26.453,-26.46 -9.164,8.48 -17.984,17.3 -26.453,26.46" />
        <path
           inkscape:connector-curvature="0"
           id="path4601"
           style="fill:#e09384;fill-opacity:1;fill-rule:evenodd;stroke:none"
           d="m 566.586,2257.61 c 5.582,-4.89 10.82,-10.13 15.711,-15.7 -5.582,4.89 -10.817,10.13 -15.711,15.7" />
        <path
           inkscape:connector-curvature="0"
           id="path4603"
           style="fill:#110f10;fill-opacity:1;fill-rule:evenodd;stroke:none"
           d="m 1222.94,2097.24 c 0.43,-0.08 -6.12,-6.94 -9.09,-9.09 -0.43,0.09 6.13,6.94 9.09,9.09" />
        <path
           inkscape:connector-curvature="0"
           id="path4605"
           style="fill:#050607;fill-opacity:1;fill-rule:evenodd;stroke:none"
           d="m 792.262,1691.36 c -94.532,4.67 -176.379,22.02 -247.992,49.6 41.925,79.81 86.179,159.45 128.128,238.08 14.2,26.61 27.075,53.66 43.813,78.53 29.48,-7.17 61.434,-11.86 97.539,-12.4 3.063,-1.38 11.832,-1.38 14.883,0 102.812,3 182.967,34.53 247.997,80.18 63.63,44.66 115.8,106.45 148.79,179.38 33.69,74.46 51.3,176.49 30.59,277.75 -18.24,89.16 -63.18,158.79 -114.08,214.93 -3.79,4.48 -7.92,8.61 -12.4,12.4 -49.62,45.23 -109.76,85.16 -184.339,106.64 -77.16,22.22 -177.601,21.25 -254.605,-2.49 -146.57,-45.17 -243.508,-150.24 -293.457,-290.15 -39.957,0 -79.906,0 -119.863,0 -0.004,0.14 0.004,1.66 0,1.66 -26.11,0.26 -70.411,-1.23 -100.852,-1.66 -47.394,0 -94.789,0 -142.1796,0 36.6289,197.57 129.6756,350.55 256.2576,461.27 128.028,111.99 287.938,194.45 517.477,202.53 8.816,0 17.636,0 26.457,0 249.304,-11.38 419.724,-102.3 551.364,-233.94 113.27,-113.27 200.22,-261.22 226.5,-459.61 3.86,-29.18 6.57,-60.7 7.44,-91.76 0,-8.81 0,-17.64 0,-26.45 -3.41,-124.68 -30.98,-227.77 -71.92,-317.43 -78.81,-172.58 -212.43,-309.89 -384.39,-391 -65.93,-31.11 -139.39,-55.74 -223.19,-67.8 -28.335,-4.06 -59.949,-6.21 -90.101,-8.26 -19.293,0 -38.582,0 -57.867,0" />
      </g>
    </g>
    <rect
       style="opacity:1;fill:#000000;fill-opacity:1;stroke:none;stroke-width:0.54301596;stroke-linecap:square;stroke-linejoin:round;stroke-miterlimit:4;stroke-dasharray:none;stroke-dashoffset:0;stroke-opacity:1"
       id="rect4562"
       width="51.499996"
       height="6.44485"
       x="52.357147"
       y="184.85182" />
    <text
       xml:space="preserve"
       style="font-style:normal;font-variant:normal;font-weight:bold;font-stretch:normal;font-size:5.64444447px;line-height:125%;font-family:sans-serif;-inkscape-font-specification:'sans-serif, Bold';font-variant-ligatures:normal;font-variant-caps:normal;font-variant-numeric:normal;font-feature-settings:normal;text-align:start;letter-spacing:0px;word-spacing:0px;writing-mode:lr-tb;text-anchor:start;fill:#ffffff;fill-opacity:1;stroke:none;stroke-width:0.26458332px;stroke-linecap:butt;stroke-linejoin:miter;stroke-opacity:1"
       x="66.337318"
       y="190.12891"
       id="text4665"><tspan
         sodipodi:role="line"
         id="tspan4663"
         x="66.337318"
         y="190.12891"
         style="font-style:normal;font-variant:normal;font-weight:bold;font-stretch:normal;font-size:5.64444447px;font-family:sans-serif;-inkscape-font-specification:'sans-serif, Bold';font-variant-ligatures:normal;font-variant-caps:normal;font-variant-numeric:normal;font-feature-settings:normal;text-align:start;writing-mode:lr-tb;text-anchor:start;fill:#ffffff;fill-opacity:1;stroke-width:0.26458332px">338921</tspan></text>
    <text
       xml:space="preserve"
       style="font-style:normal;font-variant:normal;font-weight:600;font-stretch:normal;font-size:5.64444447px;line-height:125%;font-family:FreeSans;-inkscape-font-specification:'FreeSans, Semi-Bold';font-variant-ligatures:normal;font-variant-caps:normal;font-variant-numeric:normal;font-feature-settings:normal;text-align:start;letter-spacing:0px;word-spacing:0px;writing-mode:lr-tb;text-anchor:start;fill:#000000;fill-opacity:1;stroke:none;stroke-width:0.26458332px;stroke-linecap:butt;stroke-linejoin:miter;stroke-opacity:1"
       x="54.508938"
       y="150.97412"
       id="text4669"><tspan
         sodipodi:role="line"
         x="54.508938"
         y="150.97412"
         style="font-style:normal;font-variant:normal;font-weight:600;font-stretch:normal;font-size:5.64444447px;font-family:FreeSans;-inkscape-font-specification:'FreeSans, Semi-Bold';font-variant-ligatures:normal;font-variant-caps:normal;font-variant-numeric:normal;font-feature-settings:normal;text-align:start;writing-mode:lr-tb;text-anchor:start;stroke-width:0.26458332px"
         id="tspan4677">Ked Tracker</tspan></text>
    <text
       xml:space="preserve"
       style="font-style:normal;font-variant:normal;font-weight:normal;font-stretch:normal;font-size:3.17499995px;line-height:125%;font-family:FreeSans;-inkscape-font-specification:'FreeSans, Normal';font-variant-ligatures:normal;font-variant-caps:normal;font-variant-numeric:normal;font-feature-settings:normal;text-align:start;letter-spacing:0px;word-spacing:0px;writing-mode:lr-tb;text-anchor:start;fill:#000000;fill-opacity:1;stroke:none;stroke-width:0.26458332px;stroke-linecap:butt;stroke-linejoin:miter;stroke-opacity:1"
       x="94.758965"
       y="151.03091"
       id="text4683"><tspan
         sodipodi:role="line"
         id="tspan4681"
         x="94.758965"
         y="151.03091"
         style="font-style:normal;font-variant:normal;font-weight:normal;font-stretch:normal;font-size:3.17499995px;font-family:FreeSans;-inkscape-font-specification:'FreeSans, Normal';font-variant-ligatures:normal;font-variant-caps:normal;font-variant-numeric:normal;font-feature-settings:normal;text-align:start;writing-mode:lr-tb;text-anchor:start;stroke-width:0.26458332px">v0.2</tspan></text>
    <text
       xml:space="preserve"
       style="font-style:normal;font-variant:normal;font-weight:normal;font-stretch:normal;font-size:2.11666656px;line-height:125%;font-family:FreeSans;-inkscape-font-specification:'FreeSans, Normal';font-variant-ligatures:normal;font-variant-caps:normal;font-variant-numeric:normal;font-feature-settings:normal;text-align:start;letter-spacing:0px;word-spacing:0px;writing-mode:lr-tb;text-anchor:start;fill:#000000;fill-opacity:1;stroke:none;stroke-width:0.26458332px;stroke-linecap:butt;stroke-linejoin:miter;stroke-opacity:1"
       x="54.896996"
       y="161.20137"
       id="text4687"><tspan
         sodipodi:role="line"
         x="54.896996"
         y="161.20137"
         style="font-style:normal;font-variant:normal;font-weight:normal;font-stretch:normal;font-size:2.11666656px;font-family:FreeSans;-inkscape-font-specification:'FreeSans, Normal';font-variant-ligatures:normal;font-variant-caps:normal;font-variant-numeric:normal;font-feature-settings:normal;text-align:start;writing-mode:lr-tb;text-anchor:start;stroke-width:0.26458332px"
         id="tspan4689">Open Glider Network tracker made by Andrey </tspan><tspan
         sodipodi:role="line"
         x="54.896996"
         y="163.8472"
         style="font-style:normal;font-variant:normal;font-weight:normal;font-stretch:normal;font-size:2.11666656px;font-family:FreeSans;-inkscape-font-specification:'FreeSans, Normal';font-variant-ligatures:normal;font-variant-caps:normal;font-variant-numeric:normal;font-feature-settings:normal;text-align:start;writing-mode:lr-tb;text-anchor:start;stroke-width:0.26458332px"
         id="tspan4570">Lebedev, andrey.lebedev@gmail.com.</tspan><tspan
         sodipodi:role="line"
         x="54.896996"
         y="166.49304"
         style="font-style:normal;font-variant:normal;font-weight:normal;font-stretch:normal;font-size:2.11666656px;font-family:FreeSans;-inkscape-font-specification:'FreeSans, Normal';font-variant-ligatures:normal;font-variant-caps:normal;font-variant-numeric:normal;font-feature-settings:normal;text-align:start;writing-mode:lr-tb;text-anchor:start;stroke-width:0.26458332px"
         id="tspan4712" /><tspan
         sodipodi:role="line"
         x="54.896996"
         y="169.13887"
         style="font-style:normal;font-variant:normal;font-weight:normal;font-stretch:normal;font-size:2.11666656px;font-family:FreeSans;-inkscape-font-specification:'FreeSans, Normal';font-variant-ligatures:normal;font-variant-caps:normal;font-variant-numeric:normal;font-feature-settings:normal;text-align:start;writing-mode:lr-tb;text-anchor:start;stroke-width:0.26458332px"
         id="tspan4714">Open Source project is under development at  </tspan><tspan
         sodipodi:role="line"
         x="54.896996"
         y="171.7847"
         style="font-style:normal;font-variant:normal;font-weight:normal;font-stretch:normal;font-size:2.11666656px;font-family:FreeSans;-inkscape-font-specification:'FreeSans, Normal';font-variant-ligatures:normal;font-variant-caps:normal;font-variant-numeric:normal;font-feature-settings:normal;text-align:start;writing-mode:lr-tb;text-anchor:start;stroke-width:0.26458332px"
         id="tspan4574">https://github.com/kedder/kedtracker. Based</tspan><tspan
         sodipodi:role="line"
         x="54.896996"
         y="174.43054"
         style="font-style:normal;font-variant:normal;font-weight:normal;font-stretch:normal;font-size:2.11666656px;font-family:FreeSans;-inkscape-font-specification:'FreeSans, Normal';font-variant-ligatures:normal;font-variant-caps:normal;font-variant-numeric:normal;font-feature-settings:normal;text-align:start;writing-mode:lr-tb;text-anchor:start;stroke-width:0.26458332px"
         id="tspan4724">on reference implementation of glidernet.org.</tspan></text>
    <text
       xml:space="preserve"
       style="font-style:normal;font-variant:normal;font-weight:normal;font-stretch:normal;font-size:2.82222223px;line-height:125%;font-family:'Coming Soon';-inkscape-font-specification:'Coming Soon, Normal';font-variant-ligatures:normal;font-variant-caps:normal;font-variant-numeric:normal;font-feature-settings:normal;text-align:start;letter-spacing:0px;word-spacing:0px;writing-mode:lr-tb;text-anchor:start;fill:#000000;fill-opacity:1;stroke:none;stroke-width:0.26458332px;stroke-linecap:butt;stroke-linejoin:miter;stroke-opacity:1"
       x="54.919155"
       y="181.34157"
       id="text4587"><tspan
         sodipodi:role="line"
         id="tspan4567"
         x="54.919155"
         y="181.34157">this is your aircraft id</tspan></text>
    <g
       id="g4600"
       transform="translate(-4.5287144,-0.04428031)">
      <path
         sodipodi:nodetypes="ccc"
         inkscape:connector-curvature="0"
         id="path4592"
         d="m 88.77989,180.39272 c 1.626587,-0.45939 2.18558,0.0498 2.5207,0.6195 0.35043,0.7279 -0.790332,2.48284 -1.878301,3.22305"
         style="fill:none;fill-rule:evenodd;stroke:#000000;stroke-width:0.16500001;stroke-linecap:butt;stroke-linejoin:miter;stroke-miterlimit:4;stroke-dasharray:none;stroke-opacity:1" />
      <path
         sodipodi:nodetypes="ccc"
         inkscape:connector-curvature="0"
         id="path4596"
         d="m 89.748295,181.85957 c -0.04678,0.86616 -0.186596,1.62069 -0.326006,2.3757 0.900226,-0.0769 1.782947,-0.18005 2.5334,-0.48161"
         style="fill:none;fill-rule:evenodd;stroke:#000000;stroke-width:0.16500001;stroke-linecap:round;stroke-linejoin:miter;stroke-miterlimit:4;stroke-dasharray:none;stroke-opacity:1" />
    </g>
    <text
       xml:space="preserve"
       style="font-style:normal;font-variant:normal;font-weight:normal;font-stretch:normal;font-size:3.17499995px;line-height:125%;font-family:FreeSans;-inkscape-font-specification:'FreeSans, Normal';font-variant-ligatures:normal;font-variant-caps:normal;font-variant-numeric:normal;font-feature-settings:normal;text-align:start;letter-spacing:0px;word-spacing:0px;writing-mode:lr-tb;text-anchor:start;fill:#000000;fill-opacity:1;stroke:none;stroke-width:0.26458332px;stroke-linecap:butt;stroke-linejoin:miter;stroke-opacity:1"
       x="54.808094"
       y="155.75504"
       id="text4683-5"><tspan
         sodipodi:role="line"
         id="tspan4681-0"
         x="54.808094"
         y="155.75504"
         style="font-style:normal;font-variant:normal;font-weight:normal;font-stretch:normal;font-size:3.17499995px;font-family:FreeSans;-inkscape-font-specification:'FreeSans, Normal';font-variant-ligatures:normal;font-variant-caps:normal;font-variant-numeric:normal;font-feature-settings:normal;text-align:start;writing-mode:lr-tb;text-anchor:start;stroke-width:0.26458332px">SN: 00001</tspan></text>
  </g>
</svg>
